<svg width="34" height="27" viewBox="0 0 34 27"   xmlns="http://www.w3.org/2000/svg">
<path fill-rule="evenodd" clip-rule="evenodd" d="M21.6295 8.08978C21.6295 7.30423 22.2663 6.66743 23.0518 6.66743H32.1549C32.9404 6.66743 33.5772 7.30423 33.5772 8.08978C33.5772 8.87532 32.9404 9.51213 32.1549 9.51213H23.0518C22.2663 9.51213 21.6295 8.87532 21.6295 8.08978Z" fill="#8D96B2"/>
<path fill-rule="evenodd" clip-rule="evenodd" d="M21.6295 13.7792C21.6295 12.9936 22.2663 12.3568 23.0518 12.3568H32.1549C32.9404 12.3568 33.5772 12.9936 33.5772 13.7792C33.5772 14.5647 32.9404 15.2015 32.1549 15.2015H23.0518C22.2663 15.2015 21.6295 14.5647 21.6295 13.7792Z" fill="#8D96B2"/>
<path fill-rule="evenodd" clip-rule="evenodd" d="M6.83704 19.4686C6.83704 18.683 7.47385 18.0462 8.25939 18.0462H32.1549C32.9404 18.0462 33.5772 18.683 33.5772 19.4686C33.5772 20.2541 32.9404 20.8909 32.1549 20.8909H8.25939C7.47385 20.8909 6.83704 20.2541 6.83704 19.4686Z" fill="#8D96B2"/>
<path fill-rule="evenodd" clip-rule="evenodd" d="M6.83704 25.158C6.83704 24.3724 7.47385 23.7356 8.25939 23.7356H32.1549C32.9404 23.7356 33.5772 24.3724 33.5772 25.158C33.5772 25.9435 32.9404 26.5803 32.1549 26.5803H8.25939C7.47385 26.5803 6.83704 25.9435 6.83704 25.158Z" fill="#8D96B2"/>
<path fill-rule="evenodd" clip-rule="evenodd" d="M0.00976562 2.40038C0.00976562 1.61483 0.646573 0.978027 1.43212 0.978027H3.70787C4.49342 0.978027 5.13022 1.61483 5.13022 2.40038C5.13022 3.18592 4.49342 3.82273 3.70787 3.82273H1.43212C0.646573 3.82273 0.00976562 3.18592 0.00976562 2.40038Z" fill="#8D96B2"/>
<path fill-rule="evenodd" clip-rule="evenodd" d="M13.6643 2.40038C13.6643 1.61483 14.3011 0.978027 15.0867 0.978027H17.3624C18.148 0.978027 18.7848 1.61483 18.7848 2.40038C18.7848 3.18592 18.148 3.82273 17.3624 3.82273H15.0867C14.3011 3.82273 13.6643 3.18592 13.6643 2.40038Z" fill="#8D96B2"/>
<path fill-rule="evenodd" clip-rule="evenodd" d="M0.00976562 13.7792C0.00976562 12.9936 0.646573 12.3568 1.43212 12.3568H4.84575C5.6313 12.3568 6.2681 12.9936 6.2681 13.7792C6.2681 14.5647 5.6313 15.2015 4.84575 15.2015H1.43212C0.646573 15.2015 0.00976562 14.5647 0.00976562 13.7792Z" fill="#8D96B2"/>
<path fill-rule="evenodd" clip-rule="evenodd" d="M12.5264 13.7792C12.5264 12.9936 13.1632 12.3568 13.9488 12.3568H17.3624C18.148 12.3568 18.7848 12.9936 18.7848 13.7792C18.7848 14.5647 18.148 15.2015 17.3624 15.2015H13.9488C13.1632 15.2015 12.5264 14.5647 12.5264 13.7792Z" fill="#8D96B2"/>
<path fill-rule="evenodd" clip-rule="evenodd" d="M3.31576 1.03354C3.92569 0.858615 4.57773 1.10886 4.91402 1.64693L9.39727 8.82013L13.8805 1.64693C14.2168 1.10886 14.8689 0.858615 15.4788 1.03354C16.0887 1.20847 16.509 1.76625 16.509 2.40077V13.7796C16.509 14.5651 15.8722 15.2019 15.0867 15.2019C14.3011 15.2019 13.6643 14.5651 13.6643 13.7796V7.36022L10.6034 12.2577C10.3435 12.6735 9.88768 12.9262 9.39727 12.9262C8.90686 12.9262 8.45104 12.6735 8.19112 12.2577L5.13022 7.36022V13.7796C5.13022 14.5651 4.49342 15.2019 3.70787 15.2019C2.92233 15.2019 2.28553 14.5651 2.28553 13.7796V2.40077C2.28553 1.76625 2.70582 1.20847 3.31576 1.03354Z" fill="#8D96B2"/>
</svg>
