<svg width="25" height="26" viewBox="0 0 25 26" fill="none" xmlns="http://www.w3.org/2000/svg">
<path fill-rule="evenodd" clip-rule="evenodd" d="M9.69075 1.11278C11.4682 -0.296057 13.9914 -0.296057 15.7688 1.11278L15.7718 1.1151L23.3117 7.12821C24.293 7.88304 24.8783 9.04247 24.8953 10.2811L24.8954 10.2983V20.307C24.8954 23.1877 22.54 25.5015 19.6611 25.5015H17.4536C17.444 25.5015 17.4343 25.5014 17.4246 25.5012C15.9899 25.4679 14.8238 24.3032 14.824 22.8529C14.824 22.8528 14.824 22.8531 14.824 22.8529V19.3236C14.824 19.1267 14.6593 18.9456 14.4295 18.9456H11.124C10.8968 18.9485 10.7349 19.1283 10.7349 19.3236V22.842C10.7349 22.9521 10.7207 23.0589 10.6939 23.1606C10.5352 24.4883 9.3971 25.5015 8.03906 25.5015H5.83166C2.95267 25.5015 0.59729 23.1877 0.59729 20.307V10.2968C0.609553 9.05556 1.19589 7.89277 2.18096 7.13908L9.69075 1.11278ZM8.23491 22.842V19.3237C8.23488 17.7299 9.53081 16.4561 11.1101 16.4456L11.1184 16.4456L14.4295 16.4456C16.0162 16.4456 17.324 17.7223 17.324 19.3236V22.8529C17.324 22.9203 17.3799 22.9955 17.4749 23.0015H19.6611C21.1831 23.0015 22.3954 21.7834 22.3954 20.307V10.3081C22.3868 9.84015 22.1639 9.39727 21.783 9.10637L21.7623 9.09022L14.2159 3.07197C14.2155 3.07165 14.2151 3.07132 14.2147 3.071C13.3479 2.38492 12.1135 2.38454 11.2463 3.06986L3.73333 9.09878C3.72429 9.10603 3.71515 9.11316 3.70592 9.12015C3.32534 9.40853 3.10352 9.85022 3.09729 10.3163V20.307C3.09729 21.7834 4.30963 23.0015 5.83166 23.0015H8.03906C8.14691 23.0015 8.21284 22.9183 8.21284 22.842H8.23491Z" fill="white"/>
</svg>
