<svg width="36" height="26" viewBox="0 0 36 26" fill="none" xmlns="http://www.w3.org/2000/svg">
<path fill-rule="evenodd" clip-rule="evenodd" d="M12.9297 10.6338C12.9297 9.94343 13.4893 9.38379 14.1797 9.38379H26.8585C27.5488 9.38379 28.1085 9.94343 28.1085 10.6338C28.1085 11.3241 27.5488 11.8838 26.8585 11.8838H14.1797C13.4893 11.8838 12.9297 11.3241 12.9297 10.6338Z" fill="white"/>
<path fill-rule="evenodd" clip-rule="evenodd" d="M12.9297 15.7048C12.9297 15.0145 13.4893 14.4548 14.1797 14.4548H26.8585C27.5488 14.4548 28.1085 15.0145 28.1085 15.7048C28.1085 16.3952 27.5488 16.9548 26.8585 16.9548H14.1797C13.4893 16.9548 12.9297 16.3952 12.9297 15.7048Z" fill="white"/>
<path fill-rule="evenodd" clip-rule="evenodd" d="M7.8388 3.0083C7.83406 3.0083 7.82951 3.01018 7.82615 3.01354C7.8228 3.01689 7.82092 3.02144 7.82092 3.02618V22.0444C7.82092 22.487 7.7434 22.9217 7.59589 23.3301H31.9285C32.2695 23.3301 32.5966 23.1947 32.8377 22.9536C33.0788 22.7124 33.2143 22.3854 33.2143 22.0444V3.02618C33.2143 3.02144 33.2124 3.01689 33.209 3.01354C33.2057 3.01019 33.2011 3.0083 33.1964 3.0083H7.8388ZM4.03516 25.8301H31.9285C32.9326 25.8301 33.8955 25.4313 34.6055 24.7213C35.3154 24.0114 35.7143 23.0484 35.7143 22.0444V3.02618C35.7143 2.3584 35.449 1.71797 34.9768 1.24577C34.5046 0.773577 33.8642 0.508301 33.1964 0.508301H7.8388C7.17101 0.508301 6.53058 0.773578 6.05839 1.24577C5.58619 1.71796 5.32092 2.3584 5.32092 3.02618V22.0444C5.32092 22.3854 5.18545 22.7124 4.94433 22.9536C4.7032 23.1947 4.37616 23.3301 4.03516 23.3301C3.3448 23.3301 2.78516 23.8898 2.78516 24.5801C2.78516 25.2705 3.3448 25.8301 4.03516 25.8301Z" fill="white"/>
<path fill-rule="evenodd" clip-rule="evenodd" d="M1.50195 5.57983C2.19231 5.57983 2.75195 6.13948 2.75195 6.82983V22.0444C2.75195 22.3854 2.88742 22.7124 3.12854 22.9536C3.36967 23.1947 3.69671 23.3302 4.03771 23.3302C4.72807 23.3302 5.28771 23.8898 5.28771 24.5802C5.28771 25.2705 4.72807 25.8302 4.03771 25.8302C3.03367 25.8302 2.07074 25.4313 1.36078 24.7213C0.650809 24.0114 0.251953 23.0484 0.251953 22.0444V6.82983C0.251953 6.13948 0.811597 5.57983 1.50195 5.57983Z" fill="white"/>
</svg>
