<svg width="27" height="27" viewBox="0 0 27 27" fill="none" xmlns="http://www.w3.org/2000/svg">
<path d="M12.0292 14.1377H4.15322C1.92696 14.1377 0.290839 12.4824 0.260373 10.2562C0.244576 9.07928 0.534565 8.04232 1.37971 7.19605C1.91153 6.65606 2.59517 6.29082 3.33967 6.14893C3.4085 6.13539 3.4762 6.1162 3.55632 6.09702C3.62627 3.58642 4.80992 1.7991 7.15579 0.917846C9.50165 0.036596 11.5564 0.636884 13.2715 2.42534C15.0521 0.755362 17.0989 0.0264408 19.4639 0.845631C21.8978 1.69303 22.8603 3.62591 22.9833 6.06543C23.3019 6.13806 23.6155 6.23115 23.9221 6.34413C25.4251 6.9794 26.2454 8.11905 26.3515 9.75066C26.4237 10.8497 26.2251 11.8821 25.4894 12.7487C25.3019 12.9682 25.0941 13.1696 24.8688 13.3501C24.803 13.3969 24.7502 13.4596 24.7154 13.5325C24.6807 13.6054 24.6651 13.6859 24.6702 13.7665C24.6762 16.4746 24.6762 19.1796 24.6702 21.8817C24.6634 24.1011 23.2169 25.9438 21.0865 26.447C20.7202 26.5313 20.3454 26.5737 19.9695 26.5734C15.5312 26.5824 11.093 26.5824 6.6548 26.5734C4.33263 26.5734 2.46406 25.0174 2.02851 22.7426C1.98286 22.511 1.95906 22.2757 1.95743 22.0396C1.94953 20.6032 1.94614 19.168 1.95743 17.7316C1.95743 16.8221 2.74728 16.2647 3.61838 16.5231C4.14758 16.6844 4.46352 17.1177 4.46465 17.7146C4.47029 19.124 4.45562 20.5355 4.47142 21.9437C4.4827 22.8363 4.88891 23.5121 5.72051 23.871C6.00913 23.9917 6.31829 24.0556 6.6311 24.0594C8.34734 24.0763 10.0624 24.0594 11.7787 24.0707C11.9728 24.0707 12.0551 24.0334 12.0551 23.8134C12.0469 20.6615 12.045 17.5096 12.0495 14.3578C12.0495 14.2934 12.0382 14.2336 12.0292 14.1377ZM14.5646 19.0743C14.5646 20.6416 14.5646 22.2089 14.5646 23.7751C14.5646 24.0075 14.6289 24.0696 14.8602 24.0684C16.5528 24.0594 18.2397 24.0684 19.9288 24.0628C21.2829 24.0628 22.1675 23.1827 22.1686 21.8275C22.1686 19.3665 22.1686 16.9067 22.1686 14.4469C22.1686 14.2212 22.1212 14.1321 21.8685 14.1332C19.5305 14.1437 17.1929 14.1437 14.8557 14.1332C14.6244 14.1332 14.559 14.1941 14.5601 14.4266C14.5691 15.9747 14.5646 17.5251 14.5646 19.0743ZM14.5804 11.6271H18.7373C20.0146 11.6271 21.293 11.6271 22.5737 11.6271C23.2767 11.6271 23.7698 11.1758 23.8431 10.483C23.8535 10.3433 23.8565 10.2032 23.8521 10.0632C23.8521 9.04769 23.3827 8.57603 22.3853 8.5749C19.8818 8.5749 17.3787 8.5749 14.876 8.5749C14.7835 8.5749 14.691 8.58393 14.5883 8.58957L14.5804 11.6271ZM12.0506 11.6271V11.3179C12.0506 10.5123 12.0416 9.70778 12.0563 8.90326C12.0619 8.64825 12.0066 8.56475 11.729 8.56475C9.93607 8.57942 8.14197 8.57152 6.34901 8.57265C5.59639 8.57265 4.84378 8.57265 4.09229 8.57265C3.29115 8.5828 2.78677 9.09846 2.78 9.89621C2.78 9.99325 2.78 10.0892 2.78 10.1851C2.78 11.151 3.24714 11.6237 4.20625 11.6237H12.0506V11.6271ZM12.0168 6.04286C12.1792 5.16387 11.6151 4.03776 10.7406 3.47245C10.232 3.14898 9.63978 2.98143 9.03707 2.99045C8.43436 2.99948 7.84746 3.18468 7.34874 3.52323C6.48216 4.13255 6.11431 4.9901 6.08949 6.0406L12.0168 6.04286ZM14.5759 6.03609H20.4592C20.4039 4.86034 19.9819 3.91026 18.9223 3.36075C17.8267 2.79657 16.7311 2.86427 15.7291 3.58642C14.9042 4.1743 14.5251 5.00703 14.5759 6.03383V6.03609Z" fill="#8D96B2"/>
<path d="M1.9514 12.7702H4.47228V18.4359H1.9514V12.7702Z" fill="#8D96B2"/>
</svg>
