<svg width="8" height="13" viewBox="0 0 8 13" fill="none" xmlns="http://www.w3.org/2000/svg">
<path d="M7.40267 6.35573L2.06252 1.01568C1.93901 0.892072 1.77413 0.823975 1.59833 0.823975C1.42252 0.823975 1.25765 0.892072 1.13414 1.01568L0.740871 1.40885C0.484971 1.66504 0.484971 2.08143 0.740871 2.33723L5.22513 6.82149L0.735895 11.3107C0.612384 11.4343 0.544189 11.5991 0.544189 11.7748C0.544189 11.9507 0.612384 12.1155 0.735895 12.2392L1.12916 12.6323C1.25277 12.7559 1.41755 12.824 1.59335 12.824C1.76916 12.824 1.93403 12.7559 2.05754 12.6323L7.40267 7.28734C7.52647 7.16334 7.59447 6.99778 7.59408 6.82178C7.59447 6.6451 7.52647 6.47964 7.40267 6.35573Z" fill="#315EFB"/>
</svg>
