<svg width="24" height="25" viewBox="0 0 24 25" fill="none" xmlns="http://www.w3.org/2000/svg">
<path fill-rule="evenodd" clip-rule="evenodd" d="M16.9994 23.836H7.11686C3.48676 23.836 0.701882 22.5248 1.49292 17.2476L2.41399 10.0958C2.90161 7.46259 4.58121 6.45483 6.05492 6.45483H18.1047C19.6001 6.45483 21.1821 7.53844 21.7456 10.0958L22.6667 17.2476C23.3385 21.9288 20.6295 23.836 16.9994 23.836Z" stroke="white" stroke-width="2" stroke-linecap="round" stroke-linejoin="round"/>
<path d="M17.1619 6.19477C17.1619 3.37003 14.872 1.08012 12.0473 1.08012V1.08012C10.687 1.07436 9.38052 1.61068 8.41665 2.57048C7.45277 3.53029 6.91094 4.83452 6.91095 6.19477H6.91095" stroke="white" stroke-width="2" stroke-linecap="round" stroke-linejoin="round"/>
<path d="M15.5582 11.5262H15.504" stroke="white" stroke-width="2" stroke-linecap="round" stroke-linejoin="round"/>
<path d="M8.65563 11.5262H8.60145" stroke="white" stroke-width="2" stroke-linecap="round" stroke-linejoin="round"/>
</svg>
