<svg width="68" height="46" viewBox="0 0 68 46" fill="none" xmlns="http://www.w3.org/2000/svg">
<path d="M54.825 16.9914C52.8983 7.28828 44.3133 0.00390625 34 0.00390625C25.8117 0.00390625 18.7 4.61641 15.1583 11.3664C6.63 12.2664 0 19.4383 0 28.1289C0 37.4383 7.62167 45.0039 17 45.0039H53.8333C61.6533 45.0039 68 38.7039 68 30.9414C68 23.5164 62.1917 17.4977 54.825 16.9914ZM53.8333 39.3789H17C10.7383 39.3789 5.66667 34.3445 5.66667 28.1289C5.66667 21.9133 10.7383 16.8789 17 16.8789H19.0117C20.8817 10.382 26.86 5.62891 34 5.62891C42.6133 5.62891 49.5833 12.5477 49.5833 21.0977V22.5039H53.8333C58.5367 22.5039 62.3333 26.2727 62.3333 30.9414C62.3333 35.6102 58.5367 39.3789 53.8333 39.3789Z" fill="url(#paint0_linear)"/>
<defs>
<linearGradient id="paint0_linear" x1="68" y1="22.5039" x2="0" y2="22.5039" gradientUnits="userSpaceOnUse">
<stop stop-color="#836AFC"/>
<stop offset="1" stop-color="#349AFF"/>
</linearGradient>
</defs>
</svg>
