<svg width="64" height="47" viewBox="0 0 64 47" fill="none" xmlns="http://www.w3.org/2000/svg">
<path d="M29.146 35.8882L38.1678 44.91L47.1896 35.8882" stroke="#62687F" stroke-width="3" stroke-linecap="round" stroke-linejoin="round"/>
<path d="M38.1675 23.6455V44.9102" stroke="#62687F" stroke-width="3" stroke-linecap="round" stroke-linejoin="round"/>
<path d="M23.2825 44.9102H16.903C14.7921 44.9082 12.7057 44.4572 10.7824 43.5871C8.85908 42.7171 7.14282 41.4479 5.74752 39.8638C4.35223 38.2797 3.30981 36.417 2.68947 34.3993C2.06913 32.3815 1.88505 30.2549 2.14945 28.1606C2.41384 26.0662 3.12067 24.0521 4.22302 22.2518C5.32536 20.4515 6.79801 18.9063 8.54321 17.7187C10.2884 16.5311 12.2663 15.7283 14.3455 15.3635C16.4247 14.9988 18.5577 15.0804 20.6029 15.6031" stroke="#62687F" stroke-width="3" stroke-linecap="round" stroke-linejoin="round"/>
<path d="M19.0293 23.6454C19.0296 20.2761 19.8306 16.9551 21.3661 13.9561C22.9017 10.9571 25.1279 8.36584 27.8614 6.39594C30.5948 4.42604 33.7572 3.13386 37.088 2.62589C40.4188 2.11791 43.8226 2.40867 47.019 3.47421C50.2153 4.53975 53.1128 6.34957 55.4725 8.75454C57.8322 11.1595 59.5867 14.0908 60.5914 17.3068C61.596 20.5228 61.8221 23.9316 61.251 27.2521C60.6798 30.5726 59.3279 33.7099 57.3064 36.4055" stroke="#62687F" stroke-width="3" stroke-linecap="round" stroke-linejoin="round"/>
</svg>
