<svg width="46" height="46" viewBox="0 0 46 46" fill="none" xmlns="http://www.w3.org/2000/svg">
<path d="M23.0368 44.1938C34.7354 44.1938 44.2189 34.7102 44.2189 23.0117C44.2189 11.3131 34.7354 1.82959 23.0368 1.82959C11.3383 1.82959 1.85474 11.3131 1.85474 23.0117C1.85474 34.7102 11.3383 44.1938 23.0368 44.1938Z" stroke="#62687F" stroke-width="3" stroke-miterlimit="10"/>
<path d="M3.0603 15.9512H43.0117" stroke="#62687F" stroke-width="3" stroke-linecap="round" stroke-linejoin="round"/>
<path d="M3.06128 30.0723H43.0125" stroke="#62687F" stroke-width="3" stroke-linecap="round" stroke-linejoin="round"/>
<path d="M23.0368 43.6259C27.9112 43.6259 31.8627 34.3969 31.8627 23.0124C31.8627 11.6279 27.9112 2.39893 23.0368 2.39893C18.1624 2.39893 14.2109 11.6279 14.2109 23.0124C14.2109 34.3969 18.1624 43.6259 23.0368 43.6259Z" stroke="#62687F" stroke-width="3" stroke-miterlimit="10"/>
</svg>
