<svg width="63" height="46" viewBox="0 0 63 46" fill="none" xmlns="http://www.w3.org/2000/svg">
<path d="M34.2515 11.2539C34.2515 5.03828 29.207 0.00390625 22.9788 0.00390625C16.7506 0.00390625 11.7061 5.03828 11.7061 11.2539C11.7061 17.4695 16.7506 22.5039 22.9788 22.5039C29.207 22.5039 34.2515 17.4695 34.2515 11.2539ZM28.6152 11.2539C28.6152 14.3477 26.0788 16.8789 22.9788 16.8789C19.8788 16.8789 17.3424 14.3477 17.3424 11.2539C17.3424 8.16016 19.8788 5.62891 22.9788 5.62891C26.0788 5.62891 28.6152 8.16016 28.6152 11.2539ZM0.43335 39.3789V45.0039H45.5243V39.3789C45.5243 31.8977 30.5033 28.1289 22.9788 28.1289C15.4543 28.1289 0.43335 31.8977 0.43335 39.3789ZM6.06971 39.3789C6.63335 37.382 15.3697 33.7539 22.9788 33.7539C30.5597 33.7539 39.2679 37.3539 39.8879 39.3789H6.06971ZM53.9788 30.9414V22.5039H62.4333V16.8789H53.9788V8.44141H48.3424V16.8789H39.8879V22.5039H48.3424V30.9414H53.9788Z" fill="url(#paint0_linear)"/>
<defs>
<linearGradient id="paint0_linear" x1="62.4333" y1="22.5039" x2="0.43335" y2="22.5039" gradientUnits="userSpaceOnUse">
<stop stop-color="#836AFC"/>
<stop offset="1" stop-color="#349AFF"/>
</linearGradient>
</defs>
</svg>
