<svg width="63" height="47" viewBox="0 0 63 47" fill="none" xmlns="http://www.w3.org/2000/svg">
<path d="M37.909 37.9834L1.56543 37.9834" stroke="#62687F" stroke-width="3" stroke-linecap="round" stroke-linejoin="round"/>
<path d="M60.792 37.9834L51.3696 37.9834" stroke="#62687F" stroke-width="3" stroke-linecap="round" stroke-linejoin="round"/>
<path d="M44.6395 44.7135C48.3565 44.7135 51.3698 41.7003 51.3698 37.9832C51.3698 34.2662 48.3565 31.2529 44.6395 31.2529C40.9224 31.2529 37.9092 34.2662 37.9092 37.9832C37.9092 41.7003 40.9224 44.7135 44.6395 44.7135Z" stroke="#62687F" stroke-width="3" stroke-linecap="round" stroke-linejoin="round"/>
<path d="M16.3721 8.37031L1.56543 8.37012" stroke="#62687F" stroke-width="3" stroke-linecap="round" stroke-linejoin="round"/>
<path d="M60.7918 8.37012L29.8325 8.37031" stroke="#62687F" stroke-width="3" stroke-linecap="round" stroke-linejoin="round"/>
<path d="M23.1024 15.1002C26.8194 15.1002 29.8326 12.087 29.8326 8.36994C29.8326 4.6529 26.8194 1.63965 23.1024 1.63965C19.3853 1.63965 16.3721 4.6529 16.3721 8.36994C16.3721 12.087 19.3853 15.1002 23.1024 15.1002Z" stroke="#62687F" stroke-width="3" stroke-linecap="round" stroke-linejoin="round"/>
</svg>
