<svg width="53" height="47" viewBox="0 0 53 47" fill="none" xmlns="http://www.w3.org/2000/svg">
<path d="M2.13135 6.70927V40.5709C2.13135 41.6935 2.57729 42.7701 3.37108 43.5639C4.16486 44.3577 5.24147 44.8036 6.36405 44.8036H48.6911C49.2524 44.8036 49.7907 44.5806 50.1876 44.1837C50.5845 43.7869 50.8075 43.2485 50.8075 42.6873V13.0583C50.8075 12.497 50.5845 11.9587 50.1876 11.5618C49.7907 11.1649 49.2524 10.942 48.6911 10.942H6.36405C5.24147 10.942 4.16486 10.496 3.37108 9.70224C2.57729 8.90845 2.13135 7.83185 2.13135 6.70927ZM2.13135 6.70927C2.13135 5.58668 2.57729 4.51008 3.37108 3.71629C4.16486 2.92251 5.24147 2.47656 6.36405 2.47656H42.342" stroke="#62687F" stroke-width="3" stroke-linecap="round" stroke-linejoin="round"/>
<path d="M40.1203 31.3001C42.0051 31.3001 43.533 29.7721 43.533 27.8873C43.533 26.0025 42.0051 24.4746 40.1203 24.4746C38.2355 24.4746 36.7075 26.0025 36.7075 27.8873C36.7075 29.7721 38.2355 31.3001 40.1203 31.3001Z" fill="#62687F"/>
</svg>
