<svg width="46" height="46" viewBox="0 0 46 46" fill="none" xmlns="http://www.w3.org/2000/svg">
<path d="M5.7095 4.73989V11.8452H38.8674V4.73989H5.7095ZM3.34108 0.00305176H41.2358C41.864 0.00305176 42.4664 0.252581 42.9105 0.696746C43.3547 1.14091 43.6042 1.74333 43.6042 2.37147V14.2136C43.6042 14.8417 43.3547 15.4441 42.9105 15.8883C42.4664 16.3325 41.864 16.582 41.2358 16.582H3.34108C2.71293 16.582 2.11052 16.3325 1.66635 15.8883C1.22219 15.4441 0.972656 14.8417 0.972656 14.2136V2.37147C0.972656 1.74333 1.22219 1.14091 1.66635 0.696746C2.11052 0.252581 2.71293 0.00305176 3.34108 0.00305176ZM8.07792 21.3188H22.2884C22.9166 21.3188 23.519 21.5684 23.9632 22.0125C24.4073 22.4567 24.6569 23.0591 24.6569 23.6873V30.7925H27.0253V45.0031H17.5516V30.7925H19.92V26.0557H5.7095C5.08135 26.0557 4.47894 25.8062 4.03477 25.362C3.59061 24.9178 3.34108 24.3154 3.34108 23.6873V18.9504H8.07792V21.3188ZM35.8642 25.4209L40.0516 21.2336L44.239 25.4209C45.0669 26.2491 45.6307 27.3041 45.859 28.4526C46.0873 29.6012 45.97 30.7916 45.5218 31.8735C45.0736 32.9553 44.3147 33.8799 43.341 34.5305C42.3673 35.181 41.2226 35.5283 40.0516 35.5283C38.8806 35.5283 37.7359 35.181 36.7622 34.5305C35.7885 33.8799 35.0296 32.9553 34.5814 31.8735C34.1332 30.7916 34.0159 29.6012 34.2442 28.4526C34.4725 27.3041 35.0363 26.2491 35.8642 25.4209Z" fill="url(#paint0_linear)"/>
<defs>
<linearGradient id="paint0_linear" x1="45.9727" y1="22.5031" x2="0.972655" y2="22.5031" gradientUnits="userSpaceOnUse">
<stop stop-color="#FF4BC8"/>
<stop offset="1" stop-color="#FF6A64"/>
</linearGradient>
</defs>
</svg>
