<svg width="46" height="46" viewBox="0 0 46 46" fill="none" xmlns="http://www.w3.org/2000/svg">
<path d="M35.4843 0.00317592C37.5478 0.00333051 39.562 0.633793 41.2573 1.81017C42.9526 2.98655 44.2481 4.65271 44.9704 6.58563C45.6927 8.51855 45.8073 10.626 45.299 12.6258C44.7906 14.6257 43.6835 16.4226 42.1258 17.7759C42.9247 19.9522 43.3613 22.3063 43.3613 24.7594C43.3597 27.7186 42.7096 30.6416 41.4569 33.3226C40.2042 36.0036 38.3792 38.3775 36.1104 40.2774C33.8416 42.1773 31.184 43.557 28.3246 44.3194C25.4653 45.0818 22.4736 45.2084 19.5601 44.6903C16.6465 44.1722 13.8819 43.022 11.4607 41.3206C9.03944 39.6192 7.02042 37.4079 5.54566 34.8424C4.0709 32.2768 3.17621 29.4192 2.92454 26.4707C2.67288 23.5221 3.07034 20.5543 4.08897 17.7759C2.98639 16.8177 2.10413 15.6324 1.50271 14.3012C0.901296 12.97 0.594959 11.5245 0.604718 10.0638C0.614478 8.60313 0.940102 7.16182 1.55925 5.8388C2.1784 4.51578 3.07642 3.34234 4.19171 2.39901C5.30699 1.45568 6.61314 0.764763 8.02054 0.373675C9.42795 -0.017413 10.9033 -0.0994205 12.3454 0.133278C13.7875 0.365976 15.1621 0.907874 16.3751 1.72179C17.5881 2.53571 18.6106 3.60239 19.3726 4.84864C21.8419 4.38789 24.3751 4.38789 26.8444 4.84864C27.7481 3.36781 29.0175 2.14432 30.5306 1.29575C32.0436 0.44718 33.7496 0.00206129 35.4843 0.00317592ZM35.4843 4.50431C33.6321 4.50431 31.9397 5.40453 30.8977 6.8719L30.6839 7.19598L29.068 9.84264L26.0185 9.27325C24.3353 8.9592 22.6123 8.91968 20.9164 9.15622L20.2053 9.27325L17.1535 9.84715L15.5331 7.20048C15.119 6.52227 14.566 5.93946 13.9104 5.49042C13.2549 5.04138 12.5116 4.73629 11.7296 4.59525C10.9476 4.4542 10.1446 4.48039 9.37349 4.6721C8.60235 4.86381 7.88056 5.21668 7.25565 5.70749C6.63074 6.1983 6.11687 6.81591 5.74789 7.51966C5.37891 8.22341 5.16318 8.99733 5.1149 9.79048C5.06662 10.5836 5.18689 11.378 5.4678 12.1213C5.7487 12.8646 6.18387 13.54 6.74464 14.103L7.03946 14.3798L9.3823 16.4143L8.31328 19.3288C7.52184 21.4897 7.21342 23.7977 7.40971 26.0906C7.606 28.3834 8.30223 30.6055 9.44945 32.6004C10.5967 34.5953 12.167 36.3147 14.05 37.6376C15.933 38.9605 18.083 39.8548 20.3488 40.2576C22.6145 40.6604 24.941 40.5619 27.1646 39.9691C29.3882 39.3762 31.4549 38.3035 33.2194 36.8262C34.9839 35.3489 36.4033 33.503 37.3778 31.4183C38.3524 29.3336 38.8584 27.0606 38.8602 24.7594C38.8602 23.148 38.6194 21.5726 38.1535 20.0715L37.9015 19.3288L36.8324 16.4143L39.173 14.3798C40.039 13.6281 40.6546 12.6298 40.9375 11.5186C41.2203 10.4073 41.1569 9.23619 40.7557 8.162C40.3545 7.0878 39.6346 6.16185 38.6925 5.50814C37.7504 4.85443 36.631 4.50418 35.4843 4.50431ZM18.6051 24.7594C18.6051 25.9532 19.0793 27.098 19.9235 27.9422C20.7676 28.7863 21.9125 29.2605 23.1062 29.2605C24.3 29.2605 25.4449 28.7863 26.289 27.9422C27.1331 27.098 27.6074 25.9532 27.6074 24.7594H32.1085C32.1085 27.1469 31.1601 29.4367 29.4718 31.1249C27.7836 32.8132 25.4938 33.7616 23.1062 33.7616C20.7187 33.7616 18.4289 32.8132 16.7407 31.1249C15.0524 29.4367 14.104 27.1469 14.104 24.7594H18.6051Z" fill="url(#paint0_linear)"/>
<defs>
<linearGradient id="paint0_linear" x1="45.6111" y1="22.5032" x2="0.604491" y2="22.5032" gradientUnits="userSpaceOnUse">
<stop stop-color="#FF4BC8"/>
<stop offset="1" stop-color="#FF6A64"/>
</linearGradient>
</defs>
</svg>
