<svg width="46" height="46" viewBox="0 0 46 46" fill="none" xmlns="http://www.w3.org/2000/svg">
<path d="M23.4727 0.00305176C11.0527 0.00305176 0.972656 10.0831 0.972656 22.5031C0.972656 34.923 11.0527 45.0031 23.4727 45.0031C35.8927 45.0031 45.9727 34.923 45.9727 22.5031C45.9727 10.0831 35.8927 0.00305176 23.4727 0.00305176ZM23.4727 40.5031C13.5502 40.5031 5.47266 32.4256 5.47266 22.5031C5.47266 12.5806 13.5502 4.50305 23.4727 4.50305C33.3952 4.50305 41.4727 12.5806 41.4727 22.5031C41.4727 32.4256 33.3952 40.5031 23.4727 40.5031ZM23.4727 12.3781C17.8702 12.3781 13.3477 16.9006 13.3477 22.5031C13.3477 28.1056 17.8702 32.6281 23.4727 32.6281C29.0752 32.6281 33.5977 28.1056 33.5977 22.5031C33.5977 16.9006 29.0752 12.3781 23.4727 12.3781ZM23.4727 24.7531C22.2352 24.7531 21.2227 23.7406 21.2227 22.5031C21.2227 21.2656 22.2352 20.2531 23.4727 20.2531C24.7102 20.2531 25.7227 21.2656 25.7227 22.5031C25.7227 23.7406 24.7102 24.7531 23.4727 24.7531Z" fill="url(#paint0_linear)"/>
<defs>
<linearGradient id="paint0_linear" x1="45.9727" y1="22.5031" x2="0.972655" y2="22.5031" gradientUnits="userSpaceOnUse">
<stop stop-color="#FF4BC8"/>
<stop offset="1" stop-color="#FF6A64"/>
</linearGradient>
</defs>
</svg>
