<svg width="46" height="46" viewBox="0 0 46 46" fill="none" xmlns="http://www.w3.org/2000/svg">
<path d="M23.3672 45.0032C10.9404 45.0032 0.867188 34.9299 0.867188 22.5032C0.867188 10.0764 10.9404 0.00317383 23.3672 0.00317383C35.7939 0.00317383 45.8672 10.0764 45.8672 22.5032C45.8672 34.9299 35.7939 45.0032 23.3672 45.0032ZM23.3672 40.5032C28.1411 40.5032 32.7195 38.6068 36.0951 35.2311C39.4708 31.8554 41.3672 27.2771 41.3672 22.5032C41.3672 17.7293 39.4708 13.1509 36.0951 9.77525C32.7195 6.3996 28.1411 4.50317 23.3672 4.50317C18.5933 4.50317 14.0149 6.3996 10.6393 9.77525C7.26361 13.1509 5.36719 17.7293 5.36719 22.5032C5.36719 27.2771 7.26361 31.8554 10.6393 35.2311C14.0149 38.6068 18.5933 40.5032 23.3672 40.5032ZM20.2667 14.4369L31.2444 21.7539C31.3679 21.8361 31.4691 21.9475 31.5391 22.0782C31.6092 22.2089 31.6458 22.3549 31.6458 22.5032C31.6458 22.6515 31.6092 22.7975 31.5391 22.9282C31.4691 23.0589 31.3679 23.1703 31.2444 23.2524L20.2644 30.5694C20.1291 30.6592 19.9719 30.7106 19.8096 30.7183C19.6474 30.7259 19.4861 30.6895 19.3429 30.613C19.1996 30.5364 19.0798 30.4225 18.996 30.2833C18.9123 30.1441 18.8678 29.9849 18.8672 29.8224V15.1839C18.8675 15.0211 18.9119 14.8615 18.9958 14.722C19.0797 14.5824 19.1998 14.4683 19.3434 14.3916C19.487 14.315 19.6487 14.2787 19.8113 14.2867C19.9739 14.2947 20.1313 14.3466 20.2667 14.4369Z" fill="url(#paint0_linear)"/>
<defs>
<linearGradient id="paint0_linear" x1="45.8672" y1="22.5032" x2="0.867186" y2="22.5032" gradientUnits="userSpaceOnUse">
<stop stop-color="#FF4BC8"/>
<stop offset="1" stop-color="#FF6A64"/>
</linearGradient>
</defs>
</svg>
