<svg width="46" height="46" viewBox="0 0 46 46" fill="none" xmlns="http://www.w3.org/2000/svg">
<path d="M23.2881 0.00317383C35.7126 0.00317383 45.7881 8.95367 45.7881 20.0034C45.7863 23.3181 44.4686 26.4965 42.1245 28.8402C39.7804 31.1838 36.6018 32.501 33.2871 32.5022H28.8636C26.7891 32.5022 25.1128 34.1784 25.1128 36.2529C25.1128 37.2024 25.4886 38.0777 26.0623 38.7279C26.6631 39.4029 27.0388 40.2782 27.0388 41.2524C27.0388 43.3292 25.3131 45.0032 23.2881 45.0032C10.8636 45.0032 0.788086 34.9277 0.788086 22.5032C0.788086 10.0787 10.8636 0.00317383 23.2881 0.00317383ZM20.6128 36.2529C20.6119 35.1692 20.8248 34.0959 21.2391 33.0944C21.6534 32.093 22.2611 31.1831 23.0274 30.4168C23.7938 29.6505 24.7037 29.0427 25.7051 28.6284C26.7065 28.2141 27.7798 28.0013 28.8636 28.0022H33.2871C35.4079 28.001 37.4417 27.1583 38.9417 25.659C40.4418 24.1598 41.2857 22.1265 41.2881 20.0057C41.2881 11.5659 33.3411 4.50317 23.2881 4.50317C18.6431 4.49894 14.1764 6.29049 10.8217 9.50324C7.46702 12.716 5.48418 17.1012 5.28777 21.742C5.09135 26.3828 6.69655 30.9199 9.76776 34.4046C12.839 37.8893 17.1384 40.0519 21.7671 40.4402C21.0137 39.174 20.615 37.7285 20.6128 36.2552V36.2529ZM13.1631 22.5032C12.268 22.5032 11.4095 22.1476 10.7766 21.5147C10.1437 20.8817 9.78809 20.0233 9.78809 19.1282C9.78809 18.2331 10.1437 17.3746 10.7766 16.7417C11.4095 16.1088 12.268 15.7532 13.1631 15.7532C14.0582 15.7532 14.9166 16.1088 15.5496 16.7417C16.1825 17.3746 16.5381 18.2331 16.5381 19.1282C16.5381 20.0233 16.1825 20.8817 15.5496 21.5147C14.9166 22.1476 14.0582 22.5032 13.1631 22.5032ZM33.4131 22.5032C32.518 22.5032 31.6595 22.1476 31.0266 21.5147C30.3937 20.8817 30.0381 20.0233 30.0381 19.1282C30.0381 18.2331 30.3937 17.3746 31.0266 16.7417C31.6595 16.1088 32.518 15.7532 33.4131 15.7532C34.3082 15.7532 35.1666 16.1088 35.7996 16.7417C36.4325 17.3746 36.7881 18.2331 36.7881 19.1282C36.7881 20.0233 36.4325 20.8817 35.7996 21.5147C35.1666 22.1476 34.3082 22.5032 33.4131 22.5032ZM23.2881 15.7532C22.393 15.7532 21.5345 15.3976 20.9016 14.7647C20.2687 14.1317 19.9131 13.2733 19.9131 12.3782C19.9131 11.4831 20.2687 10.6246 20.9016 9.99169C21.5345 9.35875 22.393 9.00317 23.2881 9.00317C24.1832 9.00317 25.0416 9.35875 25.6746 9.99169C26.3075 10.6246 26.6631 11.4831 26.6631 12.3782C26.6631 13.2733 26.3075 14.1317 25.6746 14.7647C25.0416 15.3976 24.1832 15.7532 23.2881 15.7532Z" fill="url(#paint0_linear)"/>
<defs>
<linearGradient id="paint0_linear" x1="45.7881" y1="22.5032" x2="0.788085" y2="22.5032" gradientUnits="userSpaceOnUse">
<stop stop-color="#FF4BC8"/>
<stop offset="1" stop-color="#FF6A64"/>
</linearGradient>
</defs>
</svg>
