<svg width="105" height="27" viewBox="0 0 105 27" fill="none" xmlns="http://www.w3.org/2000/svg">
<path d="M15.9344 13.0534C15.9456 12.1823 16.1769 11.3283 16.6069 10.5707C17.0369 9.81312 17.6515 9.1766 18.3936 8.72038C17.9222 8.0471 17.3003 7.49302 16.5773 7.10215C15.8542 6.71127 15.05 6.49437 14.2285 6.46867C12.4761 6.28472 10.7772 7.51729 9.88421 7.51729C8.97392 7.51729 7.59901 6.48693 6.11845 6.51739C5.16078 6.54833 4.22746 6.82681 3.40942 7.32571C2.59139 7.8246 1.91653 8.52688 1.4506 9.36414C-0.567679 12.8585 0.937777 17.994 2.87112 20.8185C3.83842 22.2017 4.96891 23.7466 6.44813 23.6918C7.89563 23.6318 8.43625 22.7688 10.1835 22.7688C11.9146 22.7688 12.4218 23.6918 13.931 23.657C15.4843 23.6318 16.4629 22.2677 17.3962 20.8715C18.0912 19.886 18.626 18.7968 18.9808 17.6443C18.0784 17.2626 17.3083 16.6237 16.7666 15.8074C16.2249 14.991 15.9354 14.0332 15.9344 13.0534Z" fill="white"/>
<path d="M13.0835 4.611C13.9304 3.59434 14.3476 2.28759 14.2466 0.968262C12.9527 1.10416 11.7575 1.72254 10.8992 2.7002C10.4795 3.17781 10.1581 3.73345 9.95332 4.33535C9.74852 4.93726 9.66436 5.57362 9.70565 6.20807C10.3528 6.21474 10.9931 6.07447 11.5781 5.79783C12.1632 5.52119 12.6779 5.11539 13.0835 4.611Z" fill="white"/>
<path d="M34.2315 20.1901H29.2918L28.1056 23.6928H26.0133L30.6921 10.7336H32.8659L37.5446 23.6928H35.4167L34.2315 20.1901ZM29.8034 18.5738H33.7189L31.7887 12.8891H31.7347L29.8034 18.5738Z" fill="white"/>
<path d="M47.6493 18.9698C47.6493 21.9059 46.0778 23.7923 43.7063 23.7923C43.1056 23.8237 42.5081 23.6853 41.9824 23.3929C41.4566 23.1006 41.0238 22.6661 40.7335 22.1392H40.6887V26.819H38.7493V14.2451H40.6265V15.8166H40.6622C40.9658 15.2923 41.4059 14.86 41.9357 14.5659C42.4654 14.2718 43.065 14.1267 43.6706 14.1463C46.0686 14.1463 47.6493 16.0418 47.6493 18.9698ZM45.6559 18.9698C45.6559 17.0569 44.6673 15.7993 43.159 15.7993C41.6772 15.7993 40.6805 17.0834 40.6805 18.9698C40.6805 20.8735 41.6772 22.1484 43.159 22.1484C44.6673 22.1484 45.6559 20.9 45.6559 18.9698Z" fill="white"/>
<path d="M58.0486 18.9698C58.0486 21.9059 56.4771 23.7922 54.1056 23.7922C53.5049 23.8237 52.9074 23.6853 52.3817 23.3929C51.8559 23.1006 51.4231 22.6661 51.1328 22.1392H51.0879V26.819H49.1486V14.2451H51.0258V15.8166H51.0614C51.3651 15.2922 51.8052 14.86 52.3349 14.5659C52.8647 14.2718 53.4643 14.1267 54.0699 14.1463C56.4679 14.1463 58.0486 16.0418 58.0486 18.9698ZM56.0552 18.9698C56.0552 17.0569 55.0666 15.7993 53.5583 15.7993C52.0765 15.7993 51.0798 17.0834 51.0798 18.9698C51.0798 20.8735 52.0765 22.1484 53.5583 22.1484C55.0666 22.1484 56.0552 20.9 56.0552 18.9698H56.0552Z" fill="white"/>
<path d="M64.9214 20.0823C65.0651 21.3674 66.3136 22.2112 68.0196 22.2112C69.6542 22.2112 70.8303 21.3674 70.8303 20.2086C70.8303 19.2028 70.121 18.6005 68.4415 18.1877L66.762 17.7831C64.3823 17.2084 63.2776 16.0955 63.2776 14.2896C63.2776 12.0536 65.2262 10.5178 67.9931 10.5178C70.7314 10.5178 72.6087 12.0536 72.6718 14.2896H70.7141C70.5969 12.9963 69.5278 12.2157 67.9655 12.2157C66.4032 12.2157 65.3342 13.0055 65.3342 14.1551C65.3342 15.0713 66.017 15.6104 67.6873 16.0231L69.1151 16.3737C71.774 17.0025 72.8787 18.0705 72.8787 19.9661C72.8787 22.3905 70.9475 23.909 67.8758 23.909C65.0019 23.909 63.0615 22.4262 62.9362 20.0822L64.9214 20.0823Z" fill="white"/>
<path d="M77.0644 12.009V14.245H78.8611V15.7808H77.0644V20.9895C77.0644 21.7987 77.4241 22.1758 78.214 22.1758C78.4273 22.1721 78.6402 22.1571 78.8519 22.1309V23.6575C78.4968 23.7239 78.1359 23.7539 77.7747 23.7472C75.8618 23.7472 75.1158 23.0287 75.1158 21.1964V15.7808H73.7421V14.245H75.1158V12.009H77.0644Z" fill="white"/>
<path d="M79.9015 18.9695C79.9015 15.9967 81.6523 14.1287 84.3826 14.1287C87.122 14.1287 88.8647 15.9967 88.8647 18.9695C88.8647 21.9504 87.1311 23.8103 84.3826 23.8103C81.635 23.8103 79.9015 21.9504 79.9015 18.9695ZM86.8886 18.9695C86.8886 16.9302 85.954 15.7266 84.3826 15.7266C82.8111 15.7266 81.8776 16.9394 81.8776 18.9695C81.8776 21.0169 82.8111 22.2113 84.3826 22.2113C85.954 22.2113 86.8885 21.0169 86.8885 18.9695H86.8886Z" fill="white"/>
<path d="M90.4635 14.245H92.3132V15.8532H92.3581C92.4832 15.3509 92.7775 14.9071 93.1913 14.5962C93.6052 14.2853 94.1135 14.1264 94.6307 14.1462C94.8542 14.1454 95.0771 14.1697 95.2952 14.2185V16.0326C95.013 15.9464 94.7187 15.9068 94.4238 15.9154C94.1421 15.9039 93.8612 15.9536 93.6004 16.061C93.3397 16.1684 93.1053 16.3309 92.9133 16.5374C92.7213 16.7439 92.5763 16.9895 92.4882 17.2574C92.4001 17.5252 92.371 17.809 92.4029 18.0891V23.6933H90.4635L90.4635 14.245Z" fill="white"/>
<path d="M104.237 20.918C103.976 22.6332 102.306 23.8103 100.168 23.8103C97.4199 23.8103 95.7139 21.9687 95.7139 19.0143C95.7139 16.0507 97.429 14.1287 100.087 14.1287C102.701 14.1287 104.345 15.9243 104.345 18.7891V19.4536H97.6716V19.5708C97.6408 19.9185 97.6843 20.2688 97.7993 20.5984C97.9143 20.928 98.0981 21.2294 98.3385 21.4825C98.5789 21.7356 98.8704 21.9347 99.1936 22.0665C99.5169 22.1983 99.8644 22.2598 100.213 22.247C100.672 22.2899 101.132 22.1838 101.525 21.9443C101.918 21.7049 102.223 21.3449 102.395 20.918L104.237 20.918ZM97.6808 18.0981H102.404C102.422 17.7855 102.374 17.4726 102.265 17.1791C102.156 16.8857 101.987 16.618 101.77 16.3928C101.552 16.1676 101.29 15.9899 101.001 15.8707C100.711 15.7515 100.4 15.6934 100.087 15.7001C99.7711 15.6983 99.458 15.7589 99.1658 15.8787C98.8735 15.9984 98.6079 16.1749 98.3842 16.3978C98.1605 16.6207 97.9832 16.8858 97.8624 17.1776C97.7417 17.4695 97.68 17.7823 97.6808 18.0981V18.0981Z" fill="white"/>
<path d="M28.4249 3.61177H29.2576C29.4009 3.62962 29.5464 3.61758 29.6848 3.57642C29.8233 3.53526 29.9517 3.46586 30.062 3.37261C30.1723 3.27935 30.2621 3.16426 30.3257 3.03458C30.3893 2.9049 30.4253 2.76345 30.4316 2.61915C30.4316 2.04488 29.9995 1.67392 29.2667 1.67392C29.1199 1.6534 28.9704 1.66251 28.8271 1.70071C28.6839 1.73892 28.5497 1.80544 28.4326 1.89635C28.3155 1.98726 28.2177 2.10072 28.1452 2.23003C28.0726 2.35934 28.0267 2.50187 28.0101 2.64922H27.096C27.1117 2.38175 27.1823 2.12038 27.3035 1.88139C27.4246 1.6424 27.5936 1.4309 27.8 1.26006C28.0064 1.08922 28.2458 0.962703 28.5032 0.888378C28.7606 0.814054 29.0306 0.793517 29.2963 0.828045C30.5223 0.828045 31.3855 1.51442 31.3855 2.50246C31.3884 2.83346 31.2776 3.15543 31.0718 3.41463C30.8659 3.67383 30.5773 3.85457 30.2543 3.92668V4.00006C30.6373 4.01704 30.9979 4.18497 31.2575 4.46713C31.517 4.74929 31.6543 5.12273 31.6392 5.50581C31.6109 5.7812 31.5279 6.04816 31.395 6.29105C31.2622 6.53393 31.0822 6.74785 30.8656 6.92027C30.649 7.09269 30.4001 7.22013 30.1336 7.29513C29.8671 7.37013 29.5883 7.39118 29.3136 7.35704C29.0383 7.39458 28.7583 7.37629 28.4902 7.30329C28.2221 7.23028 27.9714 7.10404 27.7532 6.93209C27.5349 6.76015 27.3535 6.54601 27.2198 6.30246C27.086 6.05891 27.0027 5.79092 26.9747 5.51448H27.9032C27.9592 6.11015 28.5065 6.4944 29.3136 6.4944C30.1207 6.4944 30.6476 6.0628 30.6476 5.45439C30.6476 4.83731 30.1513 4.45718 29.2841 4.45718H28.4249V3.61177Z" fill="white"/>
<path d="M32.6941 5.87694C32.6941 5.03107 33.3249 4.54343 34.4419 4.47412L35.7148 4.40075V3.99514C35.7148 3.49882 35.3876 3.21857 34.7527 3.21857C34.235 3.21857 33.8773 3.40864 33.7733 3.74087H32.8755C32.9703 2.93373 33.7305 2.41602 34.7965 2.41602C35.9746 2.41602 36.6391 3.00251 36.6391 3.99514V7.20588H35.7453V6.54549H35.672C35.523 6.78237 35.3139 6.97549 35.0659 7.10511C34.8179 7.23474 34.54 7.29622 34.2605 7.2833C34.0632 7.30382 33.8638 7.28277 33.6752 7.22152C33.4866 7.16026 33.3128 7.06015 33.1653 6.92765C33.0177 6.79515 32.8995 6.63319 32.8184 6.45222C32.7372 6.27125 32.6949 6.07528 32.6941 5.87694ZM35.7148 5.4754V5.08254L34.5672 5.15591C33.92 5.19922 33.6265 5.41935 33.6265 5.83362C33.6265 6.25655 33.9934 6.50267 34.4979 6.50267C34.6457 6.51764 34.7951 6.50272 34.937 6.4588C35.0789 6.41488 35.2106 6.34285 35.3241 6.24701C35.4377 6.15116 35.5307 6.03346 35.5979 5.9009C35.665 5.76834 35.7047 5.62364 35.7148 5.4754Z" fill="white"/>
<path d="M39.1002 3.28749V7.206H38.1729V2.50684H41.2669V3.28743L39.1002 3.28749Z" fill="white"/>
<path d="M46.8875 4.85419C46.8875 6.3472 46.1323 7.28327 44.9461 7.28327C44.6549 7.30316 44.364 7.23943 44.1078 7.0996C43.8516 6.95976 43.6407 6.74963 43.4999 6.49396H43.4265V8.76813H42.4991V2.50665H43.3919V3.28325H43.4612C43.6045 3.01865 43.8182 2.7988 44.0786 2.648C44.339 2.4972 44.636 2.42131 44.9369 2.42872C46.1323 2.42869 46.8875 3.36067 46.8875 4.85419ZM45.9336 4.85419C45.9336 3.86157 45.4638 3.26182 44.678 3.26182C43.8974 3.26182 43.4092 3.8743 43.4092 4.85827C43.4092 5.83765 43.8974 6.45065 44.674 6.45065C45.4638 6.45064 45.9336 5.85089 45.9336 4.85419Z" fill="white"/>
<path d="M48.1225 8.88908V8.0906C48.2228 8.10335 48.3239 8.10914 48.4251 8.10792C48.6227 8.12256 48.8187 8.06371 48.9756 7.94268C49.1324 7.82165 49.2391 7.64695 49.275 7.45212L49.3443 7.22332L47.6434 2.50684H48.6534L49.8315 6.23936H49.9049L51.0789 2.50684H52.0624L50.3105 7.40015C49.909 8.5436 49.4647 8.91049 48.5067 8.91049C48.4292 8.91048 48.2091 8.90182 48.1225 8.88908Z" fill="white"/>
<path d="M52.7847 5.87262H53.708C53.7987 6.28692 54.187 6.50294 54.7302 6.50294C55.3478 6.50294 55.7269 6.23084 55.7269 5.80792C55.7269 5.35492 55.3865 5.13887 54.7302 5.13887H54.027V4.41835H54.7179C55.2785 4.41835 55.5638 4.20281 55.5638 3.80994C55.5638 3.46497 55.2876 3.20154 54.7179 3.20154C54.1992 3.20154 53.8201 3.42167 53.7599 3.79263H52.8662C52.933 3.36637 53.1645 2.98336 53.5108 2.72598C53.857 2.46859 54.2905 2.3574 54.7179 2.41631C55.8349 2.41631 56.4739 2.92128 56.4739 3.71518C56.4791 3.93625 56.4083 4.15242 56.2732 4.32753C56.1382 4.50265 55.9471 4.62609 55.732 4.67723V4.7506C55.9881 4.78364 56.2232 4.90956 56.3927 5.10446C56.5621 5.29937 56.6541 5.54969 56.6512 5.80794C56.6512 6.70124 55.8909 7.29228 54.7302 7.29228C53.7039 7.29225 52.8703 6.82193 52.7847 5.87262Z" fill="white"/>
<path d="M57.9872 7.206V2.50684H58.9064V5.73899H58.9798L61.1454 2.50685H62.0647V7.20601H61.1454V3.95655H61.0761L58.9064 7.20602L57.9872 7.206Z" fill="white"/>
<path d="M67.1285 3.28743H65.6487V7.20595H64.7203V3.28743H63.2405V2.50684H67.1285V3.28743Z" fill="white"/>
<path d="M72.1244 5.93716C71.998 6.36662 71.7248 6.73803 71.3524 6.98651C70.98 7.235 70.5322 7.34478 70.0871 7.29666C69.7775 7.30484 69.4699 7.24554 69.1855 7.12289C68.9011 7.00024 68.6468 6.81717 68.4403 6.5864C68.2338 6.35562 68.0799 6.08266 67.9895 5.78647C67.899 5.49028 67.8741 5.17795 67.9164 4.87116C67.8752 4.56342 67.9006 4.25042 67.9908 3.95334C68.0811 3.65626 68.2341 3.38204 68.4395 3.14925C68.645 2.91645 68.898 2.73052 69.1816 2.60403C69.4652 2.47754 69.7726 2.41345 70.0831 2.41609C71.3906 2.41609 72.1804 3.3094 72.1804 4.78502V5.10863H68.8622V5.1606C68.8475 5.33309 68.869 5.50674 68.9254 5.67039C68.9819 5.83405 69.0719 5.98409 69.1897 6.11088C69.3076 6.23767 69.4507 6.33839 69.6098 6.40658C69.7689 6.47477 69.9405 6.50891 70.1136 6.50682C70.3353 6.53333 70.5599 6.49332 70.7588 6.39188C70.9577 6.29044 71.1219 6.13215 71.2306 5.93713L72.1244 5.93716ZM68.8621 4.42275H71.2346C71.2464 4.26512 71.225 4.10678 71.1719 3.95789C71.1188 3.80901 71.0351 3.67288 70.9263 3.55825C70.8175 3.44361 70.6859 3.353 70.5399 3.29224C70.394 3.23147 70.237 3.2019 70.079 3.20542C69.9185 3.20323 69.7593 3.23323 69.6106 3.29364C69.462 3.35405 69.3269 3.44365 69.2135 3.55713C69.1001 3.67062 69.0105 3.80569 68.9502 3.95437C68.8898 4.10304 68.8599 4.26231 68.8622 4.42275H68.8621Z" fill="white"/>
<path d="M76.056 2.50684H78.1748C79.094 2.50684 79.6331 2.97257 79.6331 3.70173C79.6346 3.9331 79.5565 4.15795 79.412 4.33864C79.2675 4.51933 79.0653 4.6449 78.8392 4.69435V4.76773C79.1137 4.78507 79.371 4.90715 79.558 5.10876C79.745 5.31036 79.8474 5.5761 79.8441 5.85106C79.8441 6.67094 79.2275 7.20598 78.1962 7.20598H76.056V2.50684ZM76.9753 3.21869V4.43551H77.8945C78.455 4.43551 78.7231 4.21996 78.7231 3.82251C78.7231 3.45614 78.4897 3.21868 77.9975 3.21868L76.9753 3.21869ZM76.9753 5.11732V6.49415H78.075C78.6232 6.49415 78.9167 6.25212 78.9167 5.80778C78.9167 5.33746 78.5845 5.11733 77.9587 5.11733L76.9753 5.11732Z" fill="white"/>
</svg>
