<svg width="200" height="400" viewBox="0 0 200 400" fill="none" xmlns="http://www.w3.org/2000/svg">
<g clip-path="url(#clip0)">
<rect width="200" height="400" rx="8" fill="#343B4C"/>
<path d="M100 20C62.7734 20 32.6861 50.0873 32.6861 87.3139C32.6861 124.541 62.7734 154.628 100 154.628C137.227 154.628 167.314 124.541 167.314 87.3139C167.314 50.0873 137.227 20 100 20ZM162.979 87.3139C162.979 121.991 134.677 150.293 100 150.293C65.3232 150.293 37.0207 121.991 37.0207 87.3139C37.0207 52.637 65.3232 24.3346 100 24.3346C134.677 24.3346 162.979 52.637 162.979 87.3139Z" fill="#8D96B2"/>
<path d="M132.649 58.7784C133.669 59.7984 134.944 61.3282 135.709 62.3481L149.478 53.6789C148.713 52.914 147.693 51.3841 146.928 50.3642L138.259 55.9737L137.749 56.4837L138.259 55.7187L142.083 48.0694L139.279 45.2647L131.629 49.0893L130.864 49.5993L131.374 49.0893L136.984 40.4201C135.964 39.6552 134.944 38.8902 133.669 37.8703L125 51.3841C126.02 52.149 127.55 53.4239 128.57 54.1889L136.729 49.8543L137.239 49.3443L136.984 50.6192L132.649 58.7784Z" fill="#8D96B2"/>
<path d="M101.797 41.4399L105.622 33.0256L105.877 32.2607V33.0256L106.387 44.2446C107.662 44.2446 108.936 44.4996 110.466 44.7546L109.956 28.1811C108.172 27.9261 106.132 27.9261 104.347 27.6711L100.777 36.8503L100.522 37.6152L100.267 36.8503L96.6976 27.6711C94.9127 27.6711 92.8729 27.9261 91.0881 28.1811L90.5781 44.7546C91.853 44.4996 93.3829 44.2446 94.6577 44.2446L94.4028 33.0256V32.2607L94.6577 33.0256L98.4824 41.4399H101.797Z" fill="#8D96B2"/>
<path d="M71.4551 54.6986C73.4949 52.4039 74.7698 49.8541 72.73 47.3043C71.4551 45.7744 69.6703 45.5195 67.8854 46.2844H67.6304V46.0294C68.1404 45.5195 68.1404 43.4797 66.6105 41.9498C65.5906 41.4398 64.5707 41.1849 63.5508 41.1849C61.511 41.4398 59.9811 42.7147 55.6465 47.5593C54.3716 49.0891 52.5868 51.129 51.3119 52.6588L63.0409 63.6228C66.8655 59.2882 68.3954 57.7584 71.4551 54.6986ZM56.4115 51.8939C58.7063 49.0891 61.256 46.5394 62.2759 45.5195C62.5309 45.2645 63.0409 44.7545 63.5508 44.7545C64.3157 44.4996 65.0807 45.0095 65.3357 45.7744C65.5906 46.5394 65.0807 47.3043 64.5707 47.8143C63.0409 49.3441 58.7063 53.9337 58.7063 53.9337L56.4115 51.8939ZM61.001 56.2285C61.001 56.2285 65.3357 51.6389 66.8655 50.1091C67.3755 49.5991 67.8854 49.0892 68.1404 48.8342C68.6504 48.5792 69.1603 48.5792 69.6703 48.8342C70.1802 49.0892 70.4352 49.8541 70.1802 50.364C70.1802 51.129 69.6703 51.6389 69.1603 52.1489C68.6504 52.9138 63.2958 58.5233 63.2958 58.5233L61.001 56.2285Z" fill="#8D96B2"/>
<path fill-rule="evenodd" clip-rule="evenodd" d="M140.019 86.3139C139.5 64.9293 122.384 47.8134 101 47.2946C100.667 47.2866 100.334 47.2825 99.9996 47.2825V87.3139H140.031C140.031 86.9796 140.027 86.6462 140.019 86.3139ZM139.019 86.3139C138.5 65.4817 121.832 48.8132 101 48.2949V86.3139H139.019Z" fill="#8D96B2"/>
<path fill-rule="evenodd" clip-rule="evenodd" d="M99.9996 87.3139L59.9684 87.314C59.9684 87.6484 59.9725 87.9817 59.9805 88.314C60.4994 109.699 77.6152 126.814 98.9998 127.333C99.3321 127.341 99.6655 127.345 99.9998 127.345L99.9996 87.3139ZM98.9998 88.314H60.9809C61.4991 109.146 78.1676 125.815 98.9998 126.333V88.314Z" fill="#8D96B2"/>
<path d="M99.9996 47.2825V87.3139L59.9684 87.314C59.9684 65.1311 77.8166 47.2825 99.9996 47.2825Z" fill="#8D96B2"/>
<path d="M140.031 87.3139C140.031 109.497 122.183 127.345 99.9998 127.345L99.9996 87.3139H140.031Z" fill="#8D96B2"/>
<path d="M19.8274 178.727H30.1484V176.064H23.0564V172.418H29.5891V169.755H23.0564V166.116H30.1186V163.454H19.8274V178.727Z" fill="#8D96B2"/>
<path d="M32.6261 178.727H35.803V171.851C35.803 170.583 36.6084 169.741 37.6673 169.741C38.7114 169.741 39.4124 170.456 39.4124 171.583V178.727H42.4923V171.732C42.4923 170.546 43.1709 169.741 44.3268 169.741C45.341 169.741 46.1016 170.374 46.1016 171.65V178.727H49.271V171.023C49.271 168.54 47.7945 167.123 45.6616 167.123C43.9837 167.123 42.6787 167.981 42.2089 169.293H42.0896C41.7241 167.966 40.5533 167.123 38.9798 167.123C37.4361 167.123 36.2653 167.943 35.7881 169.293H35.6538V167.272H32.6261V178.727Z" fill="#8D96B2"/>
<path d="M57.0006 178.95C59.8344 178.95 61.7435 177.571 62.1909 175.445L59.2527 175.252C58.9321 176.124 58.1117 176.579 57.0528 176.579C55.4644 176.579 54.4576 175.527 54.4576 173.82V173.812H62.2581V172.94C62.2581 169.047 59.9015 167.123 56.8738 167.123C53.5031 167.123 51.3181 169.517 51.3181 173.052C51.3181 176.683 53.4733 178.95 57.0006 178.95ZM54.4576 171.844C54.5247 170.538 55.5166 169.494 56.926 169.494C58.3056 169.494 59.2602 170.479 59.2676 171.844H54.4576Z" fill="#8D96B2"/>
<path d="M64.3312 178.727H67.5081V172.246C67.5081 170.837 68.5372 169.867 69.9392 169.867C70.3791 169.867 70.9832 169.942 71.2815 170.039V167.22C70.9981 167.153 70.6029 167.108 70.2822 167.108C68.9995 167.108 67.948 167.854 67.5304 169.271H67.4111V167.272H64.3312V178.727Z" fill="#8D96B2"/>
<path d="M75.8622 178.943C77.555 178.943 78.6513 178.205 79.2106 177.138H79.3V178.727H82.3128V171.001C82.3128 168.271 80.001 167.123 77.4506 167.123C74.7063 167.123 72.9016 168.436 72.4616 170.524L75.3998 170.762C75.6161 170.002 76.2947 169.442 77.4357 169.442C78.517 169.442 79.136 169.987 79.136 170.926V170.971C79.136 171.709 78.353 171.806 76.3618 172C74.0948 172.209 72.0589 172.97 72.0589 175.527C72.0589 177.795 73.6772 178.943 75.8622 178.943ZM76.772 176.751C75.7951 176.751 75.0941 176.296 75.0941 175.423C75.0941 174.528 75.8324 174.088 76.951 173.932C77.6445 173.835 78.778 173.671 79.1584 173.417V174.633C79.1584 175.833 78.1665 176.751 76.772 176.751Z" fill="#8D96B2"/>
<path d="M87.9543 163.454H84.7775V178.727H87.9543V163.454Z" fill="#8D96B2"/>
<path d="M94.7201 178.913C96.5695 178.913 97.5315 177.847 97.9715 176.892H98.1057V178.727H101.238V163.454H98.0684V169.196H97.9715C97.5464 168.264 96.6291 167.123 94.7126 167.123C92.1995 167.123 90.0741 169.077 90.0741 173.014C90.0741 176.847 92.11 178.913 94.7201 178.913ZM95.7268 176.385C94.1682 176.385 93.3181 174.998 93.3181 172.999C93.3181 171.016 94.1533 169.651 95.7268 169.651C97.2705 169.651 98.1355 170.956 98.1355 172.999C98.1355 175.043 97.2556 176.385 95.7268 176.385Z" fill="#8D96B2"/>
<path d="M108.77 163.454V178.727H111.902V168.749H112.029L115.981 178.652H118.114L122.066 168.786H122.193V178.727H125.325V163.454H121.343L117.137 173.715H116.958L112.752 163.454H108.77Z" fill="#8D96B2"/>
<path d="M133.101 178.95C136.577 178.95 138.739 176.572 138.739 173.044C138.739 169.494 136.577 167.123 133.101 167.123C129.626 167.123 127.464 169.494 127.464 173.044C127.464 176.572 129.626 178.95 133.101 178.95ZM133.116 176.489C131.513 176.489 130.693 175.02 130.693 173.022C130.693 171.023 131.513 169.547 133.116 169.547C134.69 169.547 135.51 171.023 135.51 173.022C135.51 175.02 134.69 176.489 133.116 176.489Z" fill="#8D96B2"/>
<path d="M146.898 167.272H144.742V164.528H141.565V167.272H139.999V169.659H141.565V175.624C141.551 177.869 143.079 178.98 145.384 178.883C146.204 178.853 146.786 178.689 147.106 178.585L146.607 176.221C146.45 176.251 146.115 176.325 145.816 176.325C145.182 176.325 144.742 176.087 144.742 175.207V169.659H146.898V167.272Z" fill="#8D96B2"/>
<path d="M154.019 178.95C157.494 178.95 159.657 176.572 159.657 173.044C159.657 169.494 157.494 167.123 154.019 167.123C150.544 167.123 148.382 169.494 148.382 173.044C148.382 176.572 150.544 178.95 154.019 178.95ZM154.034 176.489C152.431 176.489 151.611 175.02 151.611 173.022C151.611 171.023 152.431 169.547 154.034 169.547C155.608 169.547 156.428 171.023 156.428 173.022C156.428 175.02 155.608 176.489 154.034 176.489Z" fill="#8D96B2"/>
<path d="M161.723 178.727H164.9V172.246C164.9 170.837 165.929 169.867 167.331 169.867C167.771 169.867 168.375 169.942 168.673 170.039V167.22C168.39 167.153 167.994 167.108 167.674 167.108C166.391 167.108 165.34 167.854 164.922 169.271H164.803V167.272H161.723V178.727Z" fill="#8D96B2"/>
<path d="M179.846 170.538C179.563 168.428 177.862 167.123 174.969 167.123C172.038 167.123 170.107 168.48 170.114 170.688C170.107 172.403 171.188 173.514 173.425 173.961L175.409 174.357C176.408 174.558 176.863 174.923 176.878 175.498C176.863 176.176 176.125 176.661 175.014 176.661C173.88 176.661 173.127 176.176 172.933 175.244L169.808 175.408C170.107 177.601 171.971 178.95 175.006 178.95C177.974 178.95 180.1 177.437 180.107 175.177C180.1 173.521 179.018 172.53 176.796 172.075L174.723 171.657C173.656 171.426 173.261 171.061 173.269 170.509C173.261 169.823 174.037 169.375 175.021 169.375C176.125 169.375 176.781 169.979 176.938 170.717L179.846 170.538Z" fill="#8D96B2"/>
<path d="M100 218.243C62.7734 218.243 32.6861 248.33 32.6861 285.557C32.6861 322.784 62.7734 352.871 100 352.871C137.227 352.871 167.314 322.784 167.314 285.557C167.314 248.33 137.227 218.243 100 218.243ZM162.979 285.557C162.979 320.234 134.677 348.536 100 348.536C65.3232 348.536 37.0207 320.234 37.0207 285.557C37.0207 250.88 65.3232 222.578 100 222.578C134.677 222.578 162.979 250.88 162.979 285.557Z" fill="#C6CAD8"/>
<path d="M132.649 257.022C133.669 258.042 134.944 259.571 135.709 260.591L149.478 251.922C148.713 251.157 147.693 249.627 146.928 248.607L138.259 254.217L137.749 254.727L138.259 253.962L142.083 246.313L139.279 243.508L131.629 247.332L130.864 247.842L131.374 247.332L136.984 238.663C135.964 237.898 134.944 237.133 133.669 236.113L125 249.627C126.02 250.392 127.55 251.667 128.57 252.432L136.729 248.097L137.239 247.587L136.984 248.862L132.649 257.022Z" fill="#C6CAD8"/>
<path d="M101.797 239.683L105.622 231.269L105.877 230.504V231.269L106.387 242.488C107.662 242.488 108.936 242.743 110.466 242.998L109.956 226.424C108.172 226.169 106.132 226.169 104.347 225.914L100.777 235.093L100.522 235.858L100.267 235.093L96.6976 225.914C94.9127 225.914 92.8729 226.169 91.0881 226.424L90.5781 242.998C91.853 242.743 93.3829 242.488 94.6577 242.488L94.4028 231.269V230.504L94.6577 231.269L98.4824 239.683H101.797Z" fill="#C6CAD8"/>
<path d="M71.4551 252.942C73.4949 250.647 74.7698 248.097 72.73 245.547C71.4551 244.018 69.6703 243.763 67.8854 244.528H67.6304V244.273C68.1404 243.763 68.1404 241.723 66.6105 240.193C65.5906 239.683 64.5707 239.428 63.5508 239.428C61.511 239.683 59.9811 240.958 55.6465 245.802C54.3716 247.332 52.5868 249.372 51.3119 250.902L63.0409 261.866C66.8655 257.531 68.3954 256.002 71.4551 252.942ZM56.4115 250.137C58.7063 247.332 61.256 244.783 62.2759 243.763C62.5309 243.508 63.0409 242.998 63.5508 242.998C64.3157 242.743 65.0807 243.253 65.3357 244.018C65.5906 244.783 65.0807 245.547 64.5707 246.057C63.0409 247.587 58.7063 252.177 58.7063 252.177L56.4115 250.137ZM61.001 254.472C61.001 254.472 65.3357 249.882 66.8655 248.352C67.3755 247.842 67.8854 247.332 68.1404 247.077C68.6504 246.822 69.1603 246.822 69.6703 247.077C70.1802 247.332 70.4352 248.097 70.1802 248.607C70.1802 249.372 69.6703 249.882 69.1603 250.392C68.6504 251.157 63.2958 256.766 63.2958 256.766L61.001 254.472Z" fill="#C6CAD8"/>
<path fill-rule="evenodd" clip-rule="evenodd" d="M140.019 284.557C139.5 263.172 122.384 246.057 101 245.538C100.667 245.53 100.334 245.526 99.9996 245.526V285.557H140.031C140.031 285.223 140.027 284.889 140.019 284.557ZM139.019 284.557C138.5 263.725 121.832 247.056 101 246.538V284.557H139.019Z" fill="#C6CAD8"/>
<path fill-rule="evenodd" clip-rule="evenodd" d="M99.9996 285.557L59.9684 285.557C59.9684 285.892 59.9725 286.225 59.9805 286.557C60.4994 307.942 77.6152 325.058 98.9998 325.576C99.3321 325.585 99.6655 325.589 99.9998 325.589L99.9996 285.557ZM98.9998 286.557H60.9809C61.4991 307.389 78.1676 324.058 98.9998 324.576V286.557Z" fill="#C6CAD8"/>
<path d="M99.9996 245.526V285.557L59.9684 285.557C59.9684 263.374 77.8166 245.526 99.9996 245.526Z" fill="#C6CAD8"/>
<path d="M140.031 285.557C140.031 307.74 122.183 325.589 99.9998 325.589L99.9996 285.557H140.031Z" fill="#C6CAD8"/>
<path d="M19.8274 376.97H30.1484V374.308H23.0564V370.661H29.5891V367.999H23.0564V364.359H30.1186V361.697H19.8274V376.97Z" fill="#C6CAD8"/>
<path d="M32.6261 376.97H35.803V370.094C35.803 368.826 36.6084 367.984 37.6673 367.984C38.7114 367.984 39.4124 368.7 39.4124 369.826V376.97H42.4923V369.975C42.4923 368.789 43.1709 367.984 44.3268 367.984C45.341 367.984 46.1016 368.618 46.1016 369.893V376.97H49.271V369.266C49.271 366.783 47.7945 365.366 45.6616 365.366C43.9837 365.366 42.6787 366.224 42.2089 367.536H42.0896C41.7241 366.209 40.5533 365.366 38.9798 365.366C37.4361 365.366 36.2653 366.186 35.7881 367.536H35.6538V365.515H32.6261V376.97Z" fill="#C6CAD8"/>
<path d="M57.0006 377.194C59.8344 377.194 61.7435 375.814 62.1909 373.689L59.2527 373.495C58.9321 374.367 58.1117 374.822 57.0528 374.822C55.4644 374.822 54.4576 373.771 54.4576 372.063V372.055H62.2581V371.183C62.2581 367.29 59.9015 365.366 56.8738 365.366C53.5031 365.366 51.3181 367.76 51.3181 371.295C51.3181 374.927 53.4733 377.194 57.0006 377.194ZM54.4576 370.087C54.5247 368.782 55.5166 367.738 56.926 367.738C58.3056 367.738 59.2602 368.722 59.2676 370.087H54.4576Z" fill="#C6CAD8"/>
<path d="M64.3312 376.97H67.5081V370.489C67.5081 369.08 68.5372 368.111 69.9392 368.111C70.3791 368.111 70.9832 368.185 71.2815 368.282V365.463C70.9981 365.396 70.6029 365.351 70.2822 365.351C68.9995 365.351 67.948 366.097 67.5304 367.514H67.4111V365.515H64.3312V376.97Z" fill="#C6CAD8"/>
<path d="M75.8622 377.186C77.555 377.186 78.6513 376.448 79.2106 375.381H79.3V376.97H82.3128V369.244C82.3128 366.515 80.001 365.366 77.4506 365.366C74.7063 365.366 72.9016 366.679 72.4616 368.767L75.3998 369.005C75.6161 368.245 76.2947 367.685 77.4357 367.685C78.517 367.685 79.136 368.23 79.136 369.169V369.214C79.136 369.952 78.353 370.049 76.3618 370.243C74.0948 370.452 72.0589 371.213 72.0589 373.771C72.0589 376.038 73.6772 377.186 75.8622 377.186ZM76.772 374.994C75.7951 374.994 75.0941 374.539 75.0941 373.666C75.0941 372.771 75.8324 372.331 76.951 372.175C77.6445 372.078 78.778 371.914 79.1584 371.66V372.876C79.1584 374.076 78.1665 374.994 76.772 374.994Z" fill="#C6CAD8"/>
<path d="M87.9543 361.697H84.7775V376.97H87.9543V361.697Z" fill="#C6CAD8"/>
<path d="M94.7201 377.156C96.5695 377.156 97.5315 376.09 97.9715 375.135H98.1057V376.97H101.238V361.697H98.0684V367.439H97.9715C97.5464 366.507 96.6291 365.366 94.7126 365.366C92.1995 365.366 90.0741 367.32 90.0741 371.258C90.0741 375.091 92.11 377.156 94.7201 377.156ZM95.7268 374.628C94.1682 374.628 93.3181 373.241 93.3181 371.243C93.3181 369.259 94.1533 367.894 95.7268 367.894C97.2705 367.894 98.1355 369.199 98.1355 371.243C98.1355 373.286 97.2556 374.628 95.7268 374.628Z" fill="#C6CAD8"/>
<path d="M108.77 361.697V376.97H111.902V366.992H112.029L115.981 376.895H118.114L122.066 367.029H122.193V376.97H125.325V361.697H121.343L117.137 371.959H116.958L112.752 361.697H108.77Z" fill="#C6CAD8"/>
<path d="M133.101 377.194C136.577 377.194 138.739 374.815 138.739 371.287C138.739 367.738 136.577 365.366 133.101 365.366C129.626 365.366 127.464 367.738 127.464 371.287C127.464 374.815 129.626 377.194 133.101 377.194ZM133.116 374.733C131.513 374.733 130.693 373.264 130.693 371.265C130.693 369.266 131.513 367.79 133.116 367.79C134.69 367.79 135.51 369.266 135.51 371.265C135.51 373.264 134.69 374.733 133.116 374.733Z" fill="#C6CAD8"/>
<path d="M146.898 365.515H144.742V362.771H141.565V365.515H139.999V367.902H141.565V373.868C141.551 376.112 143.079 377.223 145.384 377.126C146.204 377.097 146.786 376.933 147.106 376.828L146.607 374.464C146.45 374.494 146.115 374.569 145.816 374.569C145.182 374.569 144.742 374.33 144.742 373.45V367.902H146.898V365.515Z" fill="#C6CAD8"/>
<path d="M154.019 377.194C157.494 377.194 159.657 374.815 159.657 371.287C159.657 367.738 157.494 365.366 154.019 365.366C150.544 365.366 148.382 367.738 148.382 371.287C148.382 374.815 150.544 377.194 154.019 377.194ZM154.034 374.733C152.431 374.733 151.611 373.264 151.611 371.265C151.611 369.266 152.431 367.79 154.034 367.79C155.608 367.79 156.428 369.266 156.428 371.265C156.428 373.264 155.608 374.733 154.034 374.733Z" fill="#C6CAD8"/>
<path d="M161.723 376.97H164.9V370.489C164.9 369.08 165.929 368.111 167.331 368.111C167.771 368.111 168.375 368.185 168.673 368.282V365.463C168.39 365.396 167.994 365.351 167.674 365.351C166.391 365.351 165.34 366.097 164.922 367.514H164.803V365.515H161.723V376.97Z" fill="#C6CAD8"/>
<path d="M179.846 368.782C179.563 366.671 177.862 365.366 174.969 365.366C172.038 365.366 170.107 366.723 170.114 368.931C170.107 370.646 171.188 371.757 173.425 372.205L175.409 372.6C176.408 372.801 176.863 373.167 176.878 373.741C176.863 374.419 176.125 374.904 175.014 374.904C173.88 374.904 173.127 374.419 172.933 373.487L169.808 373.651C170.107 375.844 171.971 377.194 175.006 377.194C177.974 377.194 180.1 375.68 180.107 373.42C180.1 371.765 179.018 370.773 176.796 370.318L174.723 369.9C173.656 369.669 173.261 369.304 173.269 368.752C173.261 368.066 174.037 367.618 175.021 367.618C176.125 367.618 176.781 368.222 176.938 368.961L179.846 368.782Z" fill="#C6CAD8"/>
</g>
<defs>
<clipPath id="clip0">
<rect width="200" height="400" rx="8" fill="white"/>
</clipPath>
</defs>
</svg>
