<svg viewBox="0 0 254 46" fill="none" xmlns="http://www.w3.org/2000/svg">
<path d="M56.4622 33.241L51.5587 18.4465H55.5936L58.3676 28.4496L61.3657 18.4465H64.7562L67.7543 28.4776L70.5843 18.4465H74.4791L69.5756 33.241H65.961L62.9909 23.2379L60.0208 33.241H56.4622Z" fill="white"/>
<path d="M82.8371 33.6613C81.735 33.6613 80.7169 33.4745 79.7829 33.1009C78.8676 32.7087 78.0737 32.1669 77.4013 31.4758C76.7288 30.7659 76.2057 29.9347 75.8321 28.982C75.4585 28.0106 75.2717 26.9552 75.2717 25.8157C75.2717 24.7136 75.4585 23.6862 75.8321 22.7335C76.2057 21.7809 76.7194 20.9589 77.3732 20.2678C78.0457 19.5579 78.8303 19.0069 79.7269 18.6146C80.6236 18.2223 81.5949 18.0262 82.641 18.0262C83.7244 18.0262 84.7051 18.213 85.5831 18.5866C86.4797 18.9602 87.2456 19.4926 87.8807 20.1837C88.5158 20.8749 89.0015 21.6968 89.3378 22.6495C89.6927 23.6022 89.8701 24.6669 89.8701 25.8438V26.8245H79.2506C79.4187 27.9266 79.8203 28.7952 80.4554 29.4303C81.0905 30.0468 81.8938 30.355 82.8651 30.355C83.5376 30.355 84.1447 30.1962 84.6864 29.8786C85.2468 29.5611 85.7045 29.1034 86.0594 28.5057L89.5619 29.6265C89.2257 30.4671 88.7213 31.1862 88.0488 31.784C87.3764 32.3818 86.5918 32.8488 85.6952 33.185C84.7985 33.5026 83.8458 33.6613 82.8371 33.6613ZM82.641 21.0523C81.7817 21.0523 81.0532 21.3325 80.4554 21.8929C79.8764 22.4533 79.4934 23.2192 79.3066 24.1906H85.8353C85.6858 23.2192 85.3216 22.4533 84.7425 21.8929C84.1821 21.3325 83.4816 21.0523 82.641 21.0523Z" fill="white"/>
<path d="M97.7928 33.6613C96.7467 33.6613 95.794 33.4932 94.9347 33.157C94.0941 32.8207 93.375 32.3444 92.7772 31.728C92.1981 31.1115 91.7965 30.383 91.5723 29.5424L95.1029 28.7859C95.2897 29.3649 95.6259 29.8226 96.1116 30.1588C96.5973 30.4951 97.1763 30.6632 97.8488 30.6632C98.4839 30.6632 99.007 30.5231 99.4179 30.2429C99.8289 29.9627 100.034 29.5798 100.034 29.0941C100.034 28.6831 99.8476 28.3469 99.474 28.0854C99.1191 27.8052 98.5213 27.5903 97.6807 27.4409L96.8961 27.3008C95.2897 27.0206 94.0661 26.4976 93.2255 25.7317C92.4036 24.9658 91.9926 23.9944 91.9926 22.8176C91.9926 21.8836 92.2355 21.0617 92.7212 20.3518C93.2068 19.6233 93.8793 19.0536 94.7386 18.6426C95.5979 18.2317 96.5879 18.0262 97.7087 18.0262C98.6988 18.0262 99.5954 18.1943 100.399 18.5305C101.221 18.8481 101.902 19.3058 102.444 19.9035C102.986 20.5013 103.359 21.2205 103.565 22.0611L100.062 22.7896C99.8756 22.2292 99.5674 21.7902 99.1377 21.4726C98.7268 21.1551 98.2411 20.9963 97.6807 20.9963C97.1016 20.9963 96.6253 21.1364 96.2517 21.4166C95.8781 21.6968 95.6913 22.0517 95.6913 22.4814C95.6913 22.855 95.8687 23.1725 96.2237 23.434C96.5973 23.6769 97.223 23.873 98.101 24.0225L98.8856 24.1626C100.473 24.4428 101.688 24.9751 102.528 25.7597C103.369 26.5256 103.789 27.5063 103.789 28.7018C103.789 29.4303 103.64 30.0935 103.341 30.6912C103.061 31.289 102.65 31.812 102.108 32.2603C101.566 32.7087 100.931 33.0542 100.202 33.2971C99.474 33.5399 98.6707 33.6613 97.7928 33.6613Z" fill="white"/>
<path d="M112.403 33.6613C111.376 33.6613 110.488 33.4652 109.741 33.0729C109.013 32.6619 108.443 32.0735 108.032 31.3077C107.64 30.5418 107.443 29.6078 107.443 28.5057V21.6127H104.922V18.4465H107.443V13.4029H111.366V18.4465H115.401V21.6127H111.366V28.0293C111.366 28.7392 111.516 29.2902 111.815 29.6825C112.113 30.0561 112.571 30.2429 113.188 30.2429C113.505 30.2429 113.841 30.1962 114.196 30.1028C114.57 30.0094 114.925 29.888 115.261 29.7385L115.962 32.6806C115.476 32.9795 114.934 33.213 114.336 33.3811C113.739 33.5679 113.094 33.6613 112.403 33.6613Z" fill="white"/>
<path d="M125.004 33.6613C123.902 33.6613 122.884 33.4745 121.95 33.1009C121.034 32.7087 120.24 32.1669 119.568 31.4758C118.896 30.7659 118.372 29.9347 117.999 28.982C117.625 28.0106 117.438 26.9552 117.438 25.8157C117.438 24.7136 117.625 23.6862 117.999 22.7335C118.372 21.7809 118.886 20.9589 119.54 20.2678C120.212 19.5579 120.997 19.0069 121.894 18.6146C122.79 18.2223 123.762 18.0262 124.808 18.0262C125.891 18.0262 126.872 18.213 127.75 18.5866C128.646 18.9602 129.412 19.4926 130.047 20.1837C130.683 20.8749 131.168 21.6968 131.505 22.6495C131.859 23.6022 132.037 24.6669 132.037 25.8438V26.8245H121.417C121.585 27.9266 121.987 28.7952 122.622 29.4303C123.257 30.0468 124.061 30.355 125.032 30.355C125.704 30.355 126.311 30.1962 126.853 29.8786C127.414 29.5611 127.871 29.1034 128.226 28.5057L131.729 29.6265C131.392 30.4671 130.888 31.1862 130.216 31.784C129.543 32.3818 128.759 32.8488 127.862 33.185C126.965 33.5026 126.013 33.6613 125.004 33.6613ZM124.808 21.0523C123.948 21.0523 123.22 21.3325 122.622 21.8929C122.043 22.4533 121.66 23.2192 121.473 24.1906H128.002C127.853 23.2192 127.488 22.4533 126.909 21.8929C126.349 21.3325 125.648 21.0523 124.808 21.0523Z" fill="white"/>
<path d="M134.472 33.241V12.3381H138.394V33.241H134.472Z" fill="white"/>
<path d="M148.536 33.6613C147.434 33.6613 146.416 33.4745 145.482 33.1009C144.567 32.7087 143.773 32.1669 143.1 31.4758C142.428 30.7659 141.905 29.9347 141.531 28.982C141.158 28.0106 140.971 26.9552 140.971 25.8157C140.971 24.7136 141.158 23.6862 141.531 22.7335C141.905 21.7809 142.419 20.9589 143.072 20.2678C143.745 19.5579 144.529 19.0069 145.426 18.6146C146.323 18.2223 147.294 18.0262 148.34 18.0262C149.424 18.0262 150.404 18.213 151.282 18.5866C152.179 18.9602 152.945 19.4926 153.58 20.1837C154.215 20.8749 154.701 21.6968 155.037 22.6495C155.392 23.6022 155.569 24.6669 155.569 25.8438V26.8245H144.95C145.118 27.9266 145.519 28.7952 146.155 29.4303C146.79 30.0468 147.593 30.355 148.564 30.355C149.237 30.355 149.844 30.1962 150.386 29.8786C150.946 29.5611 151.404 29.1034 151.759 28.5057L155.261 29.6265C154.925 30.4671 154.42 31.1862 153.748 31.784C153.076 32.3818 152.291 32.8488 151.394 33.185C150.498 33.5026 149.545 33.6613 148.536 33.6613ZM148.34 21.0523C147.481 21.0523 146.752 21.3325 146.155 21.8929C145.576 22.4533 145.193 23.2192 145.006 24.1906H151.534C151.385 23.2192 151.021 22.4533 150.442 21.8929C149.881 21.3325 149.181 21.0523 148.34 21.0523Z" fill="white"/>
<path d="M165.006 33.6613C163.941 33.6613 162.951 33.4745 162.036 33.1009C161.139 32.7087 160.354 32.1669 159.682 31.4758C159.028 30.7846 158.514 29.972 158.141 29.038C157.767 28.0854 157.58 27.058 157.58 25.9558C157.58 24.835 157.767 23.7983 158.141 22.8456C158.533 21.8743 159.065 21.0337 159.738 20.3238C160.429 19.5953 161.232 19.0349 162.148 18.6426C163.063 18.2317 164.053 18.0262 165.118 18.0262C166.183 18.0262 167.163 18.2317 168.06 18.6426C168.956 19.0349 169.713 19.5953 170.329 20.3238C170.965 21.0523 171.404 21.9023 171.646 22.8736L167.92 23.6022C167.64 22.967 167.247 22.472 166.743 22.1171C166.239 21.7435 165.669 21.5567 165.034 21.5567C164.361 21.5567 163.763 21.7435 163.24 22.1171C162.736 22.4907 162.334 23.0137 162.036 23.6862C161.737 24.34 161.587 25.0779 161.587 25.8998C161.587 26.7217 161.727 27.4502 162.008 28.0854C162.306 28.7205 162.717 29.2248 163.24 29.5984C163.763 29.9534 164.361 30.1308 165.034 30.1308C165.706 30.1308 166.313 29.9534 166.855 29.5984C167.397 29.2435 167.798 28.7392 168.06 28.0854L171.787 28.8139C171.544 29.8039 171.086 30.6632 170.414 31.3917C169.76 32.1202 168.966 32.6806 168.032 33.0729C167.098 33.4652 166.089 33.6613 165.006 33.6613Z" fill="white"/>
<path d="M181.101 33.6613C179.999 33.6613 178.981 33.4652 178.047 33.0729C177.113 32.6806 176.3 32.1389 175.609 31.4478C174.918 30.7379 174.376 29.9067 173.984 28.954C173.61 28.0013 173.424 26.9646 173.424 25.8438C173.424 24.723 173.62 23.6956 174.012 22.7616C174.404 21.8089 174.946 20.9776 175.637 20.2678C176.347 19.5579 177.169 19.0069 178.103 18.6146C179.056 18.2223 180.092 18.0262 181.213 18.0262C182.315 18.0262 183.333 18.2223 184.267 18.6146C185.201 19.0069 186.014 19.5579 186.705 20.2678C187.396 20.9589 187.929 21.7809 188.302 22.7335C188.695 23.6675 188.891 24.6949 188.891 25.8157C188.891 26.9365 188.695 27.9733 188.302 28.926C187.91 29.8786 187.359 30.7099 186.649 31.4197C185.958 32.1296 185.136 32.6806 184.183 33.0729C183.249 33.4652 182.222 33.6613 181.101 33.6613ZM181.157 30.1308C181.867 30.1308 182.502 29.944 183.063 29.5704C183.623 29.1968 184.062 28.6925 184.38 28.0573C184.716 27.4035 184.884 26.6657 184.884 25.8438C184.884 25.0218 184.716 24.2933 184.38 23.6582C184.062 23.0044 183.623 22.4907 183.063 22.1171C182.502 21.7435 181.867 21.5567 181.157 21.5567C180.447 21.5567 179.812 21.7435 179.252 22.1171C178.691 22.4907 178.243 23.0044 177.907 23.6582C177.589 24.2933 177.431 25.0218 177.431 25.8438C177.431 26.6657 177.589 27.4035 177.907 28.0573C178.243 28.6925 178.691 29.1968 179.252 29.5704C179.812 29.944 180.447 30.1308 181.157 30.1308Z" fill="white"/>
<path d="M191.469 33.241V18.4465H195.084L195.196 20.3238C195.626 19.614 196.205 19.0536 196.933 18.6426C197.662 18.2317 198.484 18.0262 199.399 18.0262C200.389 18.0262 201.267 18.269 202.033 18.7547C202.817 19.2404 203.424 19.9129 203.854 20.7721C204.302 19.9502 204.947 19.2871 205.787 18.7827C206.647 18.2784 207.627 18.0262 208.73 18.0262C209.832 18.0262 210.784 18.2877 211.588 18.8107C212.391 19.3151 213.007 20.0436 213.437 20.9963C213.885 21.949 214.109 23.0698 214.109 24.3587V33.241H210.187V24.8631C210.187 23.8357 209.962 23.0324 209.514 22.4533C209.066 21.8556 208.44 21.5567 207.637 21.5567C207.076 21.5567 206.572 21.6968 206.124 21.977C205.694 22.2385 205.358 22.6121 205.115 23.0978C204.872 23.5835 204.751 24.1345 204.751 24.751V33.241H200.828V24.8631C200.828 23.8357 200.604 23.0324 200.155 22.4533C199.707 21.8556 199.081 21.5567 198.278 21.5567C197.718 21.5567 197.213 21.6968 196.765 21.977C196.335 22.2385 195.999 22.6121 195.756 23.0978C195.513 23.5835 195.392 24.1345 195.392 24.751V33.241H191.469Z" fill="white"/>
<path d="M219.459 33.3531C218.992 33.3531 218.572 33.241 218.198 33.0169C217.843 32.7927 217.554 32.4938 217.329 32.1202C217.105 31.7466 216.993 31.3357 216.993 30.8874C216.993 30.439 217.105 30.0281 217.329 29.6545C217.554 29.2809 217.843 28.982 218.198 28.7578C218.572 28.5337 218.992 28.4216 219.459 28.4216C219.926 28.4216 220.337 28.5337 220.692 28.7578C221.065 28.982 221.364 29.2809 221.588 29.6545C221.813 30.0281 221.925 30.439 221.925 30.8874C221.925 31.3357 221.813 31.7466 221.588 32.1202C221.364 32.4938 221.065 32.7927 220.692 33.0169C220.337 33.241 219.926 33.3531 219.459 33.3531Z" fill="white"/>
<path d="M231.111 33.6613C229.766 33.6613 228.589 33.3811 227.58 32.8207C226.59 32.2416 225.815 31.4291 225.255 30.383C224.713 29.3182 224.442 28.0667 224.442 26.6283V18.4465H228.365V26.7124C228.365 27.7771 228.617 28.6177 229.121 29.2342C229.626 29.8319 230.307 30.1308 231.167 30.1308C232.026 30.1308 232.708 29.8319 233.212 29.2342C233.717 28.6177 233.969 27.7771 233.969 26.7124V18.4465H237.892V26.6283C237.892 27.6931 237.733 28.6551 237.415 29.5144C237.098 30.3737 236.64 31.1115 236.042 31.728C235.444 32.3444 234.725 32.8207 233.885 33.157C233.063 33.4932 232.138 33.6613 231.111 33.6613Z" fill="white"/>
<path d="M245.591 33.6613C244.825 33.6613 244.125 33.5492 243.49 33.3251C242.855 33.1009 242.294 32.7834 241.809 32.3724C241.342 31.9428 240.977 31.4478 240.716 30.8874C240.454 30.327 240.324 29.7105 240.324 29.038C240.324 28.104 240.576 27.2821 241.08 26.5723C241.584 25.8624 242.294 25.3114 243.21 24.9191C244.125 24.5081 245.19 24.3027 246.404 24.3027C247.02 24.3027 247.599 24.3587 248.141 24.4708C248.702 24.5829 249.243 24.7416 249.766 24.9471V24.0785C249.766 23.2379 249.523 22.5561 249.038 22.033C248.571 21.51 247.926 21.2485 247.104 21.2485C246.488 21.2485 245.928 21.4073 245.423 21.7248C244.919 22.0237 244.564 22.4533 244.358 23.0137L240.856 22.3132C241.061 21.454 241.463 20.7068 242.061 20.0716C242.677 19.4178 243.424 18.9135 244.302 18.5586C245.18 18.2036 246.133 18.0262 247.16 18.0262C248.113 18.0262 248.982 18.1756 249.766 18.4745C250.551 18.7734 251.223 19.203 251.784 19.7634C252.363 20.3238 252.802 20.987 253.101 21.7528C253.418 22.5 253.577 23.3406 253.577 24.2746V33.241H250.074L249.962 31.5038C249.57 32.1389 249 32.6619 248.253 33.0729C247.506 33.4652 246.619 33.6613 245.591 33.6613ZM244.19 28.8419C244.19 29.3649 244.405 29.7946 244.835 30.1308C245.264 30.4671 245.834 30.6352 246.544 30.6352C247.16 30.6352 247.711 30.5044 248.197 30.2429C248.683 29.9814 249.066 29.6265 249.346 29.1781C249.626 28.7111 249.766 28.1974 249.766 27.637V27.4969C249.355 27.3288 248.916 27.1981 248.449 27.1047C247.982 26.9926 247.515 26.9365 247.048 26.9365C246.17 26.9365 245.47 27.114 244.947 27.4689C244.442 27.8052 244.19 28.2628 244.19 28.8419Z" fill="white"/>
<path fill-rule="evenodd" clip-rule="evenodd" d="M4.40063 40.6028H22.0037C31.7256 40.6028 39.6067 32.7217 39.6067 22.9998C39.6067 13.2779 31.7256 5.39673 22.0037 5.39673C12.2818 5.39673 4.40063 13.2779 4.40063 22.9998V40.6028ZM22.0037 0.996094C9.85139 0.996094 0 10.8475 0 22.9998L0 45.0035H22.0037C34.156 45.0035 44.0074 35.1521 44.0074 22.9998C44.0074 10.8475 34.156 0.996094 22.0037 0.996094Z" fill="white"/>
<circle cx="12.3486" cy="22.9999" r="3.37785" fill="#00D37F"/>
<circle cx="22.0032" cy="22.9997" r="3.37785" fill="#00D37F"/>
<circle cx="31.6581" cy="22.9997" r="3.37785" fill="#00D37F"/>
</svg>
