<svg width="122" height="30" viewBox="0 0 122 30" fill="none" xmlns="http://www.w3.org/2000/svg">
<path d="M61.3004 16.1563C58.848 16.1563 56.8444 18.0243 56.8444 20.5915C56.8444 23.1483 58.848 25.0267 61.3004 25.0267C63.7528 25.0267 65.7565 23.1483 65.7565 20.5915C65.7565 18.0243 63.7528 16.1563 61.3004 16.1563ZM61.3004 23.2839C59.9542 23.2839 58.7958 22.1777 58.7958 20.5915C58.7958 18.9948 59.9542 17.8991 61.3004 17.8991C62.6467 17.8991 63.805 18.9948 63.805 20.5915C63.805 22.1777 62.6362 23.2839 61.3004 23.2839ZM51.5743 16.1563C49.1219 16.1563 47.1182 18.0243 47.1182 20.5915C47.1182 23.1483 49.1219 25.0267 51.5743 25.0267C54.0267 25.0267 56.0304 23.1483 56.0304 20.5915C56.0304 18.0243 54.0267 16.1563 51.5743 16.1563ZM51.5743 23.2839C50.2281 23.2839 49.0697 22.1777 49.0697 20.5915C49.0697 18.9948 50.2281 17.8991 51.5743 17.8991C52.9205 17.8991 54.0789 18.9948 54.0789 20.5915C54.0789 22.1777 52.9205 23.2839 51.5743 23.2839ZM40.0114 17.5234V19.4018H44.5197C44.384 20.4558 44.0292 21.2385 43.497 21.7707C42.8395 22.4282 41.8168 23.1483 40.0219 23.1483C37.2459 23.1483 35.0753 20.915 35.0753 18.1391C35.0753 15.3632 37.2459 13.1299 40.0219 13.1299C41.5142 13.1299 42.6099 13.7143 43.4135 14.4761L44.7388 13.1508C43.6118 12.0759 42.1195 11.2515 40.0114 11.2515C36.2128 11.2515 33.0194 14.3405 33.0194 18.1495C33.0194 21.9482 36.2128 25.0476 40.0114 25.0476C42.0673 25.0476 43.6118 24.3797 44.8223 23.117C46.0642 21.8751 46.4503 20.1219 46.4503 18.7131C46.4503 18.2748 46.419 17.8678 46.3459 17.5338H40.0114V17.5234ZM87.296 18.9844C86.9307 17.993 85.8037 16.1563 83.4974 16.1563C81.2119 16.1563 79.3126 17.9512 79.3126 20.5915C79.3126 23.0752 81.1911 25.0267 83.7165 25.0267C85.7515 25.0267 86.9307 23.7849 87.4108 23.0648L85.8976 22.0525C85.3967 22.7935 84.7079 23.2839 83.7165 23.2839C82.7251 23.2839 82.0155 22.8248 81.5667 21.9377L87.5047 19.4853L87.296 18.9844ZM81.2432 20.4663C81.1911 18.7548 82.5686 17.8782 83.56 17.8782C84.3322 17.8782 84.9897 18.2643 85.2088 18.8174L81.2432 20.4663ZM76.4219 24.7658H78.3734V11.7211H76.4219V24.7658ZM73.2285 17.1477H73.1555C72.7172 16.6259 71.8823 16.1563 70.8179 16.1563C68.5951 16.1563 66.5601 18.1078 66.5601 20.6124C66.5601 23.0961 68.5951 25.0371 70.8179 25.0371C71.8719 25.0371 72.7172 24.5675 73.1555 24.0249H73.2181V24.6615C73.2181 26.3625 72.3102 27.2704 70.8492 27.2704C69.6595 27.2704 68.9186 26.4147 68.6159 25.6946L66.9149 26.4042C67.4054 27.5835 68.6994 29.0236 70.8492 29.0236C73.1346 29.0236 75.0652 27.6774 75.0652 24.4006V16.4276H73.2181V17.1477H73.2285ZM70.9848 23.2839C69.6386 23.2839 68.5116 22.1569 68.5116 20.6124C68.5116 19.047 69.6386 17.9095 70.9848 17.9095C72.3102 17.9095 73.3538 19.0574 73.3538 20.6124C73.3642 22.1569 72.3206 23.2839 70.9848 23.2839ZM96.4377 11.7211H91.7729V24.7658H93.7244V19.8192H96.4482C98.6084 19.8192 100.727 18.2539 100.727 15.7702C100.727 13.2864 98.5875 11.7211 96.4377 11.7211ZM96.4795 18.0034H93.714V13.5265H96.4795C97.9405 13.5265 98.7649 14.737 98.7649 15.7597C98.7649 16.7824 97.9405 18.0034 96.4795 18.0034ZM108.522 16.1354C107.114 16.1354 105.653 16.7616 105.047 18.1287L106.78 18.8487C107.145 18.1287 107.834 17.8886 108.554 17.8886C109.556 17.8886 110.589 18.4939 110.599 19.5688V19.7045C110.244 19.5062 109.493 19.2035 108.564 19.2035C106.696 19.2035 104.807 20.2262 104.807 22.136C104.807 23.8788 106.331 25.0058 108.042 25.0058C109.347 25.0058 110.077 24.4214 110.526 23.7327H110.589V24.7449H112.467V19.7462C112.478 17.4295 110.745 16.1354 108.522 16.1354ZM108.282 23.2839C107.646 23.2839 106.759 22.9604 106.759 22.1777C106.759 21.1759 107.865 20.7898 108.825 20.7898C109.681 20.7898 110.088 20.9776 110.599 21.2281C110.453 22.4282 109.409 23.2839 108.282 23.2839ZM119.323 16.4172L117.09 22.0734H117.028L114.711 16.4172H112.613L116.088 24.3275L114.106 28.721H116.141L121.494 16.4172H119.323ZM101.791 24.7658H103.743V11.7211H101.791V24.7658Z" fill="white"/>
<path d="M1.08564 1.32647C0.783 1.64998 0.605591 2.1509 0.605591 2.78748V25.8715C0.605591 26.5185 0.783 27.0194 1.08564 27.3325L1.15869 27.4055L14.0886 14.486V14.3295V14.1729L1.15869 1.25342L1.08564 1.32647Z" fill="url(#paint0_linear)"/>
<path d="M18.3985 18.7963L14.0885 14.4863V14.3298V14.1733L18.3985 9.86328L18.4924 9.91546L23.5955 12.8166C25.0565 13.641 25.0565 14.9977 23.5955 15.8326L18.4924 18.7337L18.3985 18.7963Z" fill="url(#paint1_linear)"/>
<path d="M18.4923 18.7337L14.0884 14.3298L1.08545 27.3328C1.5655 27.8442 2.35862 27.9068 3.25609 27.3954L18.4923 18.7337Z" fill="url(#paint2_linear)"/>
<path d="M18.4925 9.926L3.24584 1.26429C2.34836 0.752932 1.55524 0.815548 1.0752 1.3269L14.0886 14.3299L18.4925 9.926Z" fill="url(#paint3_linear)"/>
<path opacity="0.2" d="M18.399 18.6396L3.24627 27.2492C2.40097 27.7292 1.63916 27.6979 1.15911 27.2596L1.08606 27.3327L1.15911 27.4057C1.64959 27.844 2.40097 27.8753 3.24627 27.3953L18.493 18.7336L18.399 18.6396Z" fill="black"/>
<path opacity="0.12" d="M1.08613 27.1864C0.783489 26.8628 0.606079 26.3619 0.606079 25.7253V25.8819C0.606079 26.5289 0.783489 27.0298 1.08613 27.3429L1.15918 27.2698L1.08613 27.1864Z" fill="black"/>
<path opacity="0.12" d="M23.5956 15.6865L18.3882 18.6398L18.4821 18.7337L23.5852 15.8326C24.3157 15.4152 24.681 14.8725 24.681 14.3298C24.6288 14.8203 24.2635 15.3108 23.5956 15.6865Z" fill="black"/>
<path opacity="0.25" d="M3.24603 1.4089L23.5958 12.9718C24.2533 13.3474 24.629 13.8275 24.6916 14.3284C24.6916 13.7858 24.3263 13.2327 23.5958 12.8257L3.24603 1.2628C1.78502 0.438373 0.595337 1.12714 0.595337 2.79686V2.9534C0.595337 1.27324 1.79545 0.584475 3.24603 1.4089Z" fill="white"/>
<path d="M34.1361 8.34976H33.3639V6.25217H33.9796C34.5223 5.78256 34.7832 4.98943 34.7727 3.85193V0.762939H38.9575V6.25217H39.6567V8.34976H38.8844V7.02442H34.1361V8.34976ZM35.5867 3.86237C35.5972 4.85377 35.3989 5.64689 34.9919 6.2626H38.1539V1.53519H35.5867V3.86237Z" fill="white" stroke="white" stroke-width="0.2" stroke-miterlimit="10"/>
<path d="M45.9283 6.21083C45.3126 6.84742 44.5508 7.16049 43.6324 7.16049C42.7141 7.16049 41.9523 6.84742 41.3366 6.21083C40.7208 5.57425 40.4182 4.802 40.4182 3.89409C40.4182 2.98617 40.7208 2.20349 41.3366 1.57734C41.9523 0.940759 42.7141 0.627686 43.6324 0.627686C44.5403 0.627686 45.3022 0.940759 45.9283 1.57734C46.544 2.21393 46.8571 2.98617 46.8571 3.89409C46.8571 4.81244 46.544 5.58469 45.9283 6.21083ZM41.9314 5.68904C42.3906 6.15865 42.9645 6.38824 43.6324 6.38824C44.3003 6.38824 44.8743 6.15865 45.3335 5.68904C45.7926 5.21943 46.0327 4.62459 46.0327 3.89409C46.0327 3.16358 45.8031 2.56874 45.3335 2.09913C44.8743 1.62952 44.3003 1.39993 43.6324 1.39993C42.9645 1.39993 42.3906 1.62952 41.9314 2.09913C41.4722 2.56874 41.2322 3.16358 41.2322 3.89409C41.2322 4.62459 41.4722 5.21943 41.9314 5.68904Z" fill="white" stroke="white" stroke-width="0.2" stroke-miterlimit="10"/>
<path d="M50.9065 7.1611C49.9881 7.1611 49.2159 6.84802 48.5897 6.22188C47.9636 5.59573 47.6505 4.82348 47.6505 3.88426C47.6505 2.94504 47.9636 2.17279 48.5897 1.54664C49.2159 0.920495 49.9881 0.607422 50.9065 0.607422C51.8457 0.607422 52.6179 0.951803 53.2024 1.63013L52.6388 2.17279C52.211 1.64057 51.637 1.37967 50.896 1.37967C50.2177 1.37967 49.6333 1.60926 49.1637 2.06843C48.6941 2.52761 48.4645 3.13288 48.4645 3.87382C48.4645 4.61477 48.6941 5.22004 49.1637 5.67922C49.6333 6.13839 50.2073 6.36798 50.896 6.36798C51.6474 6.36798 52.284 6.06534 52.8162 5.46006L53.3798 6.0236C53.098 6.36798 52.7327 6.63931 52.3049 6.83759C51.877 7.06718 51.4074 7.1611 50.9065 7.1611Z" fill="white" stroke="white" stroke-width="0.2" stroke-miterlimit="10"/>
<path d="M56.6461 7.02539H55.8426V1.53616H54.0894V0.763916H58.3889V1.53616H56.6357V7.02539H56.6461Z" fill="white" stroke="white" stroke-width="0.2" stroke-miterlimit="10"/>
<path d="M63.9198 0.763916L61.5509 6.04443C61.2274 6.78537 60.7369 7.16106 60.0899 7.16106C59.902 7.16106 59.6933 7.11931 59.4637 7.02539L59.6725 6.28445C59.8081 6.3575 59.9438 6.39924 60.0899 6.39924C60.2777 6.39924 60.4238 6.36794 60.5282 6.29489C60.6326 6.22183 60.7265 6.08617 60.81 5.89833L61.0395 5.39741L58.9315 0.763916H59.8812L61.4257 4.35383H61.457L62.9702 0.763916H63.9198Z" fill="white" stroke="white" stroke-width="0.2" stroke-miterlimit="10"/>
<path d="M64.8275 7.02539V0.763916H69.3567V7.02539H68.5531V1.53616H65.6311V7.02539H64.8275Z" fill="white" stroke="white" stroke-width="0.2" stroke-miterlimit="10"/>
<path d="M70.7865 7.02539V0.763916H71.5901V3.44591H74.7208V0.763916H75.5243V7.02539H74.7208V4.19729H71.5901V7.02539H70.7865Z" fill="white" stroke="white" stroke-width="0.2" stroke-miterlimit="10"/>
<path d="M82.0888 6.21083C81.4731 6.84742 80.7113 7.16049 79.793 7.16049C78.8746 7.16049 78.1128 6.84742 77.4971 6.21083C76.8814 5.57425 76.5787 4.802 76.5787 3.89409C76.5787 2.98617 76.8814 2.20349 77.4971 1.57734C78.1128 0.940759 78.8746 0.627686 79.793 0.627686C80.7009 0.627686 81.4627 0.940759 82.0888 1.57734C82.7045 2.21393 83.0176 2.98617 83.0176 3.89409C83.0072 4.81244 82.7045 5.58469 82.0888 6.21083ZM78.0919 5.68904C78.5511 6.15865 79.1251 6.38824 79.793 6.38824C80.4609 6.38824 81.0348 6.15865 81.494 5.68904C81.9532 5.21943 82.1932 4.62459 82.1932 3.89409C82.1932 3.16358 81.9636 2.56874 81.494 2.09913C81.0348 1.62952 80.4609 1.39993 79.793 1.39993C79.1251 1.39993 78.5511 1.62952 78.0919 2.09913C77.6328 2.56874 77.3927 3.16358 77.3927 3.89409C77.3927 4.62459 77.6223 5.21943 78.0919 5.68904Z" fill="white" stroke="white" stroke-width="0.2" stroke-miterlimit="10"/>
<path d="M86.2939 7.02539V0.763916H88.5585C89.049 0.763916 89.4769 0.930888 89.8317 1.24396C90.1865 1.56747 90.3743 1.97447 90.3743 2.46495C90.3743 2.76759 90.3013 3.02848 90.1448 3.24763C89.9882 3.47722 89.7899 3.6442 89.529 3.75899V3.7903C89.8421 3.89465 90.0926 4.07206 90.2909 4.33296C90.4891 4.59385 90.5935 4.88605 90.5935 5.23044C90.5935 5.74179 90.4056 6.16966 90.03 6.5036C89.6543 6.83755 89.2055 7.01496 88.6942 7.01496H86.2939V7.02539ZM87.0975 3.44591H88.5585C88.8612 3.44591 89.1012 3.34156 89.289 3.14328C89.4769 2.945 89.5604 2.72584 89.5604 2.48582C89.5604 2.2458 89.4769 2.02665 89.289 1.82837C89.1116 1.63009 88.882 1.52573 88.5898 1.52573H87.0975V3.44591ZM87.0975 6.25314H88.7151C89.0281 6.25314 89.2786 6.14879 89.4664 5.92963C89.6543 5.71048 89.7586 5.48089 89.7586 5.22C89.7586 4.95911 89.6647 4.72952 89.456 4.5208C89.2577 4.31209 88.9968 4.19729 88.6733 4.19729H87.0871V6.25314H87.0975Z" fill="white" stroke="white" stroke-width="0.2" stroke-miterlimit="10"/>
<defs>
<linearGradient id="paint0_linear" x1="12.9404" y1="2.54714" x2="-4.57338" y2="20.0609" gradientUnits="userSpaceOnUse">
<stop stop-color="#00A0FF"/>
<stop offset="0.00657445" stop-color="#00A1FF"/>
<stop offset="0.2601" stop-color="#00BEFF"/>
<stop offset="0.5122" stop-color="#00D2FF"/>
<stop offset="0.7604" stop-color="#00DFFF"/>
<stop offset="1" stop-color="#00E3FF"/>
</linearGradient>
<linearGradient id="paint1_linear" x1="25.4994" y1="14.3313" x2="0.248036" y2="14.3313" gradientUnits="userSpaceOnUse">
<stop stop-color="#FFE000"/>
<stop offset="0.4087" stop-color="#FFBD00"/>
<stop offset="0.7754" stop-color="#FFA500"/>
<stop offset="1" stop-color="#FF9C00"/>
</linearGradient>
<linearGradient id="paint2_linear" x1="16.0994" y1="16.726" x2="-7.65067" y2="40.4761" gradientUnits="userSpaceOnUse">
<stop stop-color="#FF3A44"/>
<stop offset="1" stop-color="#C31162"/>
</linearGradient>
<linearGradient id="paint3_linear" x1="-2.19403" y1="-6.35781" x2="8.41145" y2="4.24757" gradientUnits="userSpaceOnUse">
<stop stop-color="#32A071"/>
<stop offset="0.0685" stop-color="#2DA771"/>
<stop offset="0.4762" stop-color="#15CF74"/>
<stop offset="0.8009" stop-color="#06E775"/>
<stop offset="1" stop-color="#00F076"/>
</linearGradient>
</defs>
</svg>
