<svg width="13" height="8" viewBox="0 0 13 8" fill="none" xmlns="http://www.w3.org/2000/svg">
<path d="M7.04221 6.88827L12.3823 1.54811C12.5059 1.4246 12.574 1.25973 12.574 1.08392C12.574 0.908119 12.5059 0.743243 12.3823 0.619732L11.9891 0.226467C11.7329 -0.0294338 11.3165 -0.0294338 11.0607 0.226467L6.57646 4.71072L2.08723 0.221491C1.96362 0.0979797 1.79884 0.0297852 1.62314 0.0297852C1.44724 0.0297852 1.28246 0.0979797 1.15875 0.221491L0.76568 0.614756C0.642072 0.738365 0.573975 0.903144 0.573975 1.07895C0.573975 1.25475 0.642072 1.41963 0.76568 1.54314L6.11061 6.88827C6.23461 7.01207 6.40017 7.08007 6.57617 7.07968C6.75285 7.08007 6.91831 7.01207 7.04221 6.88827Z" fill="#1D1D1F"/>
</svg>
