<svg width="165" height="166" viewBox="0 0 165 166" fill="none" xmlns="http://www.w3.org/2000/svg">
<path d="M101.129 133.23H143.499V22.0083H101.129V133.23ZM106.425 27.3046H138.203V127.933H106.425V27.3046Z" fill="#8D96B2"/>
<path d="M156.739 59.082H154.091V19.3601C154.091 14.9801 150.527 11.4157 146.147 11.4157H106.158C104.926 5.38066 99.5769 0.823242 93.1844 0.823242H13.7406C6.43974 0.823242 0.5 6.76299 0.5 14.0639V141.174C0.5 147.749 5.33018 153.175 11.6195 154.2L14.3206 165.007H34.3457L36.9938 154.414H69.9312L72.5793 165.007H92.6044L95.3055 154.2C100.726 153.318 105.066 149.171 106.158 143.822H146.147C150.527 143.822 154.091 140.258 154.091 135.878V96.1557H156.739C161.119 96.1557 164.684 92.5913 164.684 88.2113V67.0264C164.684 62.6464 161.119 59.082 156.739 59.082ZM30.2093 159.711H18.4569L17.1329 154.414H31.5334L30.2093 159.711ZM76.7157 159.711L75.3916 154.414H89.7921L88.468 159.711H76.7157ZM93.1844 149.118H13.7406C9.36062 149.118 5.79625 145.554 5.79625 141.174V14.0639C5.79625 9.68387 9.36062 6.11949 13.7406 6.11949H93.1844C96.6322 6.11949 99.5452 8.34127 100.641 11.4157H16.3887C13.4679 11.4157 11.0925 13.7911 11.0925 16.712V138.526C11.0925 141.447 13.4679 143.822 16.3887 143.822H100.641C99.5452 146.896 96.6322 149.118 93.1844 149.118ZM16.3887 48.4895H90.5362V74.9707H16.3887V48.4895ZM16.3887 80.267H90.5362V106.748H16.3887V80.267ZM16.3887 112.044H90.5362V135.878C90.5362 136.81 90.7269 137.694 91.0235 138.526H16.3887V112.044ZM90.5362 19.3601V43.1932H16.3887V16.712H91.0235C90.7269 17.5435 90.5362 18.428 90.5362 19.3601ZM148.795 135.878C148.795 137.339 147.606 138.526 146.147 138.526H98.4806C97.0215 138.526 95.8325 137.339 95.8325 135.878V19.3601C95.8325 17.8983 97.0215 16.712 98.4806 16.712H146.147C147.606 16.712 148.795 17.8983 148.795 19.3601V135.878ZM159.387 88.2113C159.387 89.6731 158.198 90.8595 156.739 90.8595H154.091V64.3782H156.739C158.198 64.3782 159.387 65.5646 159.387 67.0264V88.2113Z" fill="#8D96B2"/>
<path d="M21.685 22.0083H26.9812V27.3046H21.685V22.0083Z" fill="#8D96B2"/>
<path d="M32.2775 22.0083H37.5738V27.3046H32.2775V22.0083Z" fill="#8D96B2"/>
<path d="M21.685 32.6006H26.9812V37.8968H21.685V32.6006Z" fill="#8D96B2"/>
<path d="M32.2775 32.6006H37.5738V37.8968H32.2775V32.6006Z" fill="#8D96B2"/>
<path d="M79.9437 22.0083H85.24V37.897H79.9437V22.0083Z" fill="#8D96B2"/>
<path d="M69.3513 22.0083H74.6476V37.897H69.3513V22.0083Z" fill="#8D96B2"/>
<path d="M21.685 53.7856H26.9812V59.0819H21.685V53.7856Z" fill="#8D96B2"/>
<path d="M32.2775 53.7856H37.5738V59.0819H32.2775V53.7856Z" fill="#8D96B2"/>
<path d="M32.2775 64.3782H37.5738V69.6744H32.2775V64.3782Z" fill="#8D96B2"/>
<path d="M21.685 64.3782H26.9812V69.6744H21.685V64.3782Z" fill="#8D96B2"/>
<path d="M79.9437 53.7856H85.24V69.6744H79.9437V53.7856Z" fill="#8D96B2"/>
<path d="M69.3513 53.7856H74.6476V69.6744H69.3513V53.7856Z" fill="#8D96B2"/>
<path d="M21.685 85.5632H26.9812V90.8595H21.685V85.5632Z" fill="#8D96B2"/>
<path d="M32.2775 85.5632H37.5738V90.8595H32.2775V85.5632Z" fill="#8D96B2"/>
<path d="M32.2775 96.1558H37.5738V101.452H32.2775V96.1558Z" fill="#8D96B2"/>
<path d="M21.685 96.1558H26.9812V101.452H21.685V96.1558Z" fill="#8D96B2"/>
<path d="M79.9437 85.5632H85.24V101.452H79.9437V85.5632Z" fill="#8D96B2"/>
<path d="M69.3513 85.5632H74.6476V101.452H69.3513V85.5632Z" fill="#8D96B2"/>
<path d="M21.685 117.341H26.9812V122.637H21.685V117.341Z" fill="#8D96B2"/>
<path d="M32.2775 117.341H37.5738V122.637H32.2775V117.341Z" fill="#8D96B2"/>
<path d="M32.2775 127.933H37.5738V133.229H32.2775V127.933Z" fill="#8D96B2"/>
<path d="M21.685 127.933H26.9812V133.229H21.685V127.933Z" fill="#8D96B2"/>
<path d="M79.9437 117.341H85.24V133.23H79.9437V117.341Z" fill="#8D96B2"/>
<path d="M69.3513 117.341H74.6476V133.23H69.3513V117.341Z" fill="#8D96B2"/>
<path d="M127.61 32.6006H132.906V37.8968H127.61V32.6006Z" fill="#8D96B2"/>
<path d="M127.61 43.1934H132.906V48.4896H127.61V43.1934Z" fill="#8D96B2"/>
<path d="M127.61 53.7856H132.906V59.0819H127.61V53.7856Z" fill="#8D96B2"/>
</svg>
