<svg width="165" height="165" viewBox="0 0 165 165" fill="none" xmlns="http://www.w3.org/2000/svg">
<path d="M48.1233 11.2688V154.268H53.4195V143.675H111.678V154.268H116.975V11.2688H48.1233ZM111.678 138.379H53.4195V111.898H111.678V138.379ZM111.678 106.601H53.4195V80.12H111.678V106.601ZM111.678 74.8238H53.4195V48.3425H111.678V74.8238ZM111.678 43.0463H53.4195V16.565H111.678V43.0463Z" fill="#8D96B2"/>
<path d="M58.7157 21.8613V37.7501H85.1969V21.8613H58.7157ZM69.3082 32.4538H64.0119V27.1576H69.3082V32.4538ZM79.9007 32.4538H74.6044V27.1576H79.9007V32.4538Z" fill="#8D96B2"/>
<path d="M95.7894 21.8613H90.4932V27.1576H95.7894V21.8613Z" fill="#8D96B2"/>
<path d="M106.382 21.8613H101.086V27.1576H106.382V21.8613Z" fill="#8D96B2"/>
<path d="M95.7894 32.4536H90.4932V37.7499H95.7894V32.4536Z" fill="#8D96B2"/>
<path d="M106.382 32.4536H101.086V37.7499H106.382V32.4536Z" fill="#8D96B2"/>
<path d="M58.7157 53.6387V69.5274H85.1969V53.6387H58.7157ZM69.3082 64.2312H64.0119V58.9349H69.3082V64.2312ZM79.9007 64.2312H74.6044V58.9349H79.9007V64.2312Z" fill="#8D96B2"/>
<path d="M95.7894 53.6387H90.4932V58.9349H95.7894V53.6387Z" fill="#8D96B2"/>
<path d="M106.382 53.6387H101.086V58.9349H106.382V53.6387Z" fill="#8D96B2"/>
<path d="M95.7894 64.2312H90.4932V69.5275H95.7894V64.2312Z" fill="#8D96B2"/>
<path d="M106.382 64.2312H101.086V69.5275H106.382V64.2312Z" fill="#8D96B2"/>
<path d="M58.7157 85.4163V101.305H85.1969V85.4163H58.7157ZM69.3082 96.0088H64.0119V90.7125H69.3082V96.0088ZM79.9007 96.0088H74.6044V90.7125H79.9007V96.0088Z" fill="#8D96B2"/>
<path d="M95.7894 85.4163H90.4932V90.7125H95.7894V85.4163Z" fill="#8D96B2"/>
<path d="M106.382 85.4163H101.086V90.7125H106.382V85.4163Z" fill="#8D96B2"/>
<path d="M95.7894 96.0088H90.4932V101.305H95.7894V96.0088Z" fill="#8D96B2"/>
<path d="M106.382 96.0088H101.086V101.305H106.382V96.0088Z" fill="#8D96B2"/>
<path d="M58.7157 117.194V133.083H85.1969V117.194H58.7157ZM69.3082 127.786H64.0119V122.49H69.3082V127.786ZM79.9007 127.786H74.6044V122.49H79.9007V127.786Z" fill="#8D96B2"/>
<path d="M95.7894 117.194H90.4932V122.49H95.7894V117.194Z" fill="#8D96B2"/>
<path d="M106.382 117.194H101.086V122.49H106.382V117.194Z" fill="#8D96B2"/>
<path d="M95.7894 127.786H90.4932V133.082H95.7894V127.786Z" fill="#8D96B2"/>
<path d="M106.382 127.786H101.086V133.082H106.382V127.786Z" fill="#8D96B2"/>
<path d="M64.0119 148.971H58.7157V154.267H64.0119V148.971Z" fill="#8D96B2"/>
<path d="M74.6044 148.971H69.3081V154.267H74.6044V148.971Z" fill="#8D96B2"/>
<path d="M85.1969 148.971H79.9006V154.267H85.1969V148.971Z" fill="#8D96B2"/>
<path d="M95.7894 148.971H90.4932V154.267H95.7894V148.971Z" fill="#8D96B2"/>
<path d="M106.382 148.971H101.086V154.267H106.382V148.971Z" fill="#8D96B2"/>
<path d="M11.0496 53.6387V69.5274H32.2346V53.6387H11.0496ZM26.9383 64.2312H16.3458V58.9349H26.9383V64.2312Z" fill="#8D96B2"/>
<path d="M11.0496 85.4163V101.305H32.2346V85.4163H11.0496ZM26.9383 96.0088H16.3458V90.7125H26.9383V96.0088Z" fill="#8D96B2"/>
<path d="M11.0496 117.194V133.083H32.2346V117.194H11.0496ZM26.9383 127.786H16.3458V122.49H26.9383V127.786Z" fill="#8D96B2"/>
<path d="M16.3458 148.971H11.0496V154.267H16.3458V148.971Z" fill="#8D96B2"/>
<path d="M26.9382 148.971H21.642V154.267H26.9382V148.971Z" fill="#8D96B2"/>
<path d="M156.696 43.0463H127.567V8.62064C127.567 4.24064 124.003 0.67627 119.623 0.67627H45.4751C41.0951 0.67627 37.5308 4.24064 37.5308 8.62064V43.0463H8.4014C4.02141 43.0463 0.457031 46.6106 0.457031 50.9906V164.86H164.641V50.9906C164.641 46.6106 161.076 43.0463 156.696 43.0463ZM37.5308 159.564H5.75328V143.675H37.5308V159.564ZM37.5308 138.379H5.75328V111.897H37.5308V138.379ZM37.5308 106.601H5.75328V80.12H37.5308V106.601ZM37.5308 74.8238H5.75328V50.9906C5.75328 49.5289 6.94229 48.3425 8.4014 48.3425H37.5308V74.8238ZM122.271 159.564H42.827V8.62064C42.827 7.15888 44.016 5.97252 45.4751 5.97252H119.623C121.082 5.97252 122.271 7.15888 122.271 8.62064V159.564ZM159.344 159.564H127.567V143.675H159.344V159.564ZM159.344 138.379H127.567V111.897H159.344V138.379ZM159.344 106.601H127.567V80.12H159.344V106.601ZM159.344 74.8238H127.567V48.3425H156.696C158.155 48.3425 159.344 49.5289 159.344 50.9906V74.8238Z" fill="#8D96B2"/>
<path d="M132.863 53.6387V69.5274H154.048V53.6387H132.863ZM148.752 64.2312H138.16V58.9349H148.752V64.2312Z" fill="#8D96B2"/>
<path d="M132.863 85.4163V101.305H154.048V85.4163H132.863ZM148.752 96.0088H138.16V90.7125H148.752V96.0088Z" fill="#8D96B2"/>
<path d="M132.863 117.194V133.083H154.048V117.194H132.863ZM148.752 127.786H138.16V122.49H148.752V127.786Z" fill="#8D96B2"/>
<path d="M154.048 148.971H148.752V154.267H154.048V148.971Z" fill="#8D96B2"/>
<path d="M143.456 148.971H138.159V154.267H143.456V148.971Z" fill="#8D96B2"/>
</svg>
