<svg width="165" height="165" viewBox="0 0 165 165" fill="none" xmlns="http://www.w3.org/2000/svg">
<path d="M156.4 49.9316C160.934 49.9316 164.609 46.2563 164.609 41.7224V8.8857C164.609 4.35183 160.934 0.676514 156.4 0.676514H8.63496C4.1011 0.676514 0.425781 4.35183 0.425781 8.8857V41.7224C0.425781 46.2563 4.1011 49.9316 8.63496 49.9316H16.8441V58.1408H8.63496C4.1011 58.1408 0.425781 61.8161 0.425781 66.35V99.1867C0.425781 103.721 4.1011 107.396 8.63496 107.396H16.8441V115.605H8.63496C4.1011 115.605 0.425781 119.28 0.425781 123.814V156.651C0.425781 161.185 4.1011 164.86 8.63496 164.86H156.4C160.934 164.86 164.609 161.185 164.609 156.651V123.814C164.609 119.28 160.934 115.605 156.4 115.605H148.191V107.396H156.4C160.934 107.396 164.609 103.721 164.609 99.1867V66.35C164.609 61.8161 160.934 58.1408 156.4 58.1408H148.191V49.9316H156.4ZM156.4 121.078C157.911 121.078 159.137 122.303 159.137 123.814V156.651C159.137 158.162 157.911 159.387 156.4 159.387H8.63496C7.12379 159.387 5.89857 158.162 5.89857 156.651V123.814C5.89857 122.303 7.12379 121.078 8.63496 121.078H156.4ZM22.3169 115.605V107.396H27.7897V115.605H22.3169ZM33.2625 115.605V107.396H131.773V115.605H33.2625ZM137.246 115.605V107.396H142.718V115.605H137.246ZM156.4 63.6136C157.911 63.6136 159.137 64.8388 159.137 66.35V99.1867C159.137 100.698 157.911 101.923 156.4 101.923H8.63496C7.12379 101.923 5.89857 100.698 5.89857 99.1867V66.35C5.89857 64.8388 7.12379 63.6136 8.63496 63.6136H156.4ZM22.3169 58.1408V49.9316H27.7897V58.1408H22.3169ZM33.2625 58.1408V49.9316H131.773V58.1408H33.2625ZM137.246 58.1408V49.9316H142.718V58.1408H137.246ZM8.63496 44.4588C7.12379 44.4588 5.89857 43.2336 5.89857 41.7224V8.8857C5.89857 7.37452 7.12379 6.1493 8.63496 6.1493H156.4C157.911 6.1493 159.137 7.37452 159.137 8.8857V41.7224C159.137 43.2336 157.911 44.4588 156.4 44.4588H8.63496Z" fill="#8D96B2"/>
<path d="M87.9904 22.5677H32.759C31.2478 18.2931 26.5573 16.053 22.2831 17.5645C18.0088 19.076 15.7684 23.7659 17.2796 28.0405C18.7908 32.315 23.4813 34.5551 27.7555 33.0436C30.0934 32.2172 31.9326 30.3784 32.759 28.0405H87.9904C89.5016 28.0405 90.7268 26.8152 90.7268 25.3041C90.7268 23.7929 89.5016 22.5677 87.9904 22.5677ZM25.0533 28.0405C23.5422 28.0405 22.3169 26.8152 22.3169 25.3041C22.3169 23.7929 23.5422 22.5677 25.0533 22.5677C26.5645 22.5677 27.7897 23.7929 27.7897 25.3041C27.7897 26.8152 26.5645 28.0405 25.0533 28.0405Z" fill="#8D96B2"/>
<path d="M126.3 11.6221H120.827V17.0949H126.3V11.6221Z" fill="#8D96B2"/>
<path d="M137.246 11.6221H131.773V17.0949H137.246V11.6221Z" fill="#8D96B2"/>
<path d="M148.191 11.6221H142.718V17.0949H148.191V11.6221Z" fill="#8D96B2"/>
<path d="M115.354 11.6221H109.882V17.0949H115.354V11.6221Z" fill="#8D96B2"/>
<path d="M104.409 11.6221H98.936V17.0949H104.409V11.6221Z" fill="#8D96B2"/>
<path d="M126.3 22.5677H120.827V28.0405H126.3V22.5677Z" fill="#8D96B2"/>
<path d="M137.246 22.5677H131.773V28.0405H137.246V22.5677Z" fill="#8D96B2"/>
<path d="M148.191 22.5677H142.718V28.0405H148.191V22.5677Z" fill="#8D96B2"/>
<path d="M115.354 22.5677H109.882V28.0405H115.354V22.5677Z" fill="#8D96B2"/>
<path d="M104.409 22.5677H98.936V28.0405H104.409V22.5677Z" fill="#8D96B2"/>
<path d="M126.3 33.5132H120.827V38.986H126.3V33.5132Z" fill="#8D96B2"/>
<path d="M137.246 33.5132H131.773V38.986H137.246V33.5132Z" fill="#8D96B2"/>
<path d="M148.191 33.5132H142.718V38.986H148.191V33.5132Z" fill="#8D96B2"/>
<path d="M115.354 33.5132H109.882V38.986H115.354V33.5132Z" fill="#8D96B2"/>
<path d="M104.409 33.5132H98.936V38.986H104.409V33.5132Z" fill="#8D96B2"/>
<path d="M87.9904 80.032H32.759C31.2478 75.7574 26.5573 73.5173 22.2831 75.0288C18.0088 76.5403 15.7684 81.2302 17.2796 85.5047C18.7908 89.7793 23.4813 92.0194 27.7555 90.5079C30.0934 89.6815 31.9323 87.8423 32.7587 85.5047H87.9904C89.5016 85.5047 90.7268 84.2795 90.7268 82.7683C90.7268 81.2572 89.5016 80.032 87.9904 80.032ZM25.0533 85.5047C23.5422 85.5047 22.3169 84.2795 22.3169 82.7683C22.3169 81.2572 23.5422 80.032 25.0533 80.032C26.5645 80.032 27.7897 81.2572 27.7897 82.7683C27.7897 84.2795 26.5645 85.5047 25.0533 85.5047Z" fill="#8D96B2"/>
<path d="M126.3 69.0864H120.827V74.5592H126.3V69.0864Z" fill="#8D96B2"/>
<path d="M137.246 69.0864H131.773V74.5592H137.246V69.0864Z" fill="#8D96B2"/>
<path d="M148.191 69.0864H142.718V74.5592H148.191V69.0864Z" fill="#8D96B2"/>
<path d="M115.354 69.0864H109.882V74.5592H115.354V69.0864Z" fill="#8D96B2"/>
<path d="M104.409 69.0864H98.936V74.5592H104.409V69.0864Z" fill="#8D96B2"/>
<path d="M126.3 80.032H120.827V85.5048H126.3V80.032Z" fill="#8D96B2"/>
<path d="M137.246 80.032H131.773V85.5048H137.246V80.032Z" fill="#8D96B2"/>
<path d="M148.191 80.032H142.718V85.5048H148.191V80.032Z" fill="#8D96B2"/>
<path d="M115.354 80.032H109.882V85.5048H115.354V80.032Z" fill="#8D96B2"/>
<path d="M104.409 80.032H98.936V85.5048H104.409V80.032Z" fill="#8D96B2"/>
<path d="M126.3 90.9775H120.827V96.4503H126.3V90.9775Z" fill="#8D96B2"/>
<path d="M137.246 90.9775H131.773V96.4503H137.246V90.9775Z" fill="#8D96B2"/>
<path d="M148.191 90.9775H142.718V96.4503H148.191V90.9775Z" fill="#8D96B2"/>
<path d="M115.354 90.9775H109.882V96.4503H115.354V90.9775Z" fill="#8D96B2"/>
<path d="M104.409 90.9775H98.936V96.4503H104.409V90.9775Z" fill="#8D96B2"/>
<path d="M87.9904 137.496H32.759C31.2478 133.222 26.5573 130.982 22.2831 132.493C18.0088 134.005 15.7684 138.694 17.2796 142.969C18.7908 147.244 23.4813 149.484 27.7555 147.972C30.0934 147.146 31.9323 145.307 32.7587 142.969H87.9904C89.5016 142.969 90.7268 141.744 90.7268 140.233C90.7268 138.721 89.5016 137.496 87.9904 137.496ZM25.0533 142.969C23.5422 142.969 22.3169 141.744 22.3169 140.233C22.3169 138.721 23.5422 137.496 25.0533 137.496C26.5645 137.496 27.7897 138.721 27.7897 140.233C27.7897 141.744 26.5645 142.969 25.0533 142.969Z" fill="#8D96B2"/>
<path d="M126.3 126.551H120.827V132.023H126.3V126.551Z" fill="#8D96B2"/>
<path d="M137.246 126.551H131.773V132.023H137.246V126.551Z" fill="#8D96B2"/>
<path d="M148.191 126.551H142.718V132.023H148.191V126.551Z" fill="#8D96B2"/>
<path d="M115.354 126.551H109.882V132.023H115.354V126.551Z" fill="#8D96B2"/>
<path d="M104.409 126.551H98.936V132.023H104.409V126.551Z" fill="#8D96B2"/>
<path d="M126.3 137.496H120.827V142.969H126.3V137.496Z" fill="#8D96B2"/>
<path d="M137.246 137.496H131.773V142.969H137.246V137.496Z" fill="#8D96B2"/>
<path d="M148.191 137.496H142.718V142.969H148.191V137.496Z" fill="#8D96B2"/>
<path d="M115.354 137.496H109.882V142.969H115.354V137.496Z" fill="#8D96B2"/>
<path d="M104.409 137.496H98.936V142.969H104.409V137.496Z" fill="#8D96B2"/>
<path d="M126.3 148.442H120.827V153.915H126.3V148.442Z" fill="#8D96B2"/>
<path d="M137.246 148.442H131.773V153.915H137.246V148.442Z" fill="#8D96B2"/>
<path d="M148.191 148.442H142.718V153.915H148.191V148.442Z" fill="#8D96B2"/>
<path d="M115.354 148.442H109.882V153.915H115.354V148.442Z" fill="#8D96B2"/>
<path d="M104.409 148.442H98.936V153.915H104.409V148.442Z" fill="#8D96B2"/>
</svg>
