<svg width="40" height="66" viewBox="0 0 40 66" fill="none" xmlns="http://www.w3.org/2000/svg">
<rect x="2.38281" y="1.61719" width="35.2353" height="62" rx="6.5" stroke="#62687F" stroke-width="3"/>
<path d="M19.9936 15.584C16.1104 15.584 12.9658 18.7356 12.9658 22.6188C12.9658 26.5019 16.1104 29.6535 19.9936 29.6535C23.8838 29.6535 27.0354 26.5019 27.0354 22.6188C27.0354 18.7356 23.8838 15.584 19.9936 15.584ZM24.8686 19.8048H22.7934C22.5683 18.9255 22.2447 18.0813 21.8226 17.3005C23.117 17.7437 24.1933 18.6441 24.8686 19.8048ZM20.0006 17.0191C20.5845 17.8632 21.0417 18.7989 21.3442 19.8048H18.6569C18.9594 18.7989 19.4167 17.8632 20.0006 17.0191ZM14.5557 24.0257C14.4431 23.5755 14.3728 23.1041 14.3728 22.6188C14.3728 22.1334 14.4431 21.662 14.5557 21.2118H16.9334C16.8772 21.6761 16.8349 22.1404 16.8349 22.6188C16.8349 23.0971 16.8772 23.5614 16.9334 24.0257H14.5557ZM15.1325 25.4327H17.2078C17.4329 26.312 17.7565 27.1562 18.1786 27.937C16.8842 27.4938 15.8079 26.6004 15.1325 25.4327ZM17.2078 19.8048H15.1325C15.8079 18.6371 16.8842 17.7437 18.1786 17.3005C17.7565 18.0813 17.4329 18.9255 17.2078 19.8048ZM20.0006 28.2184C19.4167 27.3743 18.9594 26.4386 18.6569 25.4327H21.3442C21.0417 26.4386 20.5845 27.3743 20.0006 28.2184ZM21.6467 24.0257H18.3545C18.2911 23.5614 18.2419 23.0971 18.2419 22.6188C18.2419 22.1404 18.2911 21.6691 18.3545 21.2118H21.6467C21.71 21.6691 21.7593 22.1404 21.7593 22.6188C21.7593 23.0971 21.71 23.5614 21.6467 24.0257ZM21.8226 27.937C22.2447 27.1562 22.5683 26.312 22.7934 25.4327H24.8686C24.1933 26.5934 23.117 27.4938 21.8226 27.937ZM23.0677 24.0257C23.124 23.5614 23.1662 23.0971 23.1662 22.6188C23.1662 22.1404 23.124 21.6761 23.0677 21.2118H25.4455C25.5581 21.662 25.6284 22.1334 25.6284 22.6188C25.6284 23.1041 25.5581 23.5755 25.4455 24.0257H23.0677Z" fill="url(#paint0_linear)"/>
<path d="M24.0202 39.8714H23.3502V38.5315C23.3502 36.6824 21.8495 35.1816 20.0004 35.1816C18.1513 35.1816 16.6505 36.6824 16.6505 38.5315V39.8714H15.9806C15.2436 39.8714 14.6406 40.4744 14.6406 41.2114V47.9111C14.6406 48.6481 15.2436 49.251 15.9806 49.251H24.0202C24.7572 49.251 25.3602 48.6481 25.3602 47.9111V41.2114C25.3602 40.4744 24.7572 39.8714 24.0202 39.8714ZM17.9905 38.5315C17.9905 37.4193 18.8882 36.5216 20.0004 36.5216C21.1125 36.5216 22.0103 37.4193 22.0103 38.5315V39.8714H17.9905V38.5315ZM24.0202 47.9111H15.9806V41.2114H24.0202V47.9111ZM20.0004 45.9012C20.7374 45.9012 21.3403 45.2982 21.3403 44.5612C21.3403 43.8243 20.7374 43.2213 20.0004 43.2213C19.2634 43.2213 18.6605 43.8243 18.6605 44.5612C18.6605 45.2982 19.2634 45.9012 20.0004 45.9012Z" fill="url(#paint1_linear)"/>
<defs>
<linearGradient id="paint0_linear" x1="27.0354" y1="22.6188" x2="12.9658" y2="22.6188" gradientUnits="userSpaceOnUse">
<stop stop-color="#FF4BC8"/>
<stop offset="1" stop-color="#FF6A64"/>
</linearGradient>
<linearGradient id="paint1_linear" x1="25.3602" y1="42.2163" x2="14.6406" y2="42.2163" gradientUnits="userSpaceOnUse">
<stop stop-color="#FF4BC8"/>
<stop offset="1" stop-color="#FF6A64"/>
</linearGradient>
</defs>
</svg>
