<svg width="39" height="66" viewBox="0 0 39 66" fill="none" xmlns="http://www.w3.org/2000/svg">
<rect x="1.59961" y="1.61719" width="35.2353" height="62" rx="6.5" stroke="#62687F" stroke-width="3"/>
<path d="M23.237 30.2718H22.567V28.9319C22.567 27.0828 21.0663 25.582 19.2172 25.582C17.3681 25.582 15.8673 27.0828 15.8673 28.9319V30.2718H15.1974C14.4604 30.2718 13.8574 30.8748 13.8574 31.6118V38.3115C13.8574 39.0485 14.4604 39.6514 15.1974 39.6514H23.237C23.974 39.6514 24.577 39.0485 24.577 38.3115V31.6118C24.577 30.8748 23.974 30.2718 23.237 30.2718ZM17.2073 28.9319C17.2073 27.8197 18.105 26.922 19.2172 26.922C20.3293 26.922 21.2271 27.8197 21.2271 28.9319V30.2718H17.2073V28.9319ZM23.237 38.3115H15.1974V31.6118H23.237V38.3115ZM19.2172 36.3016C19.9542 36.3016 20.5571 35.6986 20.5571 34.9616C20.5571 34.2247 19.9542 33.6217 19.2172 33.6217C18.4802 33.6217 17.8772 34.2247 17.8772 34.9616C17.8772 35.6986 18.4802 36.3016 19.2172 36.3016Z" fill="url(#paint0_linear)"/>
<defs>
<linearGradient id="paint0_linear" x1="24.577" y1="32.6167" x2="13.8574" y2="32.6167" gradientUnits="userSpaceOnUse">
<stop stop-color="#FF4BC8"/>
<stop offset="1" stop-color="#FF6A64"/>
</linearGradient>
</defs>
</svg>
