<svg width="39" height="66" viewBox="0 0 39 66" fill="none" xmlns="http://www.w3.org/2000/svg">
<rect x="1.7168" y="1.50391" width="35.2353" height="62" rx="6.5" stroke="#62687F" stroke-width="3"/>
<circle cx="9.77263" cy="18.1672" r="2.29412" fill="url(#paint0_linear)"/>
<circle cx="9.77263" cy="27.7258" r="2.29412" fill="url(#paint1_linear)"/>
<circle cx="9.77263" cy="37.2844" r="2.29412" fill="url(#paint2_linear)"/>
<circle cx="19.3332" cy="18.1672" r="2.29412" fill="url(#paint3_linear)"/>
<circle cx="19.3332" cy="27.7258" r="2.29412" fill="url(#paint4_linear)"/>
<circle cx="19.3332" cy="37.2844" r="2.29412" fill="url(#paint5_linear)"/>
<circle cx="19.3332" cy="46.8429" r="2.29412" fill="url(#paint6_linear)"/>
<circle cx="28.8947" cy="18.1672" r="2.29412" fill="url(#paint7_linear)"/>
<circle cx="28.8947" cy="27.7258" r="2.29412" fill="url(#paint8_linear)"/>
<circle cx="28.8947" cy="37.2844" r="2.29412" fill="url(#paint9_linear)"/>
<defs>
<linearGradient id="paint0_linear" x1="12.0668" y1="18.1672" x2="7.47852" y2="18.1672" gradientUnits="userSpaceOnUse">
<stop stop-color="#FF4BC8"/>
<stop offset="1" stop-color="#FF6A64"/>
</linearGradient>
<linearGradient id="paint1_linear" x1="12.0668" y1="27.7258" x2="7.47852" y2="27.7258" gradientUnits="userSpaceOnUse">
<stop stop-color="#FF4BC8"/>
<stop offset="1" stop-color="#FF6A64"/>
</linearGradient>
<linearGradient id="paint2_linear" x1="12.0668" y1="37.2844" x2="7.47852" y2="37.2844" gradientUnits="userSpaceOnUse">
<stop stop-color="#FF4BC8"/>
<stop offset="1" stop-color="#FF6A64"/>
</linearGradient>
<linearGradient id="paint3_linear" x1="21.6273" y1="18.1672" x2="17.0391" y2="18.1672" gradientUnits="userSpaceOnUse">
<stop stop-color="#FF4BC8"/>
<stop offset="1" stop-color="#FF6A64"/>
</linearGradient>
<linearGradient id="paint4_linear" x1="21.6273" y1="27.7258" x2="17.0391" y2="27.7258" gradientUnits="userSpaceOnUse">
<stop stop-color="#FF4BC8"/>
<stop offset="1" stop-color="#FF6A64"/>
</linearGradient>
<linearGradient id="paint5_linear" x1="21.6273" y1="37.2844" x2="17.0391" y2="37.2844" gradientUnits="userSpaceOnUse">
<stop stop-color="#FF4BC8"/>
<stop offset="1" stop-color="#FF6A64"/>
</linearGradient>
<linearGradient id="paint6_linear" x1="21.6273" y1="46.8429" x2="17.0391" y2="46.8429" gradientUnits="userSpaceOnUse">
<stop stop-color="#FF4BC8"/>
<stop offset="1" stop-color="#FF6A64"/>
</linearGradient>
<linearGradient id="paint7_linear" x1="31.1888" y1="18.1672" x2="26.6006" y2="18.1672" gradientUnits="userSpaceOnUse">
<stop stop-color="#FF4BC8"/>
<stop offset="1" stop-color="#FF6A64"/>
</linearGradient>
<linearGradient id="paint8_linear" x1="31.1888" y1="27.7258" x2="26.6006" y2="27.7258" gradientUnits="userSpaceOnUse">
<stop stop-color="#FF4BC8"/>
<stop offset="1" stop-color="#FF6A64"/>
</linearGradient>
<linearGradient id="paint9_linear" x1="31.1888" y1="37.2844" x2="26.6006" y2="37.2844" gradientUnits="userSpaceOnUse">
<stop stop-color="#FF4BC8"/>
<stop offset="1" stop-color="#FF6A64"/>
</linearGradient>
</defs>
</svg>
