<svg width="39" height="66" viewBox="0 0 39 66" fill="none" xmlns="http://www.w3.org/2000/svg">
<path d="M15.4898 27.5985C16.6659 26.5794 18.1707 26.0193 19.727 26.0215C23.3069 26.0215 26.2088 28.9234 26.2088 32.5033C26.2088 33.8878 25.7745 35.1713 25.0356 36.2239L22.9679 32.5033H24.9124C24.9125 31.4867 24.6138 30.4925 24.0534 29.6444C23.493 28.7962 22.6956 28.1314 21.7604 27.7328C20.8253 27.3341 19.7935 27.2191 18.7935 27.4021C17.7936 27.5851 16.8694 28.058 16.136 28.762L15.4898 27.5985ZM23.9641 37.4081C22.788 38.4273 21.2833 38.9873 19.727 38.9852C16.147 38.9852 13.2451 36.0832 13.2451 32.5033C13.2451 31.1188 13.6794 29.8354 14.4183 28.7828L16.486 32.5033H14.5415C14.5414 33.5199 14.8401 34.5141 15.4005 35.3623C15.961 36.2105 16.7583 36.8752 17.6935 37.2739C18.6287 37.6725 19.6604 37.7875 20.6604 37.6045C21.6604 37.4215 22.5845 36.9486 23.3179 36.2446L23.9641 37.4081Z" fill="url(#paint0_linear)"/>
<rect x="2.10889" y="1.50391" width="35.2353" height="62" rx="6.5" stroke="#62687F" stroke-width="3"/>
<defs>
<linearGradient id="paint0_linear" x1="26.2088" y1="32.5033" x2="13.2451" y2="32.5033" gradientUnits="userSpaceOnUse">
<stop stop-color="#FF4BC8"/>
<stop offset="1" stop-color="#FF6A64"/>
</linearGradient>
</defs>
</svg>
