<svg width="22" height="23" viewBox="0 0 22 23" fill="none" xmlns="http://www.w3.org/2000/svg">
<path fill-rule="evenodd" clip-rule="evenodd" d="M2.45103 2.72977C3.54187 1.55945 5.09098 0.910703 6.9045 0.910703H10.7124C11.2647 0.910703 11.7124 1.35842 11.7124 1.9107C11.7124 2.46299 11.2647 2.9107 10.7124 2.9107H6.9045C5.58636 2.9107 4.58788 3.37051 3.91405 4.09343C3.23295 4.82416 2.80933 5.90479 2.80933 7.26659V15.7338C2.80933 17.0968 3.23139 18.1773 3.91106 18.9074C4.5832 19.6294 5.58114 20.0896 6.9045 20.0896H15.8911C17.215 20.0896 18.2132 19.6294 18.8854 18.9073C19.5652 18.1772 19.9873 17.0968 19.9873 15.7338V11.6316C19.9873 11.0793 20.435 10.6316 20.9873 10.6316C21.5395 10.6316 21.9873 11.0793 21.9873 11.6316V15.7338C21.9873 17.5095 21.4321 19.107 20.3492 20.2702C19.2588 21.4414 17.7089 22.0896 15.8911 22.0896H6.9045C5.08704 22.0896 3.53739 21.4413 2.44715 20.2701C1.36444 19.107 0.809326 17.5095 0.809326 15.7338V7.26659C0.809326 5.48961 1.36746 3.89229 2.45103 2.72977Z" fill="#1D1D1F"/>
<path fill-rule="evenodd" clip-rule="evenodd" d="M18.3358 3.28991C17.7781 2.73279 16.8739 2.73279 16.3162 3.28991L15.8575 3.7486L19.1158 7.00692L19.5748 6.54784C20.1318 5.99153 20.1327 5.08679 19.5748 4.52895L18.3358 3.28991ZM17.7016 8.42113L14.4432 5.16282L8.70586 10.9002C8.4862 11.1199 8.35963 11.4153 8.35174 11.7252L8.2815 14.55H11.0713C11.3924 14.55 11.7003 14.4224 11.9275 14.1952L17.7016 8.42113ZM14.9027 1.87493C16.2413 0.537782 18.4107 0.537782 19.7493 1.87493L20.9891 3.11473C22.3275 4.4532 22.3281 6.62448 20.9887 7.96243L13.3417 15.6094C12.7399 16.2112 11.9235 16.55 11.0713 16.55H7.25632C6.98679 16.55 6.72868 16.4412 6.54048 16.2483C6.35228 16.0553 6.24993 15.7946 6.25663 15.5251L6.35236 11.6755C6.37307 10.8531 6.70885 10.0688 7.29164 9.48599L14.9027 1.87493Z" fill="#1D1D1F"/>
</svg>
