<svg width="92" height="32" viewBox="0 0 92 32" fill="none" xmlns="http://www.w3.org/2000/svg">
<path d="M63.3296 27.4769V25.9338C63.3296 25.3423 62.9696 24.9565 62.3523 24.9565C62.0437 24.9565 61.7094 25.0594 61.4779 25.3937C61.2979 25.1108 61.0407 24.9565 60.6549 24.9565C60.3977 24.9565 60.1405 25.0337 59.9348 25.3166V25.0079H59.3947V27.4769H59.9348V26.1138C59.9348 25.6766 60.1663 25.4709 60.5263 25.4709C60.8864 25.4709 61.0664 25.7023 61.0664 26.1138V27.4769H61.6065V26.1138C61.6065 25.6766 61.8637 25.4709 62.198 25.4709C62.5581 25.4709 62.7381 25.7023 62.7381 26.1138V27.4769H63.3296ZM71.328 25.0079H70.4536V24.2621H69.9135V25.0079H69.4249V25.4966H69.9135V26.6282C69.9135 27.194 70.145 27.5283 70.7622 27.5283C70.9937 27.5283 71.2509 27.4512 71.4309 27.3483L71.2766 26.8854C71.1223 26.9882 70.9423 27.014 70.8137 27.014C70.5565 27.014 70.4536 26.8597 70.4536 26.6025V25.4966H71.328V25.0079ZM75.9059 24.9565C75.5973 24.9565 75.3916 25.1108 75.263 25.3166V25.0079H74.7229V27.4769H75.263V26.0881C75.263 25.6766 75.443 25.4452 75.7773 25.4452C75.8802 25.4452 76.0088 25.4709 76.1117 25.4966L76.266 24.9822C76.1631 24.9565 76.0088 24.9565 75.9059 24.9565ZM68.9877 25.2137C68.7305 25.0337 68.3704 24.9565 67.9847 24.9565C67.3674 24.9565 66.9559 25.2651 66.9559 25.7538C66.9559 26.1653 67.2645 26.3967 67.8046 26.4739L68.0618 26.4996C68.3447 26.551 68.499 26.6282 68.499 26.7568C68.499 26.9368 68.2933 27.0654 67.9332 27.0654C67.5732 27.0654 67.2903 26.9368 67.1102 26.8082L66.853 27.2197C67.136 27.4255 67.5217 27.5283 67.9075 27.5283C68.6276 27.5283 69.0391 27.194 69.0391 26.7311C69.0391 26.2939 68.7048 26.0624 68.1904 25.9852L67.9332 25.9595C67.7018 25.9338 67.5217 25.8824 67.5217 25.728C67.5217 25.548 67.7018 25.4452 67.9847 25.4452C68.2933 25.4452 68.6019 25.5737 68.7562 25.6509L68.9877 25.2137ZM83.3385 24.9565C83.0299 24.9565 82.8242 25.1108 82.6956 25.3166V25.0079H82.1555V27.4769H82.6956V26.0881C82.6956 25.6766 82.8756 25.4452 83.21 25.4452C83.3128 25.4452 83.4414 25.4709 83.5443 25.4966L83.6986 24.9822C83.5957 24.9565 83.4414 24.9565 83.3385 24.9565ZM76.446 26.2424C76.446 26.9882 76.9604 27.5283 77.7576 27.5283C78.1177 27.5283 78.3749 27.4512 78.6321 27.2454L78.3749 26.8082C78.1691 26.9625 77.9634 27.0397 77.7319 27.0397C77.2947 27.0397 76.9861 26.7311 76.9861 26.2424C76.9861 25.7795 77.2947 25.4709 77.7319 25.4452C77.9634 25.4452 78.1691 25.5223 78.3749 25.6766L78.6321 25.2394C78.3749 25.0337 78.1177 24.9565 77.7576 24.9565C76.9604 24.9565 76.446 25.4966 76.446 26.2424ZM81.4354 26.2424V25.0079H80.8953V25.3166C80.7153 25.0851 80.4581 24.9565 80.1237 24.9565C79.4293 24.9565 78.8893 25.4966 78.8893 26.2424C78.8893 26.9882 79.4293 27.5283 80.1237 27.5283C80.4838 27.5283 80.741 27.3997 80.8953 27.1683V27.4769H81.4354V26.2424ZM79.4551 26.2424C79.4551 25.8052 79.738 25.4452 80.2009 25.4452C80.6381 25.4452 80.9467 25.7795 80.9467 26.2424C80.9467 26.6796 80.6381 27.0397 80.2009 27.0397C79.738 27.014 79.4551 26.6796 79.4551 26.2424ZM72.9997 24.9565C72.2796 24.9565 71.7653 25.4709 71.7653 26.2424C71.7653 27.014 72.2796 27.5283 73.0255 27.5283C73.3855 27.5283 73.7456 27.4255 74.0285 27.194L73.7713 26.8082C73.5655 26.9625 73.3084 27.0654 73.0512 27.0654C72.7168 27.0654 72.3825 26.9111 72.3053 26.4739H74.1314V26.2681C74.1571 25.4709 73.6941 24.9565 72.9997 24.9565ZM72.9997 25.4194C73.3341 25.4194 73.5655 25.6252 73.617 26.011H72.3311C72.3825 25.6766 72.614 25.4194 72.9997 25.4194ZM86.399 26.2424V24.0306H85.8589V25.3166C85.6789 25.0851 85.4217 24.9565 85.0874 24.9565C84.393 24.9565 83.8529 25.4966 83.8529 26.2424C83.8529 26.9882 84.393 27.5283 85.0874 27.5283C85.4474 27.5283 85.7046 27.3997 85.8589 27.1683V27.4769H86.399V26.2424ZM84.4187 26.2424C84.4187 25.8052 84.7016 25.4452 85.1645 25.4452C85.6018 25.4452 85.9104 25.7795 85.9104 26.2424C85.9104 26.6796 85.6018 27.0397 85.1645 27.0397C84.7016 27.014 84.4187 26.6796 84.4187 26.2424ZM66.3644 26.2424V25.0079H65.8243V25.3166C65.6443 25.0851 65.3871 24.9565 65.0528 24.9565C64.3584 24.9565 63.8183 25.4966 63.8183 26.2424C63.8183 26.9882 64.3584 27.5283 65.0528 27.5283C65.4128 27.5283 65.67 27.3997 65.8243 27.1683V27.4769H66.3644V26.2424ZM64.3584 26.2424C64.3584 25.8052 64.6413 25.4452 65.1042 25.4452C65.5414 25.4452 65.85 25.7795 65.85 26.2424C65.85 26.6796 65.5414 27.0397 65.1042 27.0397C64.6413 27.014 64.3584 26.6796 64.3584 26.2424Z" fill="black"/>
<path d="M76.909 6.25928H68.8077V20.8159H76.909V6.25928Z" fill="#FF5F00"/>
<path d="M69.3221 13.5376C69.3221 10.58 70.7109 7.95673 72.8455 6.25931C71.2767 5.02483 69.2963 4.27899 67.136 4.27899C62.018 4.27899 57.8774 8.41965 57.8774 13.5376C57.8774 18.6556 62.018 22.7962 67.136 22.7962C69.2963 22.7962 71.2767 22.0504 72.8455 20.8159C70.7109 19.1442 69.3221 16.4952 69.3221 13.5376Z" fill="#EB001B"/>
<path d="M87.8393 13.5376C87.8393 18.6556 83.6986 22.7962 78.5806 22.7962C76.4203 22.7962 74.44 22.0504 72.8712 20.8159C75.0315 19.1185 76.3946 16.4952 76.3946 13.5376C76.3946 10.58 75.0058 7.95673 72.8712 6.25931C74.44 5.02483 76.4203 4.27899 78.5806 4.27899C83.6986 4.27899 87.8393 8.44537 87.8393 13.5376Z" fill="#F79E1B"/>
<path d="M20.2657 20.6059H16.6222L18.9011 6.51472H22.5444L20.2657 20.6059Z" fill="#00579F"/>
<path d="M33.4738 6.85916C32.7551 6.57405 31.6153 6.25925 30.2058 6.25925C26.6077 6.25925 24.074 8.17794 24.0584 10.9211C24.0285 12.945 25.8725 14.0691 27.2517 14.7439C28.6613 15.4335 29.1405 15.8836 29.1405 16.4983C29.1261 17.4423 28.0014 17.8774 26.9524 17.8774C25.4977 17.8774 24.7183 17.6531 23.5338 17.1279L23.054 16.9027L22.5442 20.0659C23.3987 20.4552 24.9731 20.8007 26.6077 20.8158C30.4308 20.8158 32.9197 18.9268 32.9492 16.0035C32.9637 14.3995 31.99 13.1703 29.8908 12.166C28.6165 11.5212 27.836 11.0865 27.836 10.4268C27.851 9.82706 28.4961 9.2128 29.9346 9.2128C31.1191 9.18271 31.9894 9.46743 32.6487 9.75235L32.9783 9.90198L33.4738 6.85916Z" fill="#00579F"/>
<path d="M38.3165 15.6139C38.6165 14.8044 39.7711 11.6713 39.7711 11.6713C39.756 11.7014 40.0706 10.8468 40.2505 10.3222L40.5051 11.5364C40.5051 11.5364 41.1951 14.9094 41.3449 15.6139C40.7755 15.6139 39.0361 15.6139 38.3165 15.6139ZM42.8139 6.51472H39.9957C39.1266 6.51472 38.4663 6.76936 38.0913 7.68387L32.6793 20.6057H36.5024C36.5024 20.6057 37.1318 18.8665 37.2671 18.4919C37.6865 18.4919 41.4055 18.4919 41.945 18.4919C42.0496 18.9866 42.3798 20.6057 42.3798 20.6057H45.7533L42.8139 6.51472Z" fill="#00579F"/>
<path d="M13.5789 6.51472L10.0107 16.1235L9.62079 14.1748C8.9611 11.9261 6.89218 9.48302 4.58337 8.26825L7.85173 20.5909H11.7047L17.4317 6.51472H13.5789Z" fill="#00579F"/>
<path d="M6.69732 6.51472H0.83524L0.775269 6.79944C5.34806 7.96879 8.37653 10.7875 9.62079 14.1754L8.34644 7.69921C8.13664 6.79924 7.49189 6.54441 6.69732 6.51472Z" fill="#FAA61A"/>
</svg>
