<?xml version="1.0" encoding="utf-8"?>
<!-- Generator: Adobe Illustrator 25.2.0, SVG Export Plug-In . SVG Version: 6.00 Build 0)  -->
<svg version="1.1" id="Слой_1" xmlns="http://www.w3.org/2000/svg" xmlns:xlink="http://www.w3.org/1999/xlink" x="0px" y="0px"
	 viewBox="0 0 20 40" style="enable-background:new 0 0 20 40;" xml:space="preserve">
<style type="text/css">
	.st0{clip-path:url(#SVGID_2_);}
	.st1{fill:#8D96B2;}
	.st2{fill:#C6CAD8;}
</style>
<g>
	<defs>
		<rect id="SVGID_1_" width="20" height="40"/>
	</defs>
	<clipPath id="SVGID_2_">
		<use xlink:href="#SVGID_1_"  style="overflow:visible;"/>
	</clipPath>
	<g class="st0">
		<path class="st1" d="M13.3,3.3h1.9V0.1c-0.3,0-1.5-0.1-2.8-0.1C9.7,0,7.8,1.7,7.8,4.7v2.8h-3v3.6h3V20h3.7v-8.9h2.9l0.5-3.6h-3.4
			V5.1C11.5,4,11.8,3.3,13.3,3.3z"/>
		<path class="st2" d="M13.3,23.3h1.9v-3.2c-0.3,0-1.5-0.1-2.8-0.1c-2.7,0-4.6,1.7-4.6,4.7v2.8h-3v3.6h3V40h3.7v-8.9h2.9l0.5-3.6
			h-3.4v-2.4C11.5,24,11.8,23.3,13.3,23.3z"/>
	</g>
</g>
</svg>
