<svg width="40" height="57" viewBox="0 0 40 57" fill="none" xmlns="http://www.w3.org/2000/svg">
<path d="M8.109 56.3955C8.79819 57.0487 9.77112 56.3753 9.55361 55.451C6.00936 40.3901 12.8298 32.7172 16.0307 30.0538C16.6494 29.539 17.4802 30.0356 17.4679 30.8404C17.3324 39.6922 21.4114 46.7245 22.7149 48.741C22.9455 49.0977 23.3821 49.2463 23.774 49.0826C25.2217 48.4781 27.1206 47.2693 28.4539 46.3653C29.1332 45.9048 30.0368 46.3852 29.9451 47.2008C29.6565 49.7698 28.9418 53.0495 28.3884 55.3659C28.1657 56.2981 29.1811 56.9283 29.8566 56.2483C32.547 53.5398 36.9706 48.1899 38.763 40.8776C40.5645 33.5185 37.5914 26.1397 35.4952 22.1582C35.0265 21.2679 33.7685 21.6493 33.708 22.6537C33.3204 29.0895 30.7986 35.2531 26.4895 40.1381C26.7439 39.8443 26.9574 39.5181 27.1214 39.1645C28.0352 37.337 29.5023 32.5871 28.6432 21.5877C27.6861 9.36708 18.7225 2.7402 15.026 0.507909C14.352 0.100847 13.5705 0.657957 13.6218 1.44373C14.1414 9.40683 10.4642 12.4128 2.56405 29.0686C-3.89177 42.6768 3.99376 52.4954 8.109 56.3955Z" fill="#FF375F"/>
</svg>
