<svg width="24" height="22" viewBox="0 0 24 22" fill="none" xmlns="http://www.w3.org/2000/svg">
<path fill-rule="evenodd" clip-rule="evenodd" d="M16.8214 10.5761C16.8214 10.0238 17.2691 9.57609 17.8214 9.57609H18.1604C18.7126 9.57609 19.1604 10.0238 19.1604 10.5761C19.1604 11.1284 18.7126 11.5761 18.1604 11.5761H17.8214C17.2691 11.5761 16.8214 11.1284 16.8214 10.5761Z" fill="black"/>
<path fill-rule="evenodd" clip-rule="evenodd" d="M17.6623 6.71641H22.0648C22.617 6.71641 23.0648 7.16412 23.0648 7.71641C23.0648 8.26869 22.617 8.71641 22.0648 8.71641H17.6626C16.5972 8.7172 15.7348 9.57984 15.7346 10.6428C15.7354 11.7069 16.5979 12.5692 17.6629 12.5698H22.0648C22.617 12.5698 23.0648 13.0175 23.0648 13.5698C23.0648 14.1221 22.617 14.5698 22.0648 14.5698H17.6623C15.4944 14.5685 13.7359 12.8125 13.7346 10.6437C13.7346 8.47397 15.495 6.71774 17.6623 6.71641Z" fill="black"/>
<path fill-rule="evenodd" clip-rule="evenodd" d="M6.95827 2.17725C4.35886 2.17725 2.25153 4.28458 2.25153 6.88399V14.6889C2.25153 17.2883 4.35886 19.3956 6.95827 19.3956H16.3578C18.9572 19.3956 21.0646 17.2883 21.0646 14.6889V6.88399C21.0646 4.28458 18.9572 2.17725 16.3578 2.17725H6.95827ZM0.251526 6.88399C0.251526 3.18001 3.25429 0.177246 6.95827 0.177246H16.3578C20.0618 0.177246 23.0646 3.18001 23.0646 6.88399V14.6889C23.0646 18.3929 20.0618 21.3956 16.3578 21.3956H6.95827C3.25429 21.3956 0.251526 18.3929 0.251526 14.6889V6.88399Z" fill="black"/>
<path fill-rule="evenodd" clip-rule="evenodd" d="M5.18393 6.11217C5.18393 5.55988 5.63165 5.11217 6.18393 5.11217H12.0552C12.6075 5.11217 13.0552 5.55988 13.0552 6.11217C13.0552 6.66445 12.6075 7.11217 12.0552 7.11217H6.18393C5.63165 7.11217 5.18393 6.66445 5.18393 6.11217Z" fill="black"/>
</svg>
