<svg width="181" height="86" viewBox="0 0 181 86" fill="none" xmlns="http://www.w3.org/2000/svg">
<path d="M32.6052 65.5223V82.2579C32.6052 82.2579 27.0756 66.5732 26.9487 66.1622C26.8146 65.7439 26.5126 65.5223 25.9443 65.5223H20.6702V85.8967H24.2303V69.3827C24.2303 69.3827 29.676 84.8547 29.8154 85.2568C29.9351 85.6643 30.2854 85.8967 30.7447 85.8967H36.1636V65.5223H32.6052Z" fill="#8D96B2"/>
<path d="M51.3213 65.5223V85.8967H55.507C55.507 85.8967 55.4999 77.6683 55.4999 77.2268H63.0402V73.5023L55.507 73.513V69.2719H63.1545V65.5223H51.3213Z" fill="#8D96B2"/>
<path d="M148.096 65.5222V69.4398H152.77V85.8947H157.025V69.4398H161.69V65.5222H148.096Z" fill="#8D96B2"/>
<path d="M77.8849 85.8954H82.3905V65.53H77.8849V85.8954Z" fill="#8D96B2"/>
<path d="M129.209 85.8954H133.716V65.53H129.209V85.8954Z" fill="#8D96B2"/>
<path d="M176.014 85.8954H180.5V65.53H176.014V85.8954Z" fill="#8D96B2"/>
<path d="M0.5 85.8954H5.00736V65.53H0.5V85.8954Z" fill="#8D96B2"/>
<path d="M113.639 65.5223H110.081V82.2579C110.081 82.2579 104.555 66.5732 104.423 66.1622C104.287 65.7439 103.985 65.5223 103.431 65.5223H98.1459V85.8967H101.699V69.3827C101.699 69.3827 107.159 84.8547 107.286 85.2568C107.414 85.6643 107.766 85.8967 108.213 85.8967H113.639V65.5223Z" fill="#8D96B2"/>
<path d="M108.948 32.0822C107.23 29.8571 90.5018 7.3095 90.5018 7.3095C90.5018 7.3095 73.7091 30.0483 72.1042 32.1322C65.9025 31.6032 55.1256 27.4658 55.1256 20.2865C55.1256 11.1574 70.7727 2.70204 90.5018 2.70204C111.221 2.70204 125.882 11.1574 125.882 20.2865C125.882 27.4658 115.158 31.5532 108.948 32.0822ZM90.5018 0.0944824C65.0196 0.0944824 47.2832 10.0475 47.2832 22.9387C47.2832 28.9528 51.1615 35.7567 59.3917 39.8477C67.0302 43.6419 77.8215 44.9645 79.3799 45.1557L90.5018 12.3816L101.738 45.1557C103.291 44.9645 113.984 43.6419 121.624 39.8477C129.849 35.7567 133.729 28.9528 133.729 22.9387C133.729 10.0475 115.988 0.0944824 90.5018 0.0944824Z" fill="#8D96B2"/>
</svg>
