<svg width="180" height="38" viewBox="0 0 180 38" fill="none" xmlns="http://www.w3.org/2000/svg">
<path fill-rule="evenodd" clip-rule="evenodd" d="M86.8174 26.0148L79.3672 36.3379C79.2068 36.6147 78.9823 36.849 78.7126 37.021C78.4701 37.1367 78.2009 37.1852 77.9333 37.1613H64.8214L72.8627 26.0148H86.8174ZM83.3756 11.9763L90.8258 1.65351C90.9863 1.37686 91.2108 1.14274 91.4804 0.970828C91.7229 0.854888 91.992 0.806174 92.2597 0.829773H105.372L97.3303 11.9767L83.3756 11.9763Z" fill="#8D96B2"/>
<path fill-rule="evenodd" clip-rule="evenodd" d="M88.4175 24.34H74.0014C72.8786 24.3205 71.7641 24.1429 70.6908 23.8125C68.3874 23.0928 66.3771 21.6502 64.9579 19.6983C63.5388 17.7464 62.7863 15.3892 62.812 12.9761C62.8112 12.7416 62.8171 12.5163 62.8299 12.2825C62.9758 9.22766 64.2799 6.34306 66.477 4.21553C68.6741 2.088 71.5992 0.877326 74.6572 0.829781H88.4249C88.5242 0.831844 88.6195 0.8698 88.693 0.936634C88.7666 1.00347 88.8135 1.09467 88.825 1.19338C88.8365 1.29209 88.812 1.39164 88.7558 1.47364C88.6997 1.55564 88.6158 1.61455 88.5195 1.63949C87.8449 1.87788 87.1864 2.15941 86.5479 2.48231C86.0102 2.79287 85.5102 3.02783 85.0126 3.36761C83.5002 4.39291 82.2537 5.76383 81.3766 7.3668C80.4995 8.96978 80.017 10.7587 79.9689 12.5853C79.9132 14.0899 80.1711 15.5897 80.7262 16.9893C81.2813 18.3889 82.1215 19.6577 83.1933 20.7151C83.5991 21.1116 84.0355 21.4754 84.4987 21.803C85.7368 22.5799 87.0863 23.1633 88.5005 23.5331C88.597 23.5555 88.6822 23.6123 88.74 23.6929C88.7979 23.7734 88.8245 23.8722 88.815 23.9709C88.8055 24.0696 88.7604 24.1615 88.6882 24.2294C88.616 24.2974 88.5216 24.3369 88.4225 24.3404L88.4175 24.34Z" fill="#8D96B2"/>
<path fill-rule="evenodd" clip-rule="evenodd" d="M97.0173 13.651C98.1402 13.6706 99.2548 13.8482 100.328 14.1786C102.632 14.8983 104.642 16.341 106.061 18.2928C107.48 20.2447 108.233 22.6018 108.207 25.0149C108.208 25.2499 108.202 25.4747 108.189 25.7085C108.043 28.7633 106.739 31.6477 104.542 33.7752C102.345 35.9027 99.4198 37.1135 96.3619 37.1613H82.5946C82.4955 37.1589 82.4006 37.1208 82.3273 37.054C82.254 36.9872 82.2073 36.8962 82.1958 36.7977C82.1843 36.6993 82.2087 36.6 82.2646 36.5181C82.3205 36.4362 82.404 36.3772 82.4999 36.352C83.1742 36.1134 83.8325 35.8319 84.4708 35.5091C85.0093 35.199 85.5084 34.9636 86.006 34.6246C87.5186 33.5992 88.765 32.2283 89.6422 30.6252C90.5194 29.0222 91.002 27.2332 91.0501 25.4065C91.1245 23.614 90.7489 21.8314 89.9576 20.2213C89.1663 18.6111 87.9845 17.2247 86.52 16.1885C85.2822 15.4117 83.9331 14.8283 82.5194 14.4584C82.4228 14.4359 82.3377 14.3791 82.2798 14.2986C82.222 14.2181 82.1953 14.1193 82.2049 14.0206C82.2144 13.9219 82.2594 13.83 82.3316 13.762C82.4038 13.694 82.4982 13.6546 82.5973 13.651H97.0173Z" fill="#8D96B2"/>
<path d="M4.03951 25.9848C4.0417 26.2102 4.00776 26.4345 3.93897 26.6492C3.80883 27.0624 3.54875 27.4225 3.19743 27.676C2.84612 27.9295 2.42234 28.0628 1.98917 28.0561C1.556 28.0493 1.13659 27.9029 0.793331 27.6386C0.450077 27.3743 0.201332 27.0062 0.0841092 26.5892C0.0190613 26.3401 -0.00851723 26.0827 0.00228146 25.8254V12.1781C-0.00380736 12.0135 0.00309798 11.8487 0.0229332 11.6852C0.0858412 11.2324 0.300867 10.8145 0.632691 10.5001C0.964514 10.1857 1.3934 9.99349 1.84891 9.95506C2.30441 9.91662 2.75944 10.0342 3.13926 10.2886C3.51907 10.543 3.80109 10.919 3.93897 11.3548C4.00774 11.5694 4.04168 11.7937 4.03951 12.0191V25.9848ZM19.1067 26.8802L11.6051 17.5577V25.8574C11.6087 25.9088 11.6105 25.9608 11.6105 26.0132C11.6169 26.275 11.5709 26.5354 11.4751 26.7791C11.3794 27.0228 11.2358 27.2448 11.053 27.4322C10.8701 27.6196 10.6516 27.7685 10.4103 27.8702C10.169 27.9719 9.90984 28.0242 9.64802 28.0242C9.38619 28.0242 9.12701 27.9719 8.88572 27.8702C8.64444 27.7685 8.42594 27.6196 8.24307 27.4322C8.0602 27.2448 7.91667 27.0228 7.82092 26.7791C7.72516 26.5354 7.67912 26.275 7.68551 26.0132C7.68551 25.9618 7.68707 25.9108 7.69097 25.8601V12.1314C7.68707 12.0805 7.68512 12.0291 7.68512 11.9775C7.6792 11.4509 7.88256 10.9436 8.25051 10.567C8.61847 10.1903 9.12092 9.97515 9.64743 9.96878C10.1249 9.96891 10.5854 10.1461 10.9399 10.466C11.0821 10.6045 11.2128 10.7544 11.3307 10.9141L19.0031 20.4529V12.1318C18.9989 12.0808 18.9968 12.0295 18.9968 11.9778C18.9916 11.7168 19.0386 11.4574 19.1348 11.2147C19.2311 10.972 19.3749 10.751 19.5577 10.5645C19.7404 10.3781 19.9585 10.23 20.1993 10.1288C20.44 10.0277 20.6984 9.97565 20.9595 9.97565C21.2206 9.97565 21.4791 10.0277 21.7198 10.1288C21.9605 10.23 22.1786 10.3781 22.3614 10.5645C22.5442 10.751 22.6879 10.972 22.7842 11.2147C22.8805 11.4574 22.9274 11.7168 22.9222 11.9778C22.9222 12.0297 22.9203 12.0815 22.9164 12.1325V25.8574C22.9203 25.9088 22.9218 25.961 22.9218 26.0132C22.9279 26.5399 22.7245 27.0473 22.3564 27.424C21.9884 27.8007 21.4858 28.0158 20.9591 28.0219C20.5943 28.0222 20.237 27.9185 19.9289 27.7231C19.609 27.4904 19.3307 27.2055 19.1055 26.8802H19.1067ZM34.2526 26.0132C34.2578 26.2734 34.2111 26.5319 34.1151 26.7737C34.0192 27.0155 33.876 27.2358 33.6938 27.4216C33.5117 27.6074 33.2944 27.7549 33.0545 27.8557C32.8147 27.9565 32.5571 28.0084 32.2969 28.0084C32.0368 28.0084 31.7792 27.9565 31.5394 27.8557C31.2995 27.7549 31.0822 27.6074 30.9001 27.4216C30.7179 27.2358 30.5747 27.0155 30.4788 26.7737C30.3828 26.5319 30.3361 26.2734 30.3413 26.0132C30.3413 25.9618 30.3358 25.9108 30.3397 25.8597V13.9807L27.3557 13.9815C26.832 13.9688 26.3341 13.7519 25.9682 13.3771C25.6023 13.0022 25.3974 12.4991 25.3974 11.9753C25.3974 11.4515 25.6023 10.9484 25.9682 10.5736C26.3341 10.1987 26.832 9.98181 27.3557 9.96917H37.3387C37.8624 9.98181 38.3604 10.1987 38.7263 10.5736C39.0922 10.9484 39.297 11.4515 39.297 11.9753C39.297 12.4991 39.0922 13.0022 38.7263 13.3771C38.3604 13.7519 37.8624 13.9688 37.3387 13.9815H34.2534L34.2526 26.0132ZM58.4542 19.0255C58.4542 21.7933 57.526 24.1028 55.9233 25.7191C54.3207 27.3353 52.0447 28.2612 49.3498 28.2612C46.5548 28.2612 44.1908 27.2333 42.5737 25.4673C41.0113 23.6914 40.1793 21.3897 40.2451 19.0252C40.2451 16.4651 41.0284 14.2908 42.4038 12.6894C44.0123 10.8174 46.4298 9.72992 49.3495 9.72992C52.0264 9.72992 54.2747 10.6339 55.8665 12.2159C57.5092 13.8478 58.4542 16.2009 58.4542 19.0255ZM53.9334 19.0107C53.9627 17.7575 53.6461 16.5204 53.0185 15.4353C52.6412 14.8048 52.102 14.2869 51.4568 13.9353C50.8117 13.5838 50.0841 13.4115 49.3498 13.4363C48.6377 13.4118 47.9316 13.5748 47.3022 13.9089C46.6728 14.243 46.1422 14.7366 45.7635 15.3402C45.0998 16.4473 44.7649 17.7204 44.7979 19.0107C44.7543 20.3714 45.1434 21.7108 45.9092 22.8364C46.3045 23.3719 46.8245 23.8028 47.4241 24.0917C48.0237 24.3806 48.6847 24.5189 49.3498 24.4944C50.0169 24.5181 50.6797 24.3798 51.2816 24.0914C51.8835 23.803 52.4066 23.373 52.8061 22.8383C53.581 21.7154 53.9757 20.3744 53.9334 19.0107Z" fill="#8D96B2"/>
<path fill-rule="evenodd" clip-rule="evenodd" d="M113.002 25.1813C112.997 24.7053 113.171 24.2448 113.489 23.8903C113.806 23.5357 114.245 23.3128 114.719 23.2654C115.545 23.168 116.036 23.56 116.753 23.8343C117.812 24.2239 119.583 24.7722 120.626 24.0517C120.808 23.9231 120.963 23.7587 121.08 23.5686C121.197 23.3784 121.275 23.1664 121.308 22.9455C121.34 22.7245 121.328 22.4992 121.271 22.2832C121.214 22.0671 121.114 21.865 120.976 21.6888C120.538 21.1309 119.53 20.7459 118.9 20.4965C117.482 19.9338 115.992 19.6315 114.909 18.708C113.619 17.6068 113.187 15.7762 113.509 14.1404C113.651 13.3697 113.966 12.641 114.429 12.0086C114.892 11.3763 115.492 10.8566 116.184 10.4882C117.606 9.71979 119.77 9.65277 121.351 9.93878C122.21 10.0931 123.452 10.4149 124.067 11.1155C124.233 11.3053 124.358 11.5268 124.435 11.7665C124.512 12.0063 124.539 12.2592 124.515 12.5098C124.49 12.7605 124.415 13.0035 124.294 13.224C124.172 13.4446 124.007 13.638 123.808 13.7925C122.838 14.5359 122.04 13.916 121.068 13.6545C120.355 13.4628 119.159 13.3077 118.471 13.5337C118.208 13.6231 117.977 13.7892 117.81 14.0105C117.642 14.2319 117.544 14.4985 117.529 14.7759C117.515 15.0532 117.583 15.3287 117.726 15.5667C117.869 15.8047 118.081 15.9944 118.333 16.1113C120.064 16.8684 122.294 17.2203 123.709 18.4395C124.678 19.2847 125.324 20.4389 125.539 21.7063C125.754 22.9737 125.524 24.2764 124.888 25.3937C124.439 26.1924 123.791 26.8618 123.008 27.3373C121.807 28.0372 120.433 28.383 119.044 28.3348C117.397 28.3834 115.767 28.002 114.313 27.2282C113.928 27.0387 113.603 26.7478 113.373 26.387C113.142 26.0261 113.014 25.6091 113.003 25.1809L113.002 25.1813Z" fill="#8D96B2"/>
<path d="M157.315 26.9095L149.813 17.5858V25.8854C149.817 25.9371 149.819 25.9891 149.819 26.0413C149.825 26.3031 149.779 26.5634 149.683 26.8071C149.588 27.0508 149.444 27.2729 149.261 27.4603C149.078 27.6477 148.86 27.7966 148.619 27.8982C148.377 27.9999 148.118 28.0523 147.856 28.0523C147.594 28.0523 147.335 27.9999 147.094 27.8982C146.853 27.7966 146.634 27.6477 146.451 27.4603C146.268 27.2729 146.125 27.0508 146.029 26.8071C145.933 26.5634 145.887 26.3031 145.894 26.0413C145.894 25.9907 145.896 25.9388 145.9 25.8878V12.1594C145.896 12.1088 145.894 12.0576 145.894 12.0059C145.888 11.4794 146.091 10.972 146.459 10.5954C146.827 10.2188 147.33 10.0038 147.856 9.99762C148.334 9.9977 148.794 10.1746 149.148 10.494C149.291 10.6326 149.421 10.7824 149.539 10.9421L157.211 20.4809V12.1602C157.207 12.1093 157.205 12.058 157.205 12.0063C157.199 11.7445 157.245 11.4842 157.341 11.2405C157.436 10.9968 157.58 10.7747 157.763 10.5873C157.946 10.3999 158.164 10.251 158.405 10.1494C158.647 10.0477 158.906 9.99531 159.168 9.99531C159.429 9.99531 159.689 10.0477 159.93 10.1494C160.171 10.251 160.39 10.3999 160.573 10.5873C160.755 10.7747 160.899 10.9968 160.995 11.2405C161.09 11.4842 161.137 11.7445 161.13 12.0063C161.13 12.0585 161.128 12.1099 161.125 12.1614V25.8862C161.129 25.938 161.13 25.9899 161.13 26.0429C161.136 26.5693 160.933 27.0765 160.565 27.453C160.197 27.8295 159.694 28.0445 159.168 28.0508C158.803 28.0511 158.446 27.9476 158.138 27.7523C157.818 27.5196 157.54 27.2347 157.315 26.9095Z" fill="#8D96B2"/>
<path fill-rule="evenodd" clip-rule="evenodd" d="M127.379 25.3781L131.482 14.0001C132.133 12.048 133.008 9.67692 135.385 9.65704H135.445C137.822 9.67653 138.697 12.048 139.348 13.9998L143.451 25.3777C143.466 25.4198 143.481 25.4611 143.494 25.5043C143.552 25.6917 143.581 25.8866 143.581 26.0826C143.586 26.5867 143.392 27.0724 143.039 27.433C142.687 27.7935 142.206 27.9993 141.701 28.0052C141.352 28.0034 141.011 27.9042 140.715 27.7188C140.419 27.5333 140.181 27.2689 140.027 26.9554C139.959 26.8027 139.901 26.646 139.852 26.4863L139.055 24.2329H131.795L130.979 26.4863C130.93 26.646 130.871 26.8027 130.803 26.9554C130.649 27.2688 130.411 27.5331 130.115 27.7186C129.82 27.904 129.478 28.0033 129.129 28.0052C128.625 27.9993 128.144 27.7934 127.791 27.4328C127.439 27.0722 127.244 26.5864 127.25 26.0822C127.25 25.8861 127.279 25.691 127.337 25.5036C127.35 25.4607 127.365 25.419 127.38 25.3765L127.379 25.3781ZM137.766 20.6734L135.415 14.1155L133.062 20.6734H137.766ZM163.798 25.3781L167.901 14.0001C168.551 12.048 169.427 9.67653 171.804 9.65704H171.864C174.24 9.67653 175.116 12.048 175.767 13.9998L179.87 25.3777C179.885 25.4194 179.9 25.4607 179.913 25.504C179.97 25.6914 180 25.8864 180 26.0826C180.006 26.5866 179.811 27.0723 179.458 27.4328C179.106 27.7933 178.625 27.9992 178.121 28.0052C177.772 28.0034 177.43 27.9042 177.134 27.7188C176.839 27.5333 176.6 27.2689 176.447 26.9554C176.379 26.8026 176.32 26.646 176.271 26.4863L175.475 24.2329H168.214L167.398 26.4863C167.349 26.646 167.29 26.8027 167.222 26.9554C167.069 27.2691 166.831 27.5335 166.535 27.719C166.239 27.9045 165.897 28.0036 165.548 28.0052C165.043 27.9993 164.562 27.7934 164.21 27.4328C163.857 27.0722 163.663 26.5864 163.668 26.0822C163.668 25.886 163.697 25.6908 163.755 25.5032C163.768 25.4603 163.783 25.4186 163.798 25.3765V25.3781ZM174.186 20.673L171.834 14.1151L169.482 20.673H174.186Z" fill="#8D96B2"/>
</svg>
