<svg width="180" height="58" viewBox="0 0 180 58" fill="none" xmlns="http://www.w3.org/2000/svg">
<path d="M62.3926 42.3876C62.533 42.5065 62.6734 42.6253 62.8129 42.744C67.6585 40.0197 72.5158 37.3162 77.3209 34.5226C77.6341 34.3408 77.7529 33.3975 77.6053 32.9188C76.267 28.5718 74.8513 24.2482 73.4473 19.9219C73.3249 19.5439 73.1197 19.192 72.7795 18.4495C69.2146 26.6647 65.8036 34.5261 62.3926 42.3876ZM92.323 56.2423C90.1666 56.2423 87.9265 56.2765 85.6891 56.2036C85.3714 56.1937 84.8998 55.7229 84.7873 55.3728C83.4265 51.1465 82.1269 46.9002 80.7976 42.6631C80.1829 40.702 79.9876 40.5795 78.1264 41.5965C74.368 43.6503 70.6699 45.8121 66.9178 47.8776C61.0183 51.1266 55.0954 54.3325 48.8899 57.2773C57.0817 38.3125 65.2735 19.3477 73.5877 0.0984497C80.065 18.9084 85.51 37.6942 92.323 56.2423Z" fill="#8D96B2"/>
<path d="M149.938 42.8493C150.605 42.6045 150.806 42.5595 150.977 42.4641C155.6 39.8847 160.208 37.2775 164.852 34.7358C165.786 34.2246 165.612 33.6324 165.364 32.8746C163.937 28.5033 162.531 24.1248 161.109 19.7517C161.005 19.4331 160.835 19.1361 160.53 18.4602C156.964 26.6718 153.548 34.536 149.938 42.8493ZM167.69 40.6965C157.414 46.3467 147.188 51.9708 136.962 57.5949C136.858 57.4833 136.756 57.3717 136.652 57.2601C144.829 38.3277 153.005 19.3962 161.344 0.0876465C167.782 18.9066 173.329 37.6734 180 56.2323C177.902 56.2323 175.581 56.2827 173.267 56.172C172.953 56.1567 172.561 55.3684 172.403 54.8742C170.995 50.4958 169.633 46.1028 168.247 41.7171C168.169 41.4732 168 41.2581 167.69 40.6965Z" fill="#8D96B2"/>
<path d="M131.97 52.0033C130.207 53.8708 128.494 55.687 126.94 57.3331C119.519 49.0063 112.171 40.7632 104.824 32.5192C104.664 32.5768 104.503 32.6344 104.342 32.692C104.683 38.992 103.693 45.319 105.115 51.6955C102.424 51.6955 99.8235 51.6955 97.1847 51.6955C98.4681 44.4631 97.6788 37.2406 97.812 30.0469C97.9461 22.8163 97.8804 15.5812 97.8093 8.34877C97.7931 6.72337 97.3917 5.10157 97.1541 3.37897C99.7775 3.37897 102.377 3.37897 105.125 3.37897C103.692 9.40447 104.714 15.4363 104.307 21.4312C104.485 21.5293 104.662 21.6274 104.84 21.7255C111.049 14.6722 117.259 7.61887 123.412 0.630371C124.901 2.16037 126.641 3.94867 128.27 5.62267C126.367 7.55317 124.213 9.58357 122.239 11.776C117.973 16.5118 113.817 21.3457 109.57 26.0995C108.851 26.9032 108.801 27.3847 109.562 28.2208C115.981 35.2714 122.328 42.3886 128.754 49.4329C129.675 50.4409 130.907 51.1663 131.97 52.0033Z" fill="#8D96B2"/>
<path d="M25.127 15.6181C24.1775 16.2697 25.1891 15.5344 25.0802 15.583C24.9938 15.6226 24.9119 15.6181 24.8363 15.6883C24.8012 15.7207 24.7679 15.7081 24.7877 15.6874C26.7128 13.6048 26.8028 10.4449 24.7661 7.98698C24.5771 7.75928 24.3854 7.53429 24.0677 7.15629C27.0404 7.15629 29.7854 7.15629 32.7374 7.15629C32.7374 7.87269 32.7374 8.49819 32.7374 9.12369C32.7374 23.4274 32.7374 37.7311 32.7365 52.0348C32.7365 52.4101 32.6312 52.8268 32.7626 53.1481C32.8913 53.4622 33.2603 53.6791 33.5231 53.9392C33.7733 53.6629 34.1207 53.4235 34.2449 53.0986C34.3709 52.7719 34.2773 52.3597 34.2773 51.9844C34.2773 39.181 34.2764 26.3776 34.2764 13.5742C34.2764 11.4853 34.2638 9.39548 34.2827 7.30659C34.289 6.59109 34.2269 6.05019 33.2873 6.05649C28.6811 6.08979 24.0722 6.02769 19.4678 6.13119C17.4203 6.17709 15.7283 7.83939 15.3314 9.81309C14.9201 11.8597 15.7814 13.927 17.5481 14.9161C19.2455 15.8665 20.9627 15.7018 22.5755 14.6992C23.8805 13.8883 24.425 12.5905 24.2441 11.1154C24.0434 9.47289 23.6474 8.37579 22.1876 7.75929C21.509 7.47309 20.4992 6.99879 18.6758 7.87268C18.5426 7.93658 18.3788 7.88169 18.2276 7.88169C18.2933 7.82769 18.3581 7.77729 18.4238 7.72869C19.6775 6.80079 20.942 6.83049 22.2227 7.40199C24.5735 8.44958 25.5842 10.9093 24.7013 13.2916C23.8598 15.5605 21.1202 16.9042 18.6155 16.2778C15.6113 15.5263 13.823 13.0477 14.1713 10.1182C14.5322 7.07798 17.0774 4.78029 20.2157 4.75779C24.9299 4.72359 29.6441 4.74339 34.3583 4.75419C34.7597 4.75509 35.1611 4.85678 35.6291 4.92159C35.6291 5.69108 35.6291 6.33009 35.6291 6.96909C35.6291 21.9694 35.6282 36.9688 35.6291 51.9691C35.6291 52.3975 35.5517 52.8511 35.6678 53.2462C35.7479 53.518 36.107 53.8969 36.3284 53.8888C36.5804 53.8798 36.9296 53.5351 37.0358 53.2597C37.1618 52.9312 37.0799 52.5208 37.0799 52.1455C37.0808 36.6637 37.0808 21.181 37.0763 5.69919C37.0763 5.12499 37.0286 4.55079 36.9998 3.89829C30.8519 3.89829 24.8462 3.65799 18.8693 3.97479C14.1254 4.22589 11.5298 10.0678 14.0651 14.1007C15.8633 16.9618 18.4976 17.5306 21.6125 17.311C21.9797 17.3515 21.6107 17.3884 21.7187 17.4226C21.8114 17.4523 21.8906 17.4784 21.7835 17.5018C21.6098 17.5387 20.7179 17.6197 20.5226 17.6413C16.7633 18.0571 13.7888 15.5443 12.8177 13.0819C11.4389 9.58718 13.0715 5.46969 16.631 3.97389C17.783 3.48969 19.1114 3.21699 20.3606 3.21069C31.8194 3.15399 43.2791 3.17919 54.7379 3.17469C57.4064 3.17379 59.714 4.02429 61.3421 6.19779C63.0107 8.42439 63.3779 10.8958 62.1413 13.4527C60.9002 16.0186 58.787 17.446 55.9538 17.6665C55.0898 17.734 51.7967 17.2723 52.6607 17.0446C53.1161 17.1517 54.2807 17.3794 54.7622 17.3902C58.8176 17.4802 62.0549 14.5246 62.1035 10.6915C62.1521 6.82868 59.0615 3.87309 54.9386 3.86229C49.9571 3.84879 44.9738 3.90639 39.9941 3.81459C38.4632 3.78579 38.0078 4.21239 38.0141 5.77928C38.0735 21.2071 38.0519 36.6349 38.0537 52.0618C38.0537 52.3831 37.9538 52.7566 38.0834 53.0131C38.2625 53.3668 38.6162 53.6314 38.8943 53.9338C39.1265 53.6413 39.4757 53.3785 39.5612 53.0482C39.6791 52.5964 39.6017 52.0915 39.6017 51.61C39.6026 36.6646 39.6017 21.7192 39.6017 6.77379C39.6017 6.14649 39.6017 5.52009 39.6017 4.76319C45.0503 4.76319 50.2964 4.61829 55.529 4.81539C58.841 4.94049 61.3826 8.22548 61.0361 11.3602C60.704 14.3644 57.9077 16.645 54.8324 16.42C52.4978 16.249 50.6258 14.6191 50.228 12.4096C49.8473 10.3 50.8823 8.34068 52.8677 7.40829C54.7478 6.52539 56.4173 7.01858 57.9086 8.89598C57.9086 8.89598 58.0535 9.33339 57.9986 9.33969C57.9806 9.34149 57.9113 9.17409 57.842 9.04719C57.7934 8.95899 57.7448 8.89058 57.7124 8.91308C57.6602 8.94818 57.3128 8.65389 57.1742 8.52879C55.9781 7.45689 54.6533 7.42359 53.2943 8.07699C51.9092 8.74298 50.939 9.80589 50.8904 11.4178C50.8427 12.9946 51.5762 14.1988 52.9757 14.9548C54.6587 15.8638 56.8637 15.6478 58.2479 14.4616C59.7347 13.1872 60.2936 11.2288 59.7023 9.36849C59.0921 7.45059 57.4496 6.14289 55.3886 6.10058C52.4969 6.04118 49.6043 6.07539 46.7117 6.07179C44.8478 6.06909 42.983 6.07179 40.8941 6.07179C40.8941 6.85659 40.8941 7.48299 40.8941 8.10939C40.8941 16.7332 40.8941 25.357 40.8941 33.9808C40.8941 40.0333 40.8734 46.0867 40.9283 52.1383C40.9337 52.7422 41.3783 53.8483 41.6501 53.8582C43.0037 53.9077 42.3197 52.7386 42.4745 52.069C42.5564 51.7135 42.4898 51.322 42.4898 50.9476C42.4889 37.021 42.4889 23.0944 42.488 9.16779C42.488 8.49819 42.488 7.82949 42.488 7.17519C45.4607 7.17519 48.1544 7.17519 51.1019 7.17519C49.0292 9.26138 48.3794 11.4583 49.4738 14.044C50.228 15.826 51.8183 16.573 53.378 17.383C49.4585 16.807 47.5361 13.8595 47.6495 8.11658C46.4435 8.11658 45.2357 8.07789 44.0333 8.15169C43.811 8.16519 43.5104 8.60708 43.4339 8.89958C43.3286 9.30099 43.3997 9.75009 43.3997 10.1785C43.3997 24.3769 43.3754 38.5762 43.4375 52.7746C43.4447 54.3424 43.9451 55.9084 44.2448 57.6409C39.8429 57.6409 35.4347 57.6409 30.9365 57.6409C30.9203 57.4069 30.8627 57.1522 30.8915 56.9074C31.1687 54.5359 31.6961 52.1671 31.7105 49.7956C31.7915 36.562 31.7168 23.3266 31.7897 10.093C31.7987 8.43249 31.3424 7.85379 29.726 8.08329C29.0087 8.18499 28.2644 8.10039 27.3365 8.10039C27.9008 10.894 27.7001 13.4257 25.658 15.2518C25.5626 15.3373 25.4582 15.412 25.352 15.4831C25.1756 15.6001 24.9983 15.7072 24.8228 15.8269C24.7346 15.8863 24.8651 15.7891 24.9443 15.7063C25.0172 15.6289 25.0406 15.5659 24.9434 15.6073C24.8642 15.6406 24.6815 15.7504 24.3152 15.997C24.0407 16.1815 23.7167 16.3372 23.4521 16.4803C23.2991 16.5631 23.0849 16.7215 22.8896 16.8367C22.5647 17.0275 21.8483 17.2867 21.6134 17.3146C21.473 17.3308 21.8771 17.329 21.7646 17.3704C21.5891 17.4343 21.8969 17.455 21.815 17.4973C22.1408 17.3218 22.4099 17.302 22.7438 17.149C23.3657 16.8646 24.8552 15.8755 25.316 15.466" fill="#8D96B2"/>
<path d="M0 3.29346C2.5929 3.29346 5.5242 3.29346 8.559 3.29346C8.5743 3.57606 8.6202 3.82446 8.5968 4.06476C8.3151 6.86916 7.7967 9.67086 7.7724 12.4762C7.677 23.8306 7.6959 35.1859 7.7544 46.5403C7.7724 50.1493 8.0433 53.7574 8.2044 57.5059C5.5953 57.5059 2.6001 57.5059 0.0468 57.5059C0.1845 53.5036 0.4149 49.5715 0.4356 45.6385C0.4905 35.248 0.4923 24.8566 0.4338 14.467C0.4122 10.804 0.1566 7.14186 0 3.29346Z" fill="#8D96B2"/>
<path d="M17.6157 8.28125C17.6004 8.31725 17.6688 8.17774 17.7885 8.10034C17.964 7.98604 18.5454 7.64045 18.5976 7.60625C18.6534 7.57025 18.432 7.81775 18.5922 7.79885C18.9783 7.75295 18.5697 7.92305 18.3276 8.01845C18.3276 8.01845 18.198 8.06795 18.198 8.07065C18.1998 8.07965 18.0414 8.16424 17.9622 8.23174C17.802 8.36674 17.6499 8.53955 17.5869 8.64395C16.3458 10.7049 17.3124 12.4023 18.8559 12.9063C19.9818 13.2735 20.9655 12.891 21.276 11.7102C21.6936 10.1217 20.5317 9.58805 19.1745 9.28475C20.3841 8.48464 21.7476 8.67275 22.5855 9.66095C23.4423 10.6716 23.2659 12.3942 22.1985 13.449C21.0042 14.6289 19.1223 14.7252 17.8092 13.6731C16.3656 12.5139 16.0488 9.82205 17.6157 8.28125Z" fill="#8D96B2"/>
<path d="M57.9113 8.89234C58.9706 10.9542 58.6997 12.81 57.0959 13.8549C55.9088 14.628 54.5174 14.7657 53.5238 13.8081C52.766 13.0782 52.6328 11.9631 52.7246 10.9938C52.7984 10.2171 53.2601 9.24154 54.1853 8.89054C54.2699 8.85814 54.4607 8.84104 54.5804 8.83024C55.0007 8.79244 55.5182 8.79694 55.9871 8.99133C55.8773 9.31713 55.916 9.23884 55.88 9.22534C54.5678 8.76363 53.648 10.074 53.8352 11.5014C53.9837 12.6354 54.8315 13.0818 55.9493 12.9684C57.2399 12.8379 58.1642 11.7129 58.067 10.4061C58.0382 10.0236 57.9797 9.48454 57.9446 9.17674C57.9311 9.07054 57.9113 8.89234 57.9113 8.89234Z" fill="#8D96B2"/>
<path d="M57.3247 8.65295L57.5641 8.90405L57.7297 9.08495L57.8908 9.35135L57.9979 9.67895L57.9511 9.01475L57.5362 8.74745L57.6649 8.69075" fill="#8D96B2"/>
</svg>
