<svg width="181" height="156" viewBox="0 0 181 156" fill="none" xmlns="http://www.w3.org/2000/svg">
<path d="M118.659 76.1432C118.164 77.2963 117.581 78.6537 116.998 80.0243H125.033C124.47 78.6566 123.889 77.2886 123.39 76.1127C122.793 74.7075 122.313 73.5767 122.119 73.0489C122.034 72.7833 121.855 72.6951 121.679 72.6951C121.59 72.6051 121.327 72.6051 121.149 72.6051C120.885 72.6051 120.62 72.6051 120.532 72.6951C120.267 72.6951 120.091 72.7833 120.002 72.9607C120.002 73.0152 119.44 74.3254 118.659 76.1432Z" fill="#8D96B2"/>
<path fill-rule="evenodd" clip-rule="evenodd" d="M13.8086 58.2119L14.1917 58.1647C23.1971 25.2049 54.1096 0.913574 90.8656 0.913574C127.498 0.913574 158.331 25.0481 167.449 57.8458C167.494 58.0205 167.508 58.0565 167.561 58.2338L167.552 58.2363C171.06 58.6692 172.809 58.8895 174.387 59.3302C179.463 60.5275 180.579 62.3503 180.579 65.987V90.9128C180.579 94.5503 176.683 97.0015 173.998 97.4957C171.498 97.9589 169.851 98.1641 167.357 98.4073L167.367 98.4085C158.159 131.074 127.4 155.078 90.8666 155.078C54.3482 155.078 23.6006 131.099 14.3756 98.4625C11.5487 98.1933 9.84857 97.9935 7.16117 97.4957C4.47557 97.0015 0.579468 94.5494 0.579468 90.9128V65.987C0.579468 62.3503 1.69637 60.5275 6.77327 59.3302C8.38006 58.8813 10.166 58.661 13.8086 58.2119ZM26.9524 99.1929C36.0224 125.03 61.2076 143.61 90.8666 143.61C120.532 143.61 145.725 125.014 154.787 99.1617C137.897 100.087 112.638 101.229 90.5795 101.251C68.7727 101.229 43.8372 100.112 26.9524 99.1929ZM90.5804 55.9501C74.8634 55.9501 47.454 56.8767 28.3607 57.6038C37.8291 31.9676 62.5416 14.2659 90.3716 14.2659C118.538 14.2659 143.595 30.5848 153.926 57.6472C134.798 56.9143 106.609 55.9501 90.5804 55.9501ZM26.646 57.6694L26.6495 57.6693C35.4586 31.3901 60.8773 12.398 90.863 12.398C120.858 12.398 146.285 31.4011 155.089 57.6919L155.092 57.692C146.291 31.3921 120.864 12.3827 90.8656 12.3827C60.8715 12.3827 35.4521 31.3839 26.646 57.6694ZM125.64 68.5617C126.141 68.8845 126.372 69.627 127.152 71.3719C127.501 72.1834 128.799 75.0142 130.222 78.1168C132.045 82.0932 134.073 86.5161 134.57 87.7064C134.801 88.2494 134.695 88.2475 134.192 88.2384C134.12 88.2371 134.039 88.2357 133.951 88.2357H129.006C128.742 88.2357 128.477 88.1493 128.388 87.8837C128.388 87.7955 127.771 86.2958 126.887 84.2641H115.233C114.35 86.3813 113.644 87.8837 113.644 87.8837C113.557 88.062 113.381 88.2357 113.027 88.2357H108.258C107.553 88.2357 107.287 88.2357 107.729 87.3544L107.817 87.1771C110.111 82.2324 115.412 70.3124 115.412 70.3124C115.91 69.272 116.057 68.7612 116.395 68.5119C116.775 68.2323 117.397 68.2816 119.03 68.2816C119.825 68.1916 120.003 68.1916 120.973 68.1916C121.942 68.1916 122.65 68.1916 122.916 68.2816C124.484 68.3231 125.178 68.2635 125.64 68.5617ZM53.9595 68.5444C53.9595 68.1907 53.8704 68.0151 53.4294 68.0151H48.5739C48.222 68.0151 48.1338 68.1907 48.1338 68.5444V87.4436C48.1338 87.9728 48.222 88.062 48.7503 88.062H53.3421C53.8704 88.062 53.9595 87.8837 53.9595 87.4436V68.5444ZM44.2485 68.81C44.2485 68.3662 44.1576 68.1907 43.6293 68.1907H39.6576C39.1266 68.1907 39.0384 68.368 39.0384 68.81V83.8222C39.0384 83.8222 31.0041 71.4601 30.0339 69.8695C28.8535 68.186 28.3975 68.1865 25.3751 68.1903C25.2268 68.1905 25.0722 68.1907 24.9111 68.1907H20.3202C19.791 68.1907 19.7019 68.368 19.7019 68.81V87.6218C19.7019 88.1529 19.791 88.2393 20.3202 88.2393H24.2946C24.8229 88.2393 24.9111 88.1529 24.9111 87.6218V72.8752C24.9111 72.8752 31.5342 83.03 33.7419 86.4741C34.8003 88.2384 35.0658 88.2384 38.2428 88.2384H43.6293C44.1576 88.2384 44.2485 88.1511 44.2485 87.62V68.81ZM162.116 68.81C162.116 68.3662 162.029 68.1907 161.497 68.1907H157.526C156.996 68.1907 156.907 68.368 156.907 68.81V83.8222C156.907 83.8222 148.961 71.4601 147.901 69.8695C146.724 68.186 146.266 68.1865 143.244 68.1903C143.095 68.1905 142.941 68.1907 142.78 68.1907H138.19C137.661 68.1907 137.57 68.368 137.57 68.81V87.6209C137.57 88.152 137.66 88.2384 138.19 88.2384H142.161C142.692 88.2384 142.78 88.152 142.78 87.6209V72.8743C142.78 72.8743 149.402 83.0291 151.61 86.4741C152.669 88.2384 152.935 88.2384 156.116 88.2384H161.497C162.028 88.2384 162.116 88.1511 162.116 87.62V68.81ZM80.4483 80.2026C79.7427 76.8458 77.1813 76.2283 73.6488 75.8763C72.9859 75.8152 71.9429 75.7236 70.7897 75.6223C68.5629 75.4267 65.925 75.195 64.818 75.077C64.2006 74.9915 63.9351 74.6377 63.9351 74.1957V73.4009C64.0251 72.7833 64.2888 72.5187 64.9071 72.5187H79.0326C79.5645 72.6069 79.7418 72.4287 79.7418 71.9903V68.7218C79.7418 68.2816 79.5645 68.1916 79.0326 68.1916H64.6416C60.9354 68.1916 58.8159 69.5139 58.1967 72.3414C58.1085 72.9607 58.1085 73.7546 58.1085 74.2848C58.1085 74.9033 58.1085 75.609 58.1967 76.1401C58.3731 77.7307 59.4324 79.5832 63.7587 80.0252C67.1148 80.3781 72.0585 80.8201 73.737 80.9083C74.4892 80.9902 74.607 81.4706 74.6931 81.8217C74.6979 81.8411 74.7025 81.8602 74.7072 81.8787V83.2028C74.619 83.6457 74.4426 83.8222 73.8234 83.8222H58.8159C58.2858 83.8222 58.1967 83.9104 58.1967 84.4406V87.6191C58.1967 88.1502 58.2858 88.2366 58.8159 88.2366H73.6506C77.3568 88.2366 79.7427 87.6191 80.3592 84.4406C80.5365 83.7339 80.5365 82.9418 80.5365 82.3216C80.5365 81.682 80.4983 81.0805 80.4722 80.6691C80.4586 80.4551 80.4483 80.2925 80.4483 80.2026ZM105.963 80.2026C105.258 76.8458 102.697 76.2283 99.1629 75.8763C98.4992 75.8151 97.4538 75.7232 96.2983 75.6217C94.0737 75.4262 91.4407 75.1949 90.3366 75.077C89.6292 74.9915 89.4519 74.6377 89.4519 74.1957V73.4009C89.5419 72.7833 89.8056 72.5187 90.423 72.5187H104.551C105.079 72.6069 105.258 72.4287 105.258 71.9903V68.7218C105.258 68.2816 105.079 68.1916 104.551 68.1916H90.1575C86.4504 68.1916 84.3318 69.5139 83.7126 72.3414C83.6244 72.9607 83.6244 73.7546 83.6244 74.2848C83.6244 74.9033 83.6244 75.609 83.7126 76.1401C83.979 77.7307 84.9492 79.5832 89.2764 80.0252C92.6316 80.3781 97.5753 80.8201 99.2529 80.9083C99.9585 80.9947 100.133 81.5249 100.225 81.8787V83.2028C100.134 83.6457 99.9594 83.8222 99.342 83.8222H84.3318C83.8017 83.8222 83.7126 83.9104 83.7126 84.4406V87.6191C83.7126 88.1502 83.8017 88.2366 84.3318 88.2366H99.1656C102.875 88.2366 105.259 87.6191 105.875 84.4406C106.052 83.7339 106.052 82.9418 106.052 82.3216C106.052 81.682 106.014 81.0805 105.987 80.6691C105.974 80.4551 105.963 80.2925 105.963 80.2026Z" fill="#8D96B2"/>
</svg>
