<svg width="180" height="66" viewBox="0 0 180 66" fill="none" xmlns="http://www.w3.org/2000/svg">
<path fill-rule="evenodd" clip-rule="evenodd" d="M78.7851 11.8076C78.7851 11.8076 78.7851 11.8076 82.5757 11.8076C83.9689 11.8076 84.6493 12.488 84.6493 14.0431C84.6493 14.0431 84.6493 14.0431 84.6493 19.4861C84.6493 19.4861 84.6493 19.4861 92.0686 19.4861C92.0686 19.4861 92.0686 19.4861 92.0686 14.0431C92.0686 12.488 92.749 11.8076 94.3041 11.8076C94.3041 11.8076 94.3041 11.8076 97.9327 11.8076C97.9327 11.8076 97.9327 11.8076 97.9327 15.4038C97.9327 15.4038 97.9327 15.4038 96.3776 15.4038L96.2156 15.5658C96.2156 15.5658 96.2156 15.5658 96.2156 30.9228C96.2156 30.9228 96.2156 30.9228 92.0686 30.9228C92.0686 30.9228 92.0686 30.9228 92.0686 23.2443C92.0686 23.2443 92.0686 23.2443 84.6493 23.2443C84.6493 23.2443 84.6493 23.2443 84.6493 30.9228C84.6493 30.9228 84.6493 30.9228 80.5022 30.9228C80.5022 30.9228 80.5022 30.9228 80.5022 15.5658C80.5022 15.5658 80.5022 15.4038 80.3402 15.4038C80.3402 15.4038 80.3402 15.4038 78.7851 15.4038C78.7851 15.4038 78.7851 15.4038 78.7851 11.8076Z" fill="#8D96B2"/>
<path fill-rule="evenodd" clip-rule="evenodd" d="M108.786 11.4837H108.884V15.4364L108.786 15.404C105.676 15.404 103.279 17.9635 103.279 21.2033C103.279 24.6052 105.676 27.3591 108.786 27.3591L108.884 27.3267V31.2469L108.786 31.2793C103.279 31.2793 98.7751 26.8407 98.7751 21.2033C98.7751 15.7604 103.279 11.4837 108.786 11.4837Z" fill="#8D96B2"/>
<path fill-rule="evenodd" clip-rule="evenodd" d="M108.884 11.4837L110.796 11.6781C115.364 12.5529 118.798 16.4407 118.798 21.2033C118.798 26.1279 115.364 30.1454 110.796 31.0526L108.884 31.2469V27.3267L110.99 26.8731C113.031 25.9336 114.489 23.7628 114.489 21.2033C114.489 18.7734 113.031 16.7323 110.99 15.8575L108.884 15.4364V11.4837Z" fill="#8D96B2"/>
<path fill-rule="evenodd" clip-rule="evenodd" d="M119.642 11.8076C119.642 11.8076 119.642 11.8076 125.441 11.8076H128.195V15.4038H127.936C127.58 15.4038 126.899 15.4038 125.506 15.4038C125.506 15.4038 125.506 15.4038 125.506 19.3241C125.506 19.3241 125.506 19.3241 126.673 19.3241H128.195V22.726H127.321C126.867 22.726 126.284 22.726 125.506 22.726C125.506 22.726 125.506 22.726 125.506 27.0026C125.506 27.1646 125.506 27.1646 125.701 27.1646C125.701 27.1646 125.701 27.1646 126.932 27.1646H128.195V30.9228H127.839C127.191 30.9228 125.96 30.9228 123.465 30.9228C122.072 30.9228 121.392 30.2425 121.392 28.7197V15.4038C121.392 15.4038 121.392 15.4038 119.642 15.4038C119.642 15.4038 119.642 15.4038 119.642 11.8076Z" fill="#8D96B2"/>
<path fill-rule="evenodd" clip-rule="evenodd" d="M128.195 11.8076H128.259C132.082 11.8076 134.318 13.8811 134.318 16.959C134.318 18.8057 133.443 20.0045 132.601 20.8792C134.156 21.5596 135.16 23.2443 135.16 25.1235C135.16 28.7197 132.406 30.9228 128.453 30.9228C128.453 30.9228 128.454 30.9228 128.389 30.9228H128.195V27.1646H128.615C130.009 27.1646 130.851 26.3222 130.851 24.9615C130.851 23.6007 130.009 22.726 128.615 22.726C128.615 22.726 128.615 22.726 128.227 22.726H128.195V19.3241H128.259C129.49 19.3241 130.171 18.4817 130.171 17.283C130.171 16.0842 129.49 15.4038 128.259 15.4038C128.259 15.4038 128.259 15.4038 128.227 15.4038H128.195V11.8076Z" fill="#8D96B2"/>
<path fill-rule="evenodd" clip-rule="evenodd" d="M143.098 11.8076C143.098 11.8076 143.098 11.8076 144.847 11.8076H145.171V17.283C145.009 17.6394 144.815 18.1253 144.815 18.6437C144.815 18.6437 144.815 18.6437 143.454 22.564C143.454 22.564 143.454 22.564 144.912 22.564H145.171V26.1602H144.232C143.713 26.1602 143.098 26.1602 142.417 26.1602C142.417 26.1602 142.417 26.1602 141.218 29.2381C140.862 30.4045 140.182 30.9228 138.789 30.9228C138.789 30.9228 138.789 30.9228 136.197 30.9228C136.197 30.9228 136.197 30.9228 136.197 27.1646C136.197 27.1646 136.197 27.1646 137.071 27.1646C137.428 27.1646 137.428 27.1646 137.59 27.0026C137.59 27.0026 137.59 27.0026 143.098 11.8076Z" fill="#8D96B2"/>
<path fill-rule="evenodd" clip-rule="evenodd" d="M145.171 11.8076H147.245C147.245 11.8076 147.245 11.8076 152.752 27.0026C152.914 27.1646 152.914 27.1646 153.271 27.1646C153.271 27.1646 153.271 27.1646 153.951 27.1646C153.951 27.1646 153.951 27.1646 153.951 30.9228C153.951 30.9228 153.951 30.9228 151.554 30.9228C150.161 30.9228 149.48 30.4045 149.124 29.0437C149.124 29.0437 149.124 29.0437 147.925 26.1602C147.925 26.1602 147.925 26.1602 145.592 26.1602H145.171V22.564H146.888C146.888 22.564 146.888 22.564 145.528 18.6437C145.528 18.1253 145.333 17.6394 145.171 17.283V11.8076Z" fill="#8D96B2"/>
<path fill-rule="evenodd" clip-rule="evenodd" d="M78.7851 36.3658C78.7851 36.3658 78.7851 36.3658 93.7857 36.3658C95.1788 36.3658 96.0212 37.0786 96.0212 38.6014C96.0212 38.6014 96.0212 38.6014 96.0212 51.5609C96.0212 51.7228 96.0212 51.7228 96.2156 51.7228C96.2156 51.7228 96.2156 51.7228 97.5764 51.7228C97.5764 51.7228 97.5764 51.7228 97.5764 55.4811C97.5764 55.4811 97.5764 55.4811 93.9801 55.4811C92.425 55.4811 91.7122 54.8007 91.7122 53.278C91.7122 53.278 91.7122 53.278 91.7122 40.1565C91.7122 40.1565 91.7122 39.9621 91.5502 39.9621C91.5502 39.9621 91.5502 39.9621 84.6493 39.9621C84.6493 39.9621 84.6493 39.9621 84.6493 55.4811C84.6493 55.4811 84.6493 55.4811 80.5022 55.4811C80.5022 55.4811 80.5022 55.4811 80.5022 39.9621C80.5022 39.9621 80.5022 39.9621 78.7851 39.9621C78.7851 39.9621 78.7851 39.9621 78.7851 36.3658Z" fill="#8D96B2"/>
<path fill-rule="evenodd" clip-rule="evenodd" d="M108.463 36.0418H108.528V39.9944L108.463 39.962C105.321 39.962 102.923 42.5215 102.923 45.7614C102.923 49.1633 105.321 51.9172 108.463 51.9172L108.528 51.8848V55.805L108.463 55.8374C102.923 55.8374 98.6142 51.3988 98.6142 45.7614C98.6142 40.3184 102.923 36.0418 108.463 36.0418Z" fill="#8D96B2"/>
<path fill-rule="evenodd" clip-rule="evenodd" d="M108.528 36.0418L110.504 36.2362C115.137 37.111 118.442 40.9988 118.442 45.7614C118.442 50.686 115.137 54.7035 110.504 55.6106L108.528 55.805V51.8848L110.731 51.4312C112.772 50.4916 114.133 48.3209 114.133 45.7614C114.133 43.3315 112.772 41.2904 110.731 40.4156L108.528 39.9944V36.0418Z" fill="#8D96B2"/>
<path fill-rule="evenodd" clip-rule="evenodd" d="M119.317 36.3658C119.317 36.3658 119.317 36.3658 123.108 36.3658C124.501 36.3658 125.181 37.0786 125.181 38.6014C125.181 38.6014 125.181 38.6014 125.181 51.5609C125.181 51.7228 125.181 51.7228 125.343 51.7228C125.343 51.7228 125.343 51.7228 130.333 51.7228C130.333 51.7228 130.333 51.7228 130.333 36.3658C130.333 36.3658 130.333 36.3658 134.48 36.3658C134.48 36.3658 134.48 36.3658 134.48 51.7228C134.48 51.7228 134.48 51.7228 139.502 51.7228C139.664 51.7228 139.664 51.7228 139.664 51.5609C139.664 51.5609 139.664 51.5609 139.664 38.6014C139.664 37.0786 140.344 36.3658 141.737 36.3658C141.737 36.3658 141.737 36.3658 145.528 36.3658C145.528 36.3658 145.528 36.3658 145.528 39.9621C145.528 39.9621 145.528 39.9621 143.973 39.9621C143.778 39.9621 143.778 40.1565 143.778 40.1565C143.778 40.1565 143.778 40.1565 143.778 53.278C143.778 54.8007 143.098 55.4811 141.737 55.4811C141.737 55.4811 141.737 55.4811 123.27 55.4811C121.715 55.4811 121.034 54.8007 121.034 53.278C121.034 53.278 121.034 53.278 121.034 40.1565C121.034 40.1565 121.034 39.9621 120.872 39.9621C120.872 39.9621 120.872 39.9621 119.317 39.9621C119.317 39.9621 119.317 39.9621 119.317 36.3658Z" fill="#8D96B2"/>
<path fill-rule="evenodd" clip-rule="evenodd" d="M148.799 36.3658C148.799 36.3658 148.799 36.3658 161.726 36.3658C163.281 36.3658 163.8 37.0786 163.8 38.4394C163.8 38.4394 163.8 38.4394 163.8 41.6792H160.009C160.009 41.6792 160.009 41.6792 160.009 40.1565C160.009 39.9621 160.009 39.9621 159.814 39.9621C159.814 39.9621 159.814 39.9621 157.417 39.9621C157.417 39.9621 157.417 39.9621 157.417 55.4811C157.417 55.4811 157.417 55.4811 153.27 55.4811C153.27 55.4811 153.27 55.4811 153.27 39.9621C153.27 39.9621 153.27 39.9621 150.872 39.9621C150.678 39.9621 150.678 39.9621 150.678 40.1565C150.678 40.1565 150.678 40.1565 150.678 41.6792C150.678 41.6792 150.678 41.6792 146.887 41.6792C146.887 41.6792 146.887 41.6792 146.887 38.4394C146.887 37.0786 147.406 36.3658 148.799 36.3658Z" fill="#8D96B2"/>
<path fill-rule="evenodd" clip-rule="evenodd" d="M169.146 36.3658C169.146 36.3658 169.146 36.3658 170.896 36.3658H171.22V41.8412C171.025 42.1976 170.863 42.6836 170.863 43.202C170.863 43.202 170.863 43.202 169.47 47.1222C169.47 47.1222 169.47 47.1222 170.928 47.1222H171.22V50.7185H170.28C169.73 50.7185 169.146 50.7185 168.434 50.7185C168.434 50.7185 168.434 50.7185 167.235 53.602C166.911 54.9627 166.198 55.4811 164.837 55.4811C164.837 55.4811 164.837 55.4811 162.245 55.4811C162.245 55.4811 162.245 55.4811 162.245 51.7228C162.245 51.7228 162.245 51.7228 163.12 51.7228C163.444 51.7228 163.444 51.7228 163.639 51.5609C163.639 51.5609 163.639 51.5609 169.146 36.3982V36.3658Z" fill="#8D96B2"/>
<path fill-rule="evenodd" clip-rule="evenodd" d="M171.22 36.3658H173.261C173.261 36.3658 173.261 36.3658 178.801 51.5609C178.963 51.7228 178.963 51.7228 179.32 51.7228H180C180 51.7228 180 51.7228 180 55.4811C180 55.4811 180 55.4811 177.602 55.4811C176.209 55.4811 175.529 54.9627 175.173 53.602C175.173 53.602 175.173 53.602 173.974 50.7185C173.974 50.7185 173.974 50.7185 171.641 50.7185H171.22V47.1222H172.937C172.937 47.1222 172.937 47.1222 171.544 43.202C171.544 42.6836 171.382 42.1976 171.22 41.8412V36.3658Z" fill="#8D96B2"/>
<path fill-rule="evenodd" clip-rule="evenodd" d="M52.2188 19.9398C52.4132 19.875 52.6724 20.0045 52.9316 20.3609C52.9316 20.3609 52.9316 20.3609 64.6599 31.7653C65.3403 32.4457 65.3403 33.4824 64.6599 34.0008C64.6599 34.0008 64.6599 34.0008 52.9316 45.5995C52.6724 45.9235 52.4132 46.0207 52.2188 45.9235C52.0244 45.8263 51.8948 45.5024 51.8948 45.0812V20.6849C51.8948 20.2637 52.0244 20.0045 52.2188 19.9398Z" fill="#8D96B2"/>
<path fill-rule="evenodd" clip-rule="evenodd" d="M32.1652 0.921631H33.0076L33.7852 1.24562C33.7852 1.24562 33.7852 1.24562 45.8699 13.2008C46.3883 13.8811 46.1939 14.3671 45.3515 14.3671C45.3515 14.3671 45.3515 14.3671 40.3297 14.3671C39.4873 14.3671 38.7746 15.0799 38.7746 15.9222C38.7746 15.9222 38.7746 15.9222 38.7746 24.7995C38.7746 25.6419 38.0942 26.3222 37.0574 26.3222C37.0574 26.3222 37.0574 26.3222 28.2774 26.3222C27.4026 26.3222 26.7222 25.6419 26.7222 24.7995C26.7222 24.7995 26.7222 24.7995 26.7222 15.9222C26.7222 15.0799 26.0419 14.3671 25.1671 14.3671H19.8213C18.9465 14.3671 18.7846 13.8811 19.3029 13.2008C19.3029 13.2008 19.3029 13.2008 31.3877 1.24562L32.1652 0.921631Z" fill="#8D96B2"/>
<path fill-rule="evenodd" clip-rule="evenodd" d="M13.2756 19.6805C13.47 19.81 13.5996 20.1016 13.5996 20.5228V45.405C13.5996 45.8586 13.47 46.1178 13.2756 46.1826C13.0488 46.2798 12.7572 46.1826 12.4008 45.9234C12.4008 45.9234 12.4008 45.9234 0.510509 34.0007C-0.169864 33.4823 -0.169864 32.4456 0.510509 31.7652C0.510509 31.7652 0.510509 31.7652 12.4008 20.0044C12.7572 19.6805 13.0488 19.5833 13.2756 19.6805Z" fill="#8D96B2"/>
<path fill-rule="evenodd" clip-rule="evenodd" d="M28.2761 39.2818C28.2761 39.2818 28.2761 39.2818 37.0562 39.2818C38.0929 39.2818 38.8057 39.9621 38.8057 40.8369C38.8057 40.8369 38.8057 40.8369 38.8057 50.2001C38.8057 51.2369 39.4861 51.9173 40.3284 51.9173H44.9939C45.8686 51.9173 46.1926 52.4032 45.5122 52.9216C45.5122 52.9216 45.5122 52.9216 33.7839 64.6824C33.4275 65.0387 33.0063 65.2007 32.5851 65.2007C32.164 65.2007 31.7104 65.0387 31.3864 64.6824C31.3864 64.6824 31.3864 64.6824 19.658 52.9216C18.9453 52.4032 19.3017 51.9173 20.144 51.9173C20.144 51.9173 20.144 51.9173 25.1658 51.9173C26.0406 51.9173 26.721 51.2369 26.721 50.2001C26.721 50.2001 26.721 50.2001 26.721 40.8369C26.721 39.9621 27.4013 39.2818 28.2761 39.2818Z" fill="#8D96B2"/>
</svg>
