<svg width="180" height="51" viewBox="0 0 180 51" fill="none" xmlns="http://www.w3.org/2000/svg">
<path d="M31.8794 17.1566H31.9504V2.18859C31.9504 1.63078 31.5166 1.19693 30.9588 1.19693H16.9825C16.4247 1.19693 15.9908 1.63078 15.9908 2.18859V17.1566H15.9997L22.7154 11.9195C23.4282 11.3617 24.4509 11.3617 25.1636 11.9195L31.8794 17.1566Z" fill="#8D96B2"/>
<path d="M15.9598 17.1876H0.991793C0.43398 17.1876 0.00012207 17.6214 0.00012207 18.1792V32.1555C0.00012207 32.7133 0.43398 33.1472 0.991793 33.1472H15.9598L15.9598 48.1151C15.9598 48.6729 16.3936 49.1068 16.9514 49.1068H26.9301C29.6882 49.1068 31.9504 46.8756 31.9194 44.1175V33.1472L15.9598 33.1472L15.9597 33.1164L15.9598 17.1876Z" fill="#8D96B2"/>
<path d="M31.9505 33.1472H46.9184C47.4762 33.1472 47.9101 32.6824 47.9101 32.1555V18.1792C47.9101 17.6214 47.4762 17.1876 46.9184 17.1876H31.9505V33.1472Z" fill="#8D96B2"/>
<path d="M23.3662 15.3902L18.9657 18.5512V30.1413H28.9444V18.5512L24.5439 15.3902C24.172 15.1423 23.7071 15.1423 23.3662 15.3902Z" fill="#8D96B2"/>
<path d="M58.1363 17.2186C58.1363 7.58084 65.1709 0.670166 74.8087 0.670166C84.4774 0.670166 91.543 7.58084 91.543 17.2186C91.543 26.8564 84.5084 33.767 74.8087 33.767C65.2019 33.767 58.1363 26.8564 58.1363 17.2186ZM84.5394 17.2186C84.5394 11.2376 80.6967 6.71313 74.8087 6.71313C68.9207 6.71313 65.1399 11.2066 65.1399 17.2186C65.1399 23.1686 68.9207 27.7241 74.8087 27.7241C80.7277 27.7241 84.5394 23.1686 84.5394 17.2186Z" fill="#8D96B2"/>
<path d="M110.54 32.1866V30.2032C108.711 32.4965 106.17 33.736 103.412 33.736C97.5552 33.736 93.1547 29.3355 93.1547 21.6191C93.1547 14.0577 97.5242 9.44021 103.412 9.44021C106.139 9.44021 108.742 10.6488 110.54 12.973V4.17199C110.54 2.52954 111.872 1.166 113.546 1.166H115.684C116.242 1.166 116.676 1.59985 116.676 2.15766V32.1246C116.676 32.6824 116.242 33.1163 115.684 33.1163H111.532C111.005 33.1782 110.54 32.7444 110.54 32.1866ZM110.54 25.7097V17.5285C109.548 16.01 107.317 14.8944 105.272 14.8944C101.832 14.8944 99.4146 17.6215 99.4146 21.6501C99.4146 25.6168 101.801 28.3748 105.272 28.3748C107.348 28.3439 109.548 27.2592 110.54 25.7097Z" fill="#8D96B2"/>
<path d="M120.89 32.1865V11.0207C120.89 10.4628 121.324 10.029 121.882 10.029H125.972C126.53 10.029 126.964 10.4628 126.964 11.0207V13.1899C128.39 11.3925 130.745 9.90503 133.224 9.53316C133.813 9.44019 134.371 9.90503 134.371 10.5248V14.2746C134.371 14.8324 133.906 15.2972 133.317 15.2662C133.131 15.2662 132.914 15.2352 132.697 15.2352C130.683 15.2352 127.987 16.3819 126.995 17.8694V30.1722C126.995 31.8147 125.663 33.1782 123.989 33.1782H121.882C121.324 33.1782 120.89 32.7444 120.89 32.1865Z" fill="#8D96B2"/>
<path d="M134.743 21.5881C134.743 14.8634 139.67 9.4712 146.736 9.4712C153.646 9.4712 158.326 14.6465 158.326 22.2079V22.5488C158.326 23.1066 157.892 23.5405 157.334 23.5405H141.127C141.499 26.4535 143.854 28.9017 147.789 28.9017C149.432 28.9017 151.632 28.2819 153.182 27.2282C153.646 26.9183 154.266 27.0113 154.576 27.4761L156.126 29.7694C156.436 30.2032 156.343 30.823 155.909 31.1329C153.616 32.8373 150.331 33.736 147.108 33.736C140.073 33.767 134.743 29.0256 134.743 21.5881ZM146.736 14.3056C142.955 14.3056 141.313 17.1256 141.034 19.4189H152.438C152.283 17.2186 150.764 14.3056 146.736 14.3056Z" fill="#8D96B2"/>
<path d="M173.883 32.7444L168.893 25.3688L163.873 32.7444C163.687 33.0233 163.377 33.1782 163.036 33.1782H158.76C157.954 33.1782 157.458 32.2485 157.954 31.5977L164.555 22.4558C165.051 21.7431 165.051 20.8134 164.555 20.1316L158.419 11.6095C157.954 10.9587 158.419 10.029 159.225 10.029H163.563C163.904 10.029 164.214 10.184 164.4 10.4629L168.893 17.1566L173.356 10.4629C173.542 10.184 173.852 10.029 174.193 10.029H178.5C179.306 10.029 179.802 10.9587 179.306 11.6095L173.139 20.1006C172.643 20.8134 172.643 21.7431 173.139 22.4558L179.802 31.5668C180.298 32.2175 179.802 33.1472 178.996 33.1472H174.719C174.379 33.1782 174.069 33.0233 173.883 32.7444Z" fill="#8D96B2"/>
<path d="M67.0928 49.1069V44.5824L65.1405 49.1069H64.5826L62.6303 44.5824V49.1069H61.2048V42.5991H63.0642L64.8616 46.8136L66.6589 42.5991H68.5183V49.1069H67.0928Z" fill="#8D96B2"/>
<path d="M73.012 45.853C73.012 43.9626 74.3755 42.4441 76.3278 42.4441C78.2802 42.4441 79.5508 43.9316 79.5508 46.0079V46.3488H74.5305C74.6234 47.3405 75.3672 48.1462 76.6068 48.1462C77.2265 48.1462 78.0013 47.8983 78.4661 47.4334L79.1169 48.3631C78.4661 48.9829 77.5055 49.2928 76.4828 49.2928C74.4685 49.2928 73.012 47.9293 73.012 45.853ZM76.3278 43.5907C75.1192 43.5907 74.5614 44.5204 74.4995 45.3261H78.1562C78.1252 44.5514 77.5984 43.5907 76.3278 43.5907Z" fill="#8D96B2"/>
<path d="M83.3312 47.9293C83.8891 47.8053 84.1989 47.4644 84.4159 45.76L84.8187 42.5991H89.8391V47.8673H90.5518V50.7803H89.1263V49.1069H84.7258V50.7803H83.3002V47.9293H83.3312ZM85.8414 45.9459C85.7484 46.8446 85.4385 47.4954 84.9737 47.8983H88.4445V43.8696H86.0893L85.8414 45.9459Z" fill="#8D96B2"/>
<path d="M94.7974 49.1069V42.5991H96.223V46.9996L99.2289 42.5991H100.654V49.1069H99.2289V44.5824L96.192 49.1069H94.7974Z" fill="#8D96B2"/>
<path d="M106.728 42.5991V44.3655C106.728 45.3881 107.255 45.698 108.278 45.698C108.898 45.698 109.363 45.6051 109.703 45.4501V42.6301H111.129V49.1379H109.703V46.5967C109.27 46.8136 108.619 46.9376 107.813 46.9376C105.985 46.9376 105.303 46.1939 105.303 44.8613V42.5991H106.728Z" fill="#8D96B2"/>
<path d="M116.056 49.1069V42.5991H117.482V45.1712H120.488V42.5991H121.913V49.1069H120.488V46.3798H117.482V49.1069H116.056Z" fill="#8D96B2"/>
<path d="M126.81 49.1069V42.5991H128.235V46.9996L131.241 42.5991H132.667V49.1069H131.241V44.5824L128.204 49.1069H126.81Z" fill="#8D96B2"/>
<path d="M137.563 49.1069V42.5991H138.989V46.9996L141.995 42.5991H143.42V49.1069H141.995V44.5824L138.958 49.1069H137.563ZM140.476 41.9173C139.515 41.9173 138.648 41.4525 138.09 40.7397L138.741 40.2129C139.144 40.7397 139.732 41.1116 140.476 41.1116C141.189 41.1116 141.809 40.7707 142.181 40.2129L142.831 40.7397C142.305 41.4525 141.437 41.9173 140.476 41.9173Z" fill="#8D96B2"/>
<path d="M154.174 47.9293C154.731 47.8053 155.041 47.4644 155.258 45.76L155.661 42.5991H160.681V47.8673H161.394V50.7803H159.969V49.1069H155.568V50.7803H154.143V47.9293H154.174ZM156.684 45.9459C156.591 46.8446 156.281 47.4954 155.816 47.8983H159.287V43.8696H156.932L156.684 45.9459Z" fill="#8D96B2"/>
<path d="M165.454 40.9256C165.454 40.4298 165.857 40.0579 166.321 40.0579C166.817 40.0579 167.189 40.4608 167.189 40.9256C167.189 41.3905 166.786 41.7933 166.321 41.7933C165.857 41.7933 165.454 41.4215 165.454 40.9256ZM165.64 49.1069V42.5991H167.065V49.1069H165.64Z" fill="#8D96B2"/>
<path d="M177.85 49.1069V44.5824L175.897 49.1069H175.339L173.387 44.5824V49.1069H171.962V42.5991H173.821L175.618 46.8136L177.416 42.5991H179.275V49.1069H177.85Z" fill="#8D96B2"/>
</svg>
