<svg width="181" height="32" viewBox="0 0 181 32" fill="none" xmlns="http://www.w3.org/2000/svg">
<path d="M30.3298 27.0114V11.3292H46.358V27.0114H41.9762V14.3273H34.8269V27.0114H30.3298Z" fill="#8D96B2"/>
<path d="M52.3541 21.3612C52.3541 18.1325 54.3144 17.556 55.5828 17.556C56.7359 17.556 58.8115 18.1325 58.8115 21.3612C58.8115 23.3215 58.0043 25.1665 55.5828 25.1665C53.1612 25.1665 52.3541 23.3215 52.3541 21.3612ZM48.4335 15.5957V31.1626H52.4694V25.8583C53.8531 27.3574 56.044 27.4727 56.6206 27.4727C60.5411 27.4727 62.9627 24.9359 62.9627 21.3612C62.9627 17.556 60.5411 15.2498 56.7359 15.2498C55.8134 15.2498 53.8531 15.3651 52.3541 17.0947H52.2388V15.711H48.4335V15.5957Z" fill="#8D96B2"/>
<path d="M73.11 25.6278C71.6109 27.0115 70.1119 27.4728 68.4975 27.4728C64.1157 27.4728 63.8851 24.1287 63.8851 22.745V15.5957H67.921V22.1685C67.921 24.4747 68.7282 25.0512 70.2272 25.0512C72.764 25.0512 72.9947 22.745 72.9947 21.9378V15.5957H77.0305V27.0115H73.11V25.6278Z" fill="#8D96B2"/>
<path d="M83.0267 17.902H85.2176C86.3707 17.902 87.4085 18.1326 87.4085 19.0551C87.4085 20.0929 85.7942 20.0929 85.2176 20.0929H83.142V17.902H83.0267ZM78.9909 15.5957V27.0115H87.0626C90.0607 27.0115 92.021 26.435 92.021 24.1287C92.021 22.2838 90.9832 21.5919 88.7923 21.1307V21.0154C90.2913 20.7847 91.5597 19.8622 91.5597 18.3632C91.5597 15.5957 88.331 15.5957 87.0626 15.5957H78.9909ZM83.0267 22.2838H85.5636C87.5239 22.2838 87.8698 22.8603 87.8698 23.6675C87.8698 24.1287 87.6392 24.8206 85.5636 24.8206H83.0267V22.2838Z" fill="#8D96B2"/>
<path d="M101.938 22.2837C101.938 24.5899 99.9774 25.1665 98.9396 25.1665C98.1325 25.1665 96.864 24.9359 96.864 23.8981C96.864 22.6297 98.3631 22.399 99.2856 22.2837C100.9 22.0531 100.785 22.1684 101.938 21.7072V22.2837ZM97.21 19.2856C97.21 17.556 98.9396 17.4407 99.7468 17.4407C100.208 17.4407 101.938 17.4407 101.938 18.9397C101.938 19.055 101.938 19.1703 101.938 19.2856C101.822 20.4387 100.785 20.2081 97.7865 20.5541C95.365 20.9 92.7129 21.5919 92.7129 24.1287C92.7129 25.0512 93.1741 27.4727 97.4406 27.4727C99.0549 27.4727 100.9 27.0115 102.053 25.9737H102.168L102.514 27.1268H106.781V26.8961C105.974 26.7808 105.974 25.9737 105.974 24.7052L106.089 19.5163C106.089 18.2478 105.974 15.2498 99.8621 15.2498C98.3631 15.2498 93.6353 15.3651 93.4047 19.4009H97.21V19.2856Z" fill="#8D96B2"/>
<path d="M106.55 17.902V15.5957H119.696V17.902H115.198V27.0115H111.163V17.902H106.55Z" fill="#8D96B2"/>
<path d="M124.884 20.2081H128.574C129.612 20.2081 131.803 20.3234 131.803 22.1684C131.803 23.6674 130.189 23.8981 128.459 23.8981H124.884V20.2081ZM124.884 14.4426H135.032V11.3292H120.387V27.0114H129.382C133.763 27.0114 136.531 25.5124 136.531 22.2837C136.531 17.21 130.881 17.0947 129.382 17.0947H124.884V14.4426Z" fill="#8D96B2"/>
<path d="M146.563 22.2837C146.563 24.5899 144.603 25.1665 143.565 25.1665C142.758 25.1665 141.489 24.9359 141.489 23.8981C141.489 22.6297 142.988 22.399 143.911 22.2837C145.525 22.0531 145.41 22.1684 146.563 21.7072V22.2837ZM141.835 19.2856C141.835 17.556 143.565 17.4407 144.372 17.4407C144.833 17.4407 146.563 17.4407 146.563 18.9397C146.563 19.055 146.563 19.1703 146.563 19.2856C146.448 20.4387 145.41 20.2081 142.412 20.5541C139.99 20.9 137.338 21.4765 137.338 24.1287C137.338 25.0512 137.684 27.4727 142.066 27.4727C143.68 27.4727 145.525 27.0115 146.678 25.9737H146.794L147.139 27.1268H151.406V26.8961C150.599 26.7808 150.599 25.9737 150.599 24.7052L150.714 19.5163C150.714 18.2478 150.599 15.2498 144.487 15.2498C142.988 15.2498 138.261 15.3651 138.03 19.4009H141.835V19.2856Z" fill="#8D96B2"/>
<path d="M156.48 27.0115H152.444V15.5957H156.48V19.8622H161.438V15.5957H165.474V27.0115H161.438V22.1685H156.48V27.0115Z" fill="#8D96B2"/>
<path d="M175.852 15.5956H180.349L174.699 20.8999L180.579 26.8961H175.736L171.355 21.9377H171.239V26.8961H167.203V15.4803H171.239V20.0928H171.355L175.852 15.5956Z" fill="#8D96B2"/>
<path d="M10.8422 16.8641H0.579529V27.1268H10.8422V16.8641Z" fill="#8D96B2"/>
<path d="M0.694761 0.835938V13.6354H3.34691C10.4962 13.6354 14.0708 17.2101 14.0708 24.3593V27.0115H26.8703V0.835938H0.694761ZM21.4507 6.25554C21.4507 9.71486 21.4507 18.1325 21.4507 21.5919C20.5282 21.5919 20.2976 21.5919 19.3751 21.5919C18.4526 14.0967 13.6096 9.25362 6.11436 8.44644C6.11436 7.52396 6.11436 7.29334 6.11436 6.37085C9.57369 6.25554 17.9914 6.25554 21.4507 6.25554Z" fill="#8D96B2"/>
</svg>
