<svg width="181" height="44" viewBox="0 0 181 44" fill="none" xmlns="http://www.w3.org/2000/svg">
<path d="M11.4277 7.1068C11.4277 18.3438 2.01655 20.4401 2.01655 31.2475C2.01655 35.4661 4.67211 39.1179 7.80914 39.5512C7.5916 38.8425 7.48906 38.1035 7.50544 37.3624C7.50544 29.5624 20.0388 27.1475 20.0388 13.8475C20.0388 7.48828 15.5647 2.1142 10.3203 0.836426C10.3203 0.836426 11.4314 4.28828 11.4314 7.10309L11.4277 7.1068Z" fill="#8D96B2"/>
<path d="M10.6352 37.8327C10.6352 40.0549 12.1981 42.3883 14.2352 43.1549C14.1197 42.8027 14.067 42.4329 14.0796 42.0624C14.0796 37.7179 26.9314 36.3327 26.9314 24.9772C26.9361 23.3203 26.5899 21.6813 25.9158 20.1678C25.2418 18.6543 24.255 17.3006 23.0203 16.1957C21.2611 29.1031 10.6352 30.8809 10.6352 37.8327Z" fill="#8D96B2"/>
<path d="M3.90185 4.44015C4.28158 5.1692 4.49294 5.97414 4.52037 6.7957C4.52037 10.7846 0.75 12.3031 0.75 16.355C0.753985 17.2421 0.987305 18.1131 1.4273 18.8834C1.8673 19.6537 2.49902 20.2972 3.26111 20.7513C3.28351 20.4318 3.33811 20.1153 3.42407 19.8068C4.30556 16.992 8.43148 13.8809 8.43148 9.45867C8.40917 8.21638 7.93834 7.02407 7.10584 6.10173C6.27334 5.17938 5.13536 4.58922 3.90185 4.44015Z" fill="#8D96B2"/>
<path d="M44.787 27.6031C47.224 29.7994 49.5352 31.092 52.8685 31.092C54.7203 31.092 58.087 30.3105 58.087 27.8809C58.087 26.4735 57.0278 25.7623 54.9574 25.4105L49.1426 24.4661C43.9574 23.6475 41.1426 20.9031 41.1426 16.7846C41.1426 10.0475 46.5981 7.25494 52.5611 7.25494C54.8748 7.24026 57.1659 7.71094 59.2865 8.63661C61.407 9.56227 63.3099 10.9223 64.8722 12.629L59.5759 16.429C58.6671 15.3214 57.5233 14.4298 56.2274 13.8187C54.9316 13.2076 53.516 12.8923 52.0833 12.8957C50.4833 12.8957 48.1241 13.9179 48.1241 15.7216C48.1241 17.2031 49.3426 17.9438 52.0055 18.392L54.6796 18.8179C60.2463 19.7216 64.8241 21.4401 64.8241 26.7735C64.8241 35.1698 57.2463 36.7401 52.0352 36.7401C47.2944 36.7401 42.8426 35.2068 39.0315 31.0549L44.787 27.6031ZM82.0092 36.7438C73.0981 36.7438 67.8833 29.8401 67.8833 21.992C67.8833 14.1438 73.0981 7.25494 82.0092 7.25494C90.9203 7.25494 96.1166 14.1586 96.1166 21.992C96.1166 29.8253 90.9055 36.7438 82.0092 36.7438ZM82.0092 13.1327C77.9352 13.1327 74.8685 15.7253 74.8685 21.992C74.8685 26.0661 76.5203 30.8623 82.0092 30.8623C87.1944 30.8623 89.1426 26.3105 89.1426 21.992C89.1426 17.6031 87.1796 13.1327 82.0092 13.1327ZM118.946 17.3364C118.513 16.1312 117.727 15.0847 116.689 14.334C115.652 13.5833 114.412 13.1633 113.131 13.129C109.298 13.129 106.243 15.7216 106.243 21.9957C106.243 26.0698 107.891 30.8623 113.383 30.8623C115.265 30.8623 118.009 29.4512 119.106 26.9401L124.635 29.6068C122.231 33.9586 118.087 36.7401 113.383 36.7401C104.472 36.7401 99.2685 29.8401 99.2685 21.9957C99.2685 14.1512 104.139 7.25864 112.843 7.25864C118.328 7.25864 121.935 9.92531 124.528 14.5475L118.946 17.3364ZM135.502 8.04753H142.713L153.265 35.9549H145.768L144.357 31.566H134.05L132.635 35.9549H125.194L135.502 8.04753ZM142.672 26.3883L139.228 14.8623H139.15L135.698 26.3883H142.672ZM156.031 8.04383H170.009C176.287 8.04383 180.135 10.9475 180.135 17.2142C180.135 20.8253 177.857 23.7179 174.365 24.7438L180.75 35.9549H172.935L167.446 25.9179H163.002V35.9549H156.031V8.04383ZM163.017 20.7327H169.409C171.631 20.6994 173.135 19.5698 173.135 16.9772C173.135 14.3846 171.654 13.2512 169.409 13.2105H163.017V20.7327Z" fill="#8D96B2"/>
</svg>
