<svg width="181" height="40" viewBox="0 0 181 40" fill="none" xmlns="http://www.w3.org/2000/svg">
<path d="M90.5992 39.8146C64.8092 39.8146 39.0192 39.8146 13.2292 39.8146C6.90526 39.8146 2.15083 36.0548 0.880305 30.1563C0.754139 29.5648 0.69055 28.9617 0.690588 28.3569C0.690588 23.3897 0.552611 18.4226 0.690588 13.467C0.828564 8.51132 3.18566 4.68248 7.2387 1.91146C9.21061 0.566195 11.447 0.25 13.8156 0.25C61.9462 0.25 110.077 0.25 158.208 0.25C161.232 0.25 164.261 0.25 167.285 0.25C174.035 0.25 179.013 4.2743 180.479 10.8914C180.718 12.0142 180.843 13.1583 180.853 14.3063C180.893 18.5433 180.853 22.7803 180.853 27.0174C180.853 34.7958 175.794 39.7974 167.958 39.7974H90.5992V39.8146ZM150.964 27.0634C155.879 27.0634 160.582 27.0634 165.285 27.0634C168.855 27.0634 170.522 24.9132 169.545 21.4811C169.263 20.5037 168.487 19.6644 167.872 18.6583C169.021 17.2556 169.476 15.5366 168.567 13.7429C167.659 11.9492 165.842 11.817 164.014 11.8515C161.053 11.9032 158.093 11.8515 155.132 11.8515H150.964V27.0634ZM53.4262 26.9944C58.744 26.9944 63.8779 27.0864 69.006 26.9541C71.2079 26.8909 72.4152 25.3387 72.1507 22.9298C71.9955 21.4868 71.1849 20.1128 70.5525 18.3881C71.079 17.7558 71.4077 16.9825 71.4976 16.1646C71.5876 15.3468 71.4348 14.5205 71.0584 13.7889C70.0926 11.9377 68.3334 11.8342 66.5052 11.8802C64.3895 11.9262 62.2682 11.8802 60.1813 11.8802H53.4262V26.9944ZM137.201 11.8515C131.9 11.8515 126.766 11.748 121.644 11.9435C120.678 11.978 119.408 13.0013 118.884 13.9154C117.286 16.7324 118.591 20.8142 121.397 22.4699L118.603 27.0059H125.714L128.364 22.2974H131.434C131.526 23.9014 131.613 25.4249 131.699 26.9771H137.201V11.8515ZM111.175 11.886L102.684 19.7219V11.9435H97.0151V26.9656H101.545L110.042 19.1585V27.0059H115.671V11.886H111.175ZM81.0559 26.9656V22.1767C84.2523 22.1767 87.2073 22.1767 90.1623 22.1767C92.8184 22.1767 94.0487 20.9349 94.0716 18.3421C94.0716 17.497 94.0716 16.6519 94.0716 15.8068C94.0716 13.2083 92.7954 11.863 90.2428 11.8457C85.7126 11.817 81.1824 11.8457 76.6522 11.8457C76.2061 11.8727 75.7623 11.9303 75.3242 12.0182V26.9656H81.0559ZM37.1048 25.0282H42.733L43.6989 26.9426H50.3217C47.9359 21.7685 45.665 16.8014 43.4229 11.9377H36.4896L29.5506 26.9426H36.2309L37.1048 25.0282ZM30.1657 11.9262H11.5217V16.376H17.8801V26.9714H23.7671V16.2782H30.1657V11.9262Z" fill="#8D96B2"/>
<path d="M163.06 21.1706C163.221 21.688 163.359 22.1135 163.571 22.7861C161.071 23.9876 158.558 23.1023 156.006 23.43V21.1706H163.06Z" fill="#8D96B2"/>
<path d="M156.253 17.9857V15.7723H162.629C162.715 16.2035 163.025 16.8071 162.858 17.2153C162.716 17.425 162.527 17.5992 162.307 17.7248C162.087 17.8504 161.841 17.9239 161.588 17.9397C159.863 18.0374 158.133 17.9857 156.253 17.9857Z" fill="#8D96B2"/>
<path d="M65.3784 21.1591C66.2522 22.4239 65.9533 23.2575 64.562 23.3495C62.6016 23.4817 60.6239 23.384 58.5313 23.384V21.1591H65.3784Z" fill="#8D96B2"/>
<path d="M65.4302 15.8355L65.1887 17.8534H58.8648V15.8355H65.4302Z" fill="#8D96B2"/>
<path d="M123.84 17.9972V15.9735H131.423V17.9972H123.84Z" fill="#8D96B2"/>
<path d="M88.9493 18.0259H81.0904V16.0482H88.6389L88.9493 18.0259Z" fill="#8D96B2"/>
<path d="M40.0483 15.847L41.842 20.8429H38.0591L39.6688 15.8988L40.0483 15.847Z" fill="#8D96B2"/>
</svg>
