<svg width="181" height="130" viewBox="0 0 181 130" fill="none" xmlns="http://www.w3.org/2000/svg">
<path fill-rule="evenodd" clip-rule="evenodd" d="M86.2544 81.8173C79.2893 77.4879 74.1581 62.5469 74.1581 44.7951C74.1581 44.1437 74.1633 43.5017 74.177 42.8597L74.1854 42.8691C54.8129 39.8477 40.8158 31.5702 40.4573 21.782L40.4004 21.8948C35.6603 27.7407 32.9547 34.4997 32.9547 41.7016C32.9547 62.8938 56.3962 80.258 86.1291 81.7938L86.2544 81.8173ZM23.9983 43.2479C23.9983 19.5353 53.7338 0.309326 90.417 0.309326C127.099 0.309326 156.836 19.5353 156.836 43.2479C156.836 66.9605 127.099 86.1869 90.417 86.1869C53.7338 86.1869 23.9983 66.9599 23.9983 43.2479ZM90.417 6.50624C97.4985 6.50624 103.522 17.1663 105.753 32.0404L105.762 32.0179C119.538 29.8897 129.184 24.9805 129.184 19.2678C129.184 11.6004 111.826 5.39201 90.4171 5.39201C69.0069 5.39201 51.6498 11.6009 51.6498 19.2678C51.6498 24.9805 61.2943 29.8897 75.0724 32.0179L75.0809 32.0404C77.3122 17.1668 83.3372 6.50624 90.417 6.50624ZM94.7039 81.7933C124.437 80.258 147.881 62.8933 147.881 41.7011C147.881 34.4997 145.173 27.7407 140.433 21.8943L140.375 21.7815C140.017 31.5697 126.023 39.8472 106.649 42.8686L106.657 42.8592C106.67 43.5012 106.677 44.1432 106.677 44.7946C106.677 62.5464 101.542 77.4873 94.5813 81.8168L94.7039 81.7933ZM90.417 33.1457C93.5896 33.1457 96.6737 33.0114 99.6246 32.7534L99.6193 32.7581C98.1507 23.2232 94.5839 16.494 90.416 16.494C86.2481 16.494 82.6818 23.2232 81.2111 32.7581L81.2058 32.7534C84.1568 33.0114 87.2419 33.1457 90.4144 33.1457H90.417ZM90.417 68.455C95.7483 68.455 100.097 57.4449 100.329 43.6355L100.358 43.6454C97.1443 43.9405 93.8201 44.0946 90.4176 44.0946C87.0119 44.0946 83.6909 43.9405 80.4773 43.6454L80.5073 43.6355C80.7358 57.4444 85.0837 68.455 90.417 68.455Z" fill="#8D96B2"/>
<path fill-rule="evenodd" clip-rule="evenodd" d="M90.6129 113.752C90.6129 104.955 97.7462 97.8226 106.542 97.8226C115.342 97.8226 122.474 104.954 122.474 113.752C122.474 122.551 115.342 129.682 106.542 129.682C97.7462 129.682 90.6129 122.551 90.6129 113.752ZM106.542 123.841C111.455 123.841 115.438 119.323 115.438 113.752C115.438 108.181 111.455 103.664 106.542 103.664C101.632 103.664 97.6494 108.181 97.6494 113.752C97.6494 119.323 101.632 123.841 106.542 123.841Z" fill="#8D96B2"/>
<path fill-rule="evenodd" clip-rule="evenodd" d="M140.549 128.958H133.837V104.46H133.859H124.473V98.9209H149.911V104.46H140.549V128.958Z" fill="#8D96B2"/>
<path fill-rule="evenodd" clip-rule="evenodd" d="M158.031 122.2L158.024 122.206L155.45 128.958H147.612L160.004 98.9207H168.357L180.75 128.958H172.911L170.336 122.206L170.329 122.2H158.031ZM168.405 117.13L168.402 117.132L164.211 106.138H164.152L159.958 117.132L159.955 117.13H168.405Z" fill="#8D96B2"/>
<path fill-rule="evenodd" clip-rule="evenodd" d="M16.8261 128.958H10.1142V104.46H10.137H0.75V98.9209H26.1893V104.46H16.8261V128.958Z" fill="#8D96B2"/>
<path fill-rule="evenodd" clip-rule="evenodd" d="M27.9059 113.752C27.9059 104.955 35.039 97.8226 43.8375 97.8226C52.6355 97.8226 59.7678 104.954 59.7678 113.752C59.7678 122.551 52.6355 129.682 43.8375 129.682C35.039 129.682 27.9059 122.551 27.9059 113.752ZM43.8375 123.841C48.7487 123.841 52.7318 119.323 52.7318 113.752C52.7318 108.181 48.7489 103.664 43.8375 103.664C38.9256 103.664 34.9424 108.181 34.9424 113.752C34.9424 119.323 38.9256 123.841 43.8375 123.841Z" fill="#8D96B2"/>
<path fill-rule="evenodd" clip-rule="evenodd" d="M78.5936 128.958V117.553L90.3027 98.9209H82.4659L75.1903 111.546L67.9157 98.9209H60.0764L71.7868 117.553V128.958H78.5936Z" fill="#8D96B2"/>
</svg>
