<svg width="105" height="27" viewBox="0 0 105 27" fill="none" xmlns="http://www.w3.org/2000/svg">
<path d="M15.6648 12.946C15.676 12.0749 15.9074 11.2209 16.3374 10.4633C16.7674 9.7057 17.382 9.06918 18.1241 8.61295C17.6527 7.93968 17.0307 7.3856 16.3077 6.99472C15.5847 6.60385 14.7805 6.38695 13.959 6.36124C12.2066 6.1773 10.5077 7.40986 9.61468 7.40986C8.70439 7.40986 7.32948 6.37951 5.84892 6.40997C4.89125 6.44091 3.95793 6.71939 3.13989 7.21828C2.32185 7.71718 1.647 8.41946 1.18107 9.25672C-0.837211 12.7511 0.668246 17.8866 2.60159 20.7111C3.56889 22.0942 4.69937 23.6392 6.1786 23.5844C7.6261 23.5244 8.16672 22.6614 9.91398 22.6614C11.645 22.6614 12.1522 23.5844 13.6615 23.5496C15.2147 23.5244 16.1933 22.1603 17.1267 20.7641C17.8217 19.7786 18.3565 18.6894 18.7113 17.5368C17.8089 17.1552 17.0388 16.5163 16.4971 15.6999C15.9553 14.8835 15.6659 13.9257 15.6648 12.946Z" fill="white"/>
<path d="M12.8138 4.50358C13.6607 3.48691 14.0779 2.18017 13.9769 0.86084C12.683 0.996735 11.4879 1.61512 10.6295 2.59277C10.2099 3.07038 9.88846 3.62602 9.68366 4.22793C9.47887 4.82983 9.39471 5.4662 9.43599 6.10065C10.0832 6.10732 10.7234 5.96704 11.3085 5.6904C11.8936 5.41377 12.4083 5.00797 12.8138 4.50358Z" fill="white"/>
<path d="M33.9623 20.0827H29.0227L27.8364 23.5854H25.7441L30.4229 10.6262H32.5967L37.2755 23.5854H35.1476L33.9623 20.0827ZM29.5342 18.4663H33.4498L31.5195 12.7817H31.4655L29.5342 18.4663Z" fill="white"/>
<path d="M47.3805 18.8624C47.3805 21.7984 45.809 23.6848 43.4375 23.6848C42.8368 23.7163 42.2393 23.5779 41.7136 23.2855C41.1878 22.9932 40.755 22.5587 40.4647 22.0318H40.4199V26.7116H38.4805V14.1377H40.3577V15.7092H40.3934C40.697 15.1848 41.1371 14.7526 41.6669 14.4585C42.1966 14.1643 42.7962 14.0193 43.4018 14.0389C45.7998 14.0389 47.3805 15.9344 47.3805 18.8624ZM45.3871 18.8624C45.3871 16.9495 44.3985 15.6919 42.8902 15.6919C41.4084 15.6919 40.4117 16.976 40.4117 18.8624C40.4117 20.7661 41.4084 22.041 42.8902 22.041C44.3985 22.041 45.3871 20.7926 45.3871 18.8624Z" fill="white"/>
<path d="M57.7789 18.8623C57.7789 21.7984 56.2074 23.6848 53.8359 23.6848C53.2352 23.7162 52.6378 23.5779 52.112 23.2855C51.5863 22.9932 51.1535 22.5587 50.8632 22.0318H50.8183V26.7116H48.8789V14.1377H50.7561V15.7092H50.7918C51.0954 15.1848 51.5355 14.7526 52.0653 14.4585C52.595 14.1643 53.1946 14.0193 53.8002 14.0389C56.1983 14.0389 57.7789 15.9344 57.7789 18.8623ZM55.7855 18.8623C55.7855 16.9495 54.797 15.6919 53.2887 15.6919C51.8069 15.6919 50.8102 16.976 50.8102 18.8623C50.8102 20.7661 51.8069 22.041 53.2887 22.041C54.797 22.041 55.7855 20.7926 55.7855 18.8623H55.7855Z" fill="white"/>
<path d="M64.6523 19.9749C64.796 21.26 66.0444 22.1038 67.7504 22.1038C69.3851 22.1038 70.5611 21.26 70.5611 20.1012C70.5611 19.0953 69.8518 18.4931 68.1723 18.0803L66.4928 17.6757C64.1132 17.1009 63.0084 15.988 63.0084 14.1822C63.0084 11.9462 64.957 10.4104 67.7239 10.4104C70.4623 10.4104 72.3395 11.9462 72.4027 14.1822H70.4449C70.3277 12.8889 69.2587 12.1083 67.6964 12.1083C66.134 12.1083 65.065 12.8981 65.065 14.0476C65.065 14.9638 65.7478 15.503 67.4181 15.9157L68.8459 16.2662C71.5048 16.895 72.6095 17.9631 72.6095 19.8586C72.6095 22.2831 70.6783 23.8016 67.6067 23.8016C64.7327 23.8016 62.7923 22.3188 62.667 19.9748L64.6523 19.9749Z" fill="white"/>
<path d="M76.795 11.9016V14.1376H78.5917V15.6734H76.795V20.8821C76.795 21.6913 77.1547 22.0684 77.9445 22.0684C78.1578 22.0646 78.3708 22.0497 78.5825 22.0235V23.5501C78.2274 23.6165 77.8665 23.6465 77.5053 23.6398C75.5924 23.6398 74.8464 22.9213 74.8464 21.0889V15.6734H73.4727V14.1376H74.8464V11.9016H76.795Z" fill="white"/>
<path d="M79.6328 18.8618C79.6328 15.889 81.3837 14.021 84.1139 14.021C86.8533 14.021 88.596 15.889 88.596 18.8618C88.596 21.8427 86.8625 23.7026 84.1139 23.7026C81.3663 23.7026 79.6328 21.8427 79.6328 18.8618ZM86.6199 18.8618C86.6199 16.8226 85.6854 15.619 84.1139 15.619C82.5424 15.619 81.6089 16.8317 81.6089 18.8618C81.6089 20.9092 82.5424 22.1036 84.1139 22.1036C85.6854 22.1036 86.6199 20.9092 86.6199 18.8618H86.6199Z" fill="white"/>
<path d="M90.1943 14.1376H92.044V15.7458H92.0889C92.2141 15.2435 92.5083 14.7996 92.9222 14.4888C93.336 14.1779 93.8443 14.019 94.3616 14.0388C94.5851 14.038 94.8079 14.0622 95.026 14.1111V15.9251C94.7439 15.8389 94.4495 15.7993 94.1546 15.808C93.8729 15.7965 93.592 15.8462 93.3313 15.9536C93.0706 16.0609 92.8361 16.2235 92.6442 16.43C92.4522 16.6365 92.3071 16.8821 92.219 17.15C92.1309 17.4178 92.1018 17.7016 92.1337 17.9817V23.5859H90.1943L90.1943 14.1376Z" fill="white"/>
<path d="M103.967 20.8104C103.706 22.5256 102.036 23.7026 99.8989 23.7026C97.1503 23.7026 95.4443 21.8611 95.4443 18.9067C95.4443 15.9431 97.1595 14.021 99.8174 14.021C102.431 14.021 104.075 15.8167 104.075 18.6814V19.3459H97.4021V19.4631C97.3713 19.8108 97.4148 20.1611 97.5298 20.4907C97.6448 20.8203 97.8286 21.1217 98.069 21.3748C98.3093 21.6279 98.6008 21.827 98.9241 21.9588C99.2473 22.0906 99.5949 22.1521 99.9438 22.1393C100.402 22.1822 100.862 22.0761 101.255 21.8367C101.648 21.5972 101.954 21.2373 102.126 20.8104L103.967 20.8104ZM97.4112 17.9905H102.135C102.152 17.6778 102.105 17.3649 101.996 17.0715C101.886 16.778 101.718 16.5103 101.5 16.2851C101.282 16.06 101.021 15.8822 100.731 15.763C100.442 15.6438 100.13 15.5858 99.8174 15.5925C99.5016 15.5906 99.1885 15.6513 98.8962 15.771C98.604 15.8908 98.3384 16.0672 98.1147 16.2901C97.891 16.5131 97.7136 16.7781 97.5929 17.07C97.4722 17.3618 97.4104 17.6747 97.4112 17.9905V17.9905Z" fill="white"/>
<path d="M25.8125 0.92749V7.2688H28.0493C29.939 7.2688 31.0508 6.09106 31.0508 4.08716C31.0508 2.08765 29.9346 0.92749 28.0493 0.92749H25.8125ZM26.7969 1.77563H27.957C29.2974 1.77563 30.0444 2.60181 30.0444 4.09595C30.0444 5.59448 29.3018 6.41626 27.957 6.41626H26.7969V1.77563Z" fill="white"/>
<path d="M33.8633 7.35669C35.186 7.35669 36.0562 6.44702 36.0562 4.95728C36.0562 3.47192 35.1816 2.56226 33.8633 2.56226C32.5449 2.56226 31.6704 3.47192 31.6704 4.95728C31.6704 6.44702 32.5405 7.35669 33.8633 7.35669ZM33.8633 6.57446C33.1206 6.57446 32.6372 5.9856 32.6372 4.95728C32.6372 3.93335 33.1206 3.34448 33.8633 3.34448C34.606 3.34448 35.0894 3.93335 35.0894 4.95728C35.0894 5.9856 34.6104 6.57446 33.8633 6.57446Z" fill="white"/>
<path d="M42.8721 2.64575H41.9316L41.0879 6.28442H41.0659L40.0991 2.64575H39.1851L38.2227 6.28442H38.2051L37.3613 2.64575H36.4121L37.6821 7.2688H38.6621L39.6245 3.80591H39.6465L40.6177 7.2688H41.6064L42.8721 2.64575Z" fill="white"/>
<path d="M43.4521 7.2688H44.4014V4.57495C44.4014 3.85864 44.832 3.38403 45.5 3.38403C46.1592 3.38403 46.4844 3.76636 46.4844 4.46069V7.2688H47.438V4.27612C47.438 3.21704 46.8535 2.56665 45.834 2.56665C45.1221 2.56665 44.6299 2.89185 44.3794 3.41919H44.3574V2.64575H43.4521V7.2688Z" fill="white"/>
<path d="M48.3916 7.2688H49.3408V0.92749H48.3916V7.2688Z" fill="white"/>
<path d="M52.3027 7.35669C53.6255 7.35669 54.4956 6.44702 54.4956 4.95728C54.4956 3.47192 53.6211 2.56226 52.3027 2.56226C50.9844 2.56226 50.1099 3.47192 50.1099 4.95728C50.1099 6.44702 50.98 7.35669 52.3027 7.35669ZM52.3027 6.57446C51.5601 6.57446 51.0767 5.9856 51.0767 4.95728C51.0767 3.93335 51.5601 3.34448 52.3027 3.34448C53.0454 3.34448 53.5288 3.93335 53.5288 4.95728C53.5288 5.9856 53.0498 6.57446 52.3027 6.57446Z" fill="white"/>
<path d="M56.8467 6.59644C56.3369 6.59644 56.0029 6.33276 56.0029 5.92847C56.0029 5.53296 56.3237 5.28247 56.8906 5.24292L58.0288 5.17261V5.53735C58.0288 6.1394 57.5103 6.59644 56.8467 6.59644ZM56.583 7.3479C57.1895 7.3479 57.7739 7.02271 58.042 6.50854H58.064V7.2688H58.9736V4.08276C58.9736 3.15552 58.2573 2.56226 57.1367 2.56226C55.9941 2.56226 55.2822 3.17749 55.2295 4.01245H56.126C56.2095 3.59937 56.5522 3.33569 57.1016 3.33569C57.6816 3.33569 58.0288 3.64331 58.0288 4.15747V4.51343L56.7632 4.58813C55.6646 4.64966 55.0449 5.14624 55.0449 5.95483C55.0449 6.7854 55.6777 7.3479 56.583 7.3479Z" fill="white"/>
<path d="M61.6323 7.3479C62.3047 7.3479 62.832 7.00952 63.1045 6.48218H63.1221V7.2688H64.0449V0.92749H63.0913V3.41479H63.0737C62.8145 2.90503 62.2871 2.57104 61.6235 2.57104C60.4634 2.57104 59.6899 3.49829 59.6899 4.95728C59.6899 6.41626 60.4634 7.3479 61.6323 7.3479ZM61.8828 3.37085C62.6123 3.37085 63.1001 3.99927 63.1001 4.95728C63.1001 5.92407 62.6123 6.5437 61.8828 6.5437C61.1313 6.5437 60.6611 5.93286 60.6611 4.95728C60.6611 3.98608 61.1313 3.37085 61.8828 3.37085Z" fill="white"/>
<path d="M68.835 7.35669C70.1577 7.35669 71.0278 6.44702 71.0278 4.95728C71.0278 3.47192 70.1533 2.56226 68.835 2.56226C67.5166 2.56226 66.6421 3.47192 66.6421 4.95728C66.6421 6.44702 67.5122 7.35669 68.835 7.35669ZM68.835 6.57446C68.0923 6.57446 67.6089 5.9856 67.6089 4.95728C67.6089 3.93335 68.0923 3.34448 68.835 3.34448C69.5776 3.34448 70.061 3.93335 70.061 4.95728C70.061 5.9856 69.582 6.57446 68.835 6.57446Z" fill="white"/>
<path d="M71.7617 7.2688H72.7109V4.57495C72.7109 3.85864 73.1416 3.38403 73.8096 3.38403C74.4688 3.38403 74.7939 3.76636 74.7939 4.46069V7.2688H75.7476V4.27612C75.7476 3.21704 75.1631 2.56665 74.1436 2.56665C73.4316 2.56665 72.9395 2.89185 72.689 3.41919H72.667V2.64575H71.7617V7.2688Z" fill="white"/>
<path d="M78.771 1.55151V2.64575H78.0986V3.39722H78.771V6.05151C78.771 6.9436 79.1357 7.29956 80.0718 7.29956C80.2827 7.29956 80.4937 7.28198 80.5991 7.25562V6.50415C80.5376 6.51733 80.3838 6.52612 80.2871 6.52612C79.9004 6.52612 79.7246 6.34595 79.7246 5.94604V3.39722H80.6035V2.64575H79.7246V1.55151H78.771Z" fill="white"/>
<path d="M81.4209 7.2688H82.3701V4.59692C82.3701 3.86743 82.8008 3.38403 83.5039 3.38403C84.1719 3.38403 84.5146 3.79272 84.5146 4.47388V7.2688H85.4683V4.28931C85.4683 3.24341 84.8618 2.56665 83.8467 2.56665C83.1436 2.56665 82.6382 2.87866 82.3833 3.41919H82.3613V0.92749H81.4209V7.2688Z" fill="white"/>
<path d="M88.3203 3.3269C88.9839 3.3269 89.4321 3.82349 89.4541 4.53101H87.1426C87.1909 3.83228 87.6567 3.3269 88.3203 3.3269ZM89.4497 5.91089C89.3223 6.31519 88.9224 6.58765 88.3818 6.58765C87.6216 6.58765 87.1382 6.05591 87.1382 5.25171V5.19458H90.4033V4.86938C90.4033 3.46753 89.6035 2.56226 88.3203 2.56226C87.0151 2.56226 86.1802 3.52905 86.1802 4.97925C86.1802 6.43823 87.002 7.35669 88.3599 7.35669C89.4189 7.35669 90.2188 6.75464 90.3506 5.91089H89.4497Z" fill="white"/>
</svg>
