<svg width="9" height="13" viewBox="0 0 9 13" fill="none" xmlns="http://www.w3.org/2000/svg">
<path d="M7.83797 6.1028L2.49782 0.762751C2.37431 0.639142 2.20943 0.571045 2.03363 0.571045C1.85783 0.571045 1.69295 0.639142 1.56944 0.762751L1.17617 1.15592C0.920273 1.41211 0.920273 1.8285 1.17617 2.0843L5.66043 6.56856L1.1712 11.0578C1.04769 11.1814 0.979492 11.3462 0.979492 11.5219C0.979492 11.6978 1.04769 11.8626 1.1712 11.9863L1.56446 12.3793C1.68807 12.5029 1.85285 12.571 2.02865 12.571C2.20446 12.571 2.36933 12.5029 2.49285 12.3793L7.83797 7.03441C7.96178 6.91041 8.02978 6.74485 8.02939 6.56885C8.02978 6.39217 7.96178 6.22671 7.83797 6.1028Z" fill="#2997FF"/>
</svg>
