<svg width="8" height="13" viewBox="0 0 8 13" fill="none" xmlns="http://www.w3.org/2000/svg">
<path d="M7.57918 6.47426L2.23903 1.13421C2.11552 1.0106 1.95064 0.942505 1.77484 0.942505C1.59904 0.942505 1.43416 1.0106 1.31065 1.13421L0.917385 1.52738C0.661484 1.78357 0.661484 2.19996 0.917385 2.45576L5.40164 6.94002L0.912409 11.4292C0.788898 11.5529 0.720703 11.7176 0.720703 11.8933C0.720703 12.0692 0.788898 12.234 0.912409 12.3577L1.30567 12.7508C1.42928 12.8744 1.59406 12.9425 1.76987 12.9425C1.94567 12.9425 2.11055 12.8744 2.23406 12.7508L7.57918 7.40587C7.70299 7.28187 7.77099 7.11631 7.7706 6.94031C7.77099 6.76363 7.70299 6.59817 7.57918 6.47426Z" fill="#1D1D1F"/>
</svg>
