<svg width="9" height="16" viewBox="0 0 9 16" fill="none" xmlns="http://www.w3.org/2000/svg">
<path d="M0.301735 7.01567L7.07134 0.246195C7.22791 0.089499 7.43692 0.00317383 7.65978 0.00317383C7.88265 0.00317383 8.09166 0.089499 8.24823 0.246195L8.74676 0.744606C9.07116 1.06938 9.07116 1.59722 8.74676 1.9215L3.06216 7.6061L8.75307 13.297C8.90964 13.4537 8.99609 13.6626 8.99609 13.8853C8.99609 14.1083 8.90964 14.3172 8.75307 14.474L8.25454 14.9723C8.09784 15.129 7.88895 15.2153 7.66609 15.2153C7.44323 15.2153 7.23422 15.129 7.07765 14.9723L0.301735 8.19665C0.144792 8.03946 0.0585909 7.82958 0.0590849 7.60647C0.0585909 7.38249 0.144792 7.17274 0.301735 7.01567Z" fill="#62687F"/>
</svg>
