<svg width="9" height="16" viewBox="0 0 9 16" fill="none" xmlns="http://www.w3.org/2000/svg">
<path d="M0.243141 7.1314L7.01274 0.361918C7.16932 0.205222 7.37833 0.118896 7.60119 0.118896C7.82405 0.118896 8.03306 0.205222 8.18964 0.361918L8.68817 0.860329C9.01257 1.1851 9.01257 1.71294 8.68817 2.03722L3.00357 7.72182L8.69448 13.4127C8.85105 13.5694 8.9375 13.7783 8.9375 14.0011C8.9375 14.224 8.85105 14.4329 8.69448 14.5897L8.19594 15.088C8.03925 15.2447 7.83036 15.3311 7.6075 15.3311C7.38464 15.3311 7.17562 15.2447 7.01905 15.088L0.243141 8.31237C0.0861979 8.15518 -2.86102e-06 7.9453 0.000491142 7.72219C-2.86102e-06 7.49822 0.0861979 7.28846 0.243141 7.1314Z" fill="#8D96B2"/>
</svg>
