<svg width="21" height="16" viewBox="0 0 21 16" fill="none" xmlns="http://www.w3.org/2000/svg">
<path d="M20.1827 1.08417C20.046 0.946409 19.8835 0.837066 19.7044 0.762449C19.5253 0.687831 19.3332 0.649414 19.1391 0.649414C18.9451 0.649414 18.753 0.687831 18.5739 0.762449C18.3948 0.837066 18.2322 0.946409 18.0956 1.08417L7.14587 12.0486L2.54551 7.43354C2.40365 7.2965 2.23618 7.18875 2.05268 7.11643C1.86917 7.04411 1.67321 7.00865 1.476 7.01206C1.27879 7.01547 1.08418 7.05769 0.903281 7.13631C0.722385 7.21494 0.558746 7.32842 0.421708 7.47028C0.284669 7.61215 0.176915 7.77961 0.104597 7.96312C0.0322788 8.14663 -0.00318725 8.34258 0.000224754 8.5398C0.00363676 8.73701 0.0458598 8.93162 0.124482 9.11252C0.203105 9.29341 0.316588 9.45705 0.458452 9.59409L6.10234 15.238C6.23897 15.3757 6.40153 15.4851 6.58063 15.5597C6.75974 15.6343 6.95184 15.6727 7.14587 15.6727C7.3399 15.6727 7.532 15.6343 7.71111 15.5597C7.89021 15.4851 8.05277 15.3757 8.1894 15.238L20.1827 3.24472C20.3318 3.10709 20.4509 2.94005 20.5323 2.75412C20.6138 2.5682 20.6558 2.36742 20.6558 2.16444C20.6558 1.96147 20.6138 1.76069 20.5323 1.57476C20.4509 1.38884 20.3318 1.2218 20.1827 1.08417Z" fill="url(#paint0_linear)"/>
<defs>
<linearGradient id="paint0_linear" x1="20.6558" y1="8.16107" x2="0" y2="8.16107" gradientUnits="userSpaceOnUse">
<stop stop-color="#836AFC"/>
<stop offset="1" stop-color="#349AFF"/>
</linearGradient>
</defs>
</svg>
