<svg width="21" height="41" viewBox="0 0 21 41" fill="none" xmlns="http://www.w3.org/2000/svg">
<g clip-path="url(#clip0)">
<path d="M14.1435 3.54199H16.0437V0.362305C15.7141 0.319336 14.587 0.22168 13.2727 0.22168C10.5302 0.22168 8.65032 1.87793 8.65032 4.9209V7.72168H5.62704V11.2764H8.65439V20.2217H12.3653V11.2764H15.2706L15.7304 7.72168H12.3653V5.27246C12.3613 4.24512 12.6502 3.54199 14.1435 3.54199Z" fill="#8D96B2"/>
<path d="M14.1435 23.542H16.0437V20.3623C15.7141 20.3193 14.587 20.2217 13.2727 20.2217C10.5302 20.2217 8.65032 21.8779 8.65032 24.9209V27.7217H5.62704V31.2764H8.65439V40.2217H12.3653V31.2764H15.2706L15.7304 27.7217H12.3653V25.2725C12.3613 24.2451 12.6502 23.542 14.1435 23.542Z" fill="#C6CAD8"/>
</g>
<defs>
<clipPath id="clip0">
<rect width="20" height="40" fill="white" transform="translate(0.835388 0.22168)"/>
</clipPath>
</defs>
</svg>
