<svg width="230" height="45" viewBox="0 0 230 45" fill="none" xmlns="http://www.w3.org/2000/svg">
<path d="M56.9977 32.8652L52.0649 17.9821H56.1239L58.9145 28.0451L61.9306 17.9821H65.3413L68.3574 28.0733L71.2043 17.9821H75.1224L70.1896 32.8652H66.5534L63.5655 22.8022L60.5776 32.8652H56.9977Z" fill="white"/>
<path d="M83.5305 33.288C82.4218 33.288 81.3976 33.1001 80.458 32.7243C79.5372 32.3296 78.7386 31.7847 78.0621 31.0894C77.3856 30.3753 76.8594 29.539 76.4836 28.5807C76.1077 27.6035 75.9198 26.5418 75.9198 25.3955C75.9198 24.2867 76.1077 23.2532 76.4836 22.2948C76.8594 21.3364 77.3762 20.5096 78.0339 19.8143C78.7104 19.1002 79.4997 18.5458 80.4017 18.1512C81.3037 17.7566 82.2808 17.5593 83.3332 17.5593C84.4231 17.5593 85.4097 17.7472 86.2929 18.123C87.1949 18.4989 87.9654 19.0344 88.6043 19.7297C89.2432 20.425 89.7318 21.2519 90.07 22.2102C90.4271 23.1686 90.6056 24.2398 90.6056 25.4236V26.4102H79.9225C80.0916 27.5189 80.4956 28.3927 81.1346 29.0317C81.7735 29.6518 82.5815 29.9619 83.5587 29.9619C84.2352 29.9619 84.8459 29.8021 85.3909 29.4827C85.9546 29.1632 86.415 28.7028 86.7721 28.1015L90.2956 29.229C89.9573 30.0746 89.4499 30.7981 88.7734 31.3994C88.0969 32.0008 87.3077 32.4706 86.4056 32.8088C85.5036 33.1283 84.5453 33.288 83.5305 33.288ZM83.3332 20.6035C82.4688 20.6035 81.7359 20.8854 81.1346 21.4492C80.552 22.0129 80.1668 22.7834 79.9789 23.7606H86.5466C86.3963 22.7834 86.0298 22.0129 85.4473 21.4492C84.8835 20.8854 84.1788 20.6035 83.3332 20.6035Z" fill="white"/>
<path d="M98.5757 33.288C97.5233 33.288 96.565 33.1189 95.7005 32.7806C94.8549 32.4424 94.1314 31.9632 93.5301 31.3431C92.9475 30.7229 92.5435 29.9901 92.318 29.1444L95.8697 28.3834C96.0576 28.9659 96.3958 29.4263 96.8844 29.7645C97.373 30.1028 97.9556 30.2719 98.6321 30.2719C99.271 30.2719 99.7972 30.131 100.211 29.8491C100.624 29.5672 100.831 29.182 100.831 28.6934C100.831 28.28 100.643 27.9417 100.267 27.6787C99.9099 27.3968 99.3086 27.1807 98.4629 27.0303L97.6737 26.8894C96.0576 26.6075 94.8267 26.0814 93.9811 25.3109C93.1543 24.5404 92.7408 23.5633 92.7408 22.3794C92.7408 21.4398 92.9851 20.6129 93.4737 19.8988C93.9623 19.166 94.6388 18.5928 95.5032 18.1794C96.3677 17.766 97.3636 17.5593 98.4911 17.5593C99.4871 17.5593 100.389 17.7284 101.197 18.0666C102.024 18.3861 102.71 18.8465 103.255 19.4478C103.8 20.0492 104.176 20.7727 104.382 21.6183L100.859 22.3512C100.671 21.7874 100.361 21.3458 99.9287 21.0264C99.5153 20.7069 99.0267 20.5472 98.4629 20.5472C97.8804 20.5472 97.4012 20.6881 97.0254 20.97C96.6495 21.2519 96.4616 21.6089 96.4616 22.0411C96.4616 22.4169 96.6401 22.7364 96.9972 22.9995C97.373 23.2438 98.0025 23.4411 98.8857 23.5914L99.675 23.7324C101.272 24.0143 102.494 24.5498 103.339 25.3391C104.185 26.1095 104.608 27.0961 104.608 28.2988C104.608 29.0317 104.458 29.6988 104.157 30.3001C103.875 30.9015 103.462 31.4276 102.917 31.8786C102.372 32.3296 101.733 32.6773 101 32.9216C100.267 33.1659 99.4589 33.288 98.5757 33.288Z" fill="white"/>
<path d="M113.273 33.288C112.24 33.288 111.347 33.0907 110.596 32.6961C109.863 32.2826 109.29 31.6907 108.876 30.9202C108.481 30.1498 108.284 29.2102 108.284 28.1015V21.1673H105.747V17.9821H108.284V12.9083H112.23V17.9821H116.289V21.1673H112.23V27.6223C112.23 28.3364 112.381 28.8907 112.681 29.2854C112.982 29.6612 113.443 29.8491 114.063 29.8491C114.382 29.8491 114.72 29.8021 115.077 29.7082C115.453 29.6142 115.81 29.4921 116.149 29.3417L116.853 32.3014C116.365 32.6021 115.82 32.837 115.218 33.0061C114.617 33.1941 113.969 33.288 113.273 33.288Z" fill="white"/>
<path d="M125.95 33.288C124.841 33.288 123.817 33.1001 122.877 32.7243C121.956 32.3296 121.158 31.7847 120.481 31.0894C119.805 30.3753 119.279 29.539 118.903 28.5807C118.527 27.6035 118.339 26.5418 118.339 25.3955C118.339 24.2867 118.527 23.2532 118.903 22.2948C119.279 21.3364 119.795 20.5096 120.453 19.8143C121.13 19.1002 121.919 18.5458 122.821 18.1512C123.723 17.7566 124.7 17.5593 125.752 17.5593C126.842 17.5593 127.829 17.7472 128.712 18.123C129.614 18.4989 130.385 19.0344 131.023 19.7297C131.662 20.425 132.151 21.2519 132.489 22.2102C132.846 23.1686 133.025 24.2398 133.025 25.4236V26.4102H122.342C122.511 27.5189 122.915 28.3927 123.554 29.0317C124.193 29.6518 125.001 29.9619 125.978 29.9619C126.654 29.9619 127.265 29.8021 127.81 29.4827C128.374 29.1632 128.834 28.7028 129.191 28.1015L132.715 29.229C132.376 30.0746 131.869 30.7981 131.193 31.3994C130.516 32.0008 129.727 32.4706 128.825 32.8088C127.923 33.1283 126.964 33.288 125.95 33.288ZM125.752 20.6035C124.888 20.6035 124.155 20.8854 123.554 21.4492C122.971 22.0129 122.586 22.7834 122.398 23.7606H128.966C128.815 22.7834 128.449 22.0129 127.866 21.4492C127.303 20.8854 126.598 20.6035 125.752 20.6035Z" fill="white"/>
<path d="M135.474 32.8652V11.8372H139.42V32.8652H135.474Z" fill="white"/>
<path d="M149.623 33.288C148.514 33.288 147.49 33.1001 146.55 32.7243C145.63 32.3296 144.831 31.7847 144.155 31.0894C143.478 30.3753 142.952 29.539 142.576 28.5807C142.2 27.6035 142.012 26.5418 142.012 25.3955C142.012 24.2867 142.2 23.2532 142.576 22.2948C142.952 21.3364 143.469 20.5096 144.126 19.8143C144.803 19.1002 145.592 18.5458 146.494 18.1512C147.396 17.7566 148.373 17.5593 149.426 17.5593C150.516 17.5593 151.502 17.7472 152.385 18.123C153.287 18.4989 154.058 19.0344 154.697 19.7297C155.336 20.425 155.824 21.2519 156.163 22.2102C156.52 23.1686 156.698 24.2398 156.698 25.4236V26.4102H146.015C146.184 27.5189 146.588 28.3927 147.227 29.0317C147.866 29.6518 148.674 29.9619 149.651 29.9619C150.328 29.9619 150.938 29.8021 151.483 29.4827C152.047 29.1632 152.507 28.7028 152.865 28.1015L156.388 29.229C156.05 30.0746 155.542 30.7981 154.866 31.3994C154.189 32.0008 153.4 32.4706 152.498 32.8088C151.596 33.1283 150.638 33.288 149.623 33.288ZM149.426 20.6035C148.561 20.6035 147.828 20.8854 147.227 21.4492C146.644 22.0129 146.259 22.7834 146.071 23.7606H152.639C152.489 22.7834 152.122 22.0129 151.54 21.4492C150.976 20.8854 150.271 20.6035 149.426 20.6035Z" fill="white"/>
<path d="M166.191 33.288C165.12 33.288 164.124 33.1001 163.203 32.7243C162.301 32.3296 161.512 31.7847 160.835 31.0894C160.178 30.3941 159.661 29.5766 159.285 28.637C158.909 27.6787 158.721 26.6451 158.721 25.5364C158.721 24.4089 158.909 23.3659 159.285 22.4076C159.68 21.4304 160.215 20.5847 160.892 19.8707C161.587 19.1378 162.395 18.574 163.316 18.1794C164.237 17.766 165.233 17.5593 166.304 17.5593C167.375 17.5593 168.361 17.766 169.263 18.1794C170.165 18.574 170.926 19.1378 171.547 19.8707C172.186 20.6035 172.627 21.4586 172.871 22.4357L169.122 23.1686C168.841 22.5297 168.446 22.0317 167.939 21.6747C167.431 21.2988 166.858 21.1109 166.219 21.1109C165.543 21.1109 164.941 21.2988 164.415 21.6747C163.908 22.0505 163.504 22.5767 163.203 23.2532C162.902 23.9109 162.752 24.6532 162.752 25.48C162.752 26.3069 162.893 27.0397 163.175 27.6787C163.476 28.3176 163.889 28.825 164.415 29.2008C164.941 29.5578 165.543 29.7364 166.219 29.7364C166.896 29.7364 167.506 29.5578 168.051 29.2008C168.596 28.8438 169 28.3364 169.263 27.6787L173.012 28.4115C172.768 29.4075 172.308 30.2719 171.631 31.0048C170.973 31.7377 170.175 32.3014 169.235 32.6961C168.296 33.0907 167.281 33.288 166.191 33.288Z" fill="white"/>
<path d="M182.383 33.288C181.274 33.288 180.25 33.0907 179.31 32.6961C178.371 32.3014 177.553 31.7565 176.858 31.0612C176.163 30.3471 175.618 29.5109 175.223 28.5525C174.847 27.5941 174.659 26.5511 174.659 25.4236C174.659 24.2961 174.857 23.2626 175.251 22.323C175.646 21.3646 176.191 20.5284 176.886 19.8143C177.6 19.1002 178.427 18.5458 179.367 18.1512C180.325 17.7566 181.368 17.5593 182.496 17.5593C183.604 17.5593 184.628 17.7566 185.568 18.1512C186.508 18.5458 187.325 19.1002 188.02 19.8143C188.716 20.5096 189.251 21.3364 189.627 22.2948C190.022 23.2344 190.219 24.2679 190.219 25.3955C190.219 26.523 190.022 27.5659 189.627 28.5243C189.232 29.4827 188.678 30.3189 187.964 31.033C187.269 31.7471 186.442 32.3014 185.483 32.6961C184.544 33.0907 183.51 33.288 182.383 33.288ZM182.439 29.7364C183.153 29.7364 183.792 29.5484 184.356 29.1726C184.92 28.7968 185.361 28.2894 185.681 27.6505C186.019 26.9928 186.188 26.2505 186.188 25.4236C186.188 24.5968 186.019 23.8639 185.681 23.225C185.361 22.5673 184.92 22.0505 184.356 21.6747C183.792 21.2988 183.153 21.1109 182.439 21.1109C181.725 21.1109 181.086 21.2988 180.522 21.6747C179.959 22.0505 179.508 22.5673 179.169 23.225C178.85 23.8639 178.69 24.5968 178.69 25.4236C178.69 26.2505 178.85 26.9928 179.169 27.6505C179.508 28.2894 179.959 28.7968 180.522 29.1726C181.086 29.5484 181.725 29.7364 182.439 29.7364Z" fill="white"/>
<path d="M192.813 32.8652V17.9821H196.449L196.562 19.8707C196.994 19.1566 197.577 18.5928 198.309 18.1794C199.042 17.766 199.869 17.5593 200.79 17.5593C201.786 17.5593 202.669 17.8036 203.44 18.2921C204.229 18.7807 204.84 19.4572 205.272 20.3217C205.723 19.4948 206.371 18.8277 207.217 18.3203C208.081 17.813 209.068 17.5593 210.177 17.5593C211.285 17.5593 212.244 17.8224 213.052 18.3485C213.86 18.8559 214.48 19.5888 214.912 20.5472C215.363 21.5055 215.589 22.6331 215.589 23.9297V32.8652H211.642V24.4371C211.642 23.4035 211.417 22.5955 210.966 22.0129C210.515 21.4116 209.885 21.1109 209.077 21.1109C208.513 21.1109 208.006 21.2519 207.555 21.5337C207.123 21.7968 206.785 22.1727 206.54 22.6612C206.296 23.1498 206.174 23.7042 206.174 24.3243V32.8652H202.228V24.4371C202.228 23.4035 202.002 22.5955 201.551 22.0129C201.1 21.4116 200.471 21.1109 199.663 21.1109C199.099 21.1109 198.591 21.2519 198.14 21.5337C197.708 21.7968 197.37 22.1727 197.126 22.6612C196.881 23.1498 196.759 23.7042 196.759 24.3243V32.8652H192.813Z" fill="white"/>
<path fill-rule="evenodd" clip-rule="evenodd" d="M4.62431 40.2726H22.3328C32.1128 40.2726 40.0412 32.3442 40.0412 22.5641C40.0412 12.784 32.1128 4.85569 22.3327 4.85569C12.5527 4.85569 4.62431 12.784 4.62431 22.5641V40.2726ZM22.3327 0.428711C10.1077 0.428711 0.197327 10.3391 0.197327 22.5641V44.6995H22.3328C34.5578 44.6995 44.4682 34.7892 44.4682 22.5641C44.4682 10.3391 34.5578 0.428711 22.3327 0.428711Z" fill="white"/>
<path d="M16.0183 22.5631C16.0183 24.4398 14.4969 25.9612 12.6202 25.9612C10.7435 25.9612 9.22214 24.4398 9.22214 22.5631C9.22214 20.6864 10.7435 19.165 12.6202 19.165C14.4969 19.165 16.0183 20.6864 16.0183 22.5631Z" fill="#1ED760"/>
<path d="M25.7311 22.5641C25.7311 24.4408 24.2097 25.9622 22.333 25.9622C20.4563 25.9622 18.9349 24.4408 18.9349 22.5641C18.9349 20.6874 20.4563 19.166 22.333 19.166C24.2097 19.166 25.7311 20.6874 25.7311 22.5641Z" fill="#1ED760"/>
<path d="M35.4426 22.5641C35.4426 24.4408 33.9213 25.9622 32.0446 25.9622C30.1679 25.9622 28.6465 24.4408 28.6465 22.5641C28.6465 20.6874 30.1679 19.166 32.0446 19.166C33.9213 19.166 35.4426 20.6874 35.4426 22.5641Z" fill="#1ED760"/>
<path d="M215.558 11.9165H217.628V17.3967H219.253V11.9165H221.321V10.5781H215.558V11.9165Z" fill="white"/>
<path d="M222.126 10.5781V17.3967H223.73V13.185H223.787L225.425 17.3534H226.45L228.088 13.2083H228.145V17.3967H229.75V10.5781H227.709L225.978 14.7998H225.898L224.167 10.5781H222.126Z" fill="white"/>
</svg>
