<svg width="122" height="29" viewBox="0 0 122 29" fill="none" xmlns="http://www.w3.org/2000/svg">
<path d="M61.1052 15.4331C58.6528 15.4331 56.6491 17.3012 56.6491 19.8684C56.6491 22.4251 58.6528 24.3036 61.1052 24.3036C63.5576 24.3036 65.5613 22.4251 65.5613 19.8684C65.5613 17.3012 63.5576 15.4331 61.1052 15.4331ZM61.1052 22.5608C59.759 22.5608 58.6006 21.4546 58.6006 19.8684C58.6006 18.2717 59.759 17.1759 61.1052 17.1759C62.4514 17.1759 63.6098 18.2717 63.6098 19.8684C63.6098 21.4546 62.441 22.5608 61.1052 22.5608ZM51.3791 15.4331C48.9266 15.4331 46.923 17.3012 46.923 19.8684C46.923 22.4251 48.9266 24.3036 51.3791 24.3036C53.8315 24.3036 55.8351 22.4251 55.8351 19.8684C55.8351 17.3012 53.8315 15.4331 51.3791 15.4331ZM51.3791 22.5608C50.0328 22.5608 48.8745 21.4546 48.8745 19.8684C48.8745 18.2717 50.0328 17.1759 51.3791 17.1759C52.7253 17.1759 53.8836 18.2717 53.8836 19.8684C53.8836 21.4546 52.7253 22.5608 51.3791 22.5608ZM39.8162 16.8002V18.6787H44.3245C44.1888 19.7327 43.834 20.5154 43.3018 21.0476C42.6443 21.7051 41.6216 22.4251 39.8266 22.4251C37.0507 22.4251 34.8801 20.1919 34.8801 17.4159C34.8801 14.64 37.0507 12.4068 39.8266 12.4068C41.319 12.4068 42.4147 12.9912 43.2183 13.753L44.5436 12.4276C43.4165 11.3527 41.9242 10.5283 39.8162 10.5283C36.0176 10.5283 32.8242 13.6173 32.8242 17.4264C32.8242 21.225 36.0176 24.3244 39.8162 24.3244C41.8721 24.3244 43.4165 23.6565 44.6271 22.3938C45.869 21.152 46.2551 19.3987 46.2551 17.9899C46.2551 17.5516 46.2238 17.1446 46.1507 16.8107H39.8162V16.8002ZM87.1008 18.2612C86.7355 17.2698 85.6085 15.4331 83.3021 15.4331C81.0167 15.4331 79.1174 17.2281 79.1174 19.8684C79.1174 22.3521 80.9958 24.3036 83.5213 24.3036C85.5563 24.3036 86.7355 23.0617 87.2156 22.3416L85.7024 21.3294C85.2015 22.0703 84.5127 22.5608 83.5213 22.5608C82.5299 22.5608 81.8203 22.1016 81.3715 21.2146L87.3095 18.7622L87.1008 18.2612ZM81.048 19.7431C80.9958 18.0317 82.3734 17.1551 83.3648 17.1551C84.137 17.1551 84.7945 17.5412 85.0136 18.0943L81.048 19.7431ZM76.2267 24.0427H78.1782V10.9979H76.2267V24.0427ZM73.0333 16.4245H72.9603C72.522 15.9028 71.6871 15.4331 70.6227 15.4331C68.3998 15.4331 66.3649 17.3846 66.3649 19.8892C66.3649 22.3729 68.3998 24.314 70.6227 24.314C71.6767 24.314 72.522 23.8444 72.9603 23.3017H73.0229V23.9383C73.0229 25.6393 72.115 26.5473 70.654 26.5473C69.4643 26.5473 68.7233 25.6915 68.4207 24.9715L66.7197 25.6811C67.2101 26.8603 68.5042 28.3005 70.654 28.3005C72.9394 28.3005 74.87 26.9543 74.87 23.6774V15.7045H73.0229V16.4245H73.0333ZM70.7896 22.5608C69.4434 22.5608 68.3163 21.4337 68.3163 19.8892C68.3163 18.3239 69.4434 17.1864 70.7896 17.1864C72.115 17.1864 73.1586 18.3343 73.1586 19.8892C73.169 21.4337 72.1254 22.5608 70.7896 22.5608ZM96.2425 10.9979H91.5777V24.0427H93.5292V19.0961H96.253C98.4132 19.0961 100.532 17.5307 100.532 15.047C100.532 12.5633 98.3923 10.9979 96.2425 10.9979ZM96.2843 17.2803H93.5188V12.8033H96.2843C97.7453 12.8033 98.5697 14.0139 98.5697 15.0366C98.5697 16.0593 97.7453 17.2803 96.2843 17.2803ZM108.327 15.4123C106.918 15.4123 105.457 16.0384 104.852 17.4055L106.584 18.1256C106.95 17.4055 107.638 17.1655 108.358 17.1655C109.36 17.1655 110.393 17.7708 110.404 18.8456V18.9813C110.049 18.783 109.298 18.4804 108.369 18.4804C106.501 18.4804 104.612 19.5031 104.612 21.4129C104.612 23.1556 106.136 24.2827 107.847 24.2827C109.152 24.2827 109.882 23.6983 110.331 23.0095H110.393V24.0218H112.272V19.0231C112.282 16.7063 110.55 15.4123 108.327 15.4123ZM108.087 22.5608C107.451 22.5608 106.564 22.2373 106.564 21.4546C106.564 20.4528 107.67 20.0666 108.63 20.0666C109.486 20.0666 109.893 20.2545 110.404 20.5049C110.258 21.7051 109.214 22.5608 108.087 22.5608ZM119.128 15.694L116.895 21.3502H116.832L114.516 15.694H112.418L115.893 23.6044L113.91 27.9978H115.945L121.299 15.694H119.128ZM101.596 24.0427H103.548V10.9979H101.596V24.0427Z" fill="white"/>
<path d="M0.890204 0.603326C0.587566 0.926835 0.410156 1.42775 0.410156 2.06434V25.1483C0.410156 25.7953 0.587566 26.2962 0.890204 26.6093L0.963254 26.6824L13.8932 13.7629V13.6063V13.4498L0.963254 0.530273L0.890204 0.603326Z" fill="url(#paint0_linear)"/>
<path d="M18.2035 18.0732L13.8936 13.7632V13.6067V13.4501L18.2035 9.14014L18.2975 9.19232L23.4006 12.0935C24.8616 12.9179 24.8616 14.2745 23.4006 15.1094L18.2975 18.0106L18.2035 18.0732Z" fill="url(#paint1_linear)"/>
<path d="M18.2975 18.0106L13.8936 13.6067L0.890625 26.6097C1.37067 27.121 2.16379 27.1837 3.06127 26.6723L18.2975 18.0106Z" fill="url(#paint2_linear)"/>
<path d="M18.2972 9.20285L3.05053 0.541141C2.15305 0.0297875 1.35993 0.0924037 0.879883 0.603758L13.8933 13.6068L18.2972 9.20285Z" fill="url(#paint3_linear)"/>
<path opacity="0.2" d="M18.2036 17.9165L3.05083 26.526C2.20553 27.0061 1.44372 26.9748 0.963675 26.5365L0.890625 26.6095L0.963675 26.6826C1.45416 27.1209 2.20553 27.1522 3.05083 26.6721L18.2975 18.0104L18.2036 17.9165Z" fill="black"/>
<path opacity="0.12" d="M0.89118 26.4635C0.588542 26.1399 0.411133 25.639 0.411133 25.0024V25.159C0.411133 25.806 0.588542 26.3069 0.89118 26.62L0.96423 26.5469L0.89118 26.4635Z" fill="black"/>
<path opacity="0.12" d="M23.4008 14.9633L18.1934 17.9167L18.2873 18.0106L23.3904 15.1094C24.1209 14.692 24.4861 14.1494 24.4861 13.6067C24.434 14.0972 24.0687 14.5877 23.4008 14.9633Z" fill="black"/>
<path opacity="0.25" d="M3.05108 0.686003L23.4009 12.2489C24.0583 12.6245 24.434 13.1046 24.4966 13.6055C24.4966 13.0629 24.1314 12.5098 23.4009 12.1028L3.05108 0.5399C1.59007 -0.284527 0.400391 0.404236 0.400391 2.07396V2.2305C0.400391 0.550337 1.60051 -0.138425 3.05108 0.686003Z" fill="white"/>
<path d="M36.2539 7.41266C35.6419 7.41266 35.0779 7.26566 34.5619 6.97166C34.0459 6.67766 33.6349 6.27566 33.3289 5.76566C33.0289 5.24966 32.8789 4.67666 32.8789 4.04666C32.8789 3.41666 33.0289 2.84666 33.3289 2.33666C33.6349 1.82066 34.0459 1.41566 34.5619 1.12166C35.0779 0.827664 35.6419 0.680664 36.2539 0.680664C36.7399 0.680664 37.1929 0.767664 37.6129 0.941664C38.0329 1.11566 38.3839 1.35866 38.6659 1.67066L37.9639 2.37266C37.7539 2.13866 37.5019 1.95866 37.2079 1.83266C36.9199 1.70666 36.5989 1.64366 36.2449 1.64366C35.8309 1.64366 35.4439 1.74266 35.0839 1.94066C34.7239 2.13866 34.4359 2.42066 34.2199 2.78666C34.0039 3.15266 33.8959 3.57266 33.8959 4.04666C33.8959 4.52066 34.0039 4.94066 34.2199 5.30666C34.4359 5.67266 34.7239 5.95466 35.0839 6.15266C35.4439 6.35066 35.8339 6.44966 36.2539 6.44966C36.6379 6.44966 36.9589 6.39266 37.2169 6.27866C37.4749 6.16466 37.7059 6.01166 37.9099 5.81966C38.0419 5.68766 38.1529 5.52266 38.2429 5.32466C38.3389 5.12666 38.4019 4.91066 38.4319 4.67666H36.2449V3.77666H39.3859C39.4159 3.94466 39.4309 4.11866 39.4309 4.29866C39.4309 4.70666 39.3679 5.09966 39.2419 5.47766C39.1159 5.84966 38.9149 6.17366 38.6389 6.44966C38.0329 7.09166 37.2379 7.41266 36.2539 7.41266Z" fill="white"/>
<path d="M40.5945 0.824664H44.5095V1.78766H41.6025V3.56966H44.2215V4.52366H41.6025V6.30566H44.5095V7.26866H40.5945V0.824664Z" fill="white"/>
<path d="M47.0675 1.78766H45.2675V0.824664H49.8755V1.78766H48.0755V7.26866H47.0675V1.78766Z" fill="white"/>
<path d="M52.9607 0.824664H53.9687V7.26866H52.9607V0.824664Z" fill="white"/>
<path d="M55.4392 0.824664H56.6362L59.5162 5.51366H59.5702L59.5162 4.27166V0.824664H60.5152V7.26866H59.4622L56.4382 2.33666H56.3842L56.4382 3.57866V7.26866H55.4392V0.824664Z" fill="white"/>
<path d="M66.9357 7.41266C66.3117 7.41266 65.7447 7.26566 65.2347 6.97166C64.7247 6.67166 64.3227 6.26366 64.0287 5.74766C63.7407 5.23166 63.5967 4.66466 63.5967 4.04666C63.5967 3.42866 63.7407 2.86466 64.0287 2.35466C64.3227 1.83866 64.7247 1.43066 65.2347 1.13066C65.7447 0.830664 66.3117 0.680664 66.9357 0.680664C67.5597 0.680664 68.1237 0.830664 68.6277 1.13066C69.1377 1.43066 69.5397 1.83866 69.8337 2.35466C70.1277 2.86466 70.2747 3.42866 70.2747 4.04666C70.2747 4.66466 70.1277 5.23166 69.8337 5.74766C69.5457 6.26366 69.1467 6.67166 68.6367 6.97166C68.1267 7.26566 67.5597 7.41266 66.9357 7.41266ZM66.9357 6.44966C67.3617 6.44966 67.7517 6.34766 68.1057 6.14366C68.4597 5.93966 68.7387 5.65766 68.9427 5.29766C69.1467 4.93166 69.2487 4.51466 69.2487 4.04666C69.2487 3.57866 69.1467 3.16466 68.9427 2.80466C68.7387 2.43866 68.4597 2.15366 68.1057 1.94966C67.7517 1.74566 67.3617 1.64366 66.9357 1.64366C66.5097 1.64366 66.1197 1.74566 65.7657 1.94966C65.4117 2.15366 65.1297 2.43866 64.9197 2.80466C64.7157 3.16466 64.6137 3.57866 64.6137 4.04666C64.6137 4.51466 64.7157 4.93166 64.9197 5.29766C65.1297 5.65766 65.4117 5.93966 65.7657 6.14366C66.1197 6.34766 66.5097 6.44966 66.9357 6.44966Z" fill="white"/>
<path d="M71.4265 0.824664H72.6235L75.5035 5.51366H75.5575L75.5035 4.27166V0.824664H76.5025V7.26866H75.4495L72.4255 2.33666H72.3715L72.4255 3.57866V7.26866H71.4265V0.824664Z" fill="white"/>
<defs>
<linearGradient id="paint0_linear" x1="12.745" y1="1.824" x2="-4.76881" y2="19.3378" gradientUnits="userSpaceOnUse">
<stop stop-color="#00A0FF"/>
<stop offset="0.00657445" stop-color="#00A1FF"/>
<stop offset="0.2601" stop-color="#00BEFF"/>
<stop offset="0.5122" stop-color="#00D2FF"/>
<stop offset="0.7604" stop-color="#00DFFF"/>
<stop offset="1" stop-color="#00E3FF"/>
</linearGradient>
<linearGradient id="paint1_linear" x1="25.3045" y1="13.6081" x2="0.0530896" y2="13.6081" gradientUnits="userSpaceOnUse">
<stop stop-color="#FFE000"/>
<stop offset="0.4087" stop-color="#FFBD00"/>
<stop offset="0.7754" stop-color="#FFA500"/>
<stop offset="1" stop-color="#FF9C00"/>
</linearGradient>
<linearGradient id="paint2_linear" x1="15.9046" y1="16.0029" x2="-7.8455" y2="39.7529" gradientUnits="userSpaceOnUse">
<stop stop-color="#FF3A44"/>
<stop offset="1" stop-color="#C31162"/>
</linearGradient>
<linearGradient id="paint3_linear" x1="-2.38934" y1="-7.08095" x2="8.21614" y2="3.52442" gradientUnits="userSpaceOnUse">
<stop stop-color="#32A071"/>
<stop offset="0.0685" stop-color="#2DA771"/>
<stop offset="0.4762" stop-color="#15CF74"/>
<stop offset="0.8009" stop-color="#06E775"/>
<stop offset="1" stop-color="#00F076"/>
</linearGradient>
</defs>
</svg>
