<svg xmlns="http://www.w3.org/2000/svg">
    <symbol id="home"  viewBox="0 0 25 26" >
        <path fill-rule="evenodd" clip-rule="evenodd" d="M9.69075 1.11278C11.4682 -0.296057 13.9914 -0.296057 15.7688 1.11278L15.7718 1.1151L23.3117 7.12821C24.293 7.88304 24.8783 9.04247 24.8953 10.2811L24.8954 10.2983V20.307C24.8954 23.1877 22.54 25.5015 19.6611 25.5015H17.4536C17.444 25.5015 17.4343 25.5014 17.4246 25.5012C15.9899 25.4679 14.8238 24.3032 14.824 22.8529C14.824 22.8528 14.824 22.8531 14.824 22.8529V19.3236C14.824 19.1267 14.6593 18.9456 14.4295 18.9456H11.124C10.8968 18.9485 10.7349 19.1283 10.7349 19.3236V22.842C10.7349 22.9521 10.7207 23.0589 10.6939 23.1606C10.5352 24.4883 9.3971 25.5015 8.03906 25.5015H5.83166C2.95267 25.5015 0.59729 23.1877 0.59729 20.307V10.2968C0.609553 9.05556 1.19589 7.89277 2.18096 7.13908L9.69075 1.11278ZM8.23491 22.842V19.3237C8.23488 17.7299 9.53081 16.4561 11.1101 16.4456L11.1184 16.4456L14.4295 16.4456C16.0162 16.4456 17.324 17.7223 17.324 19.3236V22.8529C17.324 22.9203 17.3799 22.9955 17.4749 23.0015H19.6611C21.1831 23.0015 22.3954 21.7834 22.3954 20.307V10.3081C22.3868 9.84015 22.1639 9.39727 21.783 9.10637L21.7623 9.09022L14.2159 3.07197C14.2155 3.07165 14.2151 3.07132 14.2147 3.071C13.3479 2.38492 12.1135 2.38454 11.2463 3.06986L3.73333 9.09878C3.72429 9.10603 3.71515 9.11316 3.70592 9.12015C3.32534 9.40853 3.10352 9.85022 3.09729 10.3163V20.307C3.09729 21.7834 4.30963 23.0015 5.83166 23.0015H8.03906C8.14691 23.0015 8.21284 22.9183 8.21284 22.842H8.23491Z"/>
    </symbol>

    <symbol id="wifi" viewBox="0 0 33 26">
        <path fill-rule="evenodd" clip-rule="evenodd" d="M16.6014 13.5672C14.1913 13.5672 11.874 14.4961 10.1312 16.1608C9.53213 16.733 8.58263 16.7112 8.01042 16.1122C7.43822 15.5131 7.45998 14.5636 8.05903 13.9914C10.36 11.7936 13.4194 10.5672 16.6014 10.5672C19.7833 10.5672 22.8428 11.7936 25.1437 13.9914C25.7427 14.5636 25.7645 15.5131 25.1923 16.1122C24.6201 16.7112 23.6706 16.733 23.0715 16.1608C21.3288 14.4961 19.0114 13.5672 16.6014 13.5672Z" />
        <path fill-rule="evenodd" clip-rule="evenodd" d="M16.6014 3.29395C11.4727 3.29395 6.54764 5.30054 2.87926 8.88465C2.2867 9.46358 1.33702 9.45255 0.758081 8.86C0.179141 8.26744 0.190177 7.31776 0.78273 6.73882C5.01159 2.60712 10.6892 0.293945 16.6014 0.293945C22.5136 0.293945 28.1911 2.60712 32.42 6.73882C33.0125 7.31776 33.0236 8.26744 32.4446 8.86C31.8657 9.45255 30.916 9.46358 30.3235 8.88465C26.6551 5.30054 21.73 3.29395 16.6014 3.29395Z" />
        <path d="M16.603 25.764C18.4942 25.764 20.0274 24.2309 20.0274 22.3396C20.0274 20.4484 18.4942 18.9153 16.603 18.9153C14.7118 18.9153 13.1787 20.4484 13.1787 22.3396C13.1787 24.2309 14.7118 25.764 16.603 25.764Z"/>
    </symbol>

    <symbol id="vision" viewBox="0 0 26 27">
        <path d="M12.9628 15.0494C13.723 15.0494 14.4661 14.8239 15.0982 14.4016C15.7303 13.9793 16.2229 13.379 16.5138 12.6767C16.8047 11.9743 16.8808 11.2015 16.7325 10.4559C16.5842 9.71036 16.2182 9.0255 15.6806 8.48796C15.1431 7.95043 14.4582 7.58436 13.7126 7.43605C12.9671 7.28775 12.1942 7.36386 11.4919 7.65478C10.7896 7.94569 10.1893 8.43833 9.76698 9.07041C9.34464 9.70248 9.11922 10.4456 9.11922 11.2058C9.11922 12.2252 9.52416 13.2028 10.245 13.9236C10.9658 14.6444 11.9434 15.0494 12.9628 15.0494ZM12.9628 9.92459C13.2162 9.92459 13.4639 9.99973 13.6746 10.1405C13.8853 10.2813 14.0495 10.4814 14.1465 10.7155C14.2434 10.9496 14.2688 11.2072 14.2194 11.4557C14.1699 11.7043 14.0479 11.9325 13.8687 12.1117C13.6896 12.2909 13.4613 12.4129 13.2127 12.4624C12.9642 12.5118 12.7066 12.4864 12.4725 12.3895C12.2384 12.2925 12.0383 12.1283 11.8975 11.9176C11.7567 11.7069 11.6816 11.4592 11.6816 11.2058C11.6816 10.866 11.8166 10.5401 12.0569 10.2998C12.2971 10.0596 12.623 9.92459 12.9628 9.92459ZM25.2495 21.6603C24.6238 19.5855 23.4821 17.7032 21.9312 16.1896C22.7945 14.6292 23.2358 12.8706 23.2114 11.0874C23.187 9.30423 22.6978 7.55829 21.7921 6.02208C20.8864 4.48586 19.5955 3.21255 18.0471 2.32793C16.4986 1.44332 14.7461 0.978027 12.9628 0.978027C11.1795 0.978027 9.427 1.44332 7.87855 2.32793C6.33009 3.21255 5.03923 4.48586 4.13352 6.02208C3.22781 7.55829 2.73859 9.30423 2.7142 11.0874C2.68981 12.8706 3.13108 14.6292 3.99443 16.1896C2.43434 17.6982 1.2874 19.5818 0.663327 21.6603C0.496553 22.2303 0.464133 22.8312 0.56861 23.4158C0.673087 24.0005 0.911619 24.5529 1.26549 25.0299C1.62603 25.5148 2.09583 25.9079 2.63677 26.1773C3.1777 26.4466 3.77452 26.5847 4.37879 26.5801H21.5468C22.1489 26.5826 22.7432 26.4437 23.2817 26.1744C23.8203 25.9051 24.288 25.5131 24.6473 25.0299C25.0012 24.5529 25.2397 24.0005 25.3442 23.4158C25.4487 22.8312 25.4162 22.2303 25.2495 21.6603ZM12.9628 3.51862C14.4832 3.51862 15.9694 3.96946 17.2336 4.81414C18.4977 5.65881 19.483 6.85939 20.0648 8.26403C20.6466 9.66868 20.7989 11.2143 20.5023 12.7055C20.2057 14.1966 19.4735 15.5664 18.3985 16.6414C17.3234 17.7165 15.9537 18.4486 14.4625 18.7452C12.9713 19.0419 11.4257 18.8896 10.021 18.3078C8.6164 17.726 7.41583 16.7407 6.57115 15.4766C5.72647 14.2124 5.27563 12.7262 5.27563 11.2058C5.27563 9.16702 6.08553 7.21176 7.52715 5.77014C8.96877 4.32851 10.924 3.51862 12.9628 3.51862ZM22.5974 23.4924C22.4769 23.6574 22.3186 23.7912 22.1358 23.8826C21.9531 23.974 21.7511 24.0203 21.5468 24.0177H4.37879C4.17448 24.0203 3.97252 23.974 3.78976 23.8826C3.607 23.7912 3.44875 23.6574 3.32821 23.4924C3.21301 23.3338 3.13578 23.1507 3.10246 22.9575C3.06914 22.7642 3.08063 22.5659 3.13603 22.3778C3.59593 20.8292 4.42212 19.4141 5.54468 18.2524C6.50186 19.2563 7.65285 20.0554 8.92795 20.6015C10.203 21.1475 11.5757 21.4291 12.9628 21.4291C14.3499 21.4291 15.7226 21.1475 16.9977 20.6015C18.2727 20.0554 19.4237 19.2563 20.3809 18.2524C21.5035 19.4141 22.3297 20.8292 22.7896 22.3778C22.845 22.5659 22.8565 22.7642 22.8231 22.9575C22.7898 23.1507 22.7126 23.3338 22.5974 23.4924Z"/>
    </symbol>

    <symbol id="tv" viewBox="0 0 24 27">
        <path d="M19.4971 6.10266H14.9025L17.8461 3.17181C17.9655 3.05248 18.0601 2.91081 18.1247 2.7549C18.1893 2.59898 18.2225 2.43187 18.2225 2.26311C18.2225 2.09435 18.1893 1.92725 18.1247 1.77133C18.0601 1.61542 17.9655 1.47375 17.8461 1.35442C17.7268 1.23509 17.5851 1.14043 17.4292 1.07585C17.2733 1.01127 17.1062 0.978027 16.9374 0.978027C16.5966 0.978027 16.2697 1.11342 16.0287 1.35442L11.818 5.51393L10.3206 2.95423C10.2366 2.80801 10.1246 2.67977 9.99096 2.57684C9.85736 2.4739 9.7048 2.39829 9.54198 2.35432C9.37916 2.31035 9.20928 2.29888 9.04203 2.32056C8.87477 2.34224 8.71343 2.39665 8.56721 2.48069C8.42099 2.56472 8.29275 2.67674 8.18981 2.81034C8.08688 2.94393 8.01127 3.09649 7.9673 3.25931C7.92332 3.42213 7.91185 3.59201 7.93353 3.75927C7.95521 3.92652 8.00963 4.08786 8.09366 4.23408L9.25833 6.10266H4.13893C3.12062 6.10266 2.14401 6.50719 1.42396 7.22724C0.7039 7.9473 0.299377 8.9239 0.299377 9.94221V20.181C0.299377 21.1993 0.7039 22.1759 1.42396 22.896C2.14401 23.616 3.12062 24.0206 4.13893 24.0206V25.3004C4.13893 25.6399 4.27377 25.9654 4.51379 26.2054C4.75381 26.4454 5.07934 26.5803 5.41878 26.5803C5.75821 26.5803 6.08375 26.4454 6.32377 26.2054C6.56379 25.9654 6.69863 25.6399 6.69863 25.3004V24.0206H16.9374V25.3004C16.9374 25.6399 17.0723 25.9654 17.3123 26.2054C17.5523 26.4454 17.8778 26.5803 18.2173 26.5803C18.5567 26.5803 18.8822 26.4454 19.1223 26.2054C19.3623 25.9654 19.4971 25.6399 19.4971 25.3004V24.0206C20.5154 24.0206 21.492 23.616 22.2121 22.896C22.9322 22.1759 23.3367 21.1993 23.3367 20.181V9.94221C23.3367 8.9239 22.9322 7.9473 22.2121 7.22724C21.492 6.50719 20.5154 6.10266 19.4971 6.10266ZM20.777 20.181C20.777 20.5205 20.6421 20.846 20.4021 21.086C20.1621 21.326 19.8366 21.4609 19.4971 21.4609H4.13893C3.79949 21.4609 3.47396 21.326 3.23394 21.086C2.99392 20.846 2.85908 20.5205 2.85908 20.181V9.94221C2.85908 9.60278 2.99392 9.27724 3.23394 9.03722C3.47396 8.79721 3.79949 8.66236 4.13893 8.66236H19.4971C19.8366 8.66236 20.1621 8.79721 20.4021 9.03722C20.6421 9.27724 20.777 9.60278 20.777 9.94221V20.181Z"/>
    </symbol>

    <symbol id="phone" viewBox="0 0 27 27">
        <path fill-rule="evenodd" clip-rule="evenodd" d="M12.5915 14.0066C17.4908 18.9045 18.6022 13.2382 21.7216 16.3554C24.7289 19.3619 26.4574 19.9642 22.6471 23.7734C22.1699 24.157 19.1375 28.7715 8.48063 18.1176C-2.17754 7.46242 2.43432 4.42692 2.81798 3.94978C6.63747 0.130044 7.22944 1.86857 10.2368 4.87506C13.3562 7.9936 7.69221 9.10867 12.5915 14.0066Z"  stroke-width="2.5" stroke-linecap="round" stroke-linejoin="round"/>
    </symbol>

    <symbol id="colocation" viewBox="0 0 24 26">
        <path d="M11.1184 14.6018C10.8938 14.6018 10.6743 14.6684 10.4876 14.7931C10.3009 14.9179 10.1554 15.0952 10.0695 15.3027C9.98353 15.5101 9.96105 15.7384 10.0049 15.9586C10.0487 16.1789 10.1568 16.3812 10.3156 16.54C10.4744 16.6987 10.6767 16.8069 10.8969 16.8507C11.1171 16.8945 11.3454 16.872 11.5529 16.7861C11.7603 16.7001 11.9376 16.5546 12.0624 16.3679C12.1872 16.1812 12.2537 15.9617 12.2537 15.7371C12.2537 15.436 12.1341 15.1472 11.9212 14.9343C11.7083 14.7214 11.4195 14.6018 11.1184 14.6018ZM6.57698 14.6018C6.35242 14.6018 6.13292 14.6684 5.94621 14.7931C5.7595 14.9179 5.61398 15.0952 5.52805 15.3027C5.44211 15.5101 5.41963 15.7384 5.46344 15.9586C5.50725 16.1789 5.61538 16.3812 5.77416 16.54C5.93294 16.6987 6.13524 16.8069 6.35548 16.8507C6.57572 16.8945 6.804 16.872 7.01146 16.7861C7.21892 16.7001 7.39623 16.5546 7.52099 16.3679C7.64574 16.1812 7.71233 15.9617 7.71233 15.7371C7.71233 15.436 7.59271 15.1472 7.37979 14.9343C7.16687 14.7214 6.87809 14.6018 6.57698 14.6018ZM23.6073 4.3836C23.6073 3.48026 23.2484 2.61391 22.6097 1.97515C21.9709 1.33639 21.1046 0.977539 20.2012 0.977539H4.30627C3.40293 0.977539 2.53658 1.33639 1.89782 1.97515C1.25906 2.61391 0.900208 3.48026 0.900208 4.3836V8.92502C0.905215 9.76524 1.22062 10.574 1.78578 11.1957C1.22062 11.8175 0.905215 12.6262 0.900208 13.4664V18.0078C0.900208 18.9112 1.25906 19.7775 1.89782 20.4163C2.53658 21.0551 3.40293 21.4139 4.30627 21.4139H11.1184V23.6846H2.03556C1.73445 23.6846 1.44567 23.8042 1.23274 24.0172C1.01982 24.2301 0.900208 24.5189 0.900208 24.82C0.900208 25.1211 1.01982 25.4099 1.23274 25.6228C1.44567 25.8357 1.73445 25.9553 2.03556 25.9553H22.4719C22.773 25.9553 23.0618 25.8357 23.2747 25.6228C23.4877 25.4099 23.6073 25.1211 23.6073 24.82C23.6073 24.5189 23.4877 24.2301 23.2747 24.0172C23.0618 23.8042 22.773 23.6846 22.4719 23.6846H13.3891V21.4139H20.2012C21.1046 21.4139 21.9709 21.0551 22.6097 20.4163C23.2484 19.7775 23.6073 18.9112 23.6073 18.0078V13.4664C23.6023 12.6262 23.2869 11.8175 22.7217 11.1957C23.2869 10.574 23.6023 9.76524 23.6073 8.92502V4.3836ZM21.3366 18.0078C21.3366 18.309 21.217 18.5977 21.004 18.8107C20.7911 19.0236 20.5023 19.1432 20.2012 19.1432H4.30627C4.00515 19.1432 3.71637 19.0236 3.50345 18.8107C3.29053 18.5977 3.17092 18.309 3.17092 18.0078V13.4664C3.17092 13.1653 3.29053 12.8765 3.50345 12.6636C3.71637 12.4507 4.00515 12.3311 4.30627 12.3311H20.2012C20.5023 12.3311 20.7911 12.4507 21.004 12.6636C21.217 12.8765 21.3366 13.1653 21.3366 13.4664V18.0078ZM21.3366 8.92502C21.3366 9.22613 21.217 9.51491 21.004 9.72783C20.7911 9.94075 20.5023 10.0604 20.2012 10.0604H4.30627C4.00515 10.0604 3.71637 9.94075 3.50345 9.72783C3.29053 9.51491 3.17092 9.22613 3.17092 8.92502V4.3836C3.17092 4.08249 3.29053 3.7937 3.50345 3.58078C3.71637 3.36786 4.00515 3.24825 4.30627 3.24825H20.2012C20.5023 3.24825 20.7911 3.36786 21.004 3.58078C21.217 3.7937 21.3366 4.08249 21.3366 4.3836V8.92502ZM11.1184 5.51895C10.8938 5.51895 10.6743 5.58554 10.4876 5.7103C10.3009 5.83505 10.1554 6.01237 10.0695 6.21983C9.98353 6.42729 9.96105 6.65557 10.0049 6.8758C10.0487 7.09604 10.1568 7.29834 10.3156 7.45712C10.4744 7.61591 10.6767 7.72404 10.8969 7.76785C11.1171 7.81165 11.3454 7.78917 11.5529 7.70324C11.7603 7.61731 11.9376 7.47178 12.0624 7.28508C12.1872 7.09837 12.2537 6.87886 12.2537 6.65431C12.2537 6.35319 12.1341 6.06441 11.9212 5.85149C11.7083 5.63857 11.4195 5.51895 11.1184 5.51895ZM6.57698 5.51895C6.35242 5.51895 6.13292 5.58554 5.94621 5.7103C5.7595 5.83505 5.61398 6.01237 5.52805 6.21983C5.44211 6.42729 5.41963 6.65557 5.46344 6.8758C5.50725 7.09604 5.61538 7.29834 5.77416 7.45712C5.93294 7.61591 6.13524 7.72404 6.35548 7.76785C6.57572 7.81165 6.804 7.78917 7.01146 7.70324C7.21892 7.61731 7.39623 7.47178 7.52099 7.28508C7.64574 7.09837 7.71233 6.87886 7.71233 6.65431C7.71233 6.35319 7.59271 6.06441 7.37979 5.85149C7.16687 5.63857 6.87809 5.51895 6.57698 5.51895Z"/>
    </symbol>
    <symbol id="rightArrow" viewBox="0 0 10 17">
        <path fill-rule="evenodd" clip-rule="evenodd" d="M0.494858 0.985276C0.885383 0.594752 1.51855 0.594752 1.90907 0.985276L8.87224 7.94845C9.05978 8.13598 9.16514 8.39034 9.16514 8.65555C9.16514 8.92077 9.05978 9.17512 8.87224 9.36266L1.90907 16.3258C1.51855 16.7164 0.885383 16.7164 0.494858 16.3258C0.104334 15.9353 0.104334 15.3021 0.494859 14.9116L6.75092 8.65555L0.494859 2.39949C0.104334 2.00897 0.104334 1.3758 0.494858 0.985276Z"/>
    </symbol>

    <symbol id="speed__test" viewBox="0 0 130 16">
        <path fill-rule="evenodd" clip-rule="evenodd" d="M18.2066 9.14449C18.2066 4.13287 14.1561 0 9.0621 0C3.9681 0 0 4.11914 0 9.14449C0 11.2452 0.727715 13.346 2.10076 14.9662L2.66371 15.6115L3.72095 14.5543L3.32277 13.9913C2.19687 12.6183 1.62019 10.9157 1.62019 9.13075C1.62019 4.92923 5.01162 1.52408 9.22687 1.52408C13.4284 1.52408 16.8335 4.9155 16.8335 9.13075C16.8335 10.9157 16.1882 12.6046 15.131 13.9913L14.7328 14.5543L15.79 15.6115L16.353 14.9662C17.4789 13.2774 18.2066 11.2452 18.2066 9.14449Z"/>
        <path fill-rule="evenodd" clip-rule="evenodd" d="M123.615 3.96824H119.482V1.86748H130V3.96824H125.881V14.8153H123.615V3.96824Z"/>
        <path fill-rule="evenodd" clip-rule="evenodd" d="M108.004 12.948L109.377 11.3278C110.585 12.385 111.89 13.0303 113.496 13.0303C114.869 13.0303 115.762 12.385 115.762 11.4102C115.762 10.5177 115.281 9.95472 112.851 9.47416C110.105 8.82882 108.567 8.01872 108.567 5.58843C108.567 3.40529 110.434 1.86748 113.015 1.86748C114.883 1.86748 116.407 2.43043 117.711 3.48767L116.503 5.19025C115.377 4.29777 114.155 3.89959 113.029 3.89959C111.739 3.89959 110.928 4.54492 110.928 5.4374C110.928 6.41226 111.491 6.89283 114.004 7.45578C116.75 8.10111 118.123 9.07597 118.123 11.2591C118.123 13.6894 116.187 15.1448 113.51 15.1448C111.395 14.9663 109.528 14.321 108.004 12.948Z"/>
        <path fill-rule="evenodd" clip-rule="evenodd" d="M96.4291 1.86748H106.054V3.88586H98.6946V7.29101H105.162V9.30939H98.6946V12.7832H106.137V14.8153H96.4291V1.86748Z"/>
        <path fill-rule="evenodd" clip-rule="evenodd" d="M87.6965 3.96824H83.5636V1.86748H94.0812V3.96824H89.962V14.8153H87.6965V3.96824Z"/>
        <path fill-rule="evenodd" clip-rule="evenodd" d="M72.8813 3.96824V12.7832H75.4764C78.2224 12.7832 80.0074 10.9159 80.0074 8.41691C80.0074 5.90423 78.2224 4.05062 75.4764 4.05062H72.8813V3.96824ZM70.5471 1.86748H75.394C79.4445 1.86748 82.2729 4.69595 82.2729 8.33452C82.2729 11.9731 79.4445 14.8016 75.394 14.8016H70.5471V1.86748Z"/>
        <path fill-rule="evenodd" clip-rule="evenodd" d="M58.5742 1.86748H68.1992V3.88586H60.8397V7.29101H67.3067V9.30939H60.8397V12.7832H68.2816V14.8153H58.5742V1.86748Z"/>
        <path fill-rule="evenodd" clip-rule="evenodd" d="M46.5188 1.86748H56.1439V3.88586H48.7843V7.29101H55.2514V9.30939H48.7843V12.7832H56.2262V14.8153H46.5188V1.86748Z"/>
        <path fill-rule="evenodd" clip-rule="evenodd" d="M39.4751 8.58167C41.1777 8.58167 42.3036 7.60681 42.3036 6.23377C42.3036 4.69595 41.2463 3.88586 39.4751 3.88586H36.8114V8.58167H39.4751ZM39.6399 1.86748C42.6331 1.86748 44.5691 3.57006 44.5691 6.15138C44.5691 9.06224 42.2212 10.6 39.3927 10.6H36.7976V14.7192H34.5321V1.86748H39.6399Z"/>
        <path fill-rule="evenodd" clip-rule="evenodd" d="M22.5729 12.948L23.9459 11.3278C25.1542 12.385 26.4586 13.0303 28.0651 13.0303C29.4381 13.0303 30.3306 12.385 30.3306 11.4101C30.3306 10.5177 29.85 9.95472 27.4198 9.47415C24.6737 8.82882 23.1359 8.01872 23.1359 5.58843C23.1359 3.40529 24.9895 1.86748 27.5845 1.86748C29.4519 1.86748 30.9759 2.43043 32.2803 3.48767L30.9897 5.02549C29.8638 4.13301 28.6418 3.73482 27.5159 3.73482C26.2252 3.73482 25.4151 4.38015 25.4151 5.27263C25.4151 6.2475 25.9781 6.72806 28.4907 7.29101C31.2368 7.93634 32.6099 8.9112 32.6099 11.0943C32.6099 13.5246 30.6739 14.9801 27.9964 14.9801C26.0467 14.9663 24.1107 14.321 22.5729 12.948Z"/>
        <path fill-rule="evenodd" clip-rule="evenodd" d="M12.3712 5.10859L7.27717 9.14535L9.06213 10.9303L13.0989 5.83631L12.3712 5.10859Z"/>

    </symbol>
</svg>