<svg width="21" height="16" viewBox="0 0 21 16" fill="none" xmlns="http://www.w3.org/2000/svg">
<path d="M20.1827 0.909363C20.046 0.771604 19.8835 0.662262 19.7044 0.587644C19.5253 0.513026 19.3332 0.474609 19.1391 0.474609C18.9451 0.474609 18.753 0.513026 18.5739 0.587644C18.3948 0.662262 18.2322 0.771604 18.0956 0.909363L7.14587 11.8738L2.54551 7.25873C2.40365 7.1217 2.23618 7.01394 2.05268 6.94162C1.86917 6.86931 1.67321 6.83384 1.476 6.83725C1.27879 6.84066 1.08418 6.88289 0.903281 6.96151C0.722385 7.04013 0.558746 7.15362 0.421708 7.29548C0.284669 7.43734 0.176915 7.60481 0.104597 7.78832C0.0322788 7.97182 -0.00318725 8.16778 0.000224754 8.36499C0.00363676 8.56221 0.0458598 8.75682 0.124482 8.93771C0.203105 9.11861 0.316588 9.28225 0.458452 9.41929L6.10234 15.0632C6.23897 15.2009 6.40153 15.3103 6.58063 15.3849C6.75974 15.4595 6.95184 15.4979 7.14587 15.4979C7.3399 15.4979 7.532 15.4595 7.71111 15.3849C7.89021 15.3103 8.05277 15.2009 8.1894 15.0632L20.1827 3.06991C20.3318 2.93228 20.4509 2.76524 20.5323 2.57932C20.6138 2.39339 20.6558 2.19261 20.6558 1.98964C20.6558 1.78666 20.6138 1.58588 20.5323 1.39996C20.4509 1.21404 20.3318 1.04699 20.1827 0.909363Z" fill="#62687F"/>
</svg>
