<svg width="13" height="8" viewBox="0 0 13 8" fill="none" xmlns="http://www.w3.org/2000/svg">
<path d="M7.30491 7.33358L12.645 1.99343C12.7686 1.86992 12.8367 1.70504 12.8367 1.52924C12.8367 1.35343 12.7686 1.18856 12.645 1.06504L12.2518 0.671779C11.9956 0.415879 11.5792 0.415879 11.3234 0.671779L6.83916 5.15604L2.34993 0.666803C2.22632 0.543292 2.06154 0.475098 1.88583 0.475098C1.70993 0.475098 1.54515 0.543292 1.42144 0.666803L1.02838 1.06007C0.904767 1.18368 0.83667 1.34846 0.83667 1.52426C0.83667 1.70006 0.904767 1.86494 1.02838 1.98845L6.37331 7.33358C6.49731 7.45738 6.66287 7.52538 6.83886 7.52499C7.01555 7.52538 7.18101 7.45738 7.30491 7.33358Z" fill="#62687F"/>
</svg>
