<svg width="8" height="13" viewBox="0 0 8 13" fill="none" xmlns="http://www.w3.org/2000/svg">
<path d="M7.14553 6.39553L1.80538 1.05548C1.68187 0.931867 1.51699 0.86377 1.34119 0.86377C1.16538 0.86377 1.00051 0.931867 0.876995 1.05548L0.48373 1.44864C0.227829 1.70484 0.227829 2.12122 0.48373 2.37703L4.96799 6.86128L0.478754 11.3505C0.355243 11.4741 0.287048 11.6389 0.287048 11.8146C0.287048 11.9905 0.355243 12.1553 0.478754 12.279L0.872019 12.6721C0.995628 12.7957 1.16041 12.8638 1.33621 12.8638C1.51201 12.8638 1.67689 12.7957 1.8004 12.6721L7.14553 7.32713C7.26933 7.20313 7.33733 7.03757 7.33694 6.86157C7.33733 6.68489 7.26933 6.51943 7.14553 6.39553Z" fill="#00D37F"/>
</svg>
