<svg width="8" height="13" viewBox="0 0 8 13" fill="none" xmlns="http://www.w3.org/2000/svg">
<path d="M7.14559 6.47561L1.80544 1.13555C1.68193 1.01194 1.51705 0.943848 1.34125 0.943848C1.16544 0.943848 1.00057 1.01194 0.877056 1.13555L0.483791 1.52872C0.22789 1.78491 0.22789 2.2013 0.483791 2.4571L4.96805 6.94136L0.478815 11.4306C0.355304 11.5542 0.287109 11.719 0.287109 11.8947C0.287109 12.0706 0.355304 12.2354 0.478815 12.3591L0.87208 12.7521C0.995689 12.8758 1.16047 12.9438 1.33627 12.9438C1.51208 12.9438 1.67695 12.8758 1.80046 12.7521L7.14559 7.40721C7.26939 7.28321 7.33739 7.11765 7.337 6.94165C7.33739 6.76497 7.26939 6.59951 7.14559 6.47561Z" fill="#BF5AF2"/>
</svg>
