<svg width="8" height="13" viewBox="0 0 8 13" fill="none" xmlns="http://www.w3.org/2000/svg">
<path d="M7.04873 5.78225L1.70858 0.442194C1.58506 0.318585 1.42019 0.250488 1.24438 0.250488C1.06858 0.250488 0.903704 0.318585 0.780193 0.442194L0.386928 0.835362C0.131028 1.09155 0.131028 1.50794 0.386928 1.76374L4.87118 6.248L0.381952 10.7372C0.258441 10.8608 0.190247 11.0256 0.190247 11.2013C0.190247 11.3772 0.258441 11.542 0.381952 11.6657L0.775217 12.0588C0.898826 12.1824 1.06361 12.2505 1.23941 12.2505C1.41521 12.2505 1.58009 12.1824 1.7036 12.0588L7.04873 6.71385C7.17253 6.58985 7.24053 6.42429 7.24014 6.24829C7.24053 6.07161 7.17253 5.90615 7.04873 5.78225Z" fill="url(#paint0_linear)"/>
<defs>
<linearGradient id="paint0_linear" x1="7.24014" y1="6.25049" x2="0.190246" y2="6.25049" gradientUnits="userSpaceOnUse">
<stop stop-color="#FF4BC8"/>
<stop offset="1" stop-color="#FF6A64"/>
</linearGradient>
</defs>
</svg>
