<svg width="8" height="13" viewBox="0 0 8 13" fill="none" xmlns="http://www.w3.org/2000/svg">
<path d="M6.85848 6.39553L1.51833 1.05548C1.39482 0.931867 1.22994 0.86377 1.05414 0.86377C0.878334 0.86377 0.713458 0.931867 0.589947 1.05548L0.196681 1.44864C-0.0592189 1.70484 -0.0592189 2.12122 0.196681 2.37703L4.68094 6.86128L0.191706 11.3505C0.0681946 11.4741 0 11.6389 0 11.8146C0 11.9905 0.0681946 12.1553 0.191706 12.279L0.584971 12.6721C0.70858 12.7957 0.873359 12.8638 1.04916 12.8638C1.22497 12.8638 1.38984 12.7957 1.51335 12.6721L6.85848 7.32713C6.98229 7.20313 7.05028 7.03757 7.04989 6.86157C7.05028 6.68489 6.98229 6.51943 6.85848 6.39553Z" fill="url(#paint0_linear)"/>
<defs>
<linearGradient id="paint0_linear" x1="7.0499" y1="6.86377" x2="0" y2="6.86377" gradientUnits="userSpaceOnUse">
<stop stop-color="#836AFC"/>
<stop offset="1" stop-color="#349AFF"/>
</linearGradient>
</defs>
</svg>
