<?xml version="1.0" encoding="utf-8"?>
<!-- Generator: Adobe Illustrator 25.2.0, SVG Export Plug-In . SVG Version: 6.00 Build 0)  -->
<svg version="1.1" id="Слой_1" xmlns="http://www.w3.org/2000/svg" xmlns:xlink="http://www.w3.org/1999/xlink" x="0px" y="0px"
	 viewBox="0 0 20 40" style="enable-background:new 0 0 20 40;" xml:space="preserve">
<style type="text/css">
	.st0{clip-path:url(#SVGID_2_);}
	.st1{fill:#C6CAD8;}
	.st2{fill:#8D96B2;}
</style>
<g>
	<defs>
		<rect id="SVGID_1_" width="20" height="40"/>
	</defs>
	<clipPath id="SVGID_2_">
		<use xlink:href="#SVGID_1_"  style="overflow:visible;"/>
	</clipPath>
	<g class="st0">
		<path class="st1" d="M10,24.9c-2.8,0-5.1,2.3-5.1,5.1c0,2.8,2.3,5.1,5.1,5.1c2.8,0,5.1-2.3,5.1-5.1C15.1,27.2,12.8,24.9,10,24.9z
			 M10,33.3c-1.8,0-3.3-1.5-3.3-3.3c0-1.8,1.5-3.3,3.3-3.3c1.8,0,3.3,1.5,3.3,3.3C13.3,31.8,11.8,33.3,10,33.3z"/>
		<path class="st1" d="M14.1,20.1c-1.8-0.1-6.4-0.1-8.2,0c-1.6,0.1-3,0.5-4.2,1.6C-0.2,23.6,0,26.2,0,30c0,3.9-0.2,6.4,1.7,8.3
			C3.6,40.2,6.2,40,10,40c3.9,0,5.2,0,6.5-0.5c1.9-0.7,3.3-2.4,3.4-5.3c0.1-1.8,0.1-6.4,0-8.2C19.8,22.4,17.9,20.2,14.1,20.1z
			 M17,37c-1.3,1.3-3,1.1-7.1,1.1c-4.2,0-5.8,0.1-7.1-1.2c-1.4-1.4-1.1-3.6-1.1-7c0-4.6-0.5-7.9,4.1-8.2c1.1,0,1.4-0.1,4-0.1l0,0
			c4.4,0,7.9-0.5,8.1,4.2c0,1.1,0.1,1.4,0.1,4C18.2,34.1,18.3,35.8,17,37z"/>
		<path class="st1" d="M15.3,25.9c0.7,0,1.2-0.5,1.2-1.2s-0.5-1.2-1.2-1.2c-0.7,0-1.2,0.5-1.2,1.2S14.7,25.9,15.3,25.9z"/>
		<path class="st2" d="M10,4.9c-2.8,0-5.1,2.3-5.1,5.1c0,2.8,2.3,5.1,5.1,5.1c2.8,0,5.1-2.3,5.1-5.1C15.1,7.2,12.8,4.9,10,4.9z
			 M10,13.3c-1.8,0-3.3-1.5-3.3-3.3c0-1.8,1.5-3.3,3.3-3.3c1.8,0,3.3,1.5,3.3,3.3C13.3,11.8,11.8,13.3,10,13.3z"/>
		<path class="st2" d="M14.1,0.1C12.3,0,7.7,0,5.9,0.1c-1.6,0.1-3,0.5-4.2,1.6C-0.2,3.6,0,6.2,0,10c0,3.9-0.2,6.4,1.7,8.3
			C3.6,20.2,6.2,20,10,20c3.9,0,5.2,0,6.5-0.5c1.9-0.7,3.3-2.4,3.4-5.3c0.1-1.8,0.1-6.4,0-8.2C19.8,2.4,17.9,0.2,14.1,0.1z M17,17
			c-1.3,1.3-3,1.1-7.1,1.1c-4.2,0-5.8,0.1-7.1-1.2c-1.4-1.4-1.1-3.6-1.1-7c0-4.6-0.5-7.9,4.1-8.2c1.1,0,1.4-0.1,4-0.1l0,0
			c4.4,0,7.9-0.5,8.1,4.2c0,1.1,0.1,1.4,0.1,4C18.2,14.1,18.3,15.8,17,17z"/>
		<path class="st2" d="M15.3,5.9c0.7,0,1.2-0.5,1.2-1.2S16,3.5,15.3,3.5c-0.7,0-1.2,0.5-1.2,1.2S14.7,5.9,15.3,5.9z"/>
	</g>
</g>
</svg>
