<?xml version="1.0" encoding="utf-8"?>
<!-- Generator: Adobe Illustrator 25.2.0, SVG Export Plug-In . SVG Version: 6.00 Build 0)  -->
<svg version="1.1" id="Слой_1" xmlns="http://www.w3.org/2000/svg" xmlns:xlink="http://www.w3.org/1999/xlink" x="0px" y="0px"
	 viewBox="0 0 20 40" style="enable-background:new 0 0 20 40;" xml:space="preserve">
<style type="text/css">
	.st0{fill:#8D96B2;}
	.st1{fill:#C6CAD8;}
</style>
<g>
	<g>
		<path class="st0" d="M0.9,8.5l17.7-6.8c0.8-0.3,1.5,0.2,1.3,1.4l-3,14.2c-0.2,1-0.8,1.3-1.7,0.8l-4.6-3.4l-2.2,2.1
			c-0.2,0.2-0.5,0.5-0.9,0.5l0.3-4.7L16.4,5c0.4-0.3-0.1-0.5-0.6-0.2L5.3,11.4L0.7,10C-0.3,9.7-0.3,9,0.9,8.5z"/>
		<path class="st1" d="M0.9,28.5l17.7-6.8c0.8-0.3,1.5,0.2,1.3,1.4l-3,14.2c-0.2,1-0.8,1.3-1.7,0.8l-4.6-3.4l-2.2,2.1
			c-0.2,0.2-0.5,0.5-0.9,0.5l0.3-4.7l8.5-7.7c0.4-0.3-0.1-0.5-0.6-0.2L5.3,31.4L0.7,30C-0.3,29.7-0.3,29,0.9,28.5z"/>
	</g>
</g>
</svg>
