<?xml version="1.0" encoding="utf-8"?>
<!-- Generator: Adobe Illustrator 25.2.0, SVG Export Plug-In . SVG Version: 6.00 Build 0)  -->
<svg version="1.1" id="Слой_1" xmlns="http://www.w3.org/2000/svg" xmlns:xlink="http://www.w3.org/1999/xlink" x="0px" y="0px"
	 viewBox="0 0 20 40" style="enable-background:new 0 0 20 40;" xml:space="preserve">
<style type="text/css">
	.st0{clip-path:url(#SVGID_2_);}
	.st1{fill:#8D96B2;}
	.st2{fill:#C6CAD8;}
</style>
<g>
	<defs>
		<rect id="SVGID_1_" width="20" height="40"/>
	</defs>
	<clipPath id="SVGID_2_">
		<use xlink:href="#SVGID_1_"  style="overflow:visible;"/>
	</clipPath>
	<g class="st0">
		<path class="st1" d="M17.3,2c-0.5-0.5-2.5-1.9-7-1.9c0,0-5.3-0.3-7.8,2c-1.4,1.4-1.9,3.5-2,6.1c-0.1,2.6-0.1,7.5,4.6,8.8h0l0,2
			c0,0,0,0.8,0.5,1c0.6,0.2,1-0.4,1.7-1.1c0.3-0.4,0.8-0.9,1.2-1.3c3.2,0.3,5.7-0.3,6-0.4c0.6-0.2,4.3-0.7,4.9-5.5
			C19.9,6.6,19,3.4,17.3,2z M17.9,11.2c-0.5,4.1-3.5,4.3-4,4.5c-0.2,0.1-2.4,0.6-5.1,0.4c0,0-2,2.5-2.7,3.1
			c-0.1,0.1-0.2,0.1-0.3,0.1c-0.1,0-0.1-0.2-0.1-0.3c0-0.3,0-3.3,0-3.3c-4-1.1-3.7-5.2-3.7-7.4c0-2.2,0.5-3.9,1.7-5.1
			c2.2-2,6.7-1.7,6.7-1.7c3.8,0,5.6,1.2,6,1.5C17.7,4.2,18.4,7,17.9,11.2L17.9,11.2z"/>
		<path class="st1" d="M12.2,8.3c-0.1,0-0.1,0-0.2-0.1S12,8.1,12,8.1c0-0.9-0.4-1.3-1.3-1.3c-0.1,0-0.1,0-0.2-0.1
			c0,0-0.1-0.1-0.1-0.2c0-0.1,0-0.1,0.1-0.2c0,0,0.1-0.1,0.2-0.1c1.1,0.1,1.7,0.7,1.8,1.8c0,0,0,0.1,0,0.1c0,0,0,0.1-0.1,0.1
			c0,0,0,0-0.1,0.1C12.3,8.3,12.3,8.3,12.2,8.3L12.2,8.3z"/>
		<path class="st1" d="M13.5,8.8L13.5,8.8c-0.1,0-0.1,0-0.2-0.1c0,0-0.1-0.1-0.1-0.2c0-0.9-0.2-1.6-0.8-2.1c-0.5-0.6-1.2-0.9-2.2-1
			c-0.1,0-0.1,0-0.2-0.1c0-0.1-0.1-0.1-0.1-0.2c0-0.1,0-0.1,0.1-0.2c0.1,0,0.1-0.1,0.2-0.1C11.4,5,12.3,5.3,12.9,6
			c0.6,0.7,0.9,1.5,0.9,2.5c0,0.1,0,0.1-0.1,0.2C13.6,8.7,13.6,8.8,13.5,8.8z"/>
		<path class="st1" d="M14.8,9.3c-0.1,0-0.1,0-0.2-0.1c0,0-0.1-0.1-0.1-0.2c0-1.5-0.5-2.7-1.4-3.6c-0.9-0.9-2-1.3-3.4-1.3
			c0,0-0.1,0-0.1,0c0,0-0.1,0-0.1-0.1c0,0-0.1-0.1-0.1-0.2c0-0.1,0-0.1,0.1-0.2c0,0,0.1-0.1,0.2-0.1h0c1.5,0,2.7,0.5,3.7,1.5
			c1,1,1.5,2.3,1.5,4c0,0.1,0,0.1-0.1,0.2C15,9.2,14.9,9.3,14.8,9.3L14.8,9.3z"/>
		<path class="st1" d="M10.7,11.5c0,0,0.4,0,0.5-0.2l0.4-0.5c0.2-0.2,0.6-0.4,1-0.1c0.3,0.2,0.6,0.4,0.9,0.6
			c0.3,0.2,0.9,0.7,0.9,0.7c0.3,0.2,0.3,0.6,0.2,0.9c0,0,0,0,0,0c-0.2,0.4-0.5,0.7-0.8,1c0,0,0,0,0,0c-0.3,0.2-0.5,0.4-0.8,0.4
			c0,0-0.1,0-0.1,0c-0.1,0-0.2,0-0.3-0.1l0,0c-0.4-0.1-1.1-0.4-2.2-1c-0.6-0.3-1.2-0.8-1.8-1.2c-0.3-0.2-0.6-0.5-0.8-0.7l-0.1-0.1
			c0,0,0,0,0,0c-0.3-0.3-0.5-0.5-0.7-0.8C6.5,9.7,6.1,9.1,5.8,8.5c-0.6-1.1-0.9-1.8-1-2.2l0,0c0-0.1-0.1-0.2-0.1-0.3
			c0,0,0-0.1,0-0.1c0-0.3,0.2-0.5,0.4-0.8c0,0,0,0,0,0c0.3-0.3,0.6-0.6,1-0.8c0,0,0,0,0,0C6.4,4.1,6.8,4.1,7,4.4
			c0,0,0.5,0.6,0.7,0.9c0.2,0.3,0.4,0.6,0.6,0.9c0.2,0.4,0.1,0.9-0.1,1L7.7,7.6C7.4,7.8,7.4,8.2,7.4,8.2S8.1,10.8,10.7,11.5z"/>
		<path class="st2" d="M17.3,22c-0.5-0.5-2.5-1.9-7-1.9c0,0-5.3-0.3-7.8,2c-1.4,1.4-1.9,3.5-2,6.1c-0.1,2.6-0.1,7.5,4.6,8.8h0l0,2
			c0,0,0,0.8,0.5,1c0.6,0.2,1-0.4,1.7-1.1c0.3-0.4,0.8-0.9,1.2-1.3c3.2,0.3,5.7-0.3,6-0.4c0.6-0.2,4.3-0.7,4.9-5.5
			C19.9,26.6,19,23.4,17.3,22z M17.9,31.2c-0.5,4.1-3.5,4.3-4,4.5c-0.2,0.1-2.4,0.6-5.1,0.4c0,0-2,2.5-2.7,3.1
			c-0.1,0.1-0.2,0.1-0.3,0.1c-0.1,0-0.1-0.2-0.1-0.3c0-0.3,0-3.3,0-3.3c-4-1.1-3.7-5.2-3.7-7.4c0-2.2,0.5-3.9,1.7-5.1
			c2.2-2,6.7-1.7,6.7-1.7c3.8,0,5.6,1.2,6,1.5C17.7,24.2,18.4,27,17.9,31.2L17.9,31.2z"/>
		<path class="st2" d="M12.2,28.3c-0.1,0-0.1,0-0.2-0.1c0,0-0.1-0.1-0.1-0.2c0-0.9-0.4-1.3-1.3-1.3c-0.1,0-0.1,0-0.2-0.1
			c0,0-0.1-0.1-0.1-0.2c0-0.1,0-0.1,0.1-0.2c0,0,0.1-0.1,0.2-0.1c1.1,0.1,1.7,0.7,1.8,1.8c0,0,0,0.1,0,0.1s0,0.1-0.1,0.1
			c0,0,0,0-0.1,0.1C12.3,28.3,12.3,28.3,12.2,28.3L12.2,28.3z"/>
		<path class="st2" d="M13.5,28.8L13.5,28.8c-0.1,0-0.1,0-0.2-0.1c0,0-0.1-0.1-0.1-0.2c0-0.9-0.2-1.6-0.8-2.1
			c-0.5-0.6-1.2-0.9-2.2-1c-0.1,0-0.1,0-0.2-0.1c0-0.1-0.1-0.1-0.1-0.2c0-0.1,0-0.1,0.1-0.2c0.1,0,0.1-0.1,0.2-0.1
			c1.1,0.1,1.9,0.5,2.5,1.1c0.6,0.7,0.9,1.5,0.9,2.5c0,0.1,0,0.1-0.1,0.2C13.6,28.7,13.6,28.8,13.5,28.8z"/>
		<path class="st2" d="M14.8,29.3c-0.1,0-0.1,0-0.2-0.1c0,0-0.1-0.1-0.1-0.2c0-1.5-0.5-2.7-1.4-3.6c-0.9-0.9-2-1.3-3.4-1.3
			c0,0-0.1,0-0.1,0c0,0-0.1,0-0.1-0.1c0,0-0.1-0.1-0.1-0.2c0-0.1,0-0.1,0.1-0.2c0,0,0.1-0.1,0.2-0.1h0c1.5,0,2.7,0.5,3.7,1.5
			s1.5,2.3,1.5,4c0,0.1,0,0.1-0.1,0.2C15,29.2,14.9,29.3,14.8,29.3L14.8,29.3z"/>
		<path class="st2" d="M10.7,31.5c0,0,0.4,0,0.5-0.2l0.4-0.5c0.2-0.2,0.6-0.4,1-0.1c0.3,0.2,0.6,0.4,0.9,0.6
			c0.3,0.2,0.9,0.7,0.9,0.7c0.3,0.2,0.3,0.6,0.2,0.9c0,0,0,0,0,0c-0.2,0.4-0.5,0.7-0.8,1c0,0,0,0,0,0c-0.3,0.2-0.5,0.4-0.8,0.4
			c0,0-0.1,0-0.1,0c-0.1,0-0.2,0-0.3-0.1l0,0c-0.4-0.1-1.1-0.4-2.2-1c-0.6-0.3-1.2-0.8-1.8-1.2c-0.3-0.2-0.6-0.5-0.8-0.7l-0.1-0.1
			c0,0,0,0,0,0c-0.3-0.3-0.5-0.5-0.7-0.8c-0.5-0.6-0.9-1.2-1.2-1.8c-0.6-1.1-0.9-1.8-1-2.2l0,0c0-0.1-0.1-0.2-0.1-0.3
			c0,0,0-0.1,0-0.1c0-0.3,0.2-0.5,0.4-0.8c0,0,0,0,0,0c0.3-0.3,0.6-0.6,1-0.8c0,0,0,0,0,0c0.4-0.2,0.7-0.1,0.9,0.1
			c0,0,0.5,0.6,0.7,0.9c0.2,0.3,0.4,0.6,0.6,0.9c0.2,0.4,0.1,0.9-0.1,1l-0.5,0.4c-0.2,0.2-0.2,0.5-0.2,0.5S8.1,30.8,10.7,31.5z"/>
	</g>
</g>
</svg>
