<svg width="51" height="46" viewBox="0 0 51 46" fill="none" xmlns="http://www.w3.org/2000/svg">
<path d="M43.7358 42.7129C43.7358 43.3203 43.4945 43.9029 43.065 44.3324C42.6355 44.7619 42.053 45.0032 41.4455 45.0032H9.38178C8.77436 45.0032 8.19182 44.7619 7.76231 44.3324C7.3328 43.9029 7.09151 43.3203 7.09151 42.7129V22.1005H0.220703L23.8723 0.599462C24.294 0.215792 24.8436 0.00317383 25.4137 0.00317383C25.9837 0.00317383 26.5333 0.215792 26.955 0.599462L50.6066 22.1005H43.7358V42.7129ZM39.1553 40.4226V17.8795L25.4137 5.38841L11.672 17.8795V40.4226H39.1553ZM25.4137 35.8421L17.7206 28.1491C17.2421 27.6706 16.8626 27.1025 16.6036 26.4773C16.3446 25.8521 16.2113 25.182 16.2113 24.5053C16.2113 23.8286 16.3446 23.1585 16.6036 22.5333C16.8626 21.9081 17.2421 21.34 17.7206 20.8615C18.1992 20.383 18.7672 20.0034 19.3924 19.7444C20.0176 19.4854 20.6877 19.3521 21.3645 19.3521C22.0412 19.3521 22.7113 19.4854 23.3365 19.7444C23.9617 20.0034 24.5298 20.383 25.0083 20.8615L25.4137 21.2668L25.819 20.8615C26.2975 20.383 26.8656 20.0034 27.4908 19.7444C28.116 19.4854 28.7861 19.3521 29.4628 19.3521C30.1396 19.3521 30.8097 19.4854 31.4349 19.7444C32.0601 20.0034 32.6282 20.383 33.1067 20.8615C33.5852 21.34 33.9648 21.9081 34.2237 22.5333C34.4827 23.1585 34.616 23.8286 34.616 24.5053C34.616 25.182 34.4827 25.8521 34.2237 26.4773C33.9648 27.1025 33.5852 27.6706 33.1067 28.1491L25.4137 35.8421Z" fill="url(#paint0_linear)"/>
<defs>
<linearGradient id="paint0_linear" x1="50.6066" y1="22.5032" x2="0.220702" y2="22.5032" gradientUnits="userSpaceOnUse">
<stop stop-color="#FF4BC8"/>
<stop offset="1" stop-color="#FF6A64"/>
</linearGradient>
</defs>
</svg>
