<svg width="47" height="46" viewBox="0 0 47 46" fill="none" xmlns="http://www.w3.org/2000/svg">
<path d="M10.9194 36.9261L0.638672 45.0031V2.31074C0.638672 1.69871 0.881803 1.11174 1.31458 0.678959C1.74736 0.246183 2.33433 0.00305176 2.94636 0.00305176H44.4848C45.0969 0.00305176 45.6838 0.246183 46.1166 0.678959C46.5494 1.11174 46.7925 1.69871 46.7925 2.31074V34.6184C46.7925 35.2305 46.5494 35.8174 46.1166 36.2502C45.6838 36.683 45.0969 36.9261 44.4848 36.9261H10.9194ZM9.32252 32.3107H42.1771V4.61844H5.25406V35.5069L9.32252 32.3107ZM22.0841 21.0515L31.8756 11.2623L35.1387 14.5254L22.0841 27.58L13.1071 18.6031L16.3725 15.34L22.0841 21.0515Z" fill="url(#paint0_linear)"/>
<defs>
<linearGradient id="paint0_linear" x1="46.7925" y1="22.5031" x2="0.638671" y2="22.5031" gradientUnits="userSpaceOnUse">
<stop stop-color="#FF4BC8"/>
<stop offset="1" stop-color="#FF6A64"/>
</linearGradient>
</defs>
</svg>
