<svg width="20" height="19" viewBox="0 0 20 19" fill="none" xmlns="http://www.w3.org/2000/svg">
<path d="M4.03682 2.03762C4.03655 2.56805 3.82558 3.07666 3.45032 3.45154C3.07506 3.82643 2.56625 4.03689 2.03582 4.03662C1.50538 4.03636 0.996781 3.82539 0.621896 3.45013C0.247011 3.07487 0.0365516 2.56605 0.0368168 2.03562C0.0370821 1.50519 0.24805 0.996586 0.62331 0.621701C0.998571 0.246815 1.50738 0.0363561 2.03782 0.0366213C2.56825 0.0368866 3.07685 0.247855 3.45174 0.623115C3.82662 0.998375 4.03708 1.50719 4.03682 2.03762ZM4.09682 5.51762H0.0968168V18.0376H4.09682V5.51762ZM10.4168 5.51762H6.43682V18.0376H10.3768V11.4676C10.3768 7.80762 15.1468 7.46762 15.1468 11.4676V18.0376H19.0968V10.1076C19.0968 3.93762 12.0368 4.16762 10.3768 7.19762L10.4168 5.51762Z" fill="#8D96B2"/>
</svg>
