<svg width="22" height="18" viewBox="0 0 22 18" fill="none" xmlns="http://www.w3.org/2000/svg">
<path d="M21.2588 2.69352C20.4954 3.03122 19.6858 3.253 18.8568 3.35152C19.7306 2.82896 20.3845 2.00654 20.6968 1.03752C19.8768 1.52552 18.9778 1.86752 18.0408 2.05252C17.4114 1.3791 16.5772 0.932487 15.6678 0.782109C14.7584 0.631731 13.8248 0.786015 13.0121 1.22098C12.1994 1.65594 11.5532 2.34721 11.1739 3.18732C10.7947 4.02743 10.7036 4.9693 10.9148 5.86652C9.25192 5.78318 7.62515 5.35105 6.1401 4.59819C4.65506 3.84533 3.34494 2.78857 2.29482 1.49652C1.92311 2.13497 1.72777 2.86075 1.72882 3.59952C1.72882 5.04952 2.46682 6.33052 3.58882 7.08052C2.92483 7.05962 2.27545 6.88031 1.69482 6.55752V6.60952C1.69502 7.57522 2.02919 8.51114 2.64066 9.25858C3.25214 10.006 4.1033 10.519 5.04982 10.7105C4.43343 10.8776 3.78712 10.9022 3.15982 10.7825C3.42668 11.6138 3.94682 12.3407 4.64741 12.8616C5.34799 13.3825 6.19394 13.6713 7.06682 13.6875C6.1993 14.3688 5.20599 14.8725 4.1437 15.1697C3.0814 15.4669 1.97094 15.5518 0.875816 15.4195C2.78751 16.649 5.01291 17.3016 7.28582 17.2995C14.9788 17.2995 19.1858 10.9265 19.1858 5.39952C19.1858 5.21952 19.1808 5.03752 19.1728 4.85952C19.9917 4.26769 20.6984 3.53454 21.2598 2.69452L21.2588 2.69352Z" fill="#8D96B2"/>
</svg>
