<svg width="24" height="26" viewBox="0 0 24 26" fill="none" xmlns="http://www.w3.org/2000/svg">
<path d="M11.1184 14.6018C10.8938 14.6018 10.6743 14.6684 10.4876 14.7931C10.3009 14.9179 10.1554 15.0952 10.0695 15.3027C9.98353 15.5101 9.96105 15.7384 10.0049 15.9586C10.0487 16.1789 10.1568 16.3812 10.3156 16.54C10.4744 16.6987 10.6767 16.8069 10.8969 16.8507C11.1171 16.8945 11.3454 16.872 11.5529 16.7861C11.7603 16.7001 11.9376 16.5546 12.0624 16.3679C12.1872 16.1812 12.2537 15.9617 12.2537 15.7371C12.2537 15.436 12.1341 15.1472 11.9212 14.9343C11.7083 14.7214 11.4195 14.6018 11.1184 14.6018ZM6.57698 14.6018C6.35242 14.6018 6.13292 14.6684 5.94621 14.7931C5.7595 14.9179 5.61398 15.0952 5.52805 15.3027C5.44211 15.5101 5.41963 15.7384 5.46344 15.9586C5.50725 16.1789 5.61538 16.3812 5.77416 16.54C5.93294 16.6987 6.13524 16.8069 6.35548 16.8507C6.57572 16.8945 6.804 16.872 7.01146 16.7861C7.21892 16.7001 7.39623 16.5546 7.52099 16.3679C7.64574 16.1812 7.71233 15.9617 7.71233 15.7371C7.71233 15.436 7.59271 15.1472 7.37979 14.9343C7.16687 14.7214 6.87809 14.6018 6.57698 14.6018ZM23.6073 4.3836C23.6073 3.48026 23.2484 2.61391 22.6097 1.97515C21.9709 1.33639 21.1046 0.977539 20.2012 0.977539H4.30627C3.40293 0.977539 2.53658 1.33639 1.89782 1.97515C1.25906 2.61391 0.900208 3.48026 0.900208 4.3836V8.92502C0.905215 9.76524 1.22062 10.574 1.78578 11.1957C1.22062 11.8175 0.905215 12.6262 0.900208 13.4664V18.0078C0.900208 18.9112 1.25906 19.7775 1.89782 20.4163C2.53658 21.0551 3.40293 21.4139 4.30627 21.4139H11.1184V23.6846H2.03556C1.73445 23.6846 1.44567 23.8042 1.23274 24.0172C1.01982 24.2301 0.900208 24.5189 0.900208 24.82C0.900208 25.1211 1.01982 25.4099 1.23274 25.6228C1.44567 25.8357 1.73445 25.9553 2.03556 25.9553H22.4719C22.773 25.9553 23.0618 25.8357 23.2747 25.6228C23.4877 25.4099 23.6073 25.1211 23.6073 24.82C23.6073 24.5189 23.4877 24.2301 23.2747 24.0172C23.0618 23.8042 22.773 23.6846 22.4719 23.6846H13.3891V21.4139H20.2012C21.1046 21.4139 21.9709 21.0551 22.6097 20.4163C23.2484 19.7775 23.6073 18.9112 23.6073 18.0078V13.4664C23.6023 12.6262 23.2869 11.8175 22.7217 11.1957C23.2869 10.574 23.6023 9.76524 23.6073 8.92502V4.3836ZM21.3366 18.0078C21.3366 18.309 21.217 18.5977 21.004 18.8107C20.7911 19.0236 20.5023 19.1432 20.2012 19.1432H4.30627C4.00515 19.1432 3.71637 19.0236 3.50345 18.8107C3.29053 18.5977 3.17092 18.309 3.17092 18.0078V13.4664C3.17092 13.1653 3.29053 12.8765 3.50345 12.6636C3.71637 12.4507 4.00515 12.3311 4.30627 12.3311H20.2012C20.5023 12.3311 20.7911 12.4507 21.004 12.6636C21.217 12.8765 21.3366 13.1653 21.3366 13.4664V18.0078ZM21.3366 8.92502C21.3366 9.22613 21.217 9.51491 21.004 9.72783C20.7911 9.94075 20.5023 10.0604 20.2012 10.0604H4.30627C4.00515 10.0604 3.71637 9.94075 3.50345 9.72783C3.29053 9.51491 3.17092 9.22613 3.17092 8.92502V4.3836C3.17092 4.08249 3.29053 3.7937 3.50345 3.58078C3.71637 3.36786 4.00515 3.24825 4.30627 3.24825H20.2012C20.5023 3.24825 20.7911 3.36786 21.004 3.58078C21.217 3.7937 21.3366 4.08249 21.3366 4.3836V8.92502ZM11.1184 5.51895C10.8938 5.51895 10.6743 5.58554 10.4876 5.7103C10.3009 5.83505 10.1554 6.01237 10.0695 6.21983C9.98353 6.42729 9.96105 6.65557 10.0049 6.8758C10.0487 7.09604 10.1568 7.29834 10.3156 7.45712C10.4744 7.61591 10.6767 7.72404 10.8969 7.76785C11.1171 7.81165 11.3454 7.78917 11.5529 7.70324C11.7603 7.61731 11.9376 7.47178 12.0624 7.28508C12.1872 7.09837 12.2537 6.87886 12.2537 6.65431C12.2537 6.35319 12.1341 6.06441 11.9212 5.85149C11.7083 5.63857 11.4195 5.51895 11.1184 5.51895ZM6.57698 5.51895C6.35242 5.51895 6.13292 5.58554 5.94621 5.7103C5.7595 5.83505 5.61398 6.01237 5.52805 6.21983C5.44211 6.42729 5.41963 6.65557 5.46344 6.8758C5.50725 7.09604 5.61538 7.29834 5.77416 7.45712C5.93294 7.61591 6.13524 7.72404 6.35548 7.76785C6.57572 7.81165 6.804 7.78917 7.01146 7.70324C7.21892 7.61731 7.39623 7.47178 7.52099 7.28508C7.64574 7.09837 7.71233 6.87886 7.71233 6.65431C7.71233 6.35319 7.59271 6.06441 7.37979 5.85149C7.16687 5.63857 6.87809 5.51895 6.57698 5.51895Z"/>
</svg>
