<svg width="25" height="26" viewBox="0 0 25 26" fill="none" xmlns="http://www.w3.org/2000/svg">
<path d="M9.48491 22.842V19.3236C9.48489 18.4287 10.2145 17.7016 11.1184 17.6956H14.4295C15.3377 17.6956 16.074 18.4245 16.074 19.3236V19.3236V22.8529C16.0738 23.6127 16.6864 24.2337 17.4536 24.2515H19.6611C21.8616 24.2515 23.6454 22.4855 23.6454 20.307V20.307V10.2983C23.6337 9.44124 23.2272 8.63646 22.5417 8.11294L14.9924 2.09238C13.6698 1.04408 11.7898 1.04408 10.4672 2.09238L2.95099 8.12387C2.2629 8.64526 1.85576 9.45138 1.84729 10.3092V20.307C1.84729 22.4855 3.63115 24.2515 5.83166 24.2515H8.03906C8.82539 24.2515 9.46284 23.6205 9.46284 22.842V22.842" stroke="white" stroke-width="2.5" stroke-linecap="round" stroke-linejoin="round"/>
</svg>
