<svg width="33" height="26" viewBox="0 0 33 26" fill="none" xmlns="http://www.w3.org/2000/svg">
<path fill-rule="evenodd" clip-rule="evenodd" d="M16.6014 13.5672C14.1913 13.5672 11.874 14.4961 10.1312 16.1608C9.53213 16.733 8.58263 16.7112 8.01042 16.1122C7.43822 15.5131 7.45998 14.5636 8.05903 13.9914C10.36 11.7936 13.4194 10.5672 16.6014 10.5672C19.7833 10.5672 22.8428 11.7936 25.1437 13.9914C25.7427 14.5636 25.7645 15.5131 25.1923 16.1122C24.6201 16.7112 23.6706 16.733 23.0715 16.1608C21.3288 14.4961 19.0114 13.5672 16.6014 13.5672Z" fill="#8D96B2"/>
<path fill-rule="evenodd" clip-rule="evenodd" d="M16.6014 3.29395C11.4727 3.29395 6.54764 5.30054 2.87926 8.88465C2.2867 9.46358 1.33702 9.45255 0.758081 8.86C0.179141 8.26744 0.190177 7.31776 0.78273 6.73882C5.01159 2.60712 10.6892 0.293945 16.6014 0.293945C22.5136 0.293945 28.1911 2.60712 32.42 6.73882C33.0125 7.31776 33.0236 8.26744 32.4446 8.86C31.8657 9.45255 30.916 9.46358 30.3235 8.88465C26.6551 5.30054 21.73 3.29395 16.6014 3.29395Z" fill="#8D96B2"/>
<path d="M16.603 25.764C18.4942 25.764 20.0274 24.2309 20.0274 22.3396C20.0274 20.4484 18.4942 18.9153 16.603 18.9153C14.7118 18.9153 13.1787 20.4484 13.1787 22.3396C13.1787 24.2309 14.7118 25.764 16.603 25.764Z" fill="#8D96B2"/>
</svg>
