<svg width="26" height="27" viewBox="0 0 26 27" fill="none" xmlns="http://www.w3.org/2000/svg">
<path d="M12.9628 15.0494C13.723 15.0494 14.4661 14.8239 15.0982 14.4016C15.7303 13.9793 16.2229 13.379 16.5138 12.6767C16.8047 11.9743 16.8808 11.2015 16.7325 10.4559C16.5842 9.71036 16.2182 9.0255 15.6806 8.48796C15.1431 7.95043 14.4582 7.58436 13.7126 7.43605C12.9671 7.28775 12.1942 7.36386 11.4919 7.65478C10.7896 7.94569 10.1893 8.43833 9.76698 9.07041C9.34464 9.70248 9.11922 10.4456 9.11922 11.2058C9.11922 12.2252 9.52416 13.2028 10.245 13.9236C10.9658 14.6444 11.9434 15.0494 12.9628 15.0494ZM12.9628 9.92459C13.2162 9.92459 13.4639 9.99973 13.6746 10.1405C13.8853 10.2813 14.0495 10.4814 14.1465 10.7155C14.2434 10.9496 14.2688 11.2072 14.2194 11.4557C14.1699 11.7043 14.0479 11.9325 13.8687 12.1117C13.6896 12.2909 13.4613 12.4129 13.2127 12.4624C12.9642 12.5118 12.7066 12.4864 12.4725 12.3895C12.2384 12.2925 12.0383 12.1283 11.8975 11.9176C11.7567 11.7069 11.6816 11.4592 11.6816 11.2058C11.6816 10.866 11.8166 10.5401 12.0569 10.2998C12.2971 10.0596 12.623 9.92459 12.9628 9.92459ZM25.2495 21.6603C24.6238 19.5855 23.4821 17.7032 21.9312 16.1896C22.7945 14.6292 23.2358 12.8706 23.2114 11.0874C23.187 9.30423 22.6978 7.55829 21.7921 6.02208C20.8864 4.48586 19.5955 3.21255 18.0471 2.32793C16.4986 1.44332 14.7461 0.978027 12.9628 0.978027C11.1795 0.978027 9.427 1.44332 7.87855 2.32793C6.33009 3.21255 5.03923 4.48586 4.13352 6.02208C3.22781 7.55829 2.73859 9.30423 2.7142 11.0874C2.68981 12.8706 3.13108 14.6292 3.99443 16.1896C2.43434 17.6982 1.2874 19.5818 0.663327 21.6603C0.496553 22.2303 0.464133 22.8312 0.56861 23.4158C0.673087 24.0005 0.911619 24.5529 1.26549 25.0299C1.62603 25.5148 2.09583 25.9079 2.63677 26.1773C3.1777 26.4466 3.77452 26.5847 4.37879 26.5801H21.5468C22.1489 26.5826 22.7432 26.4437 23.2817 26.1744C23.8203 25.9051 24.288 25.5131 24.6473 25.0299C25.0012 24.5529 25.2397 24.0005 25.3442 23.4158C25.4487 22.8312 25.4162 22.2303 25.2495 21.6603ZM12.9628 3.51862C14.4832 3.51862 15.9694 3.96946 17.2336 4.81414C18.4977 5.65881 19.483 6.85939 20.0648 8.26403C20.6466 9.66868 20.7989 11.2143 20.5023 12.7055C20.2057 14.1966 19.4735 15.5664 18.3985 16.6414C17.3234 17.7165 15.9537 18.4486 14.4625 18.7452C12.9713 19.0419 11.4257 18.8896 10.021 18.3078C8.6164 17.726 7.41583 16.7407 6.57115 15.4766C5.72647 14.2124 5.27563 12.7262 5.27563 11.2058C5.27563 9.16702 6.08553 7.21176 7.52715 5.77014C8.96877 4.32851 10.924 3.51862 12.9628 3.51862ZM22.5974 23.4924C22.4769 23.6574 22.3186 23.7912 22.1358 23.8826C21.9531 23.974 21.7511 24.0203 21.5468 24.0177H4.37879C4.17448 24.0203 3.97252 23.974 3.78976 23.8826C3.607 23.7912 3.44875 23.6574 3.32821 23.4924C3.21301 23.3338 3.13578 23.1507 3.10246 22.9575C3.06914 22.7642 3.08063 22.5659 3.13603 22.3778C3.59593 20.8292 4.42212 19.4141 5.54468 18.2524C6.50186 19.2563 7.65285 20.0554 8.92795 20.6015C10.203 21.1475 11.5757 21.4291 12.9628 21.4291C14.3499 21.4291 15.7226 21.1475 16.9977 20.6015C18.2727 20.0554 19.4237 19.2563 20.3809 18.2524C21.5035 19.4141 22.3297 20.8292 22.7896 22.3778C22.845 22.5659 22.8565 22.7642 22.8231 22.9575C22.7898 23.1507 22.7126 23.3338 22.5974 23.4924Z" fill="#8D96B2"/>
</svg>
