<svg width="24" height="27" viewBox="0 0 24 27" fill="none" xmlns="http://www.w3.org/2000/svg">
<path d="M19.4971 6.10266H14.9025L17.8461 3.17181C17.9655 3.05248 18.0601 2.91081 18.1247 2.7549C18.1893 2.59898 18.2225 2.43187 18.2225 2.26311C18.2225 2.09435 18.1893 1.92725 18.1247 1.77133C18.0601 1.61542 17.9655 1.47375 17.8461 1.35442C17.7268 1.23509 17.5851 1.14043 17.4292 1.07585C17.2733 1.01127 17.1062 0.978027 16.9374 0.978027C16.5966 0.978027 16.2697 1.11342 16.0287 1.35442L11.818 5.51393L10.3206 2.95423C10.2366 2.80801 10.1246 2.67977 9.99096 2.57684C9.85736 2.4739 9.7048 2.39829 9.54198 2.35432C9.37916 2.31035 9.20928 2.29888 9.04203 2.32056C8.87477 2.34224 8.71343 2.39665 8.56721 2.48069C8.42099 2.56472 8.29275 2.67674 8.18981 2.81034C8.08688 2.94393 8.01127 3.09649 7.9673 3.25931C7.92332 3.42213 7.91185 3.59201 7.93353 3.75927C7.95521 3.92652 8.00963 4.08786 8.09366 4.23408L9.25833 6.10266H4.13893C3.12062 6.10266 2.14401 6.50719 1.42396 7.22724C0.7039 7.9473 0.299377 8.9239 0.299377 9.94221V20.181C0.299377 21.1993 0.7039 22.1759 1.42396 22.896C2.14401 23.616 3.12062 24.0206 4.13893 24.0206V25.3004C4.13893 25.6399 4.27377 25.9654 4.51379 26.2054C4.75381 26.4454 5.07934 26.5803 5.41878 26.5803C5.75821 26.5803 6.08375 26.4454 6.32377 26.2054C6.56379 25.9654 6.69863 25.6399 6.69863 25.3004V24.0206H16.9374V25.3004C16.9374 25.6399 17.0723 25.9654 17.3123 26.2054C17.5523 26.4454 17.8778 26.5803 18.2173 26.5803C18.5567 26.5803 18.8822 26.4454 19.1223 26.2054C19.3623 25.9654 19.4971 25.6399 19.4971 25.3004V24.0206C20.5154 24.0206 21.492 23.616 22.2121 22.896C22.9322 22.1759 23.3367 21.1993 23.3367 20.181V9.94221C23.3367 8.9239 22.9322 7.9473 22.2121 7.22724C21.492 6.50719 20.5154 6.10266 19.4971 6.10266ZM20.777 20.181C20.777 20.5205 20.6421 20.846 20.4021 21.086C20.1621 21.326 19.8366 21.4609 19.4971 21.4609H4.13893C3.79949 21.4609 3.47396 21.326 3.23394 21.086C2.99392 20.846 2.85908 20.5205 2.85908 20.181V9.94221C2.85908 9.60278 2.99392 9.27724 3.23394 9.03722C3.47396 8.79721 3.79949 8.66236 4.13893 8.66236H19.4971C19.8366 8.66236 20.1621 8.79721 20.4021 9.03722C20.6421 9.27724 20.777 9.60278 20.777 9.94221V20.181Z" fill="#8D96B2"/>
</svg>
