<svg width="21" height="21" viewBox="0 0 21 21" fill="none" xmlns="http://www.w3.org/2000/svg">
<path fill-rule="evenodd" clip-rule="evenodd" d="M1.09485 1.16711C2.012 0.24996 3.499 0.24996 4.41615 1.16711L19.4588 16.2097C20.3759 17.1269 20.3759 18.6139 19.4588 19.531C18.5416 20.4482 17.0546 20.4482 16.1375 19.531L1.09485 4.48842C0.177694 3.57126 0.177694 2.08427 1.09485 1.16711Z" fill="white"/>
<path fill-rule="evenodd" clip-rule="evenodd" d="M19.4603 1.16711C20.3775 2.08427 20.3775 3.57126 19.4603 4.48842L4.41773 19.531C3.50058 20.4482 2.01358 20.4482 1.09642 19.531C0.179271 18.6139 0.179271 17.1269 1.09642 16.2097L16.139 1.16711C17.0562 0.24996 18.5432 0.24996 19.4603 1.16711Z" fill="white"/>
</svg>
