<svg width="45" height="46" viewBox="0 0 45 46" fill="none" xmlns="http://www.w3.org/2000/svg">
<g filter="url(#filter0_b)">
<circle cx="22.4995" cy="22.6731" r="22.5" fill="white" fill-opacity="0.25"/>
</g>
<path d="M30.4599 27.9907H24.9935C24.8614 27.6197 24.6485 27.2828 24.37 27.0043C24.0916 26.7259 23.7546 26.5129 23.3837 26.3808V23.568H29.5754C29.81 23.568 30.035 23.4748 30.2009 23.3089C30.3667 23.143 30.4599 22.9181 30.4599 22.6835C30.4599 22.4489 30.3667 22.2239 30.2009 22.058C30.035 21.8921 29.81 21.7989 29.5754 21.7989H28.6909V16.4917C28.6909 15.788 28.4113 15.113 27.9136 14.6154C27.416 14.1177 26.741 13.8381 26.0373 13.8381H18.961C18.2572 13.8381 17.5823 14.1177 17.0846 14.6154C16.587 15.113 16.3074 15.788 16.3074 16.4917V21.7989H15.4229C15.1883 21.7989 14.9633 21.8921 14.7974 22.058C14.6315 22.2239 14.5383 22.4489 14.5383 22.6835C14.5383 22.9181 14.6315 23.143 14.7974 23.3089C14.9633 23.4748 15.1883 23.568 15.4229 23.568H21.6146V26.3808C21.2436 26.5129 20.9067 26.7259 20.6283 27.0043C20.3498 27.2828 20.1368 27.6197 20.0048 27.9907H14.5383C14.3037 27.9907 14.0788 28.0838 13.9129 28.2497C13.747 28.4156 13.6538 28.6406 13.6538 28.8752C13.6538 29.1098 13.747 29.3348 13.9129 29.5006C14.0788 29.6665 14.3037 29.7597 14.5383 29.7597H20.0048C20.1907 30.272 20.5298 30.7146 20.9761 31.0274C21.4224 31.3402 21.9542 31.508 22.4991 31.508C23.0441 31.508 23.5759 31.3402 24.0222 31.0274C24.4684 30.7146 24.8076 30.272 24.9935 29.7597H30.4599C30.6945 29.7597 30.9195 29.6665 31.0854 29.5006C31.2513 29.3348 31.3445 29.1098 31.3445 28.8752C31.3445 28.6406 31.2513 28.4156 31.0854 28.2497C30.9195 28.0838 30.6945 27.9907 30.4599 27.9907ZM18.0765 21.7989V16.4917C18.0765 16.2571 18.1697 16.0322 18.3355 15.8663C18.5014 15.7004 18.7264 15.6072 18.961 15.6072H26.0373C26.2719 15.6072 26.4968 15.7004 26.6627 15.8663C26.8286 16.0322 26.9218 16.2571 26.9218 16.4917V21.7989H18.0765ZM22.4991 29.7597C22.3242 29.7597 22.1532 29.7078 22.0077 29.6107C21.8623 29.5135 21.7489 29.3753 21.6819 29.2137C21.615 29.0521 21.5975 28.8742 21.6316 28.7026C21.6657 28.531 21.75 28.3734 21.8737 28.2497C21.9974 28.126 22.155 28.0418 22.3266 28.0077C22.4982 27.9735 22.676 27.991 22.8376 28.058C22.9993 28.1249 23.1374 28.2383 23.2346 28.3838C23.3318 28.5292 23.3837 28.7002 23.3837 28.8752C23.3837 29.1098 23.2905 29.3348 23.1246 29.5006C22.9587 29.6665 22.7337 29.7597 22.4991 29.7597Z" fill="white"/>
<defs>
<filter id="filter0_b" x="-5.00049" y="-4.8269" width="55" height="55" filterUnits="userSpaceOnUse" color-interpolation-filters="sRGB">
<feFlood flood-opacity="0" result="BackgroundImageFix"/>
<feGaussianBlur in="BackgroundImage" stdDeviation="2.5"/>
<feComposite in2="SourceAlpha" operator="in" result="effect1_backgroundBlur"/>
<feBlend mode="normal" in="SourceGraphic" in2="effect1_backgroundBlur" result="shape"/>
</filter>
</defs>
</svg>
