<svg width="46" height="46" viewBox="0 0 46 46" fill="none" xmlns="http://www.w3.org/2000/svg">
<g filter="url(#filter0_b)">
<circle cx="23.1948" cy="22.7014" r="22.5" fill="white" fill-opacity="0.25"/>
</g>
<path fill-rule="evenodd" clip-rule="evenodd" d="M16.7751 16.8354C16.7343 16.8807 16.6936 16.9202 16.6747 16.9386C16.6723 16.9408 16.6703 16.9428 16.6687 16.9444L16.6667 16.9463C16.6307 16.9815 16.5987 17.0128 16.5636 17.0497C16.4944 17.1226 16.4191 17.2118 16.3497 17.3242C16.2179 17.5377 16.0785 17.8801 16.1118 18.425C16.1815 19.5661 17.0195 21.7049 20.6081 25.2925C24.1963 28.8797 26.3347 29.7164 27.4752 29.7855C28.0199 29.8185 28.3621 29.6789 28.5754 29.547C28.6879 29.4775 28.777 29.4022 28.8499 29.3329C28.8868 29.2978 28.9179 29.2659 28.9531 29.2299L28.9553 29.2276C28.9569 29.226 28.9589 29.224 28.9611 29.2216C28.9795 29.2027 29.0191 29.1619 29.0645 29.121C29.6828 28.5008 30.0132 28.071 30.1719 27.7607C30.3136 27.4834 30.2901 27.3623 30.2632 27.281C30.2157 27.1373 30.0801 26.9312 29.7336 26.5759C29.5681 26.4062 29.3766 26.2237 29.151 26.0091L29.1375 25.9963C28.9189 25.7883 28.674 25.5554 28.4149 25.2964L29.0155 24.6957L28.4151 25.2965C28.415 25.2965 28.415 25.2965 28.4149 25.2964C28.008 24.8898 27.777 24.8657 27.6414 24.8693C27.5416 24.8719 27.4211 24.8951 27.2477 24.9486C27.1613 24.9753 27.0712 25.0064 26.9657 25.0433C26.9553 25.0469 26.9447 25.0506 26.934 25.0544C26.8403 25.0872 26.7345 25.1243 26.6264 25.1593C26.1274 25.321 25.4758 25.4752 24.6801 25.2803C23.9027 25.0898 23.099 24.5945 22.2026 23.6982C21.3061 22.802 20.8105 21.9985 20.6197 21.2211C20.4244 20.4255 20.5781 19.7738 20.7393 19.2747C20.7742 19.1665 20.8112 19.0608 20.8439 18.9672C20.8477 18.9563 20.8514 18.9457 20.8551 18.9352C20.8919 18.8297 20.9229 18.7395 20.9495 18.653C21.0029 18.4796 21.0259 18.359 21.0285 18.2591C21.0319 18.1232 21.0075 17.8919 20.6004 17.4849C20.3377 17.2224 20.1021 16.9743 19.892 16.7532L19.8873 16.7483C19.6727 16.5224 19.4903 16.3306 19.3206 16.1647C18.9653 15.8173 18.7598 15.6816 18.6166 15.6339C18.5364 15.6073 18.4161 15.5833 18.1385 15.7253C17.8278 15.8842 17.3971 16.2154 16.7751 16.8354ZM21.1205 15.5766C21.3331 15.8004 21.5561 16.035 21.803 16.2819C22.4572 16.9359 22.747 17.5952 22.729 18.3025C22.7208 18.6242 22.6492 18.9133 22.5754 19.1532C22.5384 19.2734 22.4977 19.3907 22.4611 19.4956C22.4574 19.5062 22.4538 19.5166 22.4502 19.5269C22.4166 19.6232 22.3864 19.7096 22.358 19.7975C22.2378 20.1698 22.1857 20.4653 22.2717 20.8156C22.3622 21.1841 22.6349 21.7251 23.4053 22.4952C24.1756 23.2654 24.7165 23.5378 25.0849 23.6281C25.4349 23.7138 25.73 23.6616 26.1021 23.5411C26.19 23.5126 26.2764 23.4823 26.3727 23.4486C26.3829 23.445 26.3933 23.4414 26.4038 23.4377C26.5086 23.401 26.6259 23.3603 26.746 23.3232C26.9858 23.2492 27.2748 23.1773 27.5965 23.1688C28.3038 23.1502 28.9632 23.4395 29.6175 24.0933L29.6176 24.0934C29.8616 24.3373 30.0934 24.5578 30.3146 24.7682L30.3234 24.7766C30.5436 24.9861 30.7595 25.1914 30.9514 25.3883C31.32 25.7662 31.7 26.2082 31.8782 26.7466C32.077 27.3475 31.9893 27.9427 31.6864 28.5351C31.402 29.0913 30.9126 29.6787 30.2474 30.3438C30.2329 30.3583 30.2179 30.3722 30.2024 30.3856C30.1979 30.3901 30.1885 30.3996 30.1725 30.4159L30.1665 30.422C30.133 30.4564 30.0824 30.5082 30.0221 30.5656C29.8917 30.6896 29.7097 30.8458 29.4697 30.9941C28.9783 31.2978 28.2906 31.539 27.3724 31.4834C25.5873 31.3754 23.0685 30.1575 19.4055 26.4955C15.742 22.833 14.523 20.3141 14.4139 18.5288C14.3578 17.6105 14.5986 16.9226 14.9021 16.4309C15.0502 16.1908 15.2063 16.0087 15.3303 15.8781C15.3878 15.8176 15.4397 15.7669 15.4742 15.7333C15.4762 15.7313 15.4781 15.7294 15.48 15.7276C15.4965 15.7114 15.506 15.7019 15.5105 15.6974C15.5239 15.6819 15.5379 15.6669 15.5524 15.6525C16.2191 14.9857 16.8074 14.4955 17.3638 14.2109C17.9567 13.9076 18.5523 13.8199 19.1534 14.0198C19.6915 14.1987 20.1328 14.5798 20.5098 14.9484C20.7047 15.139 20.9082 15.3531 21.1157 15.5715L21.1205 15.5766Z" fill="white"/>
<defs>
<filter id="filter0_b" x="-4.30518" y="-4.79858" width="55" height="55" filterUnits="userSpaceOnUse" color-interpolation-filters="sRGB">
<feFlood flood-opacity="0" result="BackgroundImageFix"/>
<feGaussianBlur in="BackgroundImage" stdDeviation="2.5"/>
<feComposite in2="SourceAlpha" operator="in" result="effect1_backgroundBlur"/>
<feBlend mode="normal" in="SourceGraphic" in2="effect1_backgroundBlur" result="shape"/>
</filter>
</defs>
</svg>
