<svg width="90" height="22" viewBox="0 0 90 22" fill="none" xmlns="http://www.w3.org/2000/svg">
<path d="M39.0523 11.6282C39.0523 7.67405 36.6858 5.27739 33.4862 5.27739C30.2746 5.27739 27.9142 7.67405 27.9142 11.6282C27.9142 15.5764 30.2746 17.9791 33.4862 17.9791C36.6858 17.9791 39.0523 15.5824 39.0523 11.6282ZM37.205 11.6282C37.205 14.6407 35.6112 16.2767 33.4862 16.2767C31.3552 16.2767 29.7675 14.6407 29.7675 11.6282C29.7675 8.61581 31.3552 6.9798 33.4862 6.9798C35.6112 6.9798 37.205 8.61581 37.205 11.6282ZM40.3276 20.4844H42.1145V17.8101H48.5801V20.4844H50.3429V16.2465H48.9182V8.53733H42.6156L42.3258 11.9965C42.1326 14.3328 41.8489 15.5522 41.0822 16.2465H40.3276V20.4844ZM43.014 16.2465C43.6298 15.3832 43.8592 13.9464 44.0403 11.9965L44.2335 10.0828H47.1554V16.2465H43.014ZM56.1036 17.9972C58.126 17.9972 59.5567 17.0011 59.9672 15.4919L58.2588 15.184C57.9328 16.0593 57.148 16.5061 56.1217 16.5061C54.5763 16.5061 53.5379 15.504 53.4896 13.717H60.0819V13.0771C60.0819 9.72661 58.0777 8.41659 55.9768 8.41659C53.393 8.41659 51.6906 10.3846 51.6906 13.2341C51.6906 16.1137 53.3689 17.9972 56.1036 17.9972ZM53.4957 12.3647C53.5681 11.0487 54.5219 9.90771 55.9889 9.90771C57.3895 9.90771 58.3071 10.9461 58.3131 12.3647H53.4957ZM65.9906 17.9972C68.182 17.9972 69.6007 16.6812 69.7999 14.8761H68.0432C67.8137 15.8782 67.035 16.4699 66.0027 16.4699C64.4753 16.4699 63.4913 15.1961 63.4913 13.1737C63.4913 11.1875 64.4934 9.9379 66.0027 9.9379C67.1497 9.9379 67.85 10.6623 68.0432 11.5316H69.7999C69.6067 9.6602 68.0794 8.41659 65.9725 8.41659C63.3585 8.41659 61.6682 10.3846 61.6682 13.216C61.6682 16.0111 63.2981 17.9972 65.9906 17.9972ZM75.6361 17.9972C77.8275 17.9972 79.2462 16.6812 79.4454 14.8761H77.6887C77.4593 15.8782 76.6805 16.4699 75.6482 16.4699C74.1208 16.4699 73.1368 15.1961 73.1368 13.1737C73.1368 11.1875 74.1389 9.9379 75.6482 9.9379C76.7952 9.9379 77.4955 10.6623 77.6887 11.5316H79.4454C79.2522 9.6602 77.7249 8.41659 75.618 8.41659C73.004 8.41659 71.3137 10.3846 71.3137 13.216C71.3137 16.0111 72.9436 17.9972 75.6361 17.9972ZM84.0742 18.0153C85.6076 18.0153 86.4709 17.2366 86.815 16.5423H86.8874V17.8101H88.6502V11.6524C88.6502 8.95388 86.5252 8.41659 85.0522 8.41659C83.3739 8.41659 81.8285 9.09273 81.2248 10.7831L82.9212 11.1694C83.1868 10.5114 83.8629 9.87753 85.0764 9.87753C86.2415 9.87753 86.8391 10.4873 86.8391 11.5377V11.5799C86.8391 12.238 86.163 12.2259 84.4968 12.4191C82.7401 12.6243 80.9411 13.0831 80.9411 15.19C80.9411 17.0132 82.3114 18.0153 84.0742 18.0153ZM84.4666 16.5665C83.4464 16.5665 82.7099 16.1076 82.7099 15.2142C82.7099 14.2483 83.5671 13.9042 84.6115 13.7653C85.1971 13.6868 86.5856 13.5299 86.8452 13.2703V14.4656C86.8452 15.5643 85.9698 16.5665 84.4666 16.5665Z" fill="#8D96B2"/>
<path fill-rule="evenodd" clip-rule="evenodd" d="M11.9443 9.81057C11.9443 8.42929 10.825 7.31006 9.44478 7.31006C8.06351 7.31006 6.94427 8.42929 6.94427 9.81057C6.94427 11.1908 8.06351 12.3101 9.44478 12.3101C10.825 12.3101 11.9443 11.1908 11.9443 9.81057Z" stroke="#8D96B2" stroke-width="2" stroke-linecap="round" stroke-linejoin="round"/>
<path fill-rule="evenodd" clip-rule="evenodd" d="M9.44379 20.3101C8.24531 20.3101 1.94427 15.2084 1.94427 9.87335C1.94427 5.69669 5.30138 2.31006 9.44379 2.31006C13.5862 2.31006 16.9443 5.69669 16.9443 9.87335C16.9443 15.2084 10.6423 20.3101 9.44379 20.3101Z" stroke="#8D96B2" stroke-width="2" stroke-linecap="round" stroke-linejoin="round"/>
</svg>
