<svg width="41" height="19" viewBox="0 0 41 19" fill="none" xmlns="http://www.w3.org/2000/svg">
<path d="M37.7362 3.1141C34.2517 -0.370391 28.5876 -0.370392 25.1031 3.1141L23.3488 4.86842C22.8703 5.34688 22.8703 6.1298 23.3488 6.60825C23.8272 7.08671 24.6101 7.08671 25.0886 6.60825L26.8429 4.85392C29.3657 2.33117 33.4736 2.33118 35.9963 4.85393C38.5191 7.37668 38.5191 11.4846 35.9963 14.0074C33.4736 16.5301 29.3657 16.5301 26.8429 14.0074L15.9497 3.1141C12.4652 -0.370392 6.80106 -0.370391 3.31657 3.1141C-0.167924 6.59859 -0.167923 12.2627 3.31657 15.7472C6.80106 19.2317 12.4652 19.2317 15.9497 15.7472L17.6846 14.0122C18.1631 13.5337 18.1631 12.7508 17.6846 12.2724C17.2062 11.7939 16.4233 11.7939 15.9448 12.2724L14.2098 14.0074C11.6871 16.5301 7.57914 16.5301 5.05639 14.0074C2.53364 11.4846 2.53364 7.37668 5.05639 4.85393C7.57915 2.33118 11.6871 2.33117 14.2098 4.85392L25.1031 15.7472C28.5876 19.2317 34.2517 19.2317 37.7362 15.7472C41.2207 12.2627 41.2207 6.59859 37.7362 3.1141Z" fill="url(#paint0_linear)"/>
<defs>
<linearGradient id="paint0_linear" x1="32.2895" y1="21.1938" x2="8.7632" y2="-2.33253" gradientUnits="userSpaceOnUse">
<stop stop-color="#836AFC"/>
<stop offset="1" stop-color="#349AFF"/>
</linearGradient>
</defs>
</svg>
