<svg width="48" height="48" viewBox="0 0 48 48" fill="none" xmlns="http://www.w3.org/2000/svg">
<path d="M41.0174 18.1142C37.5329 14.6297 31.8688 14.6297 28.3843 18.1142L26.63 19.8685C26.1516 20.347 26.1516 21.1299 26.63 21.6084C27.1085 22.0868 27.8914 22.0868 28.3698 21.6084L30.1242 19.854C32.6469 17.3313 36.7548 17.3313 39.2776 19.854C41.8003 22.3768 41.8003 26.4847 39.2776 29.0075C36.7548 31.5302 32.6469 31.5302 30.1242 29.0075L19.2309 18.1142C15.7464 14.6297 10.0823 14.6297 6.59782 18.1142C3.11333 21.5987 3.11333 27.2628 6.59782 30.7473C10.0823 34.2318 15.7464 34.2318 19.2309 30.7473L20.9659 29.0123C21.4443 28.5339 21.4443 27.7509 20.9659 27.2725C20.4874 26.794 19.7045 26.794 19.2261 27.2725L17.4911 29.0075C14.9683 31.5302 10.8604 31.5302 8.33764 29.0075C5.81489 26.4847 5.81489 22.3768 8.33764 19.854C10.8604 17.3313 14.9683 17.3313 17.4911 19.854L28.3843 30.7473C31.8688 34.2318 37.5329 34.2318 41.0174 30.7473C44.5019 27.2628 44.5019 21.5987 41.0174 18.1142Z" fill="url(#paint0_linear)"/>
<defs>
<linearGradient id="paint0_linear" x1="35.5708" y1="36.1939" x2="12.0444" y2="12.6676" gradientUnits="userSpaceOnUse">
<stop stop-color="#FF4BC8"/>
<stop offset="1" stop-color="#FF6A64"/>
</linearGradient>
</defs>
</svg>
