<svg width="21" height="19" viewBox="0 0 21 19" fill="none" xmlns="http://www.w3.org/2000/svg">
<path fill-rule="evenodd" clip-rule="evenodd" d="M8.46177 15.759H1.36171C0.895211 15.759 0.516602 15.3804 0.516602 14.9139C0.516602 14.4474 0.895211 14.0688 1.36171 14.0688H8.46177C8.92827 14.0688 9.30688 14.4474 9.30688 14.9139C9.30688 15.3804 8.92827 15.759 8.46177 15.759Z" fill="url(#paint0_linear)"/>
<path fill-rule="evenodd" clip-rule="evenodd" d="M18.7292 4.8375H11.6303C11.1638 4.8375 10.7852 4.45889 10.7852 3.99239C10.7852 3.52589 11.1638 3.14728 11.6303 3.14728H18.7292C19.1957 3.14728 19.5743 3.52589 19.5743 3.99239C19.5743 4.45889 19.1957 4.8375 18.7292 4.8375Z" fill="url(#paint1_linear)"/>
<mask id="mask0" mask-type="alpha" maskUnits="userSpaceOnUse" x="0" y="0" width="8" height="8">
<path fill-rule="evenodd" clip-rule="evenodd" d="M0.484375 0.442871H7.49969V7.41965H0.484375V0.442871Z" fill="white"/>
</mask>
<g mask="url(#mask0)">
<path fill-rule="evenodd" clip-rule="evenodd" d="M3.99206 2.13262C2.99032 2.13262 2.17451 2.93941 2.17451 3.93214C2.17451 4.92373 2.99032 5.72941 3.99206 5.72941C4.99492 5.72941 5.80961 4.92373 5.80961 3.93214C5.80961 2.93941 4.99492 2.13262 3.99206 2.13262ZM3.99215 7.41968C2.05853 7.41968 0.484375 5.85566 0.484375 3.93219C0.484375 2.00872 2.05853 0.442444 3.99215 0.442444C5.92689 0.442444 7.49992 2.00872 7.49992 3.93219C7.49992 5.85566 5.92689 7.41968 3.99215 7.41968Z" fill="url(#paint2_linear)"/>
</g>
<path fill-rule="evenodd" clip-rule="evenodd" d="M16.6976 13.0718C15.6947 13.0718 14.8789 13.8786 14.8789 14.8701C14.8789 15.8629 15.6947 16.6685 16.6976 16.6685C17.6993 16.6685 18.514 15.8629 18.514 14.8701C18.514 13.8786 17.6993 13.0718 16.6976 13.0718ZM16.6974 18.3587C14.7626 18.3587 13.1885 16.7936 13.1885 14.8701C13.1885 12.9466 14.7626 11.3815 16.6974 11.3815C18.631 11.3815 20.204 12.9466 20.204 14.8701C20.204 16.7936 18.631 18.3587 16.6974 18.3587Z" fill="url(#paint3_linear)"/>
<defs>
<linearGradient id="paint0_linear" x1="9.30688" y1="14.9139" x2="0.516601" y2="14.9139" gradientUnits="userSpaceOnUse">
<stop stop-color="#FF4BC8"/>
<stop offset="1" stop-color="#FF6A64"/>
</linearGradient>
<linearGradient id="paint1_linear" x1="19.5743" y1="3.99239" x2="10.7852" y2="3.99239" gradientUnits="userSpaceOnUse">
<stop stop-color="#FF4BC8"/>
<stop offset="1" stop-color="#FF6A64"/>
</linearGradient>
<linearGradient id="paint2_linear" x1="7.49992" y1="3.93106" x2="0.484375" y2="3.93106" gradientUnits="userSpaceOnUse">
<stop stop-color="#FF4BC8"/>
<stop offset="1" stop-color="#FF6A64"/>
</linearGradient>
<linearGradient id="paint3_linear" x1="20.204" y1="14.8701" x2="13.1885" y2="14.8701" gradientUnits="userSpaceOnUse">
<stop stop-color="#FF4BC8"/>
<stop offset="1" stop-color="#FF6A64"/>
</linearGradient>
</defs>
</svg>
