<svg width="19" height="19" viewBox="0 0 19 19" fill="none" xmlns="http://www.w3.org/2000/svg">
<path d="M9.18307 0.904419C4.26435 0.904419 0.28125 4.89643 0.28125 9.81516C0.28125 14.7339 4.26435 18.7259 9.18307 18.7259C14.1107 18.7259 18.1027 14.7339 18.1027 9.81516C18.1027 4.89643 14.1107 0.904419 9.18307 0.904419ZM15.3582 6.25086H12.7295C12.4444 5.13702 12.0345 4.06773 11.4999 3.07864C13.1394 3.64001 14.5028 4.78059 15.3582 6.25086ZM9.19199 2.72221C9.93158 3.7915 10.5108 4.97663 10.8939 6.25086H7.49004C7.8732 4.97663 8.45239 3.7915 9.19199 2.72221ZM2.29508 11.5973C2.1525 11.027 2.0634 10.43 2.0634 9.81516C2.0634 9.20031 2.1525 8.60329 2.29508 8.03301H5.3069C5.23562 8.62112 5.18215 9.20922 5.18215 9.81516C5.18215 10.4211 5.23562 11.0092 5.3069 11.5973H2.29508ZM3.02576 13.3794H5.65442C5.93957 14.4933 6.34946 15.5626 6.88411 16.5517C5.24453 15.9903 3.88119 14.8586 3.02576 13.3794ZM5.65442 6.25086H3.02576C3.88119 4.77168 5.24453 3.64001 6.88411 3.07864C6.34946 4.06773 5.93957 5.13702 5.65442 6.25086ZM9.19199 16.9081C8.45239 15.8388 7.8732 14.6537 7.49004 13.3794H10.8939C10.5108 14.6537 9.93158 15.8388 9.19199 16.9081ZM11.2771 11.5973H7.10687C7.02668 11.0092 6.9643 10.4211 6.9643 9.81516C6.9643 9.20922 7.02668 8.61221 7.10687 8.03301H11.2771C11.3573 8.61221 11.4197 9.20922 11.4197 9.81516C11.4197 10.4211 11.3573 11.0092 11.2771 11.5973ZM11.4999 16.5517C12.0345 15.5626 12.4444 14.4933 12.7295 13.3794H15.3582C14.5028 14.8497 13.1394 15.9903 11.4999 16.5517ZM13.0771 11.5973C13.1484 11.0092 13.2018 10.4211 13.2018 9.81516C13.2018 9.20922 13.1484 8.62112 13.0771 8.03301H16.0889C16.2315 8.60329 16.3206 9.20031 16.3206 9.81516C16.3206 10.43 16.2315 11.027 16.0889 11.5973H13.0771Z" fill="url(#paint0_linear)"/>
<defs>
<linearGradient id="paint0_linear" x1="18.1027" y1="9.81516" x2="0.28125" y2="9.81516" gradientUnits="userSpaceOnUse">
<stop stop-color="#FF4BC8"/>
<stop offset="1" stop-color="#FF6A64"/>
</linearGradient>
</defs>
</svg>
