<svg width="18" height="19" viewBox="0 0 18 19" fill="none" xmlns="http://www.w3.org/2000/svg">
<path d="M8.90182 0.904297C3.9831 0.904297 0 4.89631 0 9.81503C0 14.7338 3.9831 18.7258 8.90182 18.7258C13.8295 18.7258 17.8215 14.7338 17.8215 9.81503C17.8215 4.89631 13.8295 0.904297 8.90182 0.904297ZM15.077 6.25074H12.4483C12.1632 5.1369 11.7533 4.06761 11.2186 3.07852C12.8582 3.63989 14.2215 4.78047 15.077 6.25074ZM8.91074 2.72209C9.65033 3.79138 10.2295 4.9765 10.6127 6.25074H7.20879C7.59195 4.9765 8.17114 3.79138 8.91074 2.72209ZM2.01383 11.5972C1.87125 11.0269 1.78215 10.4299 1.78215 9.81503C1.78215 9.20019 1.87125 8.60317 2.01383 8.03289H5.02565C4.95437 8.62099 4.9009 9.2091 4.9009 9.81503C4.9009 10.421 4.95437 11.0091 5.02565 11.5972H2.01383ZM2.74451 13.3793H5.37317C5.65832 14.4932 6.06821 15.5625 6.60286 16.5515C4.96328 15.9902 3.59994 14.8585 2.74451 13.3793ZM5.37317 6.25074H2.74451C3.59994 4.77156 4.96328 3.63989 6.60286 3.07852C6.06821 4.06761 5.65832 5.1369 5.37317 6.25074ZM8.91074 16.908C8.17114 15.8387 7.59195 14.6536 7.20879 13.3793H10.6127C10.2295 14.6536 9.65033 15.8387 8.91074 16.908ZM10.9958 11.5972H6.82562C6.74543 11.0091 6.68305 10.421 6.68305 9.81503C6.68305 9.2091 6.74543 8.61208 6.82562 8.03289H10.9958C11.076 8.61208 11.1384 9.2091 11.1384 9.81503C11.1384 10.421 11.076 11.0091 10.9958 11.5972ZM11.2186 16.5515C11.7533 15.5625 12.1632 14.4932 12.4483 13.3793H15.077C14.2215 14.8496 12.8582 15.9902 11.2186 16.5515ZM12.7958 11.5972C12.8671 11.0091 12.9206 10.421 12.9206 9.81503C12.9206 9.2091 12.8671 8.62099 12.7958 8.03289H15.8076C15.9502 8.60317 16.0393 9.20019 16.0393 9.81503C16.0393 10.4299 15.9502 11.0269 15.8076 11.5972H12.7958Z" fill="url(#paint0_linear)"/>
<defs>
<linearGradient id="paint0_linear" x1="17.8215" y1="9.81503" x2="0" y2="9.81503" gradientUnits="userSpaceOnUse">
<stop stop-color="#836AFC"/>
<stop offset="1" stop-color="#349AFF"/>
</linearGradient>
</defs>
</svg>
