<svg width="130" height="16" viewBox="0 0 130 16" fill="none" xmlns="http://www.w3.org/2000/svg">
<path fill-rule="evenodd" clip-rule="evenodd" d="M18.2066 9.14449C18.2066 4.13287 14.1561 0 9.0621 0C3.9681 0 0 4.11914 0 9.14449C0 11.2452 0.727715 13.346 2.10076 14.9662L2.66371 15.6115L3.72095 14.5543L3.32277 13.9913C2.19687 12.6183 1.62019 10.9157 1.62019 9.13075C1.62019 4.92923 5.01162 1.52408 9.22687 1.52408C13.4284 1.52408 16.8335 4.9155 16.8335 9.13075C16.8335 10.9157 16.1882 12.6046 15.131 13.9913L14.7328 14.5543L15.79 15.6115L16.353 14.9662C17.4789 13.2774 18.2066 11.2452 18.2066 9.14449Z" fill="#8D96B2"/>
<path fill-rule="evenodd" clip-rule="evenodd" d="M123.615 3.96824H119.482V1.86748H130V3.96824H125.881V14.8153H123.615V3.96824Z" fill="#8D96B2"/>
<path fill-rule="evenodd" clip-rule="evenodd" d="M108.004 12.948L109.377 11.3278C110.585 12.385 111.89 13.0303 113.496 13.0303C114.869 13.0303 115.762 12.385 115.762 11.4102C115.762 10.5177 115.281 9.95472 112.851 9.47416C110.105 8.82882 108.567 8.01872 108.567 5.58843C108.567 3.40529 110.434 1.86748 113.015 1.86748C114.883 1.86748 116.407 2.43043 117.711 3.48767L116.503 5.19025C115.377 4.29777 114.155 3.89959 113.029 3.89959C111.739 3.89959 110.928 4.54492 110.928 5.4374C110.928 6.41226 111.491 6.89283 114.004 7.45578C116.75 8.10111 118.123 9.07597 118.123 11.2591C118.123 13.6894 116.187 15.1448 113.51 15.1448C111.395 14.9663 109.528 14.321 108.004 12.948Z" fill="#8D96B2"/>
<path fill-rule="evenodd" clip-rule="evenodd" d="M96.4291 1.86748H106.054V3.88586H98.6946V7.29101H105.162V9.30939H98.6946V12.7832H106.137V14.8153H96.4291V1.86748Z" fill="#8D96B2"/>
<path fill-rule="evenodd" clip-rule="evenodd" d="M87.6965 3.96824H83.5636V1.86748H94.0812V3.96824H89.962V14.8153H87.6965V3.96824Z" fill="#8D96B2"/>
<path fill-rule="evenodd" clip-rule="evenodd" d="M72.8813 3.96824V12.7832H75.4764C78.2224 12.7832 80.0074 10.9159 80.0074 8.41691C80.0074 5.90423 78.2224 4.05062 75.4764 4.05062H72.8813V3.96824ZM70.5471 1.86748H75.394C79.4445 1.86748 82.2729 4.69595 82.2729 8.33452C82.2729 11.9731 79.4445 14.8016 75.394 14.8016H70.5471V1.86748Z" fill="#8D96B2"/>
<path fill-rule="evenodd" clip-rule="evenodd" d="M58.5742 1.86748H68.1992V3.88586H60.8397V7.29101H67.3067V9.30939H60.8397V12.7832H68.2816V14.8153H58.5742V1.86748Z" fill="#8D96B2"/>
<path fill-rule="evenodd" clip-rule="evenodd" d="M46.5188 1.86748H56.1439V3.88586H48.7843V7.29101H55.2514V9.30939H48.7843V12.7832H56.2262V14.8153H46.5188V1.86748Z" fill="#8D96B2"/>
<path fill-rule="evenodd" clip-rule="evenodd" d="M39.4751 8.58167C41.1777 8.58167 42.3036 7.60681 42.3036 6.23377C42.3036 4.69595 41.2463 3.88586 39.4751 3.88586H36.8114V8.58167H39.4751ZM39.6399 1.86748C42.6331 1.86748 44.5691 3.57006 44.5691 6.15138C44.5691 9.06224 42.2212 10.6 39.3927 10.6H36.7976V14.7192H34.5321V1.86748H39.6399Z" fill="#8D96B2"/>
<path fill-rule="evenodd" clip-rule="evenodd" d="M22.5729 12.948L23.9459 11.3278C25.1542 12.385 26.4586 13.0303 28.0651 13.0303C29.4381 13.0303 30.3306 12.385 30.3306 11.4101C30.3306 10.5177 29.85 9.95472 27.4198 9.47415C24.6737 8.82882 23.1359 8.01872 23.1359 5.58843C23.1359 3.40529 24.9895 1.86748 27.5845 1.86748C29.4519 1.86748 30.9759 2.43043 32.2803 3.48767L30.9897 5.02549C29.8638 4.13301 28.6418 3.73482 27.5159 3.73482C26.2252 3.73482 25.4151 4.38015 25.4151 5.27263C25.4151 6.2475 25.9781 6.72806 28.4907 7.29101C31.2368 7.93634 32.6099 8.9112 32.6099 11.0943C32.6099 13.5246 30.6739 14.9801 27.9964 14.9801C26.0467 14.9663 24.1107 14.321 22.5729 12.948Z" fill="#8D96B2"/>
<path fill-rule="evenodd" clip-rule="evenodd" d="M12.3712 5.10859L7.27717 9.14535L9.06213 10.9303L13.0989 5.83631L12.3712 5.10859Z" fill="#8D96B2"/>
</svg>
