<svg width="162" height="160" viewBox="0 0 162 160" fill="none" xmlns="http://www.w3.org/2000/svg">
<path d="M81.0001 0.995605C43.7734 0.995605 13.6862 31.0829 13.6862 68.3095C13.6862 105.536 43.7734 135.623 81.0001 135.623C118.227 135.623 148.314 105.536 148.314 68.3095C148.314 31.0829 118.227 0.995605 81.0001 0.995605ZM143.979 68.3095C143.979 102.986 115.677 131.289 81.0001 131.289C46.3232 131.289 18.0208 102.986 18.0208 68.3095C18.0208 33.6327 46.3232 5.33021 81.0001 5.33021C115.677 5.33021 143.979 33.6327 143.979 68.3095Z" fill="#8D96B2"/>
<path d="M113.649 39.774C114.669 40.794 115.944 42.3238 116.709 43.3437L130.478 34.6745C129.713 33.9096 128.693 32.3797 127.928 31.3598L119.259 36.9693L118.749 37.4793L119.259 36.7143L123.084 29.065L120.279 26.2603L112.629 30.0849L111.865 30.5949L112.374 30.0849L117.984 21.4157C116.964 20.6508 115.944 19.8858 114.669 18.8659L106 32.3797C107.02 33.1446 108.55 34.4195 109.57 35.1845L117.729 30.8499L118.239 30.3399L117.984 31.6148L113.649 39.774Z" fill="#8D96B2"/>
<path d="M82.7971 22.4355L86.6218 14.0212L86.8768 13.2563V14.0212L87.3867 25.2402C88.6616 25.2402 89.9365 25.4952 91.4663 25.7502L90.9564 9.17667C89.1716 8.9217 87.1317 8.9217 85.3469 8.66672L81.7772 17.8459L81.5222 18.6108L81.2673 17.8459L77.6976 8.66672C75.9128 8.66672 73.8729 8.9217 72.0881 9.17667L71.5781 25.7502C72.853 25.4952 74.3829 25.2402 75.6578 25.2402L75.4028 14.0212V13.2563L75.6578 14.0212L79.4824 22.4355H82.7971Z" fill="#8D96B2"/>
<path d="M52.4551 35.6942C54.4949 33.3995 55.7698 30.8497 53.73 28.2999C52.4551 26.7701 50.6703 26.5151 48.8855 27.28H48.6305V27.025C49.1404 26.5151 49.1404 24.4753 47.6106 22.9454C46.5907 22.4354 45.5708 22.1805 44.5508 22.1805C42.511 22.4354 40.9812 23.7103 36.6466 28.5549C35.3717 30.0848 33.5868 32.1246 32.312 33.6544L44.0409 44.6184C47.8655 40.2838 49.3954 38.754 52.4551 35.6942ZM37.4115 32.8895C39.7063 30.0848 42.2561 27.535 43.276 26.5151C43.5309 26.2601 44.0409 25.7501 44.5508 25.7501C45.3158 25.4952 46.0807 26.0051 46.3357 26.7701C46.5907 27.535 46.0807 28.2999 45.5708 28.8099C44.0409 30.3397 39.7063 34.9293 39.7063 34.9293L37.4115 32.8895ZM42.0011 37.2241C42.0011 37.2241 46.3357 32.6345 47.8655 31.1047C48.3755 30.5947 48.8854 30.0848 49.1404 29.8298C49.6504 29.5748 50.1603 29.5748 50.6703 29.8298C51.1802 30.0848 51.4352 30.8497 51.1802 31.3596C51.1802 32.1246 50.6703 32.6345 50.1603 33.1445C49.6504 33.9094 44.2959 39.5189 44.2959 39.5189L42.0011 37.2241Z" fill="#8D96B2"/>
<path fill-rule="evenodd" clip-rule="evenodd" d="M121.019 67.3095C120.5 45.9249 103.384 28.809 81.9996 28.2902C81.6673 28.2822 81.3339 28.2781 80.9996 28.2781V68.3095H121.031C121.031 67.9752 121.027 67.6418 121.019 67.3095ZM120.019 67.3095C119.5 46.4773 102.832 29.8088 81.9996 29.2905V67.3095H120.019Z" fill="#8D96B2"/>
<path fill-rule="evenodd" clip-rule="evenodd" d="M80.9996 68.3095L40.9685 68.3097C40.9685 68.644 40.9725 68.9773 40.9806 69.3097C41.4994 90.6943 58.6152 107.81 79.9998 108.329C80.3322 108.337 80.6655 108.341 80.9998 108.341L80.9996 68.3095ZM79.9998 69.3097H41.9809C42.4992 90.1419 59.1676 106.81 79.9998 107.329V69.3097Z" fill="#8D96B2"/>
<path d="M80.9996 28.2781V68.3095L40.9685 68.3097C40.9685 46.1267 58.8166 28.2781 80.9996 28.2781Z" fill="#8D96B2"/>
<path d="M121.031 68.3095C121.031 90.4925 103.183 108.341 80.9998 108.341L80.9996 68.3095H121.031Z" fill="#8D96B2"/>
<path d="M0.827423 159.722H11.1484V157.06H4.05647V153.413H10.5891V150.751H4.05647V147.112H11.1186V144.45H0.827423V159.722Z" fill="#8D96B2"/>
<path d="M13.6262 159.722H16.803V152.847C16.803 151.579 17.6084 150.736 18.6674 150.736C19.7114 150.736 20.4124 151.452 20.4124 152.578V159.722H23.4923V152.727C23.4923 151.542 24.1709 150.736 25.3268 150.736C26.341 150.736 27.1017 151.37 27.1017 152.645V159.722H30.271V152.019C30.271 149.536 28.7945 148.119 26.6617 148.119C24.9838 148.119 23.6787 148.976 23.2089 150.289H23.0896C22.7242 148.961 21.5534 148.119 19.9799 148.119C18.4362 148.119 17.2654 148.939 16.7881 150.289H16.6539V148.268H13.6262V159.722Z" fill="#8D96B2"/>
<path d="M38.0006 159.946C40.8344 159.946 42.7435 158.566 43.191 156.441L40.2528 156.247C39.9321 157.12 39.1118 157.575 38.0528 157.575C36.4644 157.575 35.4577 156.523 35.4577 154.815V154.808H43.2581V153.935C43.2581 150.043 40.9016 148.119 37.8739 148.119C34.5031 148.119 32.3181 150.512 32.3181 154.047C32.3181 157.679 34.4733 159.946 38.0006 159.946ZM35.4577 152.839C35.5248 151.534 36.5166 150.49 37.9261 150.49C39.3057 150.49 40.2602 151.474 40.2677 152.839H35.4577Z" fill="#8D96B2"/>
<path d="M45.3312 159.722H48.5081V153.242C48.5081 151.832 49.5372 150.863 50.9392 150.863C51.3792 150.863 51.9832 150.938 52.2815 151.034V148.216C51.9981 148.148 51.6029 148.104 51.2822 148.104C49.9996 148.104 48.9481 148.849 48.5305 150.266H48.4111V148.268H45.3312V159.722Z" fill="#8D96B2"/>
<path d="M56.8622 159.939C58.555 159.939 59.6513 159.2 60.2106 158.134H60.3001V159.722H63.3129V151.996C63.3129 149.267 61.0011 148.119 58.4506 148.119C55.7063 148.119 53.9016 149.431 53.4617 151.519L56.3999 151.758C56.6161 150.997 57.2948 150.438 58.4357 150.438C59.5171 150.438 60.136 150.982 60.136 151.922V151.967C60.136 152.705 59.353 152.802 57.3619 152.996C55.0948 153.205 53.059 153.965 53.059 156.523C53.059 158.79 54.6772 159.939 56.8622 159.939ZM57.772 157.746C56.7951 157.746 56.0941 157.291 56.0941 156.419C56.0941 155.524 56.8324 155.084 57.951 154.927C58.6445 154.83 59.7781 154.666 60.1584 154.413V155.628C60.1584 156.829 59.1666 157.746 57.772 157.746Z" fill="#8D96B2"/>
<path d="M68.9544 144.45H65.7775V159.722H68.9544V144.45Z" fill="#8D96B2"/>
<path d="M75.7201 159.909C77.5695 159.909 78.5315 158.842 78.9715 157.888H79.1057V159.722H82.2378V144.45H79.0685V150.192H78.9715C78.5464 149.26 77.6292 148.119 75.7126 148.119C73.1995 148.119 71.0741 150.072 71.0741 154.01C71.0741 157.843 73.11 159.909 75.7201 159.909ZM76.7268 157.381C75.1682 157.381 74.3181 155.994 74.3181 153.995C74.3181 152.011 75.1533 150.647 76.7268 150.647C78.2705 150.647 79.1356 151.952 79.1356 153.995C79.1356 156.038 78.2556 157.381 76.7268 157.381Z" fill="#8D96B2"/>
<path d="M89.7698 144.45V159.722H92.9019V149.744H93.0287L96.9811 159.648H99.1139L103.066 149.782H103.193V159.722H106.325V144.45H102.343L98.137 154.711H97.958L93.7521 144.45H89.7698Z" fill="#8D96B2"/>
<path d="M114.101 159.946C117.577 159.946 119.739 157.567 119.739 154.04C119.739 150.49 117.577 148.119 114.101 148.119C110.626 148.119 108.464 150.49 108.464 154.04C108.464 157.567 110.626 159.946 114.101 159.946ZM114.116 157.485C112.513 157.485 111.693 156.016 111.693 154.017C111.693 152.019 112.513 150.542 114.116 150.542C115.69 150.542 116.51 152.019 116.51 154.017C116.51 156.016 115.69 157.485 114.116 157.485Z" fill="#8D96B2"/>
<path d="M127.898 148.268H125.742V145.523H122.566V148.268H120.999V150.654H122.566V156.62C122.551 158.865 124.079 159.976 126.384 159.879C127.204 159.849 127.786 159.685 128.106 159.581L127.607 157.217C127.45 157.246 127.115 157.321 126.816 157.321C126.182 157.321 125.742 157.082 125.742 156.202V150.654H127.898V148.268Z" fill="#8D96B2"/>
<path d="M135.019 159.946C138.495 159.946 140.657 157.567 140.657 154.04C140.657 150.49 138.495 148.119 135.019 148.119C131.544 148.119 129.382 150.49 129.382 154.04C129.382 157.567 131.544 159.946 135.019 159.946ZM135.034 157.485C133.431 157.485 132.611 156.016 132.611 154.017C132.611 152.019 133.431 150.542 135.034 150.542C136.608 150.542 137.428 152.019 137.428 154.017C137.428 156.016 136.608 157.485 135.034 157.485Z" fill="#8D96B2"/>
<path d="M142.723 159.722H145.9V153.242C145.9 151.832 146.929 150.863 148.331 150.863C148.771 150.863 149.375 150.938 149.673 151.034V148.216C149.39 148.148 148.995 148.104 148.674 148.104C147.391 148.104 146.34 148.849 145.922 150.266H145.803V148.268H142.723V159.722Z" fill="#8D96B2"/>
<path d="M160.846 151.534C160.563 149.424 158.862 148.119 155.969 148.119C153.038 148.119 151.107 149.476 151.114 151.683C151.107 153.398 152.188 154.51 154.425 154.957L156.409 155.352C157.408 155.554 157.863 155.919 157.878 156.493C157.863 157.172 157.125 157.657 156.014 157.657C154.88 157.657 154.127 157.172 153.933 156.24L150.809 156.404C151.107 158.596 152.971 159.946 156.006 159.946C158.974 159.946 161.1 158.432 161.107 156.173C161.1 154.517 160.018 153.525 157.796 153.07L155.723 152.653C154.657 152.422 154.261 152.056 154.269 151.504C154.261 150.818 155.037 150.371 156.021 150.371C157.125 150.371 157.781 150.975 157.938 151.713L160.846 151.534Z" fill="#8D96B2"/>
</svg>
