<svg width="180" height="66" viewBox="0 0 180 66" fill="none" xmlns="http://www.w3.org/2000/svg">
<path fill-rule="evenodd" clip-rule="evenodd" d="M113.258 6.72217C115.281 10.43 115.842 14.8121 116.067 19.3064H106.067C106.067 16.1604 106.18 12.7896 103.708 10.6548C102.696 9.86824 101.011 9.75588 99.8874 10.3177C97.8649 11.2166 97.1908 13.3514 97.0784 15.3739C97.1908 19.7559 100.449 23.0143 103.82 25.8233L110.674 32.0031C117.191 38.4076 120 48.5199 116.292 57.1716C113.932 62.5649 108.427 65.8233 102.472 65.7109C97.5279 65.8233 92.6964 63.9132 90.3368 59.3064C88.3144 55.3739 87.5279 50.9918 87.6402 46.2727L97.5279 46.3851C97.6402 49.7559 97.6402 53.3514 100.449 55.4862C101.91 56.3851 104.045 56.1604 105.393 55.1491C107.528 53.3514 107.977 50.3177 107.303 47.6211C106.629 45.1491 104.831 43.0143 102.696 41.1042L95.6178 34.9244C88.8762 29.3064 85.6177 21.4413 87.3031 12.7896C88.202 8.07049 91.4604 2.90195 96.2919 1.21656C101.236 -0.581197 107.415 0.0929604 111.123 4.1379C112.135 4.81206 112.809 5.71094 113.258 6.72217Z" fill="#8D96B2"/>
<path fill-rule="evenodd" clip-rule="evenodd" d="M50.0005 64.6999H38.0904V1.55382H50.0005V64.6999Z" fill="#8D96B2"/>
<path fill-rule="evenodd" clip-rule="evenodd" d="M84.0445 11.4415H69.6625V27.1718H80.449V37.6212H69.7749V54.6999H84.7187V64.6999H57.9771V1.55382H84.0445V11.4415Z" fill="#8D96B2"/>
<path fill-rule="evenodd" clip-rule="evenodd" d="M148.877 11.2167H134.72L134.607 27.1718H145.394V37.6212H134.944V54.5875H149.888V64.6999H122.922V1.55382H148.877V11.2167Z" fill="#8D96B2"/>
<path fill-rule="evenodd" clip-rule="evenodd" d="M166.742 54.4752H180V64.6999H155.056V1.55382H166.742V54.4752Z" fill="#8D96B2"/>
<path fill-rule="evenodd" clip-rule="evenodd" d="M27.6404 10.2055C24.4944 3.80101 17.7528 1.66618 11.1236 1.55382H0V64.6999H13.8202C18.8764 64.3628 23.7079 62.6774 26.7416 58.2954C29.7753 53.4639 30.6742 47.6212 30.8989 41.5538V30.5426C30.8989 23.3516 30.6742 16.1606 27.6404 10.2055ZM18.8764 45.9358C18.5393 49.3066 18.2022 53.3516 14.4944 54.6999C13.5955 55.037 12.4719 54.9246 11.573 54.8122V11.4415C13.7079 11.4415 16.0674 11.5538 17.191 13.5763C18.6517 16.2729 18.764 19.6437 18.9888 22.9021L18.8764 45.9358Z" fill="#8D96B2"/>
</svg>
