<svg width="185" height="108" viewBox="0 0 185 108" fill="none" xmlns="http://www.w3.org/2000/svg">
<path d="M7.9108 86.5242C11.9646 89.9897 16.4916 92.8597 21.3554 95.0476C26.8868 97.5279 31.4536 98.4924 34.7212 99.1617C41.0794 100.461 45.784 100.579 52.8901 100.736C58.8545 100.874 64.819 100.697 70.7834 100.244C75.8621 99.8507 81.8462 99.142 87.2397 98.4924C89.4051 98.2365 90.7436 98.0594 91.8263 97.9412C103.145 96.6027 112.003 95.835 115.113 95.5791C118.696 95.2838 122.731 94.9492 128.164 94.6342C133.302 94.339 137.731 94.1815 141.254 94.0831C144.798 94.0437 148.538 94.1224 152.435 94.3193C156.274 94.5161 159.935 94.8114 163.399 95.1657C165.565 95.4216 167.907 95.7759 170.387 96.3074C172.572 96.7602 174.62 97.2917 176.49 97.8428L184.462 101.091C182.001 100.599 179.442 100.146 176.785 99.7325C174.994 99.457 173.242 99.2207 171.529 99.0239C169.541 98.8271 166.667 98.5712 163.203 98.4727C159.128 98.3546 155.624 98.453 148.105 98.9255C143.242 99.2404 138.577 99.5357 131.825 100.166C127.514 100.559 120.33 101.091 111.157 102.488C106.117 103.256 100.999 104.004 95.8025 104.693C91.8459 105.225 87.9287 105.73 84.0508 106.209C80.2714 106.76 76.177 107.213 71.7873 107.449C68.8937 107.606 66.1378 107.665 63.5198 107.646C60.3506 107.705 57.6341 107.665 55.5082 107.587C53.2641 107.508 51.0988 107.37 49.0122 107.193C46.8666 106.996 44.5832 106.721 42.1817 106.347C39.5833 105.933 37.1621 105.441 34.8984 104.91C32.7756 104.297 30.6862 103.574 28.6387 102.744C26.7096 101.957 24.938 101.13 23.3435 100.323C20.8042 98.8861 18.8161 97.9019 16.3949 95.9925C15.2335 94.8508 13.3831 93.5713 12.1627 92.1737C10.6863 90.3627 9.24935 88.4926 7.9108 86.5242Z" fill="#8D96B2"/>
<path d="M68.8741 36.1316C67.7919 33.6807 65.9852 31.6199 63.697 30.2262C59.1579 27.5562 54.1443 25.7914 48.9336 25.0295C46.7683 24.7736 44.3865 24.5767 41.8471 24.5177C39.1947 24.4453 36.5402 24.511 33.8946 24.7145C25.3997 25.3072 17.3352 28.6755 10.9423 34.3009C7.85601 37.0717 5.34736 40.4247 3.56038 44.1676C1.7734 47.9104 0.743279 51.9694 0.529165 56.1115C0.29295 60.6192 1.55276 64.0247 2.10393 65.6585C2.98842 68.3099 4.23368 70.8269 5.80464 73.1386C7.59654 75.3865 9.60772 77.4504 11.8084 79.2999C14.4272 81.4712 17.2871 83.3338 20.3319 84.851C28.5207 88.8863 36.7488 89.1225 40.8039 88.9847C46.0598 89.0866 51.292 88.2535 56.2563 86.5242C57.8507 85.9533 59.5633 85.284 61.3349 84.4573C62.949 83.7093 64.4451 82.9416 65.8033 82.1936L61.768 73.926L55.1736 75.7961C50.7101 76.5441 46.1532 76.5441 41.6897 75.7961C38.0112 74.6708 34.6427 72.7104 31.8474 70.0678C30.5515 68.8406 29.5173 67.3639 28.8069 65.7266C28.0965 64.0893 27.7246 62.3252 27.7136 60.5405L37.3197 60.383C41.1471 60.1756 44.9519 59.6622 48.6974 58.8476C51.4424 58.2592 54.1504 57.5099 56.8074 56.6036C58.9859 56.0142 61.0444 55.0482 62.89 53.7493C64.7018 52.5634 66.2552 51.0234 67.4568 49.2218C68.6991 47.3183 69.5181 45.1702 69.8583 42.9228C70.1338 40.6119 69.7943 38.2692 68.8741 36.1316ZM49.6422 46.466C47.0832 50.0683 42.7723 50.4423 42.0637 50.5013L27.438 50.462C27.3396 49.3793 26.9656 43.9464 30.9222 39.3008C31.4143 38.7103 34.6229 35.0686 39.9771 34.2419C41.5912 33.986 44.4258 33.5726 47.221 35.1867C47.91 35.6001 50.6462 37.1749 51.2564 40.3638C51.8469 43.3952 50.154 45.7573 49.6422 46.466Z" fill="#8D96B2"/>
<path d="M23.4028 0.640219C25.3074 7.54829 29.5428 13.585 35.3907 17.7265C37.9574 19.2359 40.6926 20.4383 43.5401 21.3091C48.8353 22.9429 54.2879 22.8248 58.9925 22.8444H59.4256C55.9964 20.0655 52.4148 17.4802 48.6975 15.1005C44.4585 12.3985 40.0461 9.97865 35.4891 7.8566C37.8119 8.46682 39.7213 9.07704 41.1583 9.56916C42.7732 10.0886 44.3571 10.6998 45.9023 11.3998C47.3561 12.0855 48.7692 12.8545 50.1344 13.7029C51.4533 14.4903 52.4179 15.1596 54.9769 16.9509C56.5123 18.0335 58.461 19.4115 60.7051 21.0256C59.452 17.7238 57.7497 14.6106 55.6461 11.7738C53.6186 9.03767 52.162 7.04953 49.4455 5.35665C46.9849 3.82125 43.0874 2.26617 43.0874 2.26617C36.6892 0.476153 30.0085 -0.0783425 23.4028 0.632346V0.640219Z" fill="#8D96B2"/>
<path d="M62.1421 57.2729C63.6822 60.0184 65.0752 62.8438 66.3152 65.7372C67.2601 67.9419 67.9688 69.9497 69.4057 73.9457C70.7443 77.7055 71.4332 79.5952 72.1025 81.8786C72.8505 84.4376 73.5592 87.2919 74.1497 90.402C78.7408 90.6539 83.3431 90.189 87.7911 89.0241C89.7324 88.4788 91.6023 87.7057 93.3619 86.721C95.0255 85.6017 96.4894 84.211 97.6925 82.6069C98.283 81.7408 99.1295 80.4613 100.055 78.8472C101.511 76.3472 102.417 74.3788 102.811 73.5323C107.456 63.5326 103.775 72.1347 109.247 59.8909C113.165 51.1116 116.55 43.3362 118.991 37.6867C119.661 36.1513 120.428 34.5568 121.314 32.9033C121.806 31.9781 122.298 31.112 122.81 30.2656C123.696 28.9892 124.81 27.888 126.097 27.0176L128.341 25.5019H107.318C104.632 26.0005 102.25 27.5346 100.685 29.7735C98.4602 35.2655 96.2358 40.9346 94.0508 46.7613C91.4525 53.7493 89.0444 60.5733 86.8266 67.2333C84.2273 58.4967 80.2394 50.2352 75.0158 42.7653C74.5488 46.6936 72.6579 50.3143 69.701 52.9422C68.6354 53.9071 67.4822 54.7704 66.2562 55.5209C64.9683 56.2842 63.5849 56.8734 62.1421 57.2729Z" fill="#8D96B2"/>
<path d="M179.482 83.2959C179.199 81.8285 179.035 80.3409 178.99 78.8472C178.832 75.1858 178.832 72.2725 178.813 70.3434C178.773 63.0208 178.714 63.0601 178.773 60.9342C178.813 60.0877 178.891 57.8437 178.911 55.6193C178.911 55.3634 178.911 54.5367 178.931 53.3556C178.951 52.0367 178.951 51.584 178.951 51.1313C178.993 49.6076 178.947 48.0827 178.813 46.5644C178.613 43.8836 177.87 41.2715 176.628 38.8874C175.863 37.2358 174.912 35.6772 173.793 34.2419C171.608 31.5057 169.226 30.049 167.553 29.0451C165.678 27.9251 163.676 27.033 161.589 26.3877C159.004 25.542 156.328 25.0068 153.616 24.7933C152.298 24.6555 151.018 24.5964 149.935 24.557C148.951 24.5177 147.337 24.4389 145.31 24.4586C143.085 24.4783 141.51 24.498 139.384 24.7539C137.652 24.9704 136.255 25.1476 134.424 25.7972C132.896 26.3299 131.446 27.0648 130.113 27.9822C127.853 29.6342 126.017 31.8 124.759 34.3009C124.129 35.4623 123.499 36.6828 122.869 37.9819C122.16 39.478 121.511 40.9149 120.94 42.2929C124.169 40.8362 127.531 39.6957 130.979 38.8874C133.971 38.1985 137.908 37.3127 143.026 37.6867C146.687 37.9426 151.431 38.3559 154.443 41.7417C154.738 42.0763 156.864 44.5172 156.116 45.9345C155.585 46.9188 153.872 46.9384 152.416 46.9778C148.813 47.0369 145.231 47.2337 141.648 47.4896C137.811 47.7462 134.014 48.4329 130.33 49.5368C127.381 50.365 124.531 51.5066 121.826 52.9422C118.807 54.4725 116.242 56.7664 114.385 59.5956C112.168 62.8846 111.084 66.8069 111.297 70.7678C111.51 74.7286 113.009 78.5119 115.566 81.544C119.857 86.7801 125.566 88.0596 127.278 88.3942C132.811 89.0277 138.402 88.9417 143.912 88.1383C149.216 87.6047 154.096 85.002 157.494 80.8944C158.512 82.487 159.837 83.8608 161.392 84.9355C162.946 86.0103 164.7 86.7645 166.549 87.1541C168.675 87.3509 170.998 87.4887 173.498 87.4887C175.998 87.4887 178.38 87.3509 180.525 87.1541C180.093 85.8924 179.744 84.6035 179.482 83.2959ZM156.727 62.5404C156.51 64.5483 156.372 65.7294 155.742 67.2254C155.131 68.6767 154.242 69.9941 153.124 71.1032C151.879 72.3058 150.397 73.2374 148.774 73.8394C146.76 74.6068 144.607 74.9421 142.455 74.8236C140.211 74.7055 137.967 74.5874 135.94 72.8946C135.487 72.5205 133.341 70.6702 133.066 67.5797C132.829 65.001 134.05 63.0522 134.463 62.4027C137.18 58.1902 142.77 57.3831 147.495 56.7138C150.606 56.2809 153.758 56.2214 156.884 56.5366C156.989 58.5389 156.937 60.5464 156.727 62.5404Z" fill="#8D96B2"/>
</svg>
