<svg width="180" height="106" viewBox="0 0 180 106" fill="none" xmlns="http://www.w3.org/2000/svg">
<path d="M9.15527e-05 68.9747L0.239319 37.0106H4.76474L15.9686 64.28L27.1526 37.0106H31.4587L31.5983 68.9747H27.9899L27.8504 41.7053L16.8059 68.9747H13.8156L2.7911 41.6454L2.69142 68.9747H9.15527e-05Z" fill="#8D96B2"/>
<path d="M46.7696 67.4363C44.6771 66.0708 43.0498 64.0986 42.1046 61.7826C39.9515 56.1555 39.9515 49.9293 42.1046 44.3022C43.0604 41.9873 44.6849 40.0115 46.7696 38.6286C48.9537 37.2603 51.491 36.5655 54.0661 36.6308C56.6533 36.5682 59.2026 37.2624 61.4024 38.6286C63.469 40.021 65.0782 41.9951 66.0275 44.3022C68.2074 49.9243 68.2074 56.1605 66.0275 61.7826C65.0673 64.1014 63.4265 66.0731 61.3227 67.4363C59.1229 68.8024 56.5735 69.4966 53.9863 69.434C51.4383 69.4836 48.9309 68.7895 46.7696 67.4363ZM61.2828 63.4407C63.1635 60.2961 64.04 56.6504 63.7947 52.9925C64.022 49.3424 63.1467 45.7084 61.2828 42.5642C60.4823 41.4039 59.399 40.4681 58.1359 39.8457C56.8727 39.2233 55.4717 38.935 54.0661 39.0082C52.6691 38.9434 51.2792 39.2424 50.0319 39.8761C48.7847 40.5099 47.7225 41.4566 46.949 42.6241C45.1038 45.7533 44.2358 49.3645 44.457 52.9925C44.224 56.6354 45.0775 60.2654 46.9091 63.4208C47.6988 64.5776 48.7715 65.512 50.0245 66.1346C51.2776 66.7572 52.6692 67.0472 54.0661 66.9768C55.4655 67.0508 56.861 66.7692 58.1227 66.1579C59.3844 65.5467 60.4715 64.6258 61.2828 63.4807V63.4407Z" fill="#8D96B2"/>
<path d="M74.0018 68.9747V66.977L91.2064 39.4678H74.4404V37.0106H95.7318V39.0083L78.5073 66.4575H95.7318V68.9747H74.0018Z" fill="#8D96B2"/>
<path d="M100.875 68.9747L111.56 37.0106H115.867L126.413 68.9747H122.565L119.236 59.1857H106.776L103.447 68.9747H100.875ZM107.454 57.168H118.598L113.076 39.9872L107.454 57.168Z" fill="#8D96B2"/>
<path d="M134.028 37.0104H141.783C144.537 36.8479 147.248 37.7487 149.359 39.5276C150.302 40.4689 151.033 41.6009 151.504 42.8481C151.975 44.0952 152.175 45.4287 152.09 46.7595C152.181 48.9266 151.619 51.0709 150.475 52.9126C149.452 54.4739 147.968 55.6754 146.229 56.3487L154.203 68.8347H149.957L142.681 57.028H137.796V68.9746H134.088L134.028 37.0104ZM141.783 54.9903C142.666 55.0608 143.552 54.9343 144.38 54.6199C145.207 54.3056 145.954 53.8111 146.568 53.1723C147.817 51.3932 148.39 49.2247 148.183 47.0592C148.183 41.905 145.904 39.3279 141.345 39.3279H137.796V54.9903H141.783Z" fill="#8D96B2"/>
<path d="M167.101 68.9747V39.4479H158.071V37.0106H180V39.3679H170.909V68.9747H167.101Z" fill="#8D96B2"/>
<path d="M57.8934 13.3174C57.0729 12.7544 56.4353 11.9625 56.0593 11.04C55.1836 8.74362 55.1836 6.20429 56.0593 3.90796C56.4712 2.94904 57.1671 2.14007 58.0529 1.59055C58.9621 1.06453 59.9935 0.787601 61.0433 0.787601C62.0931 0.787601 63.1245 1.06453 64.0337 1.59055C64.9178 2.14203 65.6132 2.95041 66.0272 3.90796C66.9301 6.1992 66.9301 8.74871 66.0272 11.04C65.6132 11.9975 64.9178 12.8059 64.0337 13.3574C63.1245 13.8834 62.0931 14.1603 61.0433 14.1603C59.9935 14.1603 58.9621 13.8834 58.0529 13.3574L57.8934 13.3174ZM63.8742 11.6992C64.5557 10.3848 64.9115 8.92525 64.9115 7.44398C64.9115 5.96271 64.5557 4.50321 63.8742 3.18876C63.5561 2.70832 63.1185 2.31929 62.6046 2.06004C62.0907 1.80079 61.5182 1.68029 60.9436 1.71042C60.3717 1.67981 59.8019 1.80026 59.2911 2.0597C58.7803 2.31915 58.3464 2.70849 58.033 3.18876C57.2756 4.47279 56.9214 5.95547 57.0163 7.44398C56.9262 8.92954 57.2728 10.409 58.0131 11.6992C58.3573 12.1507 58.8008 12.5165 59.309 12.7683C59.8173 13.0202 60.3766 13.1512 60.9436 13.1512C61.5106 13.1512 62.07 13.0202 62.5782 12.7683C63.0865 12.5165 63.5299 12.1507 63.8742 11.6992Z" fill="#8D96B2"/>
<path d="M70.0143 0.931472H74.0014C74.8003 0.885347 75.5997 1.01125 76.3459 1.30072C77.0921 1.59018 77.7678 2.03648 78.3275 2.60958C79.3323 4.01679 79.8726 5.7038 79.8726 7.43417C79.8726 9.16454 79.3323 10.8515 78.3275 12.2588C77.7623 12.8288 77.0823 13.2715 76.3329 13.5574C75.5835 13.8433 74.7819 13.9659 73.9815 13.9169H70.0143V0.931472ZM74.0014 12.918C76.8124 12.918 78.2278 11.0801 78.2278 7.42418C78.2278 3.76829 76.8124 1.85044 73.9815 1.85044H71.6091V13.0379L74.0014 12.918Z" fill="#8D96B2"/>
<path d="M83.5307 13.917V0.931583H90.5083V1.8905H85.0459V6.88489H90.0497V7.80386H85.0459V13.038H91.0266V13.9969L83.5307 13.917Z" fill="#8D96B2"/>
<path d="M95.0939 13.7375C94.6273 13.5464 94.2012 13.2685 93.8379 12.9184C93.672 12.776 93.5306 12.6073 93.4193 12.419L93.9177 11.6398C94.0262 11.8008 94.1533 11.9483 94.2965 12.0793C94.6242 12.3821 95.002 12.6254 95.4129 12.7985C95.9798 13.039 96.5917 13.1548 97.2071 13.1382C97.5726 13.1632 97.9393 13.1102 98.283 12.9828C98.6266 12.8554 98.9394 12.6564 99.2007 12.399C99.4365 12.1643 99.6219 11.8837 99.7454 11.5745C99.8688 11.2652 99.9277 10.9339 99.9184 10.601C99.9387 10.1597 99.8125 9.72416 99.5595 9.3624C99.338 9.02706 99.0365 8.7524 98.6823 8.56329C98.2186 8.30678 97.7392 8.07991 97.247 7.88405C96.6747 7.64841 96.1156 7.38164 95.5723 7.08494C95.1387 6.81753 94.7707 6.45563 94.4958 6.02613C94.1984 5.51134 94.0532 4.92241 94.0772 4.32804C94.0544 3.84481 94.1332 3.36217 94.3083 2.91136C94.4835 2.46055 94.7511 2.05161 95.0939 1.71099C95.8676 1.04547 96.8664 0.702303 97.8849 0.752058C98.4063 0.7458 98.9251 0.826829 99.42 0.991794C99.8022 1.13523 100.169 1.31588 100.516 1.53118C100.796 1.73096 100.935 1.83086 100.935 1.87081L100.736 2.74981C100.736 2.74981 100.616 2.60998 100.337 2.43018C100.029 2.21316 99.6942 2.03846 99.3402 1.91076C98.9002 1.74701 98.434 1.66575 97.9646 1.67102C97.6427 1.65119 97.32 1.69573 97.0154 1.80206C96.7108 1.90838 96.4303 2.07437 96.1904 2.29034C95.9731 2.51001 95.8041 2.77278 95.6943 3.06178C95.5844 3.35078 95.5361 3.65962 95.5524 3.96845C95.5365 4.40297 95.6625 4.83083 95.9113 5.18708C96.1381 5.51778 96.4384 5.79131 96.7884 5.98619C97.246 6.23546 97.7187 6.45565 98.2039 6.64545C98.7843 6.87036 99.3445 7.14437 99.8785 7.46452C100.375 7.76007 100.78 8.18657 101.051 8.69742C101.322 9.20827 101.447 9.78384 101.414 10.3613C101.44 11.0611 101.267 11.7539 100.915 12.359C100.573 12.9401 100.067 13.4061 99.4598 13.6975C98.7912 14.029 98.0525 14.1935 97.3068 14.177C96.5472 14.1807 95.7946 14.0312 95.0939 13.7375Z" fill="#8D96B2"/>
<path d="M105.659 13.7366C105.193 13.5456 104.767 13.2676 104.403 12.9175C104.239 12.7789 104.104 12.6092 104.005 12.4181L104.503 11.639C104.601 11.8018 104.722 11.9498 104.862 12.0785C105.19 12.3812 105.567 12.6245 105.978 12.7977C106.545 13.0381 107.157 13.1539 107.773 13.1373C108.138 13.1623 108.505 13.1094 108.848 12.9819C109.192 12.8545 109.505 12.6555 109.766 12.3981C110.002 12.1635 110.187 11.8829 110.311 11.5736C110.434 11.2644 110.493 10.9331 110.484 10.6001C110.51 10.1611 110.391 9.72576 110.145 9.36153C109.911 9.02994 109.604 8.75657 109.248 8.56242C108.786 8.30198 108.306 8.07498 107.812 7.88317C107.245 7.65203 106.692 7.38513 106.158 7.08407C105.714 6.82313 105.338 6.46024 105.061 6.02526C104.764 5.51046 104.619 4.92153 104.643 4.32717C104.619 3.84203 104.699 3.35738 104.878 2.90591C105.056 2.45444 105.33 2.04667 105.679 1.71011C106.448 1.04942 107.439 0.706579 108.45 0.751178C108.942 0.774956 109.426 0.876085 109.886 1.05084C110.268 1.19428 110.635 1.37493 110.982 1.59023C111.261 1.79001 111.421 1.88991 111.421 1.92986L111.201 2.80887C111.201 2.80887 111.082 2.66903 110.803 2.48923C110.495 2.27221 110.16 2.09751 109.806 1.96981C109.366 1.80607 108.9 1.7248 108.43 1.73008C108.108 1.71025 107.786 1.7548 107.481 1.86112C107.177 1.96745 106.896 2.13342 106.656 2.34939C106.439 2.56906 106.27 2.83183 106.16 3.12083C106.05 3.40983 106.002 3.71867 106.018 4.0275C106.002 4.46202 106.128 4.88988 106.377 5.24613C106.604 5.57684 106.904 5.85036 107.254 6.04524C107.712 6.29451 108.184 6.51471 108.67 6.7045C109.254 6.93399 109.821 7.2078 110.364 7.52358C110.804 7.8007 111.172 8.17698 111.441 8.62235C111.758 9.16611 111.911 9.791 111.879 10.4203C111.905 11.1201 111.733 11.8129 111.381 12.4181C111.039 12.9992 110.533 13.4651 109.926 13.7566C109.257 14.0881 108.518 14.2526 107.773 14.236C107.043 14.2077 106.325 14.0381 105.659 13.7366Z" fill="#8D96B2"/>
<path d="M114.132 13.917L118.498 0.931583H120.272L124.559 13.917H122.984L121.628 9.9215H116.544L115.189 13.917H114.132ZM116.824 9.04248H121.369L119.116 2.03034L116.824 9.04248Z" fill="#8D96B2"/>
<path d="M19.6174 105.034V92.0487H21.4714L26.1563 103.176L30.7216 92.0487H32.4759V105.034H31.0007V93.9066L26.5151 105.034H25.2991L20.7936 93.9066V105.034H19.6174Z" fill="#8D96B2"/>
<path d="M38.6959 104.435C37.8157 103.888 37.1209 103.087 36.7024 102.138C36.2406 101.004 36.0167 99.7863 36.0445 98.5617C36.0166 97.3436 36.2406 96.1329 36.7024 95.0057C37.1153 94.0475 37.811 93.2388 38.6959 92.6883C39.6017 92.1523 40.6344 91.8696 41.6863 91.8696C42.7382 91.8696 43.7709 92.1523 44.6767 92.6883C45.565 93.2348 46.2617 94.0447 46.6702 95.0057C47.1487 96.1284 47.3799 97.3413 47.3481 98.5617C47.3796 99.7885 47.1485 101.008 46.6702 102.138C46.256 103.09 45.5602 103.892 44.6767 104.435C43.7675 104.961 42.7361 105.238 41.6863 105.238C40.6365 105.238 39.6051 104.961 38.6959 104.435ZM44.6767 102.817C45.4553 101.541 45.8177 100.054 45.7133 98.5617C45.8073 97.0707 45.4456 95.5864 44.6767 94.3065C44.3558 93.8289 43.9176 93.442 43.4044 93.1831C42.8912 92.9242 42.3201 92.802 41.7461 92.8282C41.1751 92.8035 40.6074 92.9266 40.0976 93.1855C39.5879 93.4444 39.1532 93.8305 38.8355 94.3065C38.1728 95.6267 37.8277 97.0839 37.8277 98.5617C37.8277 100.039 38.1728 101.497 38.8355 102.817C39.1797 103.268 39.6232 103.634 40.1314 103.886C40.6397 104.138 41.1991 104.269 41.766 104.269C42.333 104.269 42.8924 104.138 43.4006 103.886C43.9089 103.634 44.3524 103.268 44.6966 102.817H44.6767Z" fill="#8D96B2"/>
<path d="M49.82 105.034V104.235L56.8374 92.9477H50.0792V91.9888H58.7712V92.9477L51.7339 104.155H58.7712V105.114L49.82 105.034Z" fill="#8D96B2"/>
<path d="M60.7841 105.034L65.15 92.0487H66.9243L71.2105 105.034H69.6356L68.2799 101.039H63.1963L61.8407 105.034H60.7841ZM63.4754 100.22H68.0208L65.768 93.2074L63.4754 100.22Z" fill="#8D96B2"/>
<path d="M74.3205 92.0487H77.4504C78.5745 91.9905 79.6788 92.3617 80.5404 93.0875C80.925 93.4688 81.2236 93.9281 81.4162 94.4347C81.6087 94.9412 81.6908 95.4832 81.6568 96.0242C81.6986 96.9109 81.4691 97.7891 80.999 98.5414C80.5824 99.1791 79.9753 99.6685 79.2645 99.9398L82.5141 105.034H80.7797L77.8092 100.22H75.8157V105.034H74.3005L74.3205 92.0487ZM77.4504 99.3205C77.8166 99.3537 78.1856 99.3045 78.5305 99.1766C78.8754 99.0488 79.1875 98.8454 79.444 98.5814C79.9526 97.8538 80.1858 96.9685 80.1019 96.0842C80.1019 94.0864 79.1649 92.9277 77.3109 92.9277H75.8755V99.3205H77.4504Z" fill="#8D96B2"/>
<path d="M87.8175 105.035V93.0488H84.1293V92.0899H93.0406V92.9489H89.3326V104.935L87.8175 105.035Z" fill="#8D96B2"/>
<path d="M101.752 103.477C100.751 102.049 100.259 100.324 100.357 98.582C100.254 96.8081 100.791 95.0564 101.872 93.6475C102.409 93.0497 103.072 92.5797 103.814 92.2721C104.556 91.9644 105.357 91.8269 106.158 91.8695C106.758 91.8665 107.355 91.9472 107.932 92.1092C108.426 92.2447 108.907 92.4252 109.368 92.6486L109.966 92.9683L109.786 93.9272L109.208 93.6275C108.775 93.4256 108.329 93.2521 107.873 93.1081C107.369 92.9506 106.845 92.8698 106.318 92.8684C105.697 92.8203 105.073 92.9264 104.503 93.1773C103.933 93.4282 103.433 93.8161 103.048 94.3068C102.24 95.5788 101.862 97.078 101.972 98.582C101.877 100.067 102.238 101.545 103.008 102.817C103.336 103.274 103.772 103.642 104.276 103.89C104.78 104.137 105.338 104.256 105.899 104.236C106.291 104.273 106.687 104.228 107.061 104.104C107.435 103.98 107.779 103.78 108.072 103.516C108.484 103.121 108.786 102.626 108.949 102.078V99.1414H106.298V98.2823H110.285V105.035H109.547L109.168 103.616C108.828 104.102 108.377 104.499 107.853 104.775C107.197 105.101 106.471 105.259 105.739 105.235C104.983 105.282 104.226 105.147 103.533 104.841C102.839 104.535 102.228 104.067 101.752 103.477Z" fill="#8D96B2"/>
<path d="M114.432 92.0491H117.562C118.686 91.9889 119.791 92.3603 120.652 93.0879C121.036 93.4691 121.335 93.9285 121.528 94.4351C121.72 94.9416 121.802 95.4836 121.768 96.0246C121.81 96.9113 121.581 97.7895 121.11 98.5418C120.694 99.1795 120.087 99.6689 119.376 99.9402L122.626 105.035H120.891L117.861 100.22H115.867V105.035H114.352L114.432 92.0491ZM117.562 99.3209C117.928 99.357 118.298 99.3092 118.643 99.1811C118.989 99.0531 119.301 98.8481 119.555 98.5817C120.064 97.8542 120.297 96.9689 120.213 96.0845C120.213 94.0868 119.296 92.9281 117.422 92.9281H115.867V99.3209H117.562Z" fill="#8D96B2"/>
<path d="M127.629 104.435C126.746 103.891 126.05 103.09 125.635 102.137C125.174 101.003 124.95 99.7859 124.978 98.5613C124.95 97.3432 125.174 96.1325 125.635 95.0053C126.044 94.0443 126.741 93.2344 127.629 92.6879C128.516 92.1263 129.55 91.8413 130.599 91.8688C131.655 91.8444 132.694 92.1291 133.59 92.6879C134.471 93.2423 135.166 94.0498 135.583 95.0053C136.045 96.1325 136.269 97.3432 136.241 98.5613C136.269 99.7859 136.045 101.003 135.583 102.137C135.161 103.084 134.467 103.884 133.59 104.435C132.692 104.988 131.653 105.265 130.599 105.234C129.552 105.269 128.518 104.99 127.629 104.435ZM133.61 102.817C134.372 101.534 134.726 100.05 134.627 98.5613C134.715 97.0733 134.361 95.5924 133.61 94.3061C133.283 93.8296 132.841 93.444 132.325 93.1855C131.809 92.9269 131.236 92.8038 130.659 92.8278C130.089 92.805 129.522 92.9289 129.012 93.1877C128.503 93.4464 128.068 93.8314 127.749 94.3061C126.997 95.5924 126.643 97.0733 126.732 98.5613C126.632 100.05 126.987 101.534 127.749 102.817C128.066 103.292 128.501 103.676 129.011 103.932C129.522 104.187 130.09 104.306 130.659 104.275C131.224 104.293 131.785 104.169 132.29 103.914C132.794 103.659 133.228 103.282 133.55 102.817H133.61Z" fill="#8D96B2"/>
<path d="M140.807 104.035C140.409 103.6 140.101 103.09 139.903 102.534C139.704 101.978 139.618 101.388 139.65 100.799V92.0487H141.145V100.459C141.077 101.456 141.359 102.446 141.943 103.256C142.234 103.582 142.595 103.838 142.999 104.004C143.403 104.17 143.84 104.242 144.275 104.215C144.725 104.248 145.177 104.176 145.595 104.007C146.013 103.837 146.387 103.573 146.688 103.236C147.257 102.426 147.538 101.448 147.485 100.459V92.0487H148.582V100.799C148.641 101.982 148.241 103.142 147.465 104.035C146.529 104.812 145.351 105.236 144.136 105.236C142.92 105.236 141.743 104.812 140.807 104.035Z" fill="#8D96B2"/>
<path d="M152.967 92.0484H156.077C157.208 91.983 158.321 92.3548 159.187 93.0872C159.576 93.4937 159.875 93.9779 160.064 94.5081C160.252 95.0383 160.327 95.6025 160.284 96.1638C160.319 97.0356 160.112 97.9001 159.686 98.661C159.319 99.2654 158.786 99.751 158.151 100.059C157.522 100.334 156.843 100.477 156.157 100.479H154.522V105.034H153.007L152.967 92.0484ZM155.898 99.6399C157.752 99.6399 158.689 98.5011 158.689 96.2237C158.76 95.3378 158.504 94.4566 157.971 93.7465C157.717 93.4747 157.407 93.2608 157.063 93.1195C156.719 92.9782 156.349 92.9127 155.977 92.9274H154.542V99.6399H155.898Z" fill="#8D96B2"/>
</svg>
