<svg width="181" height="36" viewBox="0 0 181 36" fill="none" xmlns="http://www.w3.org/2000/svg">
<path fill-rule="evenodd" clip-rule="evenodd" d="M38.7919 9.3828H47.1622L38.2715 35.8996H29.0129L23.9175 18.3413L18.6119 35.8996H9.45793L0.25 9.3828H8.62473L13.8642 26.6482L19.6518 9.3828H28.1802L33.0068 26.6482L38.7919 9.3828Z" fill="#8D96B2"/>
<path fill-rule="evenodd" clip-rule="evenodd" d="M67.1888 30.4617V25.2883H58.0348C57.1676 25.2883 56.4287 25.5339 55.8246 26.0265C55.2171 26.5152 54.9141 27.1644 54.9141 27.9763C54.9141 28.6887 55.2108 29.2769 55.7989 29.7508C56.3893 30.2257 57.0658 30.4617 57.8261 30.4617H67.1888ZM74.6276 35.8868H55.1768C52.9908 35.8868 51.1246 35.164 49.5822 33.7173C48.0389 32.2712 47.2674 30.4431 47.2674 28.2324C47.2674 25.9197 47.967 24.0074 49.3693 22.4917C50.7729 20.9814 52.5248 20.2222 54.6388 20.2222H67.1888V18.7885C67.1888 18.3448 67.1124 17.9637 66.9548 17.6373C66.7991 17.3122 66.5496 16.9287 66.2014 16.485C65.7217 15.9412 65.2194 15.5903 64.6988 15.4362C64.1789 15.2806 63.4541 15.2045 62.5207 15.2045H49.0904V9.37001H62.87C65.4032 9.37001 67.2918 9.58255 68.5404 10.0086C69.7895 10.4356 70.8649 11.0732 71.7672 11.9268C72.9126 13.0508 73.6733 14.2743 74.0572 15.6018C74.4341 16.932 74.6276 18.6348 74.6276 20.7134V35.8868Z" fill="#8D96B2"/>
<path fill-rule="evenodd" clip-rule="evenodd" d="M79.8246 35.8867H87.1638V0.106934H79.8246V35.8867Z" fill="#8D96B2"/>
<path fill-rule="evenodd" clip-rule="evenodd" d="M121.384 35.8867H111.163L100.007 22.9852L111.214 9.2679H121.334L109.163 22.731L121.384 35.8867ZM92.3123 35.8867H99.6427V0.106934H92.3123V35.8867Z" fill="#8D96B2"/>
<path fill-rule="evenodd" clip-rule="evenodd" d="M142.738 19.5192C142.627 16.3276 141.221 14.7331 138.517 14.7331H131.635C129.121 14.7331 127.863 16.3276 127.863 19.5192H142.738ZM129.577 35.8457C126.577 35.8457 124.293 34.9023 122.722 33.0109C121.148 31.1224 120.362 28.6562 120.362 25.6135V18.9275C120.362 17.2606 120.692 15.6851 121.355 14.1998C122.016 12.7105 123.05 11.5037 124.455 10.5726C125.857 9.64346 127.606 9.17815 129.705 9.17815H140.313C143.685 9.17815 146.106 10.2146 147.58 12.2826C149.057 14.3553 149.793 16.9288 149.793 20.0049V24.4813H127.818V25.5073C127.818 28.6978 129.021 30.2957 131.419 30.2957H140.04C140.834 30.2957 141.473 30.0558 141.954 29.5777C142.434 29.1013 142.693 28.4628 142.738 27.6628V27.1234H149.793V27.6628C149.793 33.1186 146.689 35.8457 140.492 35.8457H129.577Z" fill="#8D96B2"/>
<path fill-rule="evenodd" clip-rule="evenodd" d="M152.981 35.7945V9.17815H160.441V13.0461C161.091 12.1198 161.633 11.4132 162.069 10.9422C162.496 10.4668 163.106 10.0566 163.88 9.70474C164.66 9.35385 165.642 9.17815 166.828 9.17815H170.545C174.208 9.17815 176.73 10.1538 178.106 12.1002C179.487 14.0475 180.201 16.6829 180.25 20.0049H172.793C172.579 18.9735 172.357 18.1453 172.117 17.5239C171.878 16.9087 171.459 16.387 170.853 15.9624C170.252 15.5377 169.404 15.3213 168.305 15.3213H165.563C164.073 15.3213 162.841 15.9356 161.886 17.1577C160.921 18.3813 160.441 19.9054 160.441 21.7303V35.7945H152.981Z" fill="#8D96B2"/>
</svg>
