<svg width="19" height="19" viewBox="0 0 19 19" fill="none" xmlns="http://www.w3.org/2000/svg">
<path d="M12.4988 18.0376V11.0716H14.8318L15.1808 8.3636H12.4988V6.6356C12.4988 5.8516 12.7168 5.3166 13.8408 5.3166H15.2748V2.8946C14.5806 2.82094 13.8829 2.78522 13.1848 2.7876C11.1178 2.7876 9.70282 4.0496 9.70282 6.3676V8.3636H7.36482V11.0716H9.70282V18.0376H1.09682C0.831601 18.0376 0.577247 17.9322 0.38971 17.7447C0.202174 17.5572 0.096817 17.3028 0.096817 17.0376V1.0376C0.096817 0.772381 0.202174 0.518027 0.38971 0.330491C0.577247 0.142954 0.831601 0.0375977 1.09682 0.0375977H17.0968C17.362 0.0375977 17.6164 0.142954 17.8039 0.330491C17.9915 0.518027 18.0968 0.772381 18.0968 1.0376V17.0376C18.0968 17.3028 17.9915 17.5572 17.8039 17.7447C17.6164 17.9322 17.362 18.0376 17.0968 18.0376H12.4988Z" fill="#8D96B2"/>
</svg>
